<?xml version="1.0" encoding="utf-8"?>
<!-- Generator: Adobe Illustrator 23.0.1, SVG Export Plug-In . SVG Version: 6.00 Build 0)  -->
<svg version="1.1" xmlns="http://www.w3.org/2000/svg" xmlns:xlink="http://www.w3.org/1999/xlink" x="0px" y="0px"
	 viewBox="0 0 320 731.7" style="enable-background:new 0 0 320 731.7;" xml:space="preserve">
<style type="text/css">
	.st0{fill:#EDEDED;}
	.st1{display:none;opacity:0.5;fill:#FDC62F;}
	.st2{fill:none;}
	.st3{display:none;}
	.st4{font-family:'MyriadPro-Regular';}
	.st5{font-size:12px;}
	.st6{display:inline;opacity:0.5;fill:#FDC62F;}
	.st7{display:inline;fill:none;}
	.st8{display:inline;}
	.st9{fill:none;stroke:#FCC62F;stroke-width:1.2041;stroke-miterlimit:10;}
	.st10{fill:#FCC62F;stroke:#FCC62F;stroke-width:1.2041;stroke-miterlimit:10;}
	.st11{fill:#FCC630;}
	.st12{fill:#FFFFFF;stroke:#FDC630;stroke-width:2.6329;stroke-miterlimit:10;}
	.st13{fill:none;stroke:#FCC62F;stroke-width:2.4082;stroke-miterlimit:10;}
	.st14{font-family:'Poppins-Medium';}
	.st15{font-size:9.7187px;}
	.st16{fill:#3D3D3B;}
	.st17{opacity:0.3;fill:none;stroke:#706F6E;stroke-width:2.9352;stroke-miterlimit:10;}
	.st18{font-family:'OpenSans-Light';}
	.st19{font-size:13px;}
</style>
<g id="Grid">
	<rect y="0.4" class="st0" width="320" height="731.3"/>
	<rect x="-369.6" y="-67.7" class="st1" width="643.4" height="231"/>
	<rect x="-369.6" y="-91.4" class="st2" width="315.5" height="16.9"/>
	<text transform="matrix(1 0 0 1 -369.6392 -82.8824)" class="st3 st4 st5">Formato Horizontal</text>
	<rect x="-369.6" y="192" class="st2" width="264.1" height="16.9"/>
	<text transform="matrix(1 0 0 1 -369.6392 200.5294)" class="st3 st4 st5">Formato Vertical</text>
	<rect x="9.4" y="192" class="st2" width="264.1" height="16.9"/>
	<text transform="matrix(1 0 0 1 9.3985 200.5294)" class="st3 st4 st5">Formato Página Inteira</text>
	<rect x="-410.1" y="-116" class="st1" width="1123.2" height="806.4"/>
</g>
<g id="Camada_1_cópia" class="st3">
	<rect x="9.4" y="323" class="st6" width="643.4" height="231"/>
	<rect x="-369.6" y="-91.4" class="st7" width="315.5" height="16.9"/>
	<text transform="matrix(1 0 0 1 -369.6392 -82.8824)" class="st8 st4 st5">Formato Horizontal</text>
	<rect x="-369.6" y="192" class="st7" width="264.1" height="16.9"/>
	<text transform="matrix(1 0 0 1 -369.6392 200.5294)" class="st8 st4 st5">Formato Vertical</text>
	<rect x="9.4" y="192" class="st7" width="264.1" height="16.9"/>
	<text transform="matrix(1 0 0 1 9.3985 200.5294)" class="st8 st4 st5">Formato Página Inteira</text>
	<rect x="8.6" y="212.5" class="st6" width="264.1" height="461.9"/>
	<rect x="9.4" y="212.5" class="st6" width="643.4" height="461.9"/>
</g>
<g id="Redondas">
	<line class="st9" x1="33.7" y1="544.3" x2="50.9" y2="544.3"/>
	<circle class="st10" cx="55.3" cy="544.3" r="4.4"/>
	<line class="st9" x1="33.7" y1="655.6" x2="50.9" y2="655.6"/>
	<circle class="st10" cx="55.3" cy="655.6" r="4.4"/>
	<line class="st9" x1="33.7" y1="435.8" x2="50.9" y2="435.8"/>
	<circle class="st10" cx="55.3" cy="435.8" r="4.4"/>
	<line class="st9" x1="33.7" y1="301.9" x2="50.9" y2="301.9"/>
	<circle class="st10" cx="55.3" cy="301.9" r="4.4"/>
	<line class="st9" x1="33.7" y1="147.7" x2="50.9" y2="147.7"/>
	<circle class="st10" cx="55.3" cy="147.7" r="4.4"/>
	<g>
		<g>
			<path d="M76.3,497.6c1.7,0,3.2,0.9,3.9,2.5h-1.6c-0.4-0.9-1.2-1.3-2.2-1.3c-1.7,0-2.9,1.2-2.9,3.1c0,1.9,1.2,3.1,2.9,3.1
				c1,0,1.8-0.4,2.2-1.3h1.6c-0.6,1.6-2.1,2.5-3.9,2.5c-2.4,0-4.3-1.8-4.3-4.3C72,499.4,73.9,497.6,76.3,497.6z"/>
			<path d="M84.5,506.2c-1.9,0-3.3-1.3-3.3-3.4s1.5-3.4,3.4-3.4s3.4,1.3,3.4,3.4S86.4,506.2,84.5,506.2z M84.5,505c1,0,2-0.7,2-2.2
				s-1-2.2-2-2.2c-1,0-2,0.7-2,2.2S83.4,505,84.5,505z"/>
			<path d="M93.8,502.4c0-1.2-0.7-1.8-1.7-1.8c-1,0-1.7,0.6-1.7,1.8v3.7h-1.4v-6.6h1.4v0.8c0.4-0.5,1.2-0.9,2-0.9
				c1.5,0,2.7,1,2.7,2.8v3.9h-1.4V502.4z"/>
			<path d="M99.2,506.2c-1.6,0-2.7-0.9-2.8-2.1h1.4c0,0.5,0.6,1,1.3,1c0.8,0,1.2-0.3,1.2-0.8c0-1.3-3.8-0.6-3.8-3
				c0-1.1,1-1.9,2.5-1.9c1.5,0,2.5,0.8,2.6,2.1h-1.4c0-0.6-0.5-1-1.2-1c-0.7,0-1.1,0.3-1.1,0.7c0,1.3,3.7,0.6,3.8,3
				C101.7,505.3,100.8,506.2,99.2,506.2z"/>
			<path d="M105.9,506.2c-1.9,0-3.3-1.3-3.3-3.4s1.3-3.4,3.3-3.4c1.9,0,3.2,1.3,3.2,3.3c0,0.2,0,0.4,0,0.7h-5
				c0.1,1.1,0.9,1.8,1.9,1.8c0.8,0,1.3-0.4,1.6-0.9h1.5C108.6,505.2,107.6,506.2,105.9,506.2z M104.1,502.2h3.7c0-1-0.8-1.7-1.8-1.7
				C105,500.5,104.2,501.1,104.1,502.2z"/>
			<path d="M110.4,497.2h1.4v8.9h-1.4V497.2z"/>
			<path d="M113.4,497.2h1.4v3c0.5-0.6,1.2-0.9,2.1-0.9c1.5,0,2.6,1,2.6,2.8v3.9h-1.4v-3.7c0-1.2-0.7-1.8-1.7-1.8
				c-1,0-1.7,0.6-1.7,1.8v3.7h-1.4V497.2z"/>
			<path d="M124,506.2c-1.9,0-3.3-1.3-3.3-3.4s1.5-3.4,3.4-3.4s3.4,1.3,3.4,3.4S125.9,506.2,124,506.2z M124,505c1,0,2-0.7,2-2.2
				s-1-2.2-2-2.2c-1,0-2,0.7-2,2.2S122.9,505,124,505z"/>
			<path d="M138.5,497.7v8.3h-1.4l-4.1-6.2v6.2h-1.4v-8.3h1.4l4.1,6.2v-6.2H138.5z"/>
			<path d="M142.8,499.3c1.1,0,1.9,0.5,2.3,1.1v-1h1.4v6.6h-1.4v-1c-0.4,0.6-1.2,1.1-2.3,1.1c-1.7,0-3.1-1.4-3.1-3.4
				C139.7,500.7,141.1,499.3,142.8,499.3z M143.1,500.5c-1,0-2,0.8-2,2.2c0,1.4,1,2.3,2,2.3c1,0,2-0.8,2-2.2
				C145.1,501.3,144.2,500.5,143.1,500.5z"/>
			<path d="M151,499.3c1.6,0,2.7,0.8,3,2.2h-1.5c-0.2-0.6-0.8-1-1.6-1c-1.1,0-1.8,0.8-1.8,2.3c0,1.5,0.7,2.3,1.8,2.3
				c0.8,0,1.3-0.4,1.6-1h1.5c-0.4,1.3-1.4,2.2-3,2.2c-1.9,0-3.2-1.3-3.2-3.4C147.7,500.7,149.1,499.3,151,499.3z"/>
			<path d="M155.1,497.7c0-0.5,0.4-0.9,0.9-0.9c0.5,0,0.9,0.4,0.9,0.9c0,0.5-0.4,0.9-0.9,0.9C155.5,498.6,155.1,498.2,155.1,497.7z
				 M155.3,499.4h1.4v6.6h-1.4V499.4z"/>
			<path d="M161.2,506.2c-1.9,0-3.3-1.3-3.3-3.4s1.5-3.4,3.4-3.4s3.4,1.3,3.4,3.4S163.1,506.2,161.2,506.2z M161.2,505
				c1,0,2-0.7,2-2.2s-1-2.2-2-2.2c-1,0-2,0.7-2,2.2S160.2,505,161.2,505z"/>
			<path d="M170.5,502.4c0-1.2-0.7-1.8-1.7-1.8c-1,0-1.7,0.6-1.7,1.8v3.7h-1.4v-6.6h1.4v0.8c0.4-0.5,1.2-0.9,2-0.9
				c1.5,0,2.7,1,2.7,2.8v3.9h-1.4V502.4z"/>
			<path d="M176.2,499.3c1.1,0,1.9,0.5,2.3,1.1v-1h1.4v6.6h-1.4v-1c-0.4,0.6-1.2,1.1-2.3,1.1c-1.7,0-3.1-1.4-3.1-3.4
				C173.1,500.7,174.4,499.3,176.2,499.3z M176.5,500.5c-1,0-2,0.8-2,2.2c0,1.4,1,2.3,2,2.3c1,0,2-0.8,2-2.2
				C178.5,501.3,177.5,500.5,176.5,500.5z"/>
			<path d="M181.5,497.2h1.4v8.9h-1.4V497.2z"/>
			<path d="M190.3,499.3c0.9,0,1.8,0.4,2.3,1v-3.2h1.4v8.9h-1.4v-1c-0.4,0.6-1.2,1.1-2.3,1.1c-1.7,0-3.1-1.4-3.1-3.4
				C187.1,500.7,188.5,499.3,190.3,499.3z M190.5,500.5c-1,0-2,0.8-2,2.2c0,1.4,1,2.3,2,2.3c1,0,2-0.8,2-2.2
				C192.5,501.3,191.6,500.5,190.5,500.5z"/>
			<path d="M198.4,506.2c-1.9,0-3.3-1.3-3.3-3.4s1.3-3.4,3.3-3.4c1.9,0,3.2,1.3,3.2,3.3c0,0.2,0,0.4,0,0.7h-5
				c0.1,1.1,0.9,1.8,1.9,1.8c0.8,0,1.3-0.4,1.6-0.9h1.5C201.1,505.2,200.1,506.2,198.4,506.2z M196.6,502.2h3.7c0-1-0.8-1.7-1.8-1.7
				C197.5,500.5,196.7,501.1,196.6,502.2z"/>
			<path d="M205.5,497.7h5.8v1.1H209v7.2h-1.4v-7.2h-2.2V497.7z"/>
			<path d="M213.9,506.1h-1.4v-6.6h1.4v1c0.4-0.7,1-1.1,2-1.1v1.4h-0.3c-1,0-1.6,0.4-1.6,1.8V506.1z"/>
			<path d="M219.7,499.3c1.1,0,1.9,0.5,2.3,1.1v-1h1.4v6.6H222v-1c-0.4,0.6-1.2,1.1-2.3,1.1c-1.7,0-3.1-1.4-3.1-3.4
				C216.6,500.7,217.9,499.3,219.7,499.3z M220,500.5c-1,0-2,0.8-2,2.2c0,1.4,1,2.3,2,2.3c1,0,2-0.8,2-2.2
				C222,501.3,221,500.5,220,500.5z M221.9,499l-1.7-1l-1.7,1v-1.1l1.7-1l1.7,1V499z"/>
			<path d="M229.7,502.4c0-1.2-0.7-1.8-1.7-1.8c-1,0-1.7,0.6-1.7,1.8v3.7H225v-6.6h1.4v0.8c0.4-0.5,1.2-0.9,2-0.9
				c1.5,0,2.7,1,2.7,2.8v3.9h-1.4V502.4z"/>
			<path d="M235.1,506.2c-1.6,0-2.7-0.9-2.8-2.1h1.4c0,0.5,0.6,1,1.3,1c0.8,0,1.2-0.3,1.2-0.8c0-1.3-3.8-0.6-3.8-3
				c0-1.1,1-1.9,2.5-1.9c1.5,0,2.5,0.8,2.6,2.1h-1.4c0-0.6-0.5-1-1.2-1c-0.7,0-1.1,0.3-1.1,0.7c0,1.3,3.7,0.6,3.8,3
				C237.6,505.3,236.7,506.2,235.1,506.2z"/>
			<path d="M238.8,497.7c0-0.5,0.4-0.9,0.9-0.9c0.5,0,0.9,0.4,0.9,0.9c0,0.5-0.4,0.9-0.9,0.9C239.2,498.6,238.8,498.2,238.8,497.7z
				 M239,499.4h1.4v6.6H239V499.4z"/>
			<path d="M242.3,500.6h-0.8v-1.1h0.8v-1.6h1.4v1.6h1.6v1.1h-1.6v3.7c0,0.5,0.2,0.7,0.8,0.7h0.8v1.1h-1.1c-1.2,0-1.9-0.5-1.9-1.8
				V500.6z"/>
			<path d="M249.2,506.2c-1.9,0-3.3-1.3-3.3-3.4s1.5-3.4,3.4-3.4s3.4,1.3,3.4,3.4S251.1,506.2,249.2,506.2z M249.2,505
				c1,0,2-0.7,2-2.2s-1-2.2-2-2.2c-1,0-2,0.7-2,2.2S248.2,505,249.2,505z"/>
			<path d="M75.5,522.7c-1.6-1.5-2.4-4-2.4-6.6s0.9-5.2,2.7-6.8h1.4v0.1c-1.9,1.8-2.8,4.3-2.8,6.7s0.9,4.7,2.5,6.5v0.1H75.5z"/>
			<path d="M82,512c1.7,0,3.2,0.9,3.9,2.5h-1.6c-0.4-0.9-1.2-1.3-2.2-1.3c-1.7,0-2.9,1.2-2.9,3.1s1.2,3.1,2.9,3.1
				c1,0,1.8-0.4,2.2-1.3h1.6c-0.6,1.6-2.1,2.5-3.9,2.5c-2.4,0-4.3-1.8-4.3-4.3C77.8,513.8,79.7,512,82,512z"/>
			<path d="M91.2,520.5c-2.4,0-4.3-1.8-4.3-4.3c0-2.5,1.9-4.3,4.3-4.3c2.4,0,4.3,1.8,4.3,4.3C95.5,518.8,93.6,520.5,91.2,520.5z
				 M91.2,519.4c1.7,0,2.9-1.2,2.9-3.1s-1.2-3.1-2.9-3.1s-2.9,1.2-2.9,3.1S89.5,519.4,91.2,519.4z"/>
			<path d="M103.5,512.1v8.3h-1.4l-4.1-6.2v6.2h-1.4v-8.3h1.4l4.1,6.2v-6.2H103.5z"/>
			<path d="M104.8,512.1h5.8v1.1h-2.2v7.2H107v-7.2h-2.2V512.1z"/>
			<path d="M114.7,512.1c2,0,3,1.1,3,2.5c0,1-0.5,2-1.9,2.4l2.1,3.5h-1.6l-1.9-3.3h-1v3.3h-1.4v-8.3H114.7z M114.7,513.2h-1.5v2.8
				h1.5c1.1,0,1.5-0.6,1.5-1.4C116.3,513.8,115.8,513.2,114.7,513.2z"/>
			<path d="M124.4,518.8h-3.5l-0.6,1.7h-1.4l3-8.3h1.6l3,8.3H125L124.4,518.8z M122.6,513.8l-1.4,3.9h2.7L122.6,513.8z"/>
			<path d="M134.4,512.1v8.3h-1.4l-4.1-6.2v6.2h-1.4v-8.3h1.4l4.1,6.2v-6.2H134.4z"/>
			<path d="M135.8,522.7v-0.1c1.7-1.7,2.5-4.1,2.5-6.5s-0.9-4.9-2.8-6.7v-0.1h1.4c1.8,1.6,2.7,4.2,2.7,6.8s-0.9,5.1-2.4,6.6H135.8z"
				/>
		</g>
	</g>
</g>
<g id="Barra">
	<rect x="71.6" y="73.7" class="st11" width="34.3" height="4.6"/>
	<rect x="71.6" y="224.8" class="st11" width="34.3" height="4.6"/>
	<rect x="71.6" y="368.1" class="st11" width="34.3" height="4.6"/>
	<rect x="71.6" y="488.1" class="st11" width="34.3" height="4.6"/>
	<rect x="71.6" y="586.2" class="st11" width="34.3" height="4.6"/>
</g>
<g id="Losangos">
	<path class="st12" d="M49.2,86.7L37,74.5c-1.4-1.4-3.8-1.4-5.2,0L19.6,86.7c-1.4,1.4-1.4,3.8,0,5.2l12.2,12.2
		c1.4,1.4,3.8,1.4,5.2,0l12.2-12.2C50.7,90.5,50.7,88.2,49.2,86.7z"/>
	<line class="st13" x1="34.4" y1="104.9" x2="34.4" y2="705.7"/>
	<path class="st12" d="M49,383.1l-12.2-12.2c-1.4-1.4-3.8-1.4-5.2,0l-12.2,12.2c-1.4,1.4-1.4,3.8,0,5.2l12.2,12.2
		c1.4,1.4,3.8,1.4,5.2,0L49,388.3C50.4,386.8,50.4,384.5,49,383.1z"/>
	<path class="st12" d="M49.2,501.6L37,489.4c-1.4-1.4-3.8-1.4-5.2,0l-12.2,12.2c-1.4,1.4-1.4,3.8,0,5.2L31.8,519
		c1.4,1.4,3.8,1.4,5.2,0l12.2-12.2C50.7,505.4,50.7,503,49.2,501.6z"/>
	<path class="st12" d="M49.2,604.1L37,591.9c-1.4-1.4-3.8-1.4-5.2,0l-12.2,12.2c-1.4,1.4-1.4,3.8,0,5.2l12.2,12.2
		c1.4,1.4,3.8,1.4,5.2,0l12.2-12.2C50.7,607.9,50.7,605.5,49.2,604.1z"/>
</g>
<g id="Camada_4">
	<g>
		<text transform="matrix(1 0 0 1 23.4373 389.3731)" class="st14 st15">2009</text>
	</g>
	<g>
		<text transform="matrix(1 0 0 1 25.2839 507.9043)" class="st14 st15">2014</text>
	</g>
	<g>
		<text transform="matrix(1 0 0 1 24.8757 609.9451)" class="st14 st15">2017</text>
	</g>
	<text transform="matrix(1 0 0 1 -230.2157 -196.5259)" class="st4 st5">Histórico legal da educação para o trânsito na educação básica</text>
	<polyline class="st11" points="14.3,53 303.5,53 303.5,57.3 14.3,57.3 	"/>
	<g>
		<path class="st16" d="M25.6,29.9h-3.4V34h-2.8V23.8h2.8v3.8h3.4v-3.8h2.8V34h-2.8V29.9z"/>
		<path class="st16" d="M30,23.8h2.8V34H30V23.8z"/>
		<path class="st16" d="M38.3,34.1c-2.3,0-4-1.1-4.1-3.3h3c0.1,0.8,0.5,1,1,1c0.5,0,0.9-0.3,0.9-0.7c0-1.6-4.9-0.9-4.9-4.4
			c0-2,1.7-3.1,3.8-3.1c2.3,0,3.9,1.1,4,3.2h-3.1c0-0.6-0.4-0.9-0.9-0.9c-0.4,0-0.7,0.2-0.7,0.7c0,1.5,4.9,1,4.9,4.3
			C42.1,32.7,40.7,34.1,38.3,34.1z"/>
		<path class="st16" d="M42.8,23.8H51v2.2h-2.7V34h-2.8v-7.9h-2.7V23.8z"/>
		<path class="st16" d="M56.9,34.1c-2.9,0-5.2-2.2-5.2-5.2s2.3-5.2,5.2-5.2c2.9,0,5.2,2.1,5.2,5.2S59.8,34.1,56.9,34.1z M56.9,31.5
			c1.5,0,2.3-1,2.3-2.6c0-1.6-0.9-2.6-2.3-2.6c-1.5,0-2.3,1-2.3,2.6C54.6,30.5,55.5,31.5,56.9,31.5z M58.7,19.7v2.1l-3.6,1.4v-1.9
			L58.7,19.7z"/>
		<path class="st16" d="M67.9,23.8c2.5,0,3.8,1.4,3.8,3.3c0,1.3-0.7,2.5-2.2,2.9l2.3,4h-3.2l-2-3.7h-0.3V34h-2.8V23.8H67.9z
			 M67.6,26.2h-1.4v2.1h1.4c0.8,0,1.2-0.4,1.2-1.1C68.8,26.6,68.4,26.2,67.6,26.2z"/>
		<path class="st16" d="M72.9,23.8h2.8V34h-2.8V23.8z"/>
		<path class="st16" d="M82.1,23.7c2.5,0,4.4,1.5,4.9,3.8h-3c-0.4-0.8-1-1.2-1.9-1.2c-1.3,0-2.1,1-2.1,2.6c0,1.6,0.8,2.6,2.1,2.6
			c0.8,0,1.5-0.4,1.9-1.2h3c-0.5,2.3-2.3,3.8-4.9,3.8c-3.1,0-5.1-2.1-5.1-5.2C77,25.9,79,23.7,82.1,23.7z"/>
		<path class="st16" d="M93.2,34.1c-2.9,0-5.2-2.2-5.2-5.2s2.3-5.2,5.2-5.2c2.9,0,5.2,2.1,5.2,5.2S96,34.1,93.2,34.1z M93.2,31.5
			c1.5,0,2.3-1,2.3-2.6c0-1.6-0.9-2.6-2.3-2.6c-1.5,0-2.3,1-2.3,2.6C90.8,30.5,91.7,31.5,93.2,31.5z"/>
		<path class="st16" d="M105.2,23.8v8h3.2V34h-6V23.8H105.2z"/>
		<path class="st16" d="M116,26.1h-3.7v1.7h3.2v2.1h-3.2v1.8h3.7V34h-6.5V23.8h6.5V26.1z"/>
		<path class="st16" d="M126.9,27.2h-3c-0.3-0.5-0.9-0.8-1.7-0.8c-1.4,0-2.3,1-2.3,2.5c0,1.7,0.9,2.7,2.6,2.7c1,0,1.7-0.5,2.1-1.3
			h-2.8v-2h5.3v2.7c-0.6,1.5-2.2,3.1-4.8,3.1c-3.1,0-5.2-2.1-5.2-5.2c0-3,2-5.2,5.1-5.2C124.7,23.7,126.5,25.1,126.9,27.2z"/>
		<path class="st16" d="M134.7,32.3h-3.6l-0.5,1.7h-3l3.7-10.2h3.3l3.7,10.2h-3L134.7,32.3z M132.9,26.9l-1.1,3.3h2.2L132.9,26.9z"
			/>
		<path class="st16" d="M142,23.8v8h3.2V34h-6V23.8H142z"/>
		<path class="st16" d="M158.3,28.9c0,2.9-2.1,5.1-5.3,5.1h-4V23.8h4C156.2,23.8,158.3,25.9,158.3,28.9z M152.8,31.5
			c1.6,0,2.7-0.9,2.7-2.6c0-1.7-1-2.6-2.7-2.6h-1v5.2H152.8z"/>
		<path class="st16" d="M166,32.3h-3.6l-0.5,1.7h-3l3.7-10.2h3.3l3.7,10.2h-3L166,32.3z M164.2,26.9l-1.1,3.3h2.2L164.2,26.9z"/>
		<path class="st16" d="M179.7,26.1H176v1.7h3.2v2.1H176v1.8h3.7V34h-6.5V23.8h6.5V26.1z"/>
		<path class="st16" d="M190.4,28.9c0,2.9-2.1,5.1-5.3,5.1h-4V23.8h4C188.3,23.8,190.4,25.9,190.4,28.9z M184.9,31.5
			c1.6,0,2.7-0.9,2.7-2.6c0-1.7-1-2.6-2.7-2.6h-1v5.2H184.9z"/>
		<path class="st16" d="M191.6,23.8h2.8v5.9c0,1.1,0.5,1.7,1.5,1.7c1.1,0,1.6-0.7,1.6-1.7v-5.9h2.8v5.9c0,2.9-2,4.4-4.5,4.4
			c-2.4,0-4.3-1.5-4.3-4.4V23.8z"/>
		<path class="st16" d="M206.6,23.7c2.5,0,4.4,1.5,4.9,3.8h-3c-0.4-0.8-1-1.2-1.9-1.2c-1.3,0-2.1,1-2.1,2.6c0,1.6,0.9,2.6,2.1,2.6
			c0.8,0,1.5-0.4,1.9-1.2h3c-0.5,2.3-2.3,3.8-4.9,3.8c-3.1,0-5.1-2.1-5.1-5.2C201.6,25.9,203.6,23.7,206.6,23.7z"/>
		<path class="st16" d="M219.3,32.3h-3.6l-0.5,1.7h-3l3.7-10.2h3.3l3.7,10.2h-3L219.3,32.3z M217.5,26.9l-1.1,3.3h2.2L217.5,26.9z"
			/>
		<path class="st16" d="M228.4,23.7c2.5,0,4.4,1.5,4.9,3.8h-3c-0.4-0.8-1-1.2-1.9-1.2c-1.3,0-2.1,1-2.1,2.6c0,1.6,0.8,2.6,2.1,2.6
			c0.8,0,1.5-0.4,1.9-1.2h3c-0.4,2-1.9,3.4-4,3.7v0.5c0.8,0,1.9,0.4,1.9,1.7c0,1.3-1.1,1.7-2.1,1.7h-2.3v-1.5h2
			c0.3,0,0.5-0.1,0.5-0.3c0-0.2-0.2-0.3-0.5-0.3h-1.1V34c-2.6-0.3-4.3-2.3-4.3-5.1C223.4,25.9,225.4,23.7,228.4,23.7z"/>
		<path class="st16" d="M241.1,32.3h-3.6l-0.5,1.7h-3l3.7-10.2h3.3l3.7,10.2h-3L241.1,32.3z M238.3,20.8c0.9,0,1.4,0.7,2,0.7
			c0.3,0,0.6-0.2,0.6-0.7h1.4c-0.3,1.7-1.1,2.3-2.2,2.3c-0.9,0-1.4-0.6-2-0.6c-0.3,0-0.6,0.2-0.6,0.7h-1.4
			C236.4,21.5,237.2,20.8,238.3,20.8z M239.3,26.9l-1.1,3.3h2.2L239.3,26.9z"/>
		<path class="st16" d="M250.4,34.1c-2.9,0-5.2-2.2-5.2-5.2s2.3-5.2,5.2-5.2c2.9,0,5.2,2.1,5.2,5.2S253.3,34.1,250.4,34.1z
			 M250.4,31.5c1.5,0,2.3-1,2.3-2.6c0-1.6-0.9-2.6-2.3-2.6c-1.5,0-2.3,1-2.3,2.6C248.1,30.5,248.9,31.5,250.4,31.5z"/>
		<path class="st16" d="M263.8,30.6h-1.4V34h-2.8V23.8h4.2c2.5,0,3.8,1.4,3.8,3.4C267.6,29,266.4,30.6,263.8,30.6z M263.6,28.3
			c0.8,0,1.2-0.4,1.2-1.1c0-0.7-0.3-1.1-1.2-1.1h-1.1v2.2H263.6z"/>
		<path class="st16" d="M275.2,32.3h-3.6l-0.5,1.7h-3l3.7-10.2h3.3l3.7,10.2h-3L275.2,32.3z M273.4,26.9l-1.1,3.3h2.2L273.4,26.9z"
			/>
		<path class="st16" d="M284.1,23.8c2.5,0,3.8,1.4,3.8,3.3c0,1.3-0.7,2.5-2.2,2.9l2.3,4h-3.2l-2-3.7h-0.3V34h-2.8V23.8H284.1z
			 M283.9,26.2h-1.4v2.1h1.4c0.8,0,1.2-0.4,1.2-1.1C285,26.6,284.6,26.2,283.9,26.2z"/>
		<path class="st16" d="M295.6,32.3H292l-0.5,1.7h-3l3.7-10.2h3.3l3.7,10.2h-3L295.6,32.3z M293.8,26.9l-1.1,3.3h2.2L293.8,26.9z"/>
		<path class="st16" d="M37.3,51.4c-2.9,0-5.2-2.2-5.2-5.2s2.3-5.2,5.2-5.2c2.9,0,5.2,2.1,5.2,5.2S40.2,51.4,37.3,51.4z M37.3,48.8
			c1.5,0,2.3-1,2.3-2.6c0-1.6-0.9-2.6-2.3-2.6c-1.5,0-2.3,1-2.3,2.6C35,47.7,35.9,48.8,37.3,48.8z"/>
		<path class="st16" d="M46,41.1h8.2v2.2h-2.7v7.9h-2.8v-7.9H46V41.1z"/>
		<path class="st16" d="M59.7,41.1c2.5,0,3.8,1.4,3.8,3.3c0,1.3-0.7,2.5-2.2,2.9l2.3,4h-3.2l-2-3.7h-0.3v3.7h-2.8V41.1H59.7z
			 M59.5,43.5h-1.4v2.1h1.4c0.8,0,1.2-0.4,1.2-1.1C60.6,43.9,60.2,43.5,59.5,43.5z"/>
		<path class="st16" d="M71.2,49.6h-3.6l-0.5,1.7h-3l3.7-10.2h3.3l3.7,10.2h-3L71.2,49.6z M71.7,40.5l-2.3-1.2l-2.3,1.2v-1.9
			l2.3-1.1l2.3,1.1V40.5z M69.4,44.2l-1.1,3.3h2.2L69.4,44.2z"/>
		<path class="st16" d="M85.1,41.1v10.2h-2.8l-3.8-5.7v5.7h-2.8V41.1h2.8l3.8,5.7v-5.7H85.1z"/>
		<path class="st16" d="M90.5,51.4c-2.3,0-4-1.1-4.1-3.3h3c0.1,0.8,0.5,1,1,1c0.5,0,0.9-0.3,0.9-0.7c0-1.6-4.9-0.9-4.9-4.4
			c0-2,1.7-3.1,3.8-3.1c2.3,0,3.9,1.1,4,3.2h-3.1c0-0.6-0.4-0.9-0.9-0.9c-0.4,0-0.8,0.2-0.8,0.7c0,1.5,4.9,1,4.9,4.3
			C94.3,50,92.9,51.4,90.5,51.4z"/>
		<path class="st16" d="M95.6,41.1h2.8v10.2h-2.8V41.1z"/>
		<path class="st16" d="M99.5,41.1h8.2v2.2H105v7.9h-2.8v-7.9h-2.7V41.1z"/>
		<path class="st16" d="M113.6,51.4c-2.9,0-5.2-2.2-5.2-5.2s2.3-5.2,5.2-5.2c2.9,0,5.2,2.1,5.2,5.2S116.5,51.4,113.6,51.4z
			 M113.6,48.8c1.5,0,2.3-1,2.3-2.6c0-1.6-0.9-2.6-2.3-2.6c-1.5,0-2.3,1-2.3,2.6C111.3,47.7,112.2,48.8,113.6,48.8z"/>
		<path class="st16" d="M132.3,41.1v10.2h-2.8l-3.8-5.7v5.7h-2.8V41.1h2.8l3.8,5.7v-5.7H132.3z"/>
		<path class="st16" d="M140.3,49.6h-3.6l-0.5,1.7h-3l3.7-10.2h3.3l3.7,10.2h-3L140.3,49.6z M138.5,44.2l-1.1,3.3h2.2L138.5,44.2z"
			/>
		<path class="st16" d="M154,43.4h-3.7v1.7h3.2v2.1h-3.2V49h3.7v2.3h-6.5V41.1h6.5V43.4z"/>
		<path class="st16" d="M164.7,46.2c0,2.9-2.1,5.1-5.3,5.1h-4V41.1h4C162.7,41.1,164.7,43.2,164.7,46.2z M159.2,48.8
			c1.6,0,2.7-0.9,2.7-2.6c0-1.7-1-2.6-2.7-2.6h-1v5.2H159.2z"/>
		<path class="st16" d="M165.9,41.1h2.8V47c0,1.1,0.5,1.7,1.5,1.7c1.1,0,1.6-0.7,1.6-1.7v-5.9h2.8V47c0,2.9-2,4.4-4.5,4.4
			c-2.4,0-4.3-1.5-4.3-4.4V41.1z"/>
		<path class="st16" d="M180.9,41c2.5,0,4.4,1.5,4.9,3.8h-3c-0.4-0.8-1-1.2-1.9-1.2c-1.3,0-2.1,1-2.1,2.6c0,1.6,0.8,2.6,2.1,2.6
			c0.8,0,1.5-0.4,1.9-1.2h3c-0.5,2.3-2.3,3.8-4.9,3.8c-3.1,0-5.1-2.1-5.1-5.2C175.9,43.2,177.9,41,180.9,41z"/>
		<path class="st16" d="M193.6,49.6H190l-0.5,1.7h-3l3.7-10.2h3.3l3.7,10.2h-3L193.6,49.6z M191.8,44.2l-1.1,3.3h2.2L191.8,44.2z"/>
		<path class="st16" d="M202.7,41c2.5,0,4.4,1.5,4.9,3.8h-3c-0.4-0.8-1-1.2-1.9-1.2c-1.3,0-2.1,1-2.1,2.6c0,1.6,0.9,2.6,2.1,2.6
			c0.8,0,1.5-0.4,1.9-1.2h3c-0.4,2-1.9,3.4-4,3.7v0.5c0.8,0,1.9,0.4,1.9,1.7c0,1.3-1.1,1.7-2.1,1.7h-2.3v-1.5h2
			c0.3,0,0.5-0.1,0.5-0.3c0-0.2-0.2-0.3-0.5-0.3H202v-1.8c-2.6-0.3-4.3-2.3-4.3-5.1C197.7,43.2,199.7,41,202.7,41z"/>
		<path class="st16" d="M215.4,49.6h-3.6l-0.5,1.7h-3l3.7-10.2h3.3l3.7,10.2h-3L215.4,49.6z M212.6,38.1c0.9,0,1.4,0.7,2,0.7
			c0.3,0,0.6-0.2,0.6-0.7h1.4c-0.3,1.7-1.1,2.3-2.2,2.3c-0.9,0-1.4-0.6-2-0.6c-0.3,0-0.6,0.2-0.6,0.7h-1.4
			C210.7,38.8,211.5,38.1,212.6,38.1z M213.6,44.2l-1.1,3.3h2.2L213.6,44.2z"/>
		<path class="st16" d="M224.7,51.4c-2.9,0-5.2-2.2-5.2-5.2s2.3-5.2,5.2-5.2c2.9,0,5.2,2.1,5.2,5.2S227.6,51.4,224.7,51.4z
			 M224.7,48.8c1.5,0,2.3-1,2.3-2.6c0-1.6-0.9-2.6-2.3-2.6c-1.5,0-2.3,1-2.3,2.6C222.4,47.7,223.2,48.8,224.7,48.8z"/>
		<path class="st16" d="M238.9,51.3h-5V41.1h4.9c2.1,0,3.3,1,3.3,2.6c0,1.2-0.7,2-1.7,2.3c1.2,0.3,1.9,1.3,1.9,2.4
			C242.3,50.2,241.1,51.3,238.9,51.3z M238.2,43.4h-1.4v1.8h1.4c0.7,0,1.1-0.3,1.1-0.9C239.2,43.7,238.9,43.4,238.2,43.4z
			 M238.4,47.2h-1.6V49h1.6c0.7,0,1.1-0.3,1.1-0.9C239.5,47.5,239.1,47.2,238.4,47.2z"/>
		<path class="st16" d="M250,49.6h-3.6l-0.5,1.7h-3l3.7-10.2h3.3l3.7,10.2h-3L250,49.6z M250,37v2.1l-3.6,1.4v-1.9L250,37z
			 M248.2,44.2l-1.1,3.3h2.2L248.2,44.2z"/>
		<path class="st16" d="M258.3,51.4c-2.3,0-4-1.1-4.1-3.3h3c0.1,0.8,0.5,1,1,1c0.5,0,0.9-0.3,0.9-0.7c0-1.6-4.9-0.9-4.9-4.4
			c0-2,1.7-3.1,3.8-3.1c2.3,0,3.9,1.1,4,3.2h-3.1c0-0.6-0.4-0.9-0.9-0.9c-0.4,0-0.8,0.2-0.8,0.7c0,1.5,4.9,1,4.9,4.3
			C262.1,50,260.7,51.4,258.3,51.4z"/>
		<path class="st16" d="M263.4,41.1h2.8v10.2h-2.8V41.1z"/>
		<path class="st16" d="M272.5,41c2.5,0,4.4,1.5,4.9,3.8h-3c-0.4-0.8-1-1.2-1.9-1.2c-1.3,0-2.1,1-2.1,2.6c0,1.6,0.8,2.6,2.1,2.6
			c0.8,0,1.5-0.4,1.9-1.2h3c-0.5,2.3-2.3,3.8-4.9,3.8c-3.1,0-5.1-2.1-5.1-5.2C267.5,43.2,269.5,41,272.5,41z"/>
		<path class="st16" d="M285.2,49.6h-3.6l-0.5,1.7h-3l3.7-10.2h3.3l3.7,10.2h-3L285.2,49.6z M283.4,44.2l-1.1,3.3h2.2L283.4,44.2z"
			/>
	</g>
	<g>
		<g>
			<path d="M79,381.4c0,2.6-1.8,4.1-4.4,4.1h-2.7v-8.3h2.7C77.3,377.2,79,378.8,79,381.4z M74.6,384.4c2,0,3-1.1,3-3
				c0-1.9-1.1-3.1-3-3.1h-1.4v6.1H74.6z"/>
			<path d="M83.1,385.7c-1.9,0-3.3-1.3-3.3-3.4c0-2.1,1.3-3.4,3.3-3.4c1.9,0,3.2,1.3,3.2,3.3c0,0.2,0,0.4,0,0.7h-5
				c0.1,1.1,0.9,1.8,1.9,1.8c0.8,0,1.3-0.4,1.6-0.9h1.5C85.8,384.7,84.7,385.7,83.1,385.7z M81.3,381.6h3.7c0-1-0.8-1.7-1.8-1.7
				C82.1,380,81.4,380.6,81.3,381.6z"/>
			<path d="M91.2,378.8c1.7,0,3.1,1.3,3.1,3.4c0,2-1.4,3.4-3.1,3.4c-1.1,0-1.9-0.6-2.3-1.1v4.1h-1.4v-9.8h1.4v1
				C89.4,379.4,90.2,378.8,91.2,378.8z M90.9,380c-1,0-2,0.8-2,2.2c0,1.4,1,2.2,2,2.2c1,0,2-0.8,2-2.3S92,380,90.9,380z"/>
			<path d="M98.2,378.8c1.1,0,1.9,0.5,2.3,1.1v-1h1.4v6.6h-1.4v-1c-0.4,0.6-1.2,1.1-2.3,1.1c-1.7,0-3.1-1.4-3.1-3.4
				C95.1,380.2,96.5,378.8,98.2,378.8z M98.5,380c-1,0-2,0.8-2,2.2s1,2.3,2,2.3c1,0,2-0.8,2-2.2C100.5,380.8,99.6,380,98.5,380z"/>
			<path d="M105,385.5h-1.4v-6.6h1.4v1c0.4-0.7,1-1.1,2-1.1v1.4h-0.3c-1,0-1.6,0.4-1.6,1.8V385.5z"/>
			<path d="M108.3,380.1h-0.8v-1.1h0.8v-1.6h1.4v1.6h1.6v1.1h-1.6v3.7c0,0.5,0.2,0.7,0.8,0.7h0.8v1.1h-1.1c-1.2,0-1.9-0.5-1.9-1.8
				V380.1z"/>
			<path d="M115.1,378.8c1.1,0,1.9,0.5,2.3,1.1v-1h1.4v6.6h-1.4v-1c-0.4,0.6-1.2,1.1-2.3,1.1c-1.7,0-3.1-1.4-3.1-3.4
				C112,380.2,113.4,378.8,115.1,378.8z M115.4,380c-1,0-2,0.8-2,2.2s1,2.3,2,2.3c1,0,2-0.8,2-2.2C117.4,380.8,116.4,380,115.4,380z
				"/>
			<path d="M129.8,381.9c0-1.2-0.7-1.8-1.7-1.8c-1,0-1.7,0.6-1.7,1.8v3.7h-1.4v-3.7c0-1.2-0.7-1.8-1.7-1.8c-1,0-1.7,0.6-1.7,1.8v3.7
				h-1.4v-6.6h1.4v0.8c0.4-0.5,1.2-0.9,2-0.9c1,0,1.9,0.4,2.4,1.3c0.4-0.8,1.3-1.3,2.3-1.3c1.5,0,2.7,1,2.7,2.8v3.9h-1.4V381.9z"/>
			<path d="M135.6,385.7c-1.9,0-3.3-1.3-3.3-3.4c0-2.1,1.3-3.4,3.3-3.4c1.9,0,3.2,1.3,3.2,3.3c0,0.2,0,0.4,0,0.7h-5
				c0.1,1.1,0.9,1.8,1.9,1.8c0.8,0,1.3-0.4,1.6-0.9h1.5C138.3,384.7,137.3,385.7,135.6,385.7z M133.8,381.6h3.7c0-1-0.8-1.7-1.8-1.7
				C134.7,380,133.9,380.6,133.8,381.6z"/>
			<path d="M144.8,381.9c0-1.2-0.7-1.8-1.7-1.8c-1,0-1.7,0.6-1.7,1.8v3.7h-1.4v-6.6h1.4v0.8c0.4-0.5,1.2-0.9,2-0.9
				c1.5,0,2.7,1,2.7,2.8v3.9h-1.4V381.9z"/>
			<path d="M148,380.1h-0.8v-1.1h0.8v-1.6h1.4v1.6h1.6v1.1h-1.6v3.7c0,0.5,0.2,0.7,0.8,0.7h0.8v1.1h-1.1c-1.2,0-1.9-0.5-1.9-1.8
				V380.1z"/>
			<path d="M155,385.7c-1.9,0-3.3-1.3-3.3-3.4c0-2.1,1.5-3.4,3.4-3.4s3.4,1.3,3.4,3.4C158.4,384.3,156.9,385.7,155,385.7z
				 M155,384.5c1,0,2-0.7,2-2.2c0-1.5-1-2.2-2-2.2c-1,0-2,0.7-2,2.2C153,383.7,153.9,384.5,155,384.5z"/>
			<path d="M169.5,377.2v8.3h-1.4l-4.1-6.2v6.2h-1.4v-8.3h1.4l4.1,6.2v-6.2H169.5z"/>
			<path d="M173.8,378.8c1.1,0,1.9,0.5,2.3,1.1v-1h1.4v6.6h-1.4v-1c-0.4,0.6-1.2,1.1-2.3,1.1c-1.7,0-3.1-1.4-3.1-3.4
				C170.7,380.2,172.1,378.8,173.8,378.8z M174.1,380c-1,0-2,0.8-2,2.2s1,2.3,2,2.3c1,0,2-0.8,2-2.2
				C176.1,380.8,175.1,380,174.1,380z"/>
			<path d="M182,378.8c1.6,0,2.7,0.8,3,2.2h-1.5c-0.2-0.6-0.8-1-1.6-1c-1.1,0-1.8,0.8-1.8,2.3c0,1.5,0.7,2.3,1.8,2.3
				c0.8,0,1.3-0.4,1.6-1h1.5c-0.4,1.3-1.4,2.2-3,2.2c-1.9,0-3.2-1.3-3.2-3.4C178.7,380.2,180.1,378.8,182,378.8z"/>
			<path d="M186.1,377.2c0-0.5,0.4-0.9,0.9-0.9c0.5,0,0.9,0.4,0.9,0.9s-0.4,0.9-0.9,0.9C186.5,378.1,186.1,377.7,186.1,377.2z
				 M186.3,378.9h1.4v6.6h-1.4V378.9z"/>
			<path d="M192.2,385.7c-1.9,0-3.3-1.3-3.3-3.4c0-2.1,1.5-3.4,3.4-3.4s3.4,1.3,3.4,3.4C195.6,384.3,194.1,385.7,192.2,385.7z
				 M192.2,384.5c1,0,2-0.7,2-2.2c0-1.5-1-2.2-2-2.2c-1,0-2,0.7-2,2.2C190.2,383.7,191.1,384.5,192.2,384.5z"/>
			<path d="M201.5,381.9c0-1.2-0.7-1.8-1.7-1.8c-1,0-1.7,0.6-1.7,1.8v3.7h-1.4v-6.6h1.4v0.8c0.4-0.5,1.2-0.9,2-0.9
				c1.5,0,2.7,1,2.7,2.8v3.9h-1.4V381.9z"/>
			<path d="M207.2,378.8c1.1,0,1.9,0.5,2.3,1.1v-1h1.4v6.6h-1.4v-1c-0.4,0.6-1.2,1.1-2.3,1.1c-1.7,0-3.1-1.4-3.1-3.4
				C204,380.2,205.4,378.8,207.2,378.8z M207.5,380c-1,0-2,0.8-2,2.2s1,2.3,2,2.3c1,0,2-0.8,2-2.2C209.5,380.8,208.5,380,207.5,380z
				"/>
			<path d="M212.5,376.7h1.4v8.9h-1.4V376.7z"/>
			<path d="M221.2,378.8c0.9,0,1.8,0.4,2.3,1v-3.2h1.4v8.9h-1.4v-1c-0.4,0.6-1.2,1.1-2.3,1.1c-1.7,0-3.1-1.4-3.1-3.4
				C218.1,380.2,219.5,378.8,221.2,378.8z M221.5,380c-1,0-2,0.8-2,2.2s1,2.3,2,2.3c1,0,2-0.8,2-2.2
				C223.5,380.8,222.5,380,221.5,380z"/>
			<path d="M229.4,385.7c-1.9,0-3.3-1.3-3.3-3.4c0-2.1,1.3-3.4,3.3-3.4c1.9,0,3.2,1.3,3.2,3.3c0,0.2,0,0.4,0,0.7h-5
				c0.1,1.1,0.9,1.8,1.9,1.8c0.8,0,1.3-0.4,1.6-0.9h1.5C232.1,384.7,231,385.7,229.4,385.7z M227.6,381.6h3.7c0-1-0.8-1.7-1.8-1.7
				C228.4,380,227.7,380.6,227.6,381.6z"/>
			<path d="M236.4,377.2h5.8v1.1H240v7.2h-1.4v-7.2h-2.2V377.2z"/>
			<path d="M244.9,385.5h-1.4v-6.6h1.4v1c0.4-0.7,1-1.1,2-1.1v1.4h-0.3c-1,0-1.6,0.4-1.6,1.8V385.5z"/>
			<path d="M250.7,378.8c1.1,0,1.9,0.5,2.3,1.1v-1h1.4v6.6H253v-1c-0.4,0.6-1.2,1.1-2.3,1.1c-1.7,0-3.1-1.4-3.1-3.4
				C247.5,380.2,248.9,378.8,250.7,378.8z M251,380c-1,0-2,0.8-2,2.2s1,2.3,2,2.3c1,0,2-0.8,2-2.2C253,380.8,252,380,251,380z
				 M252.9,378.5l-1.7-1l-1.7,1v-1.1l1.7-1l1.7,1V378.5z"/>
			<path d="M260.7,381.9c0-1.2-0.7-1.8-1.7-1.8c-1,0-1.7,0.6-1.7,1.8v3.7H256v-6.6h1.4v0.8c0.4-0.5,1.2-0.9,2-0.9
				c1.5,0,2.7,1,2.7,2.8v3.9h-1.4V381.9z"/>
			<path d="M266.1,385.7c-1.6,0-2.7-0.9-2.8-2.1h1.4c0,0.5,0.6,1,1.3,1c0.8,0,1.2-0.3,1.2-0.8c0-1.3-3.8-0.6-3.8-3
				c0-1.1,1-1.9,2.5-1.9c1.5,0,2.5,0.8,2.6,2.1h-1.4c0-0.6-0.5-1-1.2-1c-0.7,0-1.1,0.3-1.1,0.7c0,1.3,3.7,0.6,3.8,3
				C268.6,384.8,267.6,385.7,266.1,385.7z"/>
			<path d="M269.8,377.2c0-0.5,0.4-0.9,0.9-0.9c0.5,0,0.9,0.4,0.9,0.9s-0.4,0.9-0.9,0.9C270.2,378.1,269.8,377.7,269.8,377.2z
				 M270,378.9h1.4v6.6H270V378.9z"/>
			<path d="M273.2,380.1h-0.8v-1.1h0.8v-1.6h1.4v1.6h1.6v1.1h-1.6v3.7c0,0.5,0.2,0.7,0.8,0.7h0.8v1.1h-1.1c-1.2,0-1.9-0.5-1.9-1.8
				V380.1z"/>
			<path d="M280.2,385.7c-1.9,0-3.3-1.3-3.3-3.4c0-2.1,1.5-3.4,3.4-3.4s3.4,1.3,3.4,3.4C283.7,384.3,282.1,385.7,280.2,385.7z
				 M280.2,384.5c1,0,2-0.7,2-2.2c0-1.5-1-2.2-2-2.2c-1,0-2,0.7-2,2.2C278.3,383.7,279.2,384.5,280.2,384.5z"/>
			<path d="M74.9,402.2c-1.6-1.5-2.4-4-2.4-6.6c0-2.6,0.9-5.2,2.7-6.8h1.4v0.1c-1.9,1.8-2.8,4.3-2.8,6.7c0,2.4,0.9,4.7,2.5,6.5v0.1
				H74.9z"/>
			<path d="M84.8,395.8c0,2.6-1.8,4.1-4.4,4.1h-2.7v-8.3h2.7C83.1,391.6,84.8,393.2,84.8,395.8z M80.4,398.8c2,0,3-1.1,3-3
				c0-1.9-1.1-3.1-3-3.1H79v6.1H80.4z"/>
			<path d="M90.7,392.7h-3.2v2.4h2.9v1.1h-2.9v2.6h3.2v1.1h-4.6v-8.3h4.6V392.7z"/>
			<path d="M99.1,391.6v8.3h-1.4l-4.1-6.2v6.2h-1.4v-8.3h1.4l4.1,6.2v-6.2H99.1z"/>
			<path d="M105.8,398.2h-3.5l-0.6,1.7h-1.4l3-8.3h1.6l3,8.3h-1.4L105.8,398.2z M104.1,393.3l-1.4,3.9h2.7L104.1,393.3z"/>
			<path d="M108.6,391.6h5.8v1.1h-2.2v7.2h-1.4v-7.2h-2.2V391.6z"/>
			<path d="M118.5,391.6c2,0,3,1.1,3,2.5c0,1-0.5,2-1.9,2.4l2.1,3.5H120l-1.9-3.3h-1v3.3h-1.4v-8.3H118.5z M118.5,392.7H117v2.8h1.5
				c1.1,0,1.5-0.6,1.5-1.4C120.1,393.3,119.6,392.7,118.5,392.7z"/>
			<path d="M128.1,398.2h-3.5l-0.6,1.7h-1.4l3-8.3h1.6l3,8.3h-1.4L128.1,398.2z M126.4,393.3l-1.4,3.9h2.7L126.4,393.3z"/>
			<path d="M138.2,391.6v8.3h-1.4l-4.1-6.2v6.2h-1.4v-8.3h1.4l4.1,6.2v-6.2H138.2z"/>
			<path d="M139.6,402.2V402c1.7-1.7,2.5-4.1,2.5-6.5c0-2.4-0.9-4.9-2.8-6.7v-0.1h1.4c1.8,1.6,2.7,4.2,2.7,6.8
				c0,2.6-0.9,5.1-2.4,6.6H139.6z"/>
		</g>
	</g>
	<g>
		<g>
			<path d="M75.8,603.7h-3.3v-8.3h3.2c1.8,0,2.7,1,2.7,2.1c0,1-0.6,1.6-1.4,1.9c0.9,0.2,1.6,1,1.6,2
				C78.5,602.7,77.5,603.7,75.8,603.7z M75.5,596.4h-1.7v2.4h1.7c0.9,0,1.4-0.4,1.4-1.2C76.9,596.9,76.4,596.4,75.5,596.4z
				 M75.6,599.9h-1.8v2.6h1.8c0.9,0,1.5-0.5,1.5-1.3C77.2,600.4,76.5,599.9,75.6,599.9z"/>
			<path d="M82.6,596.9c1.1,0,1.9,0.5,2.3,1.1v-1h1.4v6.6h-1.4v-1c-0.4,0.6-1.2,1.1-2.3,1.1c-1.7,0-3.1-1.4-3.1-3.4
				C79.4,598.3,80.8,596.9,82.6,596.9z M82.8,598.1c-1,0-2,0.8-2,2.2c0,1.4,1,2.3,2,2.3c1,0,2-0.8,2-2.2
				C84.9,598.9,83.9,598.1,82.8,598.1z"/>
			<path d="M90.3,603.8c-1.6,0-2.7-0.9-2.8-2.1H89c0,0.5,0.6,1,1.3,1c0.8,0,1.2-0.3,1.2-0.8c0-1.3-3.8-0.6-3.8-3
				c0-1.1,1-1.9,2.5-1.9c1.5,0,2.5,0.8,2.6,2.1h-1.4c0-0.6-0.5-1-1.2-1c-0.7,0-1.1,0.3-1.1,0.7c0,1.3,3.7,0.6,3.8,3
				C92.8,602.9,91.9,603.8,90.3,603.8z"/>
			<path d="M97,603.8c-1.9,0-3.3-1.3-3.3-3.4s1.3-3.4,3.3-3.4c1.9,0,3.2,1.3,3.2,3.3c0,0.2,0,0.4,0,0.7h-5c0.1,1.1,0.9,1.8,1.9,1.8
				c0.8,0,1.3-0.4,1.6-0.9h1.5C99.7,602.8,98.7,603.8,97,603.8z M95.2,599.8h3.7c0-1-0.8-1.7-1.8-1.7
				C96.1,598.1,95.3,598.7,95.2,599.8z"/>
			<path d="M111.3,595.3v8.3H110l-4.1-6.2v6.2h-1.4v-8.3h1.4l4.1,6.2v-6.2H111.3z"/>
			<path d="M115.7,596.9c1.1,0,1.9,0.5,2.3,1.1v-1h1.4v6.6H118v-1c-0.4,0.6-1.2,1.1-2.3,1.1c-1.7,0-3.1-1.4-3.1-3.4
				C112.6,598.3,113.9,596.9,115.7,596.9z M116,598.1c-1,0-2,0.8-2,2.2c0,1.4,1,2.3,2,2.3c1,0,2-0.8,2-2.2
				C118,598.9,117,598.1,116,598.1z"/>
			<path d="M123.8,596.9c1.6,0,2.7,0.8,3,2.2h-1.5c-0.2-0.6-0.8-1-1.6-1c-1.1,0-1.8,0.8-1.8,2.3c0,1.5,0.7,2.3,1.8,2.3
				c0.8,0,1.3-0.4,1.6-1h1.5c-0.4,1.3-1.4,2.2-3,2.2c-1.9,0-3.2-1.3-3.2-3.4C120.6,598.3,121.9,596.9,123.8,596.9z"/>
			<path d="M127.9,595.3c0-0.5,0.4-0.9,0.9-0.9c0.5,0,0.9,0.4,0.9,0.9c0,0.5-0.4,0.9-0.9,0.9C128.3,596.2,127.9,595.8,127.9,595.3z
				 M128.1,597h1.4v6.6h-1.4V597z"/>
			<path d="M134,603.8c-1.9,0-3.3-1.3-3.3-3.4s1.5-3.4,3.4-3.4s3.4,1.3,3.4,3.4S135.9,603.8,134,603.8z M134,602.6c1,0,2-0.7,2-2.2
				s-1-2.2-2-2.2c-1,0-2,0.7-2,2.2S133,602.6,134,602.6z"/>
			<path d="M143.4,600c0-1.2-0.7-1.8-1.7-1.8c-1,0-1.7,0.6-1.7,1.8v3.7h-1.4V597h1.4v0.8c0.4-0.5,1.2-0.9,2-0.9c1.5,0,2.7,1,2.7,2.8
				v3.9h-1.4V600z"/>
			<path d="M149,596.9c1.1,0,1.9,0.5,2.3,1.1v-1h1.4v6.6h-1.4v-1c-0.4,0.6-1.2,1.1-2.3,1.1c-1.7,0-3.1-1.4-3.1-3.4
				C145.9,598.3,147.3,596.9,149,596.9z M149.3,598.1c-1,0-2,0.8-2,2.2c0,1.4,1,2.3,2,2.3c1,0,2-0.8,2-2.2
				C151.3,598.9,150.3,598.1,149.3,598.1z"/>
			<path d="M154.4,594.8h1.4v8.9h-1.4V594.8z"/>
			<path d="M164.2,595.2c1.7,0,3.2,0.9,3.9,2.5h-1.6c-0.4-0.9-1.2-1.3-2.2-1.3c-1.7,0-2.9,1.2-2.9,3.1c0,1.9,1.2,3.1,2.9,3.1
				c1,0,1.8-0.4,2.2-1.3h1.6c-0.6,1.6-2.1,2.5-3.9,2.5c-2.4,0-4.3-1.8-4.3-4.3C160,597,161.9,595.2,164.2,595.2z"/>
			<path d="M175.6,603.7h-1.4v-0.8c-0.4,0.6-1.2,0.9-2,0.9c-1.5,0-2.7-1-2.7-2.8V597h1.4v3.7c0,1.2,0.7,1.8,1.7,1.8
				c1,0,1.7-0.6,1.7-1.8V597h1.4V603.7z"/>
			<path d="M178.6,603.7h-1.4V597h1.4v1c0.4-0.7,1-1.1,2-1.1v1.4h-0.3c-1,0-1.6,0.4-1.6,1.8V603.7z"/>
			<path d="M183.1,603.7h-1.4V597h1.4v1c0.4-0.7,1-1.1,2-1.1v1.4h-0.3c-1,0-1.6,0.4-1.6,1.8V603.7z"/>
			<path d="M186,595.3c0-0.5,0.4-0.9,0.9-0.9c0.5,0,0.9,0.4,0.9,0.9c0,0.5-0.4,0.9-0.9,0.9C186.4,596.2,186,595.8,186,595.3z
				 M186.2,597h1.4v6.6h-1.4V597z"/>
			<path d="M192.1,596.9c1.6,0,2.7,0.8,3,2.2h-1.5c-0.2-0.6-0.8-1-1.6-1c-1.1,0-1.8,0.8-1.8,2.3c0,1.5,0.7,2.3,1.8,2.3
				c0.8,0,1.3-0.4,1.6-1h1.5c-0.4,1.3-1.4,2.2-3,2.2c-1.9,0-3.2-1.3-3.2-3.4C188.8,598.3,190.2,596.9,192.1,596.9z"/>
			<path d="M202.3,603.7H201v-0.8c-0.4,0.6-1.2,0.9-2,0.9c-1.5,0-2.7-1-2.7-2.8V597h1.4v3.7c0,1.2,0.7,1.8,1.7,1.8
				c1,0,1.7-0.6,1.7-1.8V597h1.4V603.7z"/>
			<path d="M204,594.8h1.4v8.9H204V594.8z"/>
			<path d="M209.7,596.9c1.1,0,1.9,0.5,2.3,1.1v-1h1.4v6.6H212v-1c-0.4,0.6-1.2,1.1-2.3,1.1c-1.7,0-3.1-1.4-3.1-3.4
				C206.6,598.3,208,596.9,209.7,596.9z M210,598.1c-1,0-2,0.8-2,2.2c0,1.4,1,2.3,2,2.3c1,0,2-0.8,2-2.2
				C212,598.9,211.1,598.1,210,598.1z"/>
			<path d="M216.5,603.7h-1.4V597h1.4v1c0.4-0.7,1-1.1,2-1.1v1.4h-0.3c-1,0-1.6,0.4-1.6,1.8V603.7z"/>
			<path d="M226.4,595.2c1.7,0,3.2,0.9,3.9,2.5h-1.6c-0.4-0.9-1.2-1.3-2.2-1.3c-1.7,0-2.9,1.2-2.9,3.1c0,1.9,1.2,3.1,2.9,3.1
				c1,0,1.8-0.4,2.2-1.3h1.6c-0.6,1.6-2.1,2.5-3.9,2.5c-2.4,0-4.3-1.8-4.3-4.3C222.1,597,224,595.2,226.4,595.2z"/>
			<path d="M234.6,603.8c-1.9,0-3.3-1.3-3.3-3.4s1.5-3.4,3.4-3.4s3.4,1.3,3.4,3.4S236.5,603.8,234.6,603.8z M234.6,602.6
				c1,0,2-0.7,2-2.2s-1-2.2-2-2.2c-1,0-2,0.7-2,2.2S233.6,602.6,234.6,602.6z"/>
			<path d="M248.6,600c0-1.2-0.7-1.8-1.7-1.8c-1,0-1.7,0.6-1.7,1.8v3.7H244V600c0-1.2-0.7-1.8-1.7-1.8c-1,0-1.7,0.6-1.7,1.8v3.7
				h-1.4V597h1.4v0.8c0.4-0.5,1.2-0.9,2-0.9c1,0,1.9,0.4,2.4,1.3c0.4-0.8,1.3-1.3,2.3-1.3c1.5,0,2.7,1,2.7,2.8v3.9h-1.4V600z"/>
			<path d="M257.6,603.7h-1.4v-0.8c-0.4,0.6-1.2,0.9-2,0.9c-1.5,0-2.7-1-2.7-2.8V597h1.4v3.7c0,1.2,0.7,1.8,1.7,1.8
				c1,0,1.7-0.6,1.7-1.8V597h1.4V603.7z"/>
			<path d="M268.7,600c0-1.2-0.7-1.8-1.7-1.8c-1,0-1.7,0.6-1.7,1.8v3.7H264V600c0-1.2-0.7-1.8-1.7-1.8c-1,0-1.7,0.6-1.7,1.8v3.7
				h-1.4V597h1.4v0.8c0.4-0.5,1.2-0.9,2-0.9c1,0,1.9,0.4,2.4,1.3c0.4-0.8,1.3-1.3,2.3-1.3c1.5,0,2.7,1,2.7,2.8v3.9h-1.4V600z"/>
			<path d="M75.5,620.3c-1.6-1.5-2.4-4-2.4-6.6s0.9-5.2,2.7-6.8h1.4v0.1c-1.9,1.8-2.8,4.3-2.8,6.7s0.9,4.7,2.5,6.5v0.1H75.5z"/>
			<path d="M81.6,618.1h-3.3v-8.3h3.2c1.8,0,2.7,1,2.7,2.1c0,1-0.6,1.6-1.4,1.9c0.9,0.2,1.6,1,1.6,2
				C84.3,617.1,83.3,618.1,81.6,618.1z M81.3,610.8h-1.7v2.4h1.7c0.9,0,1.4-0.4,1.4-1.2C82.7,611.3,82.2,610.8,81.3,610.8z
				 M81.4,614.3h-1.8v2.6h1.8c0.9,0,1.5-0.5,1.5-1.3C82.9,614.8,82.3,614.3,81.4,614.3z"/>
			<path d="M92.5,609.7v8.3h-1.4l-4.1-6.2v6.2h-1.4v-8.3H87l4.1,6.2v-6.2H92.5z"/>
			<path d="M98,609.6c1.7,0,3.2,0.9,3.9,2.5h-1.6c-0.4-0.9-1.2-1.3-2.2-1.3c-1.7,0-2.9,1.2-2.9,3.1s1.2,3.1,2.9,3.1
				c1,0,1.8-0.4,2.2-1.3h1.6c-0.6,1.6-2.1,2.5-3.9,2.5c-2.4,0-4.3-1.8-4.3-4.3C93.8,611.4,95.7,609.6,98,609.6z"/>
			<path d="M107.2,609.6c1.7,0,3.2,0.9,3.9,2.5h-1.6c-0.4-0.9-1.2-1.3-2.2-1.3c-1.7,0-2.9,1.2-2.9,3.1s1.2,3.1,2.9,3.1
				c1,0,1.8-0.4,2.2-1.3h1.6c-0.6,1.6-2.1,2.5-3.9,2.5c-2.4,0-4.3-1.8-4.3-4.3C102.9,611.4,104.8,609.6,107.2,609.6z"/>
			<path d="M112.2,620.3v-0.1c1.7-1.7,2.5-4.1,2.5-6.5s-0.9-4.9-2.8-6.7v-0.1h1.4c1.8,1.6,2.7,4.2,2.7,6.8s-0.9,5.1-2.4,6.6H112.2z"
				/>
		</g>
	</g>
</g>
<g id="Contorno">
	<rect x="6.6" y="10.1" class="st17" width="306.8" height="713.2"/>
</g>
<g id="Numero">
	<text transform="matrix(1 0 0 1 25.2839 92.7579)" class="st14 st15">1997</text>
</g>
<g id="Txt">
	<g>
		<path d="M76.3,84.2c1.7,0,3.2,0.9,3.9,2.5h-1.6c-0.4-0.9-1.2-1.3-2.2-1.3c-1.7,0-2.9,1.2-2.9,3.1c0,1.9,1.2,3.1,2.9,3.1
			c1,0,1.8-0.4,2.2-1.3h1.6c-0.6,1.6-2.1,2.5-3.9,2.5c-2.4,0-4.3-1.8-4.3-4.3C72,85.9,73.9,84.2,76.3,84.2z"/>
		<path d="M84.5,92.7c-1.9,0-3.3-1.3-3.3-3.4c0-2.1,1.5-3.4,3.4-3.4s3.4,1.3,3.4,3.4C87.9,91.4,86.4,92.7,84.5,92.7z M84.5,91.5
			c1,0,2-0.7,2-2.2c0-1.5-1-2.2-2-2.2c-1,0-2,0.7-2,2.2C82.6,90.8,83.4,91.5,84.5,91.5z M85.8,83v1.2l-2.7,1.3v-1L85.8,83z"/>
		<path d="M91.8,85.9c0.9,0,1.8,0.4,2.3,1v-3.2h1.4v8.9h-1.4v-1c-0.4,0.6-1.2,1.1-2.3,1.1c-1.7,0-3.1-1.4-3.1-3.4
			C88.7,87.2,90.1,85.9,91.8,85.9z M92.1,87.1c-1,0-2,0.8-2,2.2s1,2.3,2,2.3c1,0,2-0.8,2-2.2C94.1,87.9,93.1,87.1,92.1,87.1z"/>
		<path d="M97,84.2c0-0.5,0.4-0.9,0.9-0.9c0.5,0,0.9,0.4,0.9,0.9s-0.4,0.9-0.9,0.9C97.4,85.1,97,84.7,97,84.2z M97.2,86h1.4v6.6
			h-1.4V86z"/>
		<path d="M102.9,85.9c1.1,0,1.9,0.5,2.3,1.1v-1h1.4v6.7c0,1.8-1.2,3.2-3.2,3.2c-1.8,0-3.1-0.9-3.2-2.3h1.4c0.2,0.7,0.9,1.2,1.9,1.2
			c1.1,0,1.8-0.6,1.8-2v-1.1c-0.4,0.6-1.2,1.1-2.3,1.1c-1.7,0-3.1-1.4-3.1-3.4C99.8,87.2,101.1,85.9,102.9,85.9z M103.2,87.1
			c-1,0-2,0.8-2,2.2s1,2.3,2,2.3c1,0,2-0.8,2-2.2C105.2,87.9,104.2,87.1,103.2,87.1z"/>
		<path d="M111.1,92.7c-1.9,0-3.3-1.3-3.3-3.4c0-2.1,1.5-3.4,3.4-3.4s3.4,1.3,3.4,3.4C114.5,91.4,113,92.7,111.1,92.7z M111.1,91.5
			c1,0,2-0.7,2-2.2c0-1.5-1-2.2-2-2.2c-1,0-2,0.7-2,2.2C109.2,90.8,110.1,91.5,111.1,91.5z"/>
		<path d="M121.4,85.9c0.9,0,1.8,0.4,2.3,1v-3.2h1.4v8.9h-1.4v-1c-0.4,0.6-1.2,1.1-2.3,1.1c-1.7,0-3.1-1.4-3.1-3.4
			C118.3,87.2,119.7,85.9,121.4,85.9z M121.7,87.1c-1,0-2,0.8-2,2.2s1,2.3,2,2.3c1,0,2-0.8,2-2.2C123.7,87.9,122.7,87.1,121.7,87.1z
			"/>
		<path d="M129.6,92.7c-1.9,0-3.3-1.3-3.3-3.4c0-2.1,1.3-3.4,3.3-3.4c1.9,0,3.2,1.3,3.2,3.3c0,0.2,0,0.4,0,0.7h-5
			c0.1,1.1,0.9,1.8,1.9,1.8c0.8,0,1.3-0.4,1.6-0.9h1.5C132.3,91.8,131.2,92.7,129.6,92.7z M127.8,88.7h3.7c0-1-0.8-1.7-1.8-1.7
			C128.6,87,127.9,87.7,127.8,88.7z"/>
		<path d="M136.6,84.3h5.8v1.1h-2.2v7.2h-1.4v-7.2h-2.2V84.3z"/>
		<path d="M145.1,92.6h-1.4V86h1.4v1c0.4-0.7,1-1.1,2-1.1v1.4h-0.3c-1,0-1.6,0.4-1.6,1.8V92.6z"/>
		<path d="M150.9,85.9c1.1,0,1.9,0.5,2.3,1.1v-1h1.4v6.6h-1.4v-1c-0.4,0.6-1.2,1.1-2.3,1.1c-1.7,0-3.1-1.4-3.1-3.4
			C147.7,87.2,149.1,85.9,150.9,85.9z M151.2,87.1c-1,0-2,0.8-2,2.2s1,2.3,2,2.3c1,0,2-0.8,2-2.2C153.2,87.9,152.2,87.1,151.2,87.1z
			 M153.1,85.5l-1.7-1l-1.7,1v-1.1l1.7-1l1.7,1V85.5z"/>
		<path d="M160.9,88.9c0-1.2-0.7-1.8-1.7-1.8c-1,0-1.7,0.6-1.7,1.8v3.7h-1.4V86h1.4v0.8c0.4-0.5,1.2-0.9,2-0.9c1.5,0,2.7,1,2.7,2.8
			v3.9h-1.4V88.9z"/>
		<path d="M166.3,92.7c-1.6,0-2.7-0.9-2.8-2.1h1.4c0,0.5,0.6,1,1.3,1c0.8,0,1.2-0.3,1.2-0.8c0-1.3-3.8-0.6-3.8-3
			c0-1.1,1-1.9,2.5-1.9c1.5,0,2.5,0.8,2.6,2.1h-1.4c0-0.6-0.5-1-1.2-1c-0.7,0-1.1,0.3-1.1,0.7c0,1.3,3.7,0.6,3.8,3
			C168.8,91.9,167.8,92.7,166.3,92.7z"/>
		<path d="M170,84.2c0-0.5,0.4-0.9,0.9-0.9c0.5,0,0.9,0.4,0.9,0.9s-0.4,0.9-0.9,0.9C170.4,85.1,170,84.7,170,84.2z M170.2,86h1.4
			v6.6h-1.4V86z"/>
		<path d="M173.4,87.1h-0.8V86h0.8v-1.6h1.4V86h1.6v1.1h-1.6v3.7c0,0.5,0.2,0.7,0.8,0.7h0.8v1.1h-1.1c-1.2,0-1.9-0.5-1.9-1.8V87.1z"
			/>
		<path d="M180.4,92.7c-1.9,0-3.3-1.3-3.3-3.4c0-2.1,1.5-3.4,3.4-3.4s3.4,1.3,3.4,3.4C183.9,91.4,182.3,92.7,180.4,92.7z
			 M180.4,91.5c1,0,2-0.7,2-2.2c0-1.5-1-2.2-2-2.2c-1,0-2,0.7-2,2.2C178.5,90.8,179.4,91.5,180.4,91.5z"/>
		<path d="M191.4,92.6h-3.3v-8.3h3.2c1.8,0,2.7,1,2.7,2.1c0,1-0.6,1.6-1.4,1.9c0.9,0.2,1.6,1,1.6,2
			C194.2,91.6,193.1,92.6,191.4,92.6z M191.2,85.4h-1.7v2.4h1.7c0.9,0,1.4-0.4,1.4-1.2C192.6,85.8,192,85.4,191.2,85.4z M191.3,88.9
			h-1.8v2.6h1.8c0.9,0,1.5-0.5,1.5-1.3C192.8,89.4,192.2,88.9,191.3,88.9z"/>
		<path d="M196.9,92.6h-1.4V86h1.4v1c0.4-0.7,1-1.1,2-1.1v1.4h-0.3c-1,0-1.6,0.4-1.6,1.8V92.6z"/>
		<path d="M202.7,85.9c1.1,0,1.9,0.5,2.3,1.1v-1h1.4v6.6H205v-1c-0.4,0.6-1.2,1.1-2.3,1.1c-1.7,0-3.1-1.4-3.1-3.4
			C199.6,87.2,201,85.9,202.7,85.9z M203,87.1c-1,0-2,0.8-2,2.2s1,2.3,2,2.3c1,0,2-0.8,2-2.2C205,87.9,204,87.1,203,87.1z"/>
		<path d="M210.4,92.7c-1.6,0-2.7-0.9-2.8-2.1h1.4c0,0.5,0.6,1,1.3,1c0.8,0,1.2-0.3,1.2-0.8c0-1.3-3.8-0.6-3.8-3
			c0-1.1,1-1.9,2.5-1.9c1.5,0,2.5,0.8,2.6,2.1h-1.4c0-0.6-0.5-1-1.2-1c-0.7,0-1.1,0.3-1.1,0.7c0,1.3,3.7,0.6,3.8,3
			C213,91.9,212,92.7,210.4,92.7z"/>
		<path d="M214.2,84.2c0-0.5,0.4-0.9,0.9-0.9c0.5,0,0.9,0.4,0.9,0.9s-0.4,0.9-0.9,0.9C214.5,85.1,214.2,84.7,214.2,84.2z M214.3,86
			h1.4v6.6h-1.4V86z"/>
		<path d="M217.4,83.7h1.4v8.9h-1.4V83.7z"/>
		<path d="M223.3,92.7c-1.9,0-3.3-1.3-3.3-3.4c0-2.1,1.3-3.4,3.3-3.4c1.9,0,3.2,1.3,3.2,3.3c0,0.2,0,0.4,0,0.7h-5
			c0.1,1.1,0.9,1.8,1.9,1.8c0.8,0,1.3-0.4,1.6-0.9h1.5C225.9,91.8,224.9,92.7,223.3,92.7z M221.4,88.7h3.7c0-1-0.8-1.7-1.8-1.7
			C222.3,87,221.5,87.7,221.4,88.7z"/>
		<path d="M227.5,84.2c0-0.5,0.4-0.9,0.9-0.9c0.5,0,0.9,0.4,0.9,0.9s-0.4,0.9-0.9,0.9C227.9,85.1,227.5,84.7,227.5,84.2z M227.7,86
			h1.4v6.6h-1.4V86z"/>
		<path d="M232.1,92.6h-1.4V86h1.4v1c0.4-0.7,1-1.1,2-1.1v1.4h-0.3c-1,0-1.6,0.4-1.6,1.8V92.6z"/>
		<path d="M238.1,92.7c-1.9,0-3.3-1.3-3.3-3.4c0-2.1,1.5-3.4,3.4-3.4s3.4,1.3,3.4,3.4C241.5,91.4,240,92.7,238.1,92.7z M238.1,91.5
			c1,0,2-0.7,2-2.2c0-1.5-1-2.2-2-2.2c-1,0-2,0.7-2,2.2C236.2,90.8,237.1,91.5,238.1,91.5z"/>
		<path d="M248.8,94.8c-1.6-1.5-2.4-4-2.4-6.6c0-2.6,0.9-5.2,2.7-6.8h1.4v0.1c-1.9,1.8-2.8,4.3-2.8,6.7c0,2.4,0.9,4.7,2.5,6.5v0.1
			H248.8z"/>
		<path d="M255.4,84.2c1.7,0,3.2,0.9,3.9,2.5h-1.6c-0.4-0.9-1.2-1.3-2.2-1.3c-1.7,0-2.9,1.2-2.9,3.1c0,1.9,1.2,3.1,2.9,3.1
			c1,0,1.8-0.4,2.2-1.3h1.6c-0.6,1.6-2.1,2.5-3.9,2.5c-2.4,0-4.3-1.8-4.3-4.3C251.1,85.9,253,84.2,255.4,84.2z"/>
		<path d="M260.3,84.3h5.8v1.1h-2.2v7.2h-1.4v-7.2h-2.2V84.3z"/>
		<path d="M270.7,92.6h-3.3v-8.3h3.2c1.8,0,2.7,1,2.7,2.1c0,1-0.6,1.6-1.4,1.9c0.9,0.2,1.6,1,1.6,2
			C273.4,91.6,272.4,92.6,270.7,92.6z M270.4,85.4h-1.7v2.4h1.7c0.9,0,1.4-0.4,1.4-1.2C271.9,85.8,271.3,85.4,270.4,85.4z
			 M270.5,88.9h-1.8v2.6h1.8c0.9,0,1.5-0.5,1.5-1.3C272.1,89.4,271.4,88.9,270.5,88.9z"/>
		<path d="M274.5,94.8v-0.1c1.7-1.7,2.5-4.1,2.5-6.5c0-2.4-0.9-4.9-2.8-6.7v-0.1h1.4c1.8,1.6,2.7,4.2,2.7,6.8c0,2.6-0.9,5.1-2.4,6.6
			H274.5z"/>
	</g>
	<g>
		<g>
			<path d="M74.8,239.1h-1.5v3.4h-1.4v-8.3h2.9c2,0,3,1.1,3,2.5C77.7,237.9,76.9,239.1,74.8,239.1z M74.8,238c1.1,0,1.5-0.5,1.5-1.4
				c0-0.9-0.5-1.4-1.5-1.4h-1.5v2.7H74.8z"/>
			<path d="M81.6,235.8c1.1,0,1.9,0.5,2.3,1.1v-1h1.4v6.6h-1.4v-1c-0.4,0.6-1.2,1.1-2.3,1.1c-1.7,0-3.1-1.4-3.1-3.4
				C78.5,237.2,79.8,235.8,81.6,235.8z M81.9,237c-1,0-2,0.8-2,2.2s1,2.3,2,2.3c1,0,2-0.8,2-2.2C83.9,237.8,82.9,237,81.9,237z"/>
			<path d="M88.3,242.5h-1.4v-6.6h1.4v1c0.4-0.7,1-1.1,2-1.1v1.4h-0.3c-1,0-1.6,0.4-1.6,1.8V242.5z"/>
			<path d="M94.1,235.8c1.1,0,1.9,0.5,2.3,1.1v-1h1.4v6.6h-1.4v-1c-0.4,0.6-1.2,1.1-2.3,1.1c-1.7,0-3.1-1.4-3.1-3.4
				C91,237.2,92.3,235.8,94.1,235.8z M94.4,237c-1,0-2,0.8-2,2.2s1,2.3,2,2.3c1,0,2-0.8,2-2.2C96.4,237.8,95.4,237,94.4,237z
				 M96.3,235.5l-1.7-1l-1.7,1v-1.1l1.7-1l1.7,1V235.5z"/>
			<path d="M108.8,238.8c0-1.2-0.7-1.8-1.7-1.8c-1,0-1.7,0.6-1.7,1.8v3.7h-1.4v-3.7c0-1.2-0.7-1.8-1.7-1.8c-1,0-1.7,0.6-1.7,1.8v3.7
				h-1.4v-6.6h1.4v0.8c0.4-0.5,1.2-0.9,2-0.9c1,0,1.9,0.4,2.4,1.3c0.4-0.8,1.3-1.3,2.3-1.3c1.5,0,2.7,1,2.7,2.8v3.9h-1.4V238.8z"/>
			<path d="M114.6,242.6c-1.9,0-3.3-1.3-3.3-3.4c0-2.1,1.3-3.4,3.3-3.4c1.9,0,3.2,1.3,3.2,3.3c0,0.2,0,0.4,0,0.7h-5
				c0.1,1.1,0.9,1.8,1.9,1.8c0.8,0,1.3-0.4,1.6-0.9h1.5C117.3,241.7,116.2,242.6,114.6,242.6z M112.8,238.6h3.7c0-1-0.8-1.7-1.8-1.7
				C113.6,237,112.9,237.6,112.8,238.6z"/>
			<path d="M119.3,237h-0.8v-1.1h0.8v-1.6h1.4v1.6h1.6v1.1h-1.6v3.7c0,0.5,0.2,0.7,0.8,0.7h0.8v1.1h-1.1c-1.2,0-1.9-0.5-1.9-1.8V237
				z"/>
			<path d="M124.8,242.5h-1.4v-6.6h1.4v1c0.4-0.7,1-1.1,2-1.1v1.4h-0.3c-1,0-1.6,0.4-1.6,1.8V242.5z"/>
			<path d="M130.8,242.6c-1.9,0-3.3-1.3-3.3-3.4c0-2.1,1.5-3.4,3.4-3.4s3.4,1.3,3.4,3.4C134.2,241.3,132.7,242.6,130.8,242.6z
				 M130.8,241.4c1,0,2-0.7,2-2.2c0-1.5-1-2.2-2-2.2c-1,0-2,0.7-2,2.2C128.8,240.7,129.7,241.4,130.8,241.4z"/>
			<path d="M137.8,242.6c-1.6,0-2.7-0.9-2.8-2.1h1.4c0,0.5,0.6,1,1.3,1c0.8,0,1.2-0.3,1.2-0.8c0-1.3-3.8-0.6-3.8-3
				c0-1.1,1-1.9,2.5-1.9c1.5,0,2.5,0.8,2.6,2.1h-1.4c0-0.6-0.5-1-1.2-1c-0.7,0-1.1,0.3-1.1,0.7c0,1.3,3.7,0.6,3.8,3
				C140.4,241.8,139.4,242.6,137.8,242.6z"/>
			<path d="M148.5,234.1c1.7,0,3.2,0.9,3.9,2.5h-1.6c-0.4-0.9-1.2-1.3-2.2-1.3c-1.7,0-2.9,1.2-2.9,3.1c0,1.9,1.2,3.1,2.9,3.1
				c1,0,1.8-0.4,2.2-1.3h1.6c-0.6,1.6-2.1,2.5-3.9,2.5c-2.4,0-4.3-1.8-4.3-4.3C144.3,235.8,146.2,234.1,148.5,234.1z"/>
			<path d="M159.9,242.5h-1.4v-0.8c-0.4,0.6-1.2,0.9-2,0.9c-1.5,0-2.7-1-2.7-2.8v-3.9h1.4v3.7c0,1.2,0.7,1.8,1.7,1.8
				c1,0,1.7-0.6,1.7-1.8v-3.7h1.4V242.5z"/>
			<path d="M162.9,242.5h-1.4v-6.6h1.4v1c0.4-0.7,1-1.1,2-1.1v1.4h-0.3c-1,0-1.6,0.4-1.6,1.8V242.5z"/>
			<path d="M167.4,242.5H166v-6.6h1.4v1c0.4-0.7,1-1.1,2-1.1v1.4H169c-1,0-1.6,0.4-1.6,1.8V242.5z"/>
			<path d="M170.3,234.2c0-0.5,0.4-0.9,0.9-0.9c0.5,0,0.9,0.4,0.9,0.9s-0.4,0.9-0.9,0.9C170.7,235,170.3,234.7,170.3,234.2z
				 M170.5,235.9h1.4v6.6h-1.4V235.9z"/>
			<path d="M176.4,235.8c1.6,0,2.7,0.8,3,2.2h-1.5c-0.2-0.6-0.8-1-1.6-1c-1.1,0-1.8,0.8-1.8,2.3c0,1.5,0.7,2.3,1.8,2.3
				c0.8,0,1.3-0.4,1.6-1h1.5c-0.4,1.3-1.4,2.2-3,2.2c-1.9,0-3.2-1.3-3.2-3.4C173.1,237.2,174.5,235.8,176.4,235.8z"/>
			<path d="M186.6,242.5h-1.4v-0.8c-0.4,0.6-1.2,0.9-2,0.9c-1.5,0-2.7-1-2.7-2.8v-3.9h1.4v3.7c0,1.2,0.7,1.8,1.7,1.8
				c1,0,1.7-0.6,1.7-1.8v-3.7h1.4V242.5z"/>
			<path d="M188.3,233.7h1.4v8.9h-1.4V233.7z"/>
			<path d="M194,235.8c1.1,0,1.9,0.5,2.3,1.1v-1h1.4v6.6h-1.4v-1c-0.4,0.6-1.2,1.1-2.3,1.1c-1.7,0-3.1-1.4-3.1-3.4
				C190.9,237.2,192.3,235.8,194,235.8z M194.3,237c-1,0-2,0.8-2,2.2s1,2.3,2,2.3c1,0,2-0.8,2-2.2C196.3,237.8,195.3,237,194.3,237z
				"/>
			<path d="M200.7,242.5h-1.4v-6.6h1.4v1c0.4-0.7,1-1.1,2-1.1v1.4h-0.3c-1,0-1.6,0.4-1.6,1.8V242.5z"/>
			<path d="M206.7,242.6c-1.9,0-3.3-1.3-3.3-3.4c0-2.1,1.3-3.4,3.3-3.4c1.9,0,3.2,1.3,3.2,3.3c0,0.2,0,0.4,0,0.7h-5
				c0.1,1.1,0.9,1.8,1.9,1.8c0.8,0,1.3-0.4,1.6-0.9h1.5C209.4,241.7,208.3,242.6,206.7,242.6z M204.8,238.6h3.7c0-1-0.8-1.7-1.8-1.7
				C205.7,237,205,237.6,204.8,238.6z"/>
			<path d="M213.6,242.6c-1.6,0-2.7-0.9-2.8-2.1h1.4c0,0.5,0.6,1,1.3,1c0.8,0,1.2-0.3,1.2-0.8c0-1.3-3.8-0.6-3.8-3
				c0-1.1,1-1.9,2.5-1.9c1.5,0,2.5,0.8,2.6,2.1h-1.4c0-0.6-0.5-1-1.2-1c-0.7,0-1.1,0.3-1.1,0.7c0,1.3,3.7,0.6,3.8,3
				C216.1,241.8,215.1,242.6,213.6,242.6z"/>
			<path d="M227.3,234.2v8.3h-1.4l-4.1-6.2v6.2h-1.4v-8.3h1.4l4.1,6.2v-6.2H227.3z"/>
			<path d="M231.6,235.8c1.1,0,1.9,0.5,2.3,1.1v-1h1.4v6.6h-1.4v-1c-0.4,0.6-1.2,1.1-2.3,1.1c-1.7,0-3.1-1.4-3.1-3.4
				C228.5,237.2,229.9,235.8,231.6,235.8z M231.9,237c-1,0-2,0.8-2,2.2s1,2.3,2,2.3c1,0,2-0.8,2-2.2C233.9,237.8,233,237,231.9,237z
				"/>
			<path d="M239.8,235.8c1.6,0,2.7,0.8,3,2.2h-1.5c-0.2-0.6-0.8-1-1.6-1c-1.1,0-1.8,0.8-1.8,2.3c0,1.5,0.7,2.3,1.8,2.3
				c0.8,0,1.3-0.4,1.6-1h1.5c-0.4,1.3-1.4,2.2-3,2.2c-1.9,0-3.2-1.3-3.2-3.4C236.5,237.2,237.9,235.8,239.8,235.8z"/>
			<path d="M243.9,234.2c0-0.5,0.4-0.9,0.9-0.9c0.5,0,0.9,0.4,0.9,0.9s-0.4,0.9-0.9,0.9C244.3,235,243.9,234.7,243.9,234.2z
				 M244.1,235.9h1.4v6.6h-1.4V235.9z"/>
			<path d="M250,242.6c-1.9,0-3.3-1.3-3.3-3.4c0-2.1,1.5-3.4,3.4-3.4s3.4,1.3,3.4,3.4C253.4,241.3,251.9,242.6,250,242.6z
				 M250,241.4c1,0,2-0.7,2-2.2c0-1.5-1-2.2-2-2.2c-1,0-2,0.7-2,2.2C248.1,240.7,248.9,241.4,250,241.4z"/>
			<path d="M259.3,238.8c0-1.2-0.7-1.8-1.7-1.8c-1,0-1.7,0.6-1.7,1.8v3.7h-1.4v-6.6h1.4v0.8c0.4-0.5,1.2-0.9,2-0.9
				c1.5,0,2.7,1,2.7,2.8v3.9h-1.4V238.8z"/>
			<path d="M265,235.8c1.1,0,1.9,0.5,2.3,1.1v-1h1.4v6.6h-1.4v-1c-0.4,0.6-1.2,1.1-2.3,1.1c-1.7,0-3.1-1.4-3.1-3.4
				C261.9,237.2,263.2,235.8,265,235.8z M265.3,237c-1,0-2,0.8-2,2.2s1,2.3,2,2.3c1,0,2-0.8,2-2.2C267.3,237.8,266.3,237,265.3,237z
				"/>
			<path d="M270.2,234.2c0-0.5,0.4-0.9,0.9-0.9c0.5,0,0.9,0.4,0.9,0.9s-0.4,0.9-0.9,0.9C270.5,235,270.2,234.7,270.2,234.2z
				 M270.3,235.9h1.4v6.6h-1.4V235.9z"/>
			<path d="M275.8,242.6c-1.6,0-2.7-0.9-2.8-2.1h1.4c0,0.5,0.6,1,1.3,1c0.8,0,1.2-0.3,1.2-0.8c0-1.3-3.8-0.6-3.8-3
				c0-1.1,1-1.9,2.5-1.9c1.5,0,2.5,0.8,2.6,2.1h-1.4c0-0.6-0.5-1-1.2-1c-0.7,0-1.1,0.3-1.1,0.7c0,1.3,3.7,0.6,3.8,3
				C278.3,241.8,277.3,242.6,275.8,242.6z"/>
			<path d="M74.9,259.2c-1.6-1.5-2.4-4-2.4-6.6c0-2.6,0.9-5.2,2.7-6.8h1.4v0.1c-1.9,1.8-2.8,4.3-2.8,6.7c0,2.4,0.9,4.7,2.5,6.5v0.1
				H74.9z"/>
			<path d="M80.6,253.5H79v3.4h-1.4v-8.3h2.9c2,0,3,1.1,3,2.5C83.5,252.3,82.7,253.5,80.6,253.5z M80.6,252.4c1.1,0,1.5-0.5,1.5-1.4
				c0-0.9-0.5-1.4-1.5-1.4H79v2.7H80.6z"/>
			<path d="M88.5,248.5c1.7,0,3.2,0.9,3.9,2.5h-1.6c-0.4-0.9-1.2-1.3-2.2-1.3c-1.7,0-2.9,1.2-2.9,3.1c0,1.9,1.2,3.1,2.9,3.1
				c1,0,1.8-0.4,2.2-1.3h1.6c-0.6,1.6-2.1,2.5-3.9,2.5c-2.4,0-4.3-1.8-4.3-4.3C84.2,250.2,86.1,248.5,88.5,248.5z"/>
			<path d="M100.7,248.6v8.3h-1.4l-4.1-6.2v6.2h-1.4v-8.3h1.4l4.1,6.2v-6.2H100.7z"/>
			<path d="M102,259.2V259c1.7-1.7,2.5-4.1,2.5-6.5c0-2.4-0.9-4.9-2.8-6.7v-0.1h1.4c1.8,1.6,2.7,4.2,2.7,6.8c0,2.6-0.9,5.1-2.4,6.6
				H102z"/>
		</g>
	</g>
	<rect x="71.6" y="99.9" class="st2" width="225.7" height="124.9"/>
	<text transform="matrix(1 0 0 1 71.5583 109.7984)"><tspan x="0" y="0" class="st18 st19">A educação para o trânsito será </tspan><tspan x="0" y="11" class="st18 st19">promovida na pré-escola e nas escolas </tspan><tspan x="0" y="22" class="st18 st19">de 1º, 2º e 3º graus por meio de </tspan><tspan x="0" y="33" class="st18 st19">planejamento e ações coordenadas </tspan><tspan x="0" y="44" class="st18 st19">entre órgãos e entidades do Sistema </tspan><tspan x="0" y="55" class="st18 st19">Nacional de Trânsito e de Educação, </tspan><tspan x="0" y="66" class="st18 st19">da União, dos Estados, do Distrito </tspan><tspan x="0" y="77" class="st18 st19">Federal e dos Municípios, nas </tspan><tspan x="0" y="88" class="st18 st19">respectivas áreas de atuação. (BRASIL, </tspan><tspan x="0" y="99" class="st18 st19">1997, p.28)</tspan></text>
	<g>
		<rect x="71.6" y="265.3" class="st2" width="217.2" height="92.9"/>
		<text transform="matrix(1 0 0 1 71.5583 275.2047)"><tspan x="0" y="0" class="st18 st19">Sob a denominação de Temas </tspan><tspan x="0" y="11" class="st18 st19">Locais, pretendem contemplar os </tspan><tspan x="0" y="22" class="st18 st19">temas de interesse específico de </tspan><tspan x="0" y="33" class="st18 st19">uma determinada realidade, sendo </tspan><tspan x="0" y="44" class="st18 st19">exemplificado o tema trânsito que </tspan><tspan x="0" y="55" class="st18 st19">poderá receber o mesmo tratamento </tspan><tspan x="0" y="66" class="st18 st19">dados aos outros Temas </tspan><tspan x="0" y="77" class="st18 st19">Transversais.</tspan></text>
	</g>
	<g>
		<rect x="71.6" y="406.5" class="st2" width="217.2" height="68.9"/>
		<text transform="matrix(1 0 0 1 71.5583 416.4027)"><tspan x="0" y="0" class="st18 st19">Diretrizes Nacionais da Educação </tspan><tspan x="0" y="11" class="st18 st19">para o Trânsito – Estabelece que o </tspan><tspan x="0" y="22" class="st18 st19">trânsito deve ser trabalhado de </tspan><tspan x="0" y="33" class="st18 st19">maneira transversal no Ensino </tspan><tspan x="0" y="44" class="st18 st19">Fundamental, traçando objetivos e </tspan><tspan x="0" y="55" class="st18 st19">diretrizes. (Portaria 147).</tspan></text>
	</g>
	<g>
		<rect x="71.6" y="526.4" class="st2" width="217.2" height="47.9"/>
		<text transform="matrix(1 0 0 1 71.5583 536.2516)"><tspan x="0" y="0" class="st18 st19">Um dos objetivos da Política Nacional </tspan><tspan x="0" y="11" class="st18 st19">disposto é aprimorar a educação </tspan><tspan x="0" y="22" class="st18 st19">para a cidadania no trânsito </tspan><tspan x="0" y="33" class="st18 st19">(Resolução nº 514).</tspan></text>
	</g>
	<g>
		<rect x="71.6" y="626.4" class="st2" width="217.2" height="79.3"/>
		<text transform="matrix(1 0 0 1 71.5583 636.2487)"><tspan x="0" y="0" class="st18 st19">A educação para o trânsito é um </tspan><tspan x="0" y="11" class="st18 st19">tema em destaque quando a base </tspan><tspan x="0" y="22" class="st18 st19">cita; “abordar temas </tspan><tspan x="0" y="33" class="st18 st19">contemporâneos que afetam a vida </tspan><tspan x="0" y="44" class="st18 st19">humana em escala local, regional e </tspan><tspan x="0" y="55" class="st18 st19">global, preferencialmente de forma </tspan><tspan x="0" y="66" class="st18 st19">transversal e integradora.”</tspan></text>
	</g>
</g>
</svg>
