<?xml version="1.0" encoding="utf-8"?>
<!-- Generator: Adobe Illustrator 23.0.1, SVG Export Plug-In . SVG Version: 6.00 Build 0)  -->
<svg version="1.1" id="Camada_1" xmlns="http://www.w3.org/2000/svg" xmlns:xlink="http://www.w3.org/1999/xlink" x="0px" y="0px"
	 viewBox="0 0 300 67" style="enable-background:new 0 0 300 67;" xml:space="preserve">
<style type="text/css">
	.st0{fill:#FFFFFF;}
	.st1{fill:#FDC62F;}
	.st2{fill:#F0F0F0;}
</style>
<path class="st0" d="M0.2,67h299.7l0.1-35.7L18.8,30.5h-0.2c-0.1,0-0.2,0-0.3,0l-0.4,0.1l-0.8,0.1c-0.5,0.1-1,0.2-1.5,0.3
	c-1,0.2-2,0.6-2.9,0.9C10.8,32.7,9,33.7,7.4,35c-1.7,1.3-3,2.8-4.1,4.5s-2,3.6-2.5,5.5c-0.3,1-0.4,2-0.5,3l-0.1,1.5v1.4v5.5L0.2,67z
	"/>
<polygon class="st1" points="298,67 300,67 300,31.3 184.3,30.9 184.3,33.7 297.9,33.3 "/>
<path class="st1" d="M0,67h3.8c0-0.4,0-0.8,0-1.1V54.7c0-1.9,0-3.8,0-5.5s0.4-3.3,1-4.9C7,38.4,13.4,34,20,34c0.3,0,0.6,0,0.9,0
	c31.4,0,62.9-0.1,94.2-0.2v-3.3l-96.3-0.2h-0.2l0,0c0,0,0,0-0.1,0c0,0,0,0-0.1,0s-0.1,0-0.2,0l-0.4,0.1L17,30.5
	c-0.5,0.1-1,0.2-1.5,0.3c-1,0.2-2,0.6-2.9,0.9c-1.9,0.8-3.7,1.8-5.3,3.1s-3,2.8-4.1,4.5s-2,3.6-2.5,5.5c-0.3,1-0.4,2-0.5,3L0,49.3
	v1.4v5.5V67z"/>
<ellipse class="st0" cx="149.8" cy="33.4" rx="35" ry="32.8"/>
<path class="st1" d="M149.8,5.3L149.8,5.3L149.8,5.3c-7.4,0-14.9,2.9-20.2,7.9c-2.7,2.6-4.9,5.6-6.3,9c-1.5,3.4-2.2,7.1-2.1,10.8
	s0.9,7.3,2.5,10.6s3.8,6.2,6.4,8.6c5.3,4.8,12.5,7.3,19.6,7.3l0,0c0-1.2,0-0.1,0-1.3l0,0c-6.8,0-13.7-2.7-18.5-7.3
	c-2.5-2.4-4.5-5.1-5.7-8.2s-1.9-6.4-1.8-9.8c0.1-6.7,3.4-13.1,8.3-17.3c4.9-4.3,11.3-6.5,17.7-6.5c0.1,0,0.3,0,0.4,0
	c6.5,0,13,2.5,17.8,6.9c4.9,4.4,7.9,10.8,7.9,17.4c0.1,6.6-2.8,13.2-7.7,17.8c-4.9,4.7-11.7,7-18.4,7v0.2c0,1.2,0-0.1,0,1.1l0,0
	c7.1,0,14.3-2.4,19.6-7.1c2.7-2.4,5-5.3,6.5-8.6c1.6-3.3,2.4-6.9,2.5-10.6c0.1-3.7-0.6-7.3-2.1-10.8c-1.5-3.4-3.7-6.4-6.3-9
	C164.7,8.2,157.2,5.3,149.8,5.3"/>
<path class="st2" d="M149.8,11.8c-12.8,0-23.2,9.7-23.2,21.7s10.3,21.7,23.2,21.7c12.8,0,23.2-9.7,23.2-21.7S162.6,11.8,149.8,11.8"
	/>
<g>
	<g>
		<path d="M155.8,24.3c-0.8,0.4-1.7,0.8-2.8,1c-1,0.2-2,0.3-2.9,0.1c0,0-0.1-0.1-0.1-0.2s0-0.1,0.1-0.2c0.8-0.4,1.7-0.8,2.7-1
			c1-0.2,2.1-0.3,3-0.1c0,0,0.1,0.1,0.1,0.2S155.8,24.3,155.8,24.3z"/>
	</g>
	<g>
		<path d="M143.3,26.7c-0.8,0.4-1.7,0.8-2.8,1c-1,0.2-2,0.3-2.9,0.1c0,0-0.1-0.1-0.1-0.2c0-0.1,0-0.1,0.1-0.2c0.8-0.4,1.7-0.8,2.7-1
			c1-0.2,2.1-0.3,3-0.1c0,0,0.1,0.1,0.1,0.2C143.4,26.5,143.3,26.7,143.3,26.7z"/>
	</g>
	<g>
		<path d="M145.7,22.1c-0.4-0.8-0.8-1.7-1-2.8c-0.2-1-0.3-2-0.1-2.9c0,0,0.1-0.1,0.2-0.1c0.1,0,0.1,0,0.2,0.1c0.4,0.8,0.8,1.7,1,2.7
			c0.2,1,0.3,2.1,0.1,3c0,0-0.1,0.1-0.2,0.1C145.8,22.2,145.8,22.2,145.7,22.1z"/>
	</g>
	<g>
		<path d="M148.5,22.9c0.3-0.8,0.7-1.8,1.3-2.6c0.6-0.9,1.3-1.6,1.9-2.2c0,0,0.1,0,0.2,0.1c0.1,0.1,0.1,0.1,0.1,0.2
			c-0.3,0.8-0.7,1.8-1.3,2.6c-0.6,0.9-1.3,1.6-1.9,2.2c0,0-0.1,0-0.2-0.1C148.5,23,148.5,22.9,148.5,22.9z"/>
	</g>
	<g>
		<path d="M138.4,20.6c0.8,0.3,1.8,0.7,2.6,1.3s1.6,1.3,2.2,1.9c0,0,0,0.1-0.1,0.2c-0.1,0.1-0.1,0.1-0.2,0.1
			c-0.8-0.3-1.8-0.7-2.6-1.3c-0.9-0.6-1.6-1.3-2.2-1.9c0,0,0-0.1,0.1-0.2C138.2,20.7,138.3,20.6,138.4,20.6z"/>
	</g>
	<path d="M161.8,35.2c-0.1-0.6-0.3-1.3-0.5-2c-0.2-0.7-0.8-1.1-1.5-1.4c-0.4-0.1-0.7-0.2-1-0.2c-0.3,0-0.8,0.1-1.1,0.2l0,0
		c-0.2-0.4-0.6-0.6-0.8-0.9c-0.4-0.3-0.7-0.3-1.1-0.4c-0.6-0.1-1.1-0.1-1.7,0.2l-0.1,0c-0.1,0-0.1-0.1-0.1-0.1
		c-0.4-0.6-1.1-0.9-1.8-0.9c-0.6-0.1-1.2,0-1.7,0.3l-0.1,0l0-0.1c-0.1-0.7-0.3-1.5-0.5-2.2c-0.1-0.7-0.3-1.3-0.6-2
		c-0.2-0.6-0.7-1.3-1.3-1.7c-0.2-0.2-0.6-0.3-1.1-0.4c-0.4,0-0.8,0.1-1.2,0.1c-0.3,0.1-0.7,0.3-1,0.6c-0.3,0.3-0.4,0.6-0.6,0.9
		c-0.3,0.8-0.2,1.8-0.1,2.6c0.1,0.8,0.2,1.7,0.4,2.6c0.2,0.8,0.3,1.7,0.4,2.5c0.3,1.6,0.6,3,0.9,4.6c0.1,0.4,0.2,0.8,0.2,1.2
		c0,0.1,0,0.2,0.1,0.3c0,0.1,0,0.2-0.1,0.1c-0.2,0-0.4-0.1-0.6-0.2c-0.2-0.1-0.5-0.1-0.7-0.2c-0.4-0.1-0.7-0.2-1-0.3
		c-0.4-0.1-0.8-0.2-1.1-0.2c-0.3,0-0.8-0.1-1.2,0c-1.1,0.1-2.3,0.7-2.8,1.7c-0.1,0.2-0.1,0.6-0.2,0.8c0,0.7,0.6,1.3,1.2,1.7
		c0.6,0.5,1.5,0.9,2.2,1.3c0.6,0.3,1.2,0.5,1.7,0.9c0.6,0.2,1.1,0.5,1.6,0.9c1.1,0.5,2.1,1.2,3.1,1.9c1,0.7,1.9,1.4,2.8,2.2
		c0.2,0.2,0.4,0.4,0.5,0.4c0.1,0.1,0.2,0.2,0.4,0.3c0.1,0,0.2-0.1,0.1-0.4c0-0.2-0.2-0.6-0.5-0.9c-0.8-0.8-1.7-1.6-2.6-2.4
		c-0.9-0.8-1.9-1.5-3-2.1c-0.5-0.3-1.1-0.7-1.6-1c-0.6-0.3-1.1-0.5-1.6-0.9c-0.5-0.3-1-0.7-1.6-1c-0.2-0.2-0.5-0.3-0.7-0.5
		c0-0.1-0.1-0.1-0.1-0.2c0-0.1,0.1-0.2,0.1-0.4c0.4-0.4,1-0.5,1.5-0.4c1.1,0.1,2.3,0.5,3.3,1c0.2,0.1,0.5,0.2,0.8,0.3
		c0.6,0.2,1.1,0.5,1.7,0.4c0.8-0.2,0.7-1.2,0.7-2c-0.1-0.5-0.2-1-0.3-1.5c-0.1-0.4-0.1-0.7-0.2-1.1c-0.3-1.5-0.5-3-0.8-4.6
		c-0.2-1-0.3-2.2-0.5-3.2c-0.1-0.5-0.2-1.1-0.2-1.7c-0.1-0.3,0-0.7-0.1-1.1c0-0.2,0-0.5,0.2-0.7s0.3,0,0.5,0.2
		c0.3,0.6,0.5,1.3,0.6,2c0.1,0.7,0.4,1.3,0.5,2.1c0.1,0.7,0.3,1.3,0.5,2.1c0.1,0.6,0.2,1.4,0.7,1.8c0.5,0.4,1.3,0.3,1.7-0.3
		c0.2-0.2,0.2-0.6,0.3-0.8c0-0.3,0.2-0.7,0.3-1c0-0.1,0.1-0.1,0.1-0.1c0.2-0.1,0.5,0,0.7,0.1c0.2,0.2,0.2,0.7,0.2,1
		c0,0.5,0.1,1.2,0.8,1.4c0.1,0.1,0.3,0,0.4,0c0.2,0,0.3-0.2,0.5-0.2c0.2-0.1,0.3-0.4,0.4-0.6c0.2-0.2,0.2-0.6,0.4-0.8l0.1-0.1
		c0.2-0.1,0.6,0,0.8,0.1c0.1,0.1,0.2,0.2,0.2,0.4c0.1,0.6,0,1.6,0.8,1.8c0.2,0.1,0.3,0,0.5,0c0.4-0.2,0.6-0.7,0.9-1
		c0.1-0.1,0.2-0.2,0.3-0.3c0.2-0.1,0.4-0.1,0.6,0c0.2,0.1,0.5,0.1,0.6,0.3c0.3,0.3,0.3,0.8,0.4,1.1c0.1,0.3,0.2,0.6,0.3,0.9
		c0.1,0.6,0.3,1.1,0.4,1.7c0.1,0.6,0.2,1.1,0.3,1.8c0.1,0.3,0.1,0.6,0.1,0.8c0.1,0.3,0,0.5,0.1,0.8c0,1.2-0.2,2.3-0.4,3.4
		c-0.1,0.1,0,0.3-0.1,0.5c0,0.1-0.1,0.2-0.1,0.5c-0.1,0.2-0.1,0.6-0.2,0.8c-0.4,0.9-1.4,2.4-0.5,3.3c0.1,0.1,0.1,0.2,0.2,0.2
		c0.1,0,0.1,0,0.1,0c0.1,0,0.1-0.2,0-0.4c0-0.5,0-0.9,0.3-1.3c0.2-0.5,0.5-0.9,0.7-1.4c0.2-0.2,0.2-0.6,0.3-0.8
		c0.1-0.1,0-0.3,0.1-0.5l0.1-0.5c0.3-1.1,0.6-2.4,0.7-3.6c0-0.3,0-0.6,0-1c-0.1-0.3,0-0.6-0.1-1c0-0.6-0.1-1.3-0.3-1.9
		C162.1,36.4,161.9,35.8,161.8,35.2z"/>
</g>
</svg>
