<?xml version="1.0" encoding="utf-8"?>
<!-- Generator: Adobe Illustrator 23.0.1, SVG Export Plug-In . SVG Version: 6.00 Build 0)  -->
<svg version="1.1" id="Camada_1" xmlns="http://www.w3.org/2000/svg" xmlns:xlink="http://www.w3.org/1999/xlink" x="0px" y="0px"
	 viewBox="0 0 300 20" style="enable-background:new 0 0 300 20;" xml:space="preserve">
<style type="text/css">
	.st0{fill:#FFFFFF;}
	.st1{fill:#FDC62F;}
</style>
<path class="st0" d="M0,0l1.4,18.3l140.2-0.4c0,0,140.4-0.1,140.3-0.2c3.9,0,7.4-0.8,10.4-3.3c3-2.4,5.9-5.9,6.7-9.7
	c0.3-1.5,0.5-3.3,0.5-4.7L1,0H0z"/>
<path class="st1" d="M298,0c0,1.4-0.2,3-0.4,4.4c-0.7,3.5-3,6.7-5.8,8.9c-2.8,2.3-6.3,3.5-9.8,3.5c0,0-93.4-0.2-140.1-0.2
	C95.7,16.4,50,16.3,4,16.1C4,10.8,3.9,5.3,3.9,0H0v19l142-0.5l140-0.3c3.9,0,7.7-1.3,10.7-3.8c3-2.4,6-5.9,6.8-9.7
	c0.3-1.5,0.5-3.3,0.5-4.7h-1.5C298.5,0,298,0,298,0z"/>
</svg>
