<?xml version="1.0" encoding="utf-8"?>
<!-- Generator: Adobe Illustrator 23.0.1, SVG Export Plug-In . SVG Version: 6.00 Build 0)  -->
<svg version="1.1" id="Camada_1" xmlns="http://www.w3.org/2000/svg" xmlns:xlink="http://www.w3.org/1999/xlink" x="0px" y="0px"
	 viewBox="0 0 300 67" style="enable-background:new 0 0 300 67;" xml:space="preserve">
<style type="text/css">
	.st0{fill:#FFFFFF;}
	.st1{fill:#FDC62F;}
	.st2{fill:#F0F0F0;}
</style>
<path class="st0" d="M0.2,67h299.7l0.1-35.7L18.8,30.5h-0.2c-0.1,0-0.2,0-0.3,0l-0.4,0.1l-0.8,0.1c-0.5,0.1-1,0.2-1.5,0.3
	c-1,0.2-2,0.6-2.9,0.9c-1.9,0.8-3.7,1.8-5.3,3.1c-1.7,1.3-3,2.8-4.1,4.5c-1.1,1.7-2,3.6-2.5,5.5c-0.3,1-0.4,2-0.5,3l-0.1,1.5v1.4
	v5.5L0.2,67z"/>
<polygon class="st1" points="298,67 300,67 300,31.3 184.3,30.9 184.3,33.7 297.9,33.3 "/>
<path class="st1" d="M0,67h3.8c0-0.4,0-0.8,0-1.1V54.7c0-1.9,0-3.8,0-5.5c0-1.7,0.4-3.3,1-4.9C7,38.4,13.4,34,20,34
	c0.3,0,0.6,0,0.9,0c31.4,0,62.9-0.1,94.2-0.2v-3.3l-96.3-0.2h-0.2l0,0c0,0,0,0-0.1,0c0,0,0,0-0.1,0s-0.1,0-0.2,0l-0.4,0.1l-0.8,0.1
	c-0.5,0.1-1,0.2-1.5,0.3c-1,0.2-2,0.6-2.9,0.9c-1.9,0.8-3.7,1.8-5.3,3.1s-3,2.8-4.1,4.5s-2,3.6-2.5,5.5c-0.3,1-0.4,2-0.5,3L0,49.3
	v1.4v5.5V67z"/>
<ellipse class="st0" cx="149.8" cy="33.4" rx="35" ry="32.8"/>
<path class="st1" d="M149.8,5.3L149.8,5.3L149.8,5.3c-7.4,0-14.9,2.9-20.2,7.9c-2.7,2.6-4.9,5.6-6.3,9c-1.5,3.4-2.2,7.1-2.1,10.8
	c0.1,3.7,0.9,7.3,2.5,10.6c1.6,3.3,3.8,6.2,6.4,8.6c5.3,4.8,12.5,7.3,19.6,7.3l0,0c0-1.2,0-0.1,0-1.3l0,0c-6.8,0-13.7-2.7-18.5-7.3
	c-2.5-2.4-4.5-5.1-5.7-8.2s-1.9-6.4-1.8-9.8c0.1-6.7,3.4-13.1,8.3-17.3c4.9-4.3,11.3-6.5,17.7-6.5c0.1,0,0.3,0,0.4,0
	c6.5,0,13,2.5,17.8,6.9c4.9,4.4,7.9,10.8,7.9,17.4c0.1,6.6-2.8,13.2-7.7,17.8c-4.9,4.7-11.7,7-18.4,7v0.2c0,1.2,0-0.1,0,1.1l0,0
	c7.1,0,14.3-2.4,19.6-7.1c2.7-2.4,5-5.3,6.5-8.6c1.6-3.3,2.4-6.9,2.5-10.6c0.1-3.7-0.6-7.3-2.1-10.8c-1.5-3.4-3.7-6.4-6.3-9
	C164.7,8.2,157.2,5.3,149.8,5.3"/>
<path class="st2" d="M149.8,11.8c-12.8,0-23.2,9.7-23.2,21.7s10.3,21.7,23.2,21.7c12.8,0,23.2-9.7,23.2-21.7S162.6,11.8,149.8,11.8"
	/>
<g>
	<g>
		<path d="M148.4,21.9c0.6-0.3,1.4-0.3,2.1,0c0.4,0.1,0.7,0.4,0.9,0.7c0.3,0.3,0.4,0.7,0.5,1.1c0,0.2,0,0.4,0,0.6s-0.1,0.4-0.1,0.6
			c-0.1,0.4-0.3,0.7-0.6,1c-0.5,0.6-1.1,1-1.7,1.4c-2.6,1.4-6.8,1.7-8.3-1.5c-0.4-0.8-0.5-1.8-0.3-2.7c0.2-0.9,0.6-1.7,1.2-2.4
			c0.1-0.2,0.3-0.3,0.5-0.5c0.2-0.1,0.3-0.3,0.5-0.4c0.3-0.2,0.6-0.5,0.9-0.7c0.6-0.4,1.3-0.8,2-1.2c1.4-0.7,3-1.3,4.6-1.5
			c1.6-0.3,3.4-0.2,5,0.2c0.2,0.1,0.4,0.1,0.6,0.2c0.2,0.1,0.4,0.1,0.7,0.2c0.4,0.2,0.8,0.4,1.2,0.7c0.8,0.5,1.4,1.2,1.8,2
			c0.5,0.8,0.8,1.6,0.9,2.5c0.2,0.9,0.2,1.7,0.1,2.6c-0.5,3.1-3.5,5.2-5.7,6.9c-1.6,1.2-3.2,2.4-4.8,3.6c-0.9,0.7-1.9,1.5-2.3,2.6
			c-0.7,1.7-0.1,3.5,0.2,5.2c0.1,0.6,0,1-0.2,1s-0.4-0.3-0.6-0.8c-0.2-0.6-0.3-1.2-0.5-1.8c-0.2-0.6-0.3-1.2-0.4-1.9
			c-0.1-0.7,0-1.4,0.2-2.1c0.5-1.7,2.1-2.9,3.3-4c1.7-1.6,3.6-2.9,5.2-4.5c1.4-1.2,3.1-2.7,3.4-4.7c0.6-4.6-4-6.2-7.7-5.7
			c-2.5,0.4-5,1.5-6.9,3.2c-0.9,0.8-1.4,1.9-1,3c0.2,0.5,0.5,0.9,0.9,1.1c0.2,0.1,0.4,0.2,0.7,0.3h0.2h0.2c0.1,0,0.3,0,0.5,0
			c1.2,0.1,2.5-0.1,3.5-0.6c0.9-0.4,2.1-1.3,2-2.4c-0.1-0.6-0.6-1-1.2-1.1c-0.4-0.1-2.3,0.4-1.9-0.2C147.9,22.1,148.1,22,148.4,21.9
			z"/>
	</g>
	<path d="M150.6,48.1c0.3,1.1-0.3,1.9-1.1,2.1c-0.8,0.2-1.6-0.3-1.8-1.2c-0.2-0.9,0.2-1.9,0.9-2.2C149.8,46.5,150.4,47.3,150.6,48.1
		z"/>
</g>
</svg>
