<?xml version="1.0" encoding="utf-8"?>
<!-- Generator: Adobe Illustrator 19.0.0, SVG Export Plug-In . SVG Version: 6.00 Build 0)  -->
<svg version="1.1" id="Camada_1" xmlns="http://www.w3.org/2000/svg" xmlns:xlink="http://www.w3.org/1999/xlink" x="0px" y="0px"
	 viewBox="0 0 85.9 85.9" style="enable-background:new 0 0 85.9 85.9;" xml:space="preserve">
<style type="text/css">
	.st0{fill:#FFFFFF;stroke:#212D70;stroke-width:3;stroke-linecap:round;stroke-miterlimit:10;}
	.st1{fill:#D55F37;}
</style>
<circle id="XMLID_335_" class="st0" cx="43" cy="43" r="41.5"/>
<g id="XMLID_270_">
	<g id="XMLID_369_">
		<g id="XMLID_371_">
			<g id="XMLID_372_">
				<path id="XMLID_373_" class="st1" d="M50.9,63.6c-3.1,0-5.6-2.5-5.6-5.6c0-3.1,2.5-5.6,5.6-5.6s5.6,2.5,5.6,5.6
					C56.5,61.1,54,63.6,50.9,63.6z M50.9,54.6c-1.9,0-3.4,1.5-3.4,3.4c0,1.9,1.5,3.4,3.4,3.4c1.9,0,3.4-1.5,3.4-3.4
					C54.3,56.1,52.8,54.6,50.9,54.6z"/>
			</g>
		</g>
	</g>
	<g id="XMLID_366_">
		<g id="XMLID_367_">
			<g id="XMLID_368_">
				<path id="XMLID_301_" class="st1" d="M60.1,66.9c-2.6,0-4.8-2.1-4.8-4.8c0-2.6,2.1-4.8,4.8-4.8c2.6,0,4.8,2.1,4.8,4.8
					C64.9,64.7,62.8,66.9,60.1,66.9z M60.1,59.5c-1.4,0-2.6,1.2-2.6,2.6c0,1.4,1.2,2.6,2.6,2.6c1.4,0,2.6-1.2,2.6-2.6
					C62.7,60.7,61.5,59.5,60.1,59.5z"/>
			</g>
		</g>
	</g>
	<g id="XMLID_349_">
		<path id="XMLID_376_" class="st1" d="M41.4,55.5c-4.2,0-8.2-1.7-11.1-4.7c-3.2,1.2-6.8,0.8-9.7-1.1c-3.2-2-5-5.5-5-9.3
			c0-4.2,2.4-8.1,6.2-9.9c0.9-5.2,5.5-9.1,10.9-9.1c1.6,0,3.3,0.4,4.7,1c2.6-2.2,5.8-3.4,9.2-3.4c6.1,0,11.5,4,13.4,9.7
			c5.1,1.5,8.7,6.2,8.7,11.6c0,4.2-2.1,8-5.7,10.3c-3.3,2.1-7.4,2.4-11,0.9C48.9,54.1,45.2,55.5,41.4,55.5z M30.8,48.2l0.5,0.6
			c2.5,2.9,6.2,4.6,10,4.6c3.5,0,6.9-1.4,9.4-3.9l0.6-0.6l0.7,0.3c3.1,1.5,6.7,1.3,9.6-0.5c2.9-1.8,4.7-5,4.7-8.4
			c0-4.6-3.1-8.6-7.6-9.6L58,30.6l-0.2-0.6c-1.4-5.1-6.1-8.7-11.4-8.7c-3.1,0-6,1.2-8.2,3.3l-0.6,0.6l-0.7-0.4
			c-1.3-0.8-2.8-1.1-4.3-1.1c-4.5,0-8.3,3.4-8.8,7.8L23.7,32l-0.6,0.2c-3.3,1.4-5.4,4.6-5.4,8.2c0,3,1.5,5.8,4,7.4
			c2.5,1.6,5.7,1.9,8.4,0.7L30.8,48.2z M26.9,37.6c-0.1,0-0.1,0-0.2,0c-0.6-0.1-1-0.7-0.9-1.2c0.4-2.8,1.9-5.3,4.2-7
			c2.3-1.7,5.1-2.4,8-2c0.6,0.1,1,0.7,0.9,1.2c-0.1,0.6-0.6,1-1.2,0.9c-2.3-0.3-4.5,0.2-6.4,1.6c-1.8,1.4-3,3.3-3.4,5.6
			C27.9,37.2,27.4,37.6,26.9,37.6z"/>
	</g>
</g>
</svg>
