<svg version="1.1" id="Camada_1" xmlns="http://www.w3.org/2000/svg" xmlns:xlink="http://www.w3.org/1999/xlink" x="0px" y="0px" viewBox="0 0 303 68" xml:space="preserve">
<style>
  .box-border {
    fill: #e30613;
}

.box-background {
    fill: #fff;
}

.box-icons {
    fill: #000;
}

.box-background-icon {
    fill: #F0F0F0;
}
</style>
  <path class="box-background" d="M1.9,68H301l0.1-36.1L20.5,31.1h-0.2c-0.1,0-0.2,0-0.3,0l-0.4,0.1l-0.8,0.1
	c-0.5,0.1-1,0.2-1.5,0.3c-1,0.2-2,0.6-2.9,0.9c-1.9,0.8-3.7,1.8-5.3,3.1c-1.6,1.3-3,2.8-4.1,4.5c-1.1,1.7-2,3.6-2.5,5.6
	c-0.3,1-0.4,2-0.5,3l-0.1,1.5v1.4l0,5.6L1.9,68z"/>

  <polygon class="box-border" points="299.1,68 301,68 301.1,31.9 185.6,31.5 185.6,34.4 299,34 "/>

  <path class="box-border" d="M1.9,68h3.6c0-0.4,0-0.8,0-1.1l0-11.3c0-1.9,0-3.8,0-5.6c0-1.7,0.4-3.3,1-4.9
	c2.3-6,8.6-10.4,15.2-10.4c0.3,0,0.6,0,0.9,0c31.3,0,62.7-0.1,94-0.2v-3.3l-96.2-0.2h-0.2c0,0,0,0,0,0c0,0,0,0-0.1,0c0,0,0,0-0.1,0
	c-0.1,0-0.1,0-0.2,0l-0.4,0.1l-0.8,0.1c-0.5,0.1-1,0.2-1.5,0.3c-1,0.2-2,0.6-2.9,0.9c-1.9,0.8-3.7,1.8-5.3,3.1
	c-1.6,1.3-3,2.8-4.1,4.5c-1.1,1.7-2,3.6-2.5,5.6c-0.3,1-0.4,2-0.5,3l-0.1,1.5v1.4l0,5.6L1.9,68z"/>

  <ellipse class="box-background" cx="151.3" cy="34.1" rx="35.4" ry="33.1"/>

  <path class="box-border" d="M151.3,5.7C151.3,5.7,151.3,5.7,151.3,5.7C151.3,5.7,151.3,5.7,151.3,5.7c-7.5,0-15,2.9-20.4,8
	c-2.7,2.6-4.9,5.7-6.4,9.1c-1.5,3.4-2.2,7.2-2.1,10.9c0.1,3.7,0.9,7.4,2.5,10.7c1.6,3.3,3.8,6.3,6.5,8.7c5.4,4.8,12.6,7.4,19.8,7.4
	h0c0-1.2,0-0.1,0-1.3c0,0,0,0,0,0c-6.9,0-13.8-2.7-18.7-7.4c-2.5-2.4-4.5-5.2-5.8-8.3c-1.3-3.1-1.9-6.5-1.8-9.9
	c0.1-6.8,3.4-13.2,8.4-17.5c4.9-4.3,11.4-6.6,17.9-6.6c0.1,0,0.3,0,0.4,0c6.6,0,13.1,2.5,18,7c4.9,4.4,8,10.9,8,17.6
	c0.1,6.7-2.8,13.3-7.8,18c-4.9,4.7-11.8,7.3-18.6,7.3h0c0,1.2,0,0.1,0,1.3h0c7.2,0,14.4-2.6,19.8-7.4c2.7-2.4,5-5.4,6.6-8.7
	c1.6-3.3,2.4-7,2.5-10.7c0.1-3.7-0.6-7.4-2.1-10.9c-1.5-3.4-3.7-6.5-6.4-9.1C166.3,8.6,158.8,5.7,151.3,5.7"/>

  <path class="box-background-icon" d="M151.3,12.2c-12.9,0-23.4,9.8-23.4,21.9S138.3,56,151.3,56
	c12.9,0,23.4-9.8,23.4-21.9C174.7,22,164.2,12.2,151.3,12.2"/>
<g>
	<g>
		<path d="M149.9,22.4c0.6-0.3,1.4-0.3,2.1,0c0.4,0.1,0.7,0.4,0.9,0.7c0.3,0.3,0.4,0.7,0.5,1.1c0,0.2,0,0.4,0,0.6
			c0,0.2-0.1,0.4-0.1,0.6c-0.1,0.4-0.3,0.7-0.6,1c-0.5,0.6-1.1,1-1.7,1.4c-2.6,1.4-6.9,1.7-8.4-1.5c-0.4-0.8-0.5-1.8-0.3-2.7
			c0.2-0.9,0.6-1.7,1.2-2.4c0.1-0.2,0.3-0.3,0.5-0.5c0.2-0.1,0.3-0.3,0.5-0.4c0.3-0.2,0.6-0.5,0.9-0.7c0.6-0.4,1.3-0.8,2-1.2
			c1.4-0.7,3-1.3,4.6-1.5c1.6-0.3,3.4-0.2,5.1,0.2c0.2,0.1,0.4,0.1,0.6,0.2c0.2,0.1,0.4,0.1,0.7,0.2c0.4,0.2,0.8,0.4,1.2,0.7
			c0.8,0.5,1.4,1.2,1.8,2c0.5,0.8,0.8,1.6,0.9,2.5c0.2,0.9,0.2,1.7,0.1,2.6c-0.5,3.1-3.5,5.3-5.8,7c-1.6,1.2-3.2,2.4-4.8,3.6
			c-0.9,0.7-1.9,1.5-2.3,2.6c-0.7,1.7-0.1,3.5,0.2,5.3c0.1,0.6,0,1-0.2,1c-0.2,0-0.4-0.3-0.6-0.8c-0.2-0.6-0.3-1.2-0.5-1.8
			c-0.2-0.6-0.3-1.2-0.4-1.9c-0.1-0.7,0-1.4,0.2-2.1c0.5-1.7,2.1-2.9,3.3-4c1.7-1.6,3.6-2.9,5.3-4.5c1.4-1.2,3.1-2.7,3.4-4.7
			c0.6-4.6-4-6.3-7.8-5.8c-2.5,0.4-5.1,1.5-7,3.2c-0.9,0.8-1.4,1.9-1,3c0.2,0.5,0.5,0.9,0.9,1.1c0.2,0.1,0.4,0.2,0.7,0.3l0.2,0
			l0.2,0c0.1,0,0.3,0,0.5,0c1.2,0.1,2.5-0.1,3.5-0.6c0.9-0.4,2.1-1.3,2-2.4c-0.1-0.6-0.6-1-1.2-1.1c-0.4-0.1-2.3,0.4-1.9-0.2
			C149.4,22.7,149.6,22.5,149.9,22.4z"/>
	</g>
  
	<path d="M152.1,48.9c0.3,1.1-0.3,1.9-1.1,2.1c-0.8,0.2-1.6-0.3-1.8-1.2c-0.2-0.9,0.2-1.9,0.9-2.2C151.3,47.3,151.9,48.1,152.1,48.9
		z"/>
</g>
  
</svg>