<svg version="1.1" xmlns="http://www.w3.org/2000/svg" xmlns:xlink="http://www.w3.org/1999/xlink" x="0px" y="0px" viewBox="0 0 303 21" xml:space="preserve">
<style>
  .box-border {
    fill: #e30613;
}

.box-background {
    fill: #fff;
}
</style>
  <path class="box-background" d="M2.2,0.2V19l142.1-0.5c0,0,140.3-0.2,140.2-0.3c3.9,0,7.7-1.3,10.7-3.8c3-2.4,5.2-5.9,6-9.7
	c0.3-1.5,0.5-3.3,0.5-4.7L2.2,0.2L2.2,0.2z"/>
  
  <path class="box-border" d="M300.7,0c0,1.4-0.2,3-0.4,4.4c-0.7,3.5-2.7,6.7-5.6,8.9c-2.8,2.3-6.4,3.5-9.9,3.5
	c0,0-94.1-0.2-141.1-0.2c-46.4-0.2-93-0.3-139.4-0.5C4.3,10.8,4.2,5.3,4.2,0H0.8l0.1,19l142.9-0.5l141-0.3c3.9,0,7.8-1.3,10.8-3.8
	c3-2.4,5.3-5.9,6.1-9.7c0.3-1.5,0.5-3.3,0.5-4.7L300.7,0L300.7,0z"/>

</svg>