<svg fill="#e30613" version="1.1" xmlns="http://www.w3.org/2000/svg" xmlns:xlink="http://www.w3.org/1999/xlink" x="0px" y="0px" viewBox="0 0 300 19" style="enable-background:new 0 0 300 19;" xml:space="preserve">
<path  d="M298.6,0l0,0.6c-0.1,2.7-0.7,5.4-2.2,7.7c-0.7,1.2-1.6,2.2-2.5,3.2c-1,0.9-2,1.8-3.2,2.4
	c-2.3,1.4-5.1,2-7.8,2.1c-46.9,0-93.8-0.1-140.7-0.3c-46.4-0.2-92.7-0.3-139.1-0.5c0-5.1,0-10.1,0-15.2H0l0.1,18.2l142.2-0.6
	c46.9-0.2,93.8-0.3,140.7-0.3c2.9,0,5.9-0.7,8.4-2.2c1.3-0.7,2.5-1.6,3.5-2.6c1-1,2-2.2,2.7-3.4c1.6-2.5,2.3-5.5,2.4-8.4l0-0.6
	H298.6z"/>
</svg>
