<?xml version="1.0" encoding="utf-8"?>
<!-- Generator: Adobe Illustrator 23.0.1, SVG Export Plug-In . SVG Version: 6.00 Build 0)  -->
<svg version="1.1" xmlns="http://www.w3.org/2000/svg" xmlns:xlink="http://www.w3.org/1999/xlink" x="0px" y="0px"
	 viewBox="0 0 320 659.3" style="enable-background:new 0 0 320 659.3;" xml:space="preserve">
<style type="text/css">
	.st0{display:none;opacity:0.5;fill:#FDC62F;}
	.st1{fill:none;}
	.st2{display:none;}
	.st3{font-family:'MyriadPro-Regular';}
	.st4{font-size:12px;}
	.st5{display:inline;opacity:0.5;fill:#FDC62F;}
	.st6{display:inline;fill:none;}
	.st7{display:inline;}
	.st8{fill:#EDEDED;}
	.st9{fill:#FCC630;}
	.st10{fill:#3D3D3B;}
	.st11{opacity:0.3;fill:none;stroke:#706F6E;stroke-width:2.9004;stroke-miterlimit:10;}
	.st12{fill:none;stroke:#FCC62F;stroke-width:1.202;stroke-miterlimit:10;}
	.st13{fill:#FCC62F;stroke:#FCC62F;stroke-width:1.202;stroke-miterlimit:10;}
	.st14{fill:#FFFFFF;stroke:#FDC630;stroke-width:2.6283;stroke-miterlimit:10;}
	.st15{font-family:'OpenSans-Regular';}
	.st16{font-size:13px;}
</style>
<g id="Grid">
	<rect x="-295.2" y="-98.8" class="st0" width="643.4" height="231"/>
	<rect x="-295.2" y="-122.5" class="st1" width="315.5" height="16.9"/>
	<text transform="matrix(1 0 0 1 -295.1766 -113.9703)" class="st2 st3 st4">Formato Horizontal</text>
	<rect x="-295.2" y="160.9" class="st1" width="264.1" height="16.9"/>
	<text transform="matrix(1 0 0 1 -295.1766 169.4414)" class="st2 st3 st4">Formato Vertical</text>
	<rect x="83.9" y="160.9" class="st1" width="264.1" height="16.9"/>
	<text transform="matrix(1 0 0 1 83.8611 169.4414)" class="st2 st3 st4">Formato Página Inteira</text>
	<rect x="-335.6" y="-147.1" class="st0" width="1123.2" height="806.4"/>
</g>
<g id="Camada_1_cópia" class="st2">
	<rect x="83.9" y="291.9" class="st5" width="643.4" height="231"/>
	<rect x="-295.2" y="-122.5" class="st6" width="315.5" height="16.9"/>
	<text transform="matrix(1 0 0 1 -295.1766 -113.9703)" class="st7 st3 st4">Formato Horizontal</text>
	<rect x="-295.2" y="160.9" class="st6" width="264.1" height="16.9"/>
	<text transform="matrix(1 0 0 1 -295.1766 169.4414)" class="st7 st3 st4">Formato Vertical</text>
	<rect x="83.9" y="160.9" class="st6" width="264.1" height="16.9"/>
	<text transform="matrix(1 0 0 1 83.8611 169.4414)" class="st7 st3 st4">Formato Página Inteira</text>
	<rect x="83.1" y="181.4" class="st5" width="264.1" height="461.9"/>
	<rect x="83.9" y="181.4" class="st5" width="643.4" height="461.9"/>
</g>
<g id="Redondas">
</g>
<g id="Barra">
</g>
<g id="Losangos">
</g>
<g id="Camada_4">
	<text transform="matrix(1 0 0 1 -155.7531 -227.6139)" class="st3 st4">Histórico legal da educação para o trânsito na educação básica</text>
</g>
<g id="Contorno">
</g>
<g id="Numero">
</g>
<g id="Txt">
	<rect class="st8" width="319.4" height="659.3"/>
	<polyline class="st9" points="13.5,69.7 304.8,69.7 304.8,74 13.5,74 	"/>
	<g>
		<path class="st10" d="M55.4,26.5c0,3.1-2.1,5.3-5.5,5.3h-4.2V21.2h4.2C53.3,21.2,55.4,23.4,55.4,26.5z M49.7,29.2
			c1.7,0,2.8-1,2.8-2.7c0-1.8-1.1-2.7-2.8-2.7h-1v5.4H49.7z"/>
		<path class="st10" d="M56.8,21.2h2.9v10.6h-2.9V21.2z"/>
		<path class="st10" d="M66,21.2c2.6,0,3.9,1.5,3.9,3.4c0,1.4-0.8,2.6-2.3,3.1l2.4,4.1h-3.3l-2.1-3.9h-0.3v3.9h-2.9V21.2H66z
			 M65.8,23.6h-1.5v2.2h1.5c0.8,0,1.2-0.4,1.2-1.1C67,24.1,66.6,23.6,65.8,23.6z"/>
		<path class="st10" d="M78.1,23.5h-3.8v1.7h3.4v2.2h-3.4v1.9h3.8v2.4h-6.8V21.2h6.8V23.5z"/>
		<path class="st10" d="M78.9,21.2h8.5v2.3h-2.8v8.2h-2.9v-8.2h-2.8V21.2z"/>
		<path class="st10" d="M93.2,21.2c2.6,0,3.9,1.5,3.9,3.4c0,1.4-0.8,2.6-2.3,3.1l2.4,4.1h-3.3l-2.1-3.9h-0.3v3.9h-2.9V21.2H93.2z
			 M93,23.6h-1.5v2.2H93c0.8,0,1.2-0.4,1.2-1.1C94.2,24.1,93.8,23.6,93,23.6z"/>
		<path class="st10" d="M98.5,21.2h2.9v10.6h-2.9V21.2z"/>
		<path class="st10" d="M110.7,23.4l-4.4,6h4.4v2.4H103v-2.2l4.3-6H103v-2.4h7.7V23.4z"/>
		<path class="st10" d="M119.1,23.5h-3.8v1.7h3.4v2.2h-3.4v1.9h3.8v2.4h-6.8V21.2h6.8V23.5z"/>
		<path class="st10" d="M124.5,31.9c-2.4,0-4.2-1.1-4.3-3.4h3.1c0.1,0.8,0.5,1.1,1.1,1.1c0.5,0,0.9-0.3,0.9-0.8
			c0-1.7-5.1-0.9-5.1-4.6c0-2.1,1.7-3.2,4-3.2c2.4,0,4,1.2,4.1,3.3h-3.2c0-0.7-0.4-1-1-1c-0.4,0-0.8,0.2-0.8,0.8
			c0,1.6,5.1,1.1,5.1,4.5C128.5,30.4,127,31.9,124.5,31.9z"/>
		<path class="st10" d="M142.4,26.5c0,3.1-2.1,5.3-5.5,5.3h-4.2V21.2h4.2C140.3,21.2,142.4,23.4,142.4,26.5z M136.7,29.2
			c1.7,0,2.8-1,2.8-2.7c0-1.8-1.1-2.7-2.8-2.7h-1v5.4H136.7z"/>
		<path class="st10" d="M150.4,30h-3.7l-0.6,1.7H143l3.9-10.6h3.4l3.8,10.6H151L150.4,30z M148.5,24.4l-1.1,3.4h2.3L148.5,24.4z"/>
		<path class="st10" d="M162.5,21.2c2.6,0,3.9,1.5,3.9,3.4c0,1.4-0.8,2.6-2.3,3.1l2.4,4.1h-3.3l-2.1-3.9h-0.3v3.9h-2.9V21.2H162.5z
			 M162.3,23.6h-1.5v2.2h1.5c0.8,0,1.2-0.4,1.2-1.1C163.5,24.1,163.1,23.6,162.3,23.6z"/>
		<path class="st10" d="M174.6,23.5h-3.8v1.7h3.4v2.2h-3.4v1.9h3.8v2.4h-6.8V21.2h6.8V23.5z"/>
		<path class="st10" d="M180,31.9c-2.4,0-4.2-1.1-4.3-3.4h3.1c0.1,0.8,0.5,1.1,1.1,1.1c0.5,0,0.9-0.3,0.9-0.8c0-1.7-5.1-0.9-5.1-4.6
			c0-2.1,1.7-3.2,4-3.2c2.4,0,4,1.2,4.1,3.3h-3.2c0-0.7-0.4-1-1-1c-0.4,0-0.8,0.2-0.8,0.8c0,1.6,5.1,1.1,5.1,4.5
			C184,30.4,182.5,31.9,180,31.9z"/>
		<path class="st10" d="M190.4,31.9c-3,0-5.4-2.3-5.4-5.4c0-3.2,2.4-5.4,5.4-5.4c3,0,5.4,2.2,5.4,5.4
			C195.8,29.6,193.4,31.9,190.4,31.9z M190.4,29.1c1.5,0,2.4-1.1,2.4-2.7c0-1.7-0.9-2.7-2.4-2.7c-1.5,0-2.4,1-2.4,2.7
			C188,28.1,188.9,29.1,190.4,29.1z"/>
		<path class="st10" d="M200.1,21.2v8.3h3.3v2.3h-6.2V21.2H200.1z"/>
		<path class="st10" d="M204.5,21.2h2.9v6.1c0,1.1,0.5,1.8,1.6,1.8c1.1,0,1.6-0.7,1.6-1.8v-6.1h2.9v6.1c0,3-2.1,4.5-4.6,4.5
			c-2.5,0-4.5-1.5-4.5-4.5V21.2z"/>
		<path class="st10" d="M220.1,21.1c2.7,0,4.5,1.5,5.1,3.9H222c-0.4-0.8-1.1-1.2-1.9-1.2c-1.4,0-2.2,1-2.2,2.7
			c0,1.6,0.9,2.7,2.2,2.7c0.9,0,1.6-0.4,1.9-1.2h3.2c-0.5,2.1-2,3.5-4.1,3.9v0.5c0.8,0,2,0.4,2,1.8s-1.2,1.8-2.2,1.8h-2.4v-1.5h2.1
			c0.3,0,0.5-0.1,0.5-0.3c0-0.2-0.2-0.3-0.5-0.3h-1.2v-1.9c-2.7-0.3-4.5-2.4-4.5-5.3C214.8,23.3,216.9,21.1,220.1,21.1z"/>
		<path class="st10" d="M233.3,30h-3.7l-0.6,1.7h-3.1l3.9-10.6h3.4l3.8,10.6h-3.1L233.3,30z M230.4,18.1c0.9,0,1.5,0.7,2.1,0.7
			c0.4,0,0.6-0.2,0.7-0.7h1.5c-0.3,1.8-1.1,2.4-2.3,2.4c-0.9,0-1.5-0.7-2.1-0.7c-0.4,0-0.6,0.2-0.7,0.7h-1.5
			C228.4,18.8,229.2,18.1,230.4,18.1z M231.4,24.4l-1.1,3.4h2.3L231.4,24.4z"/>
		<path class="st10" d="M243,31.9c-3,0-5.4-2.3-5.4-5.4c0-3.2,2.4-5.4,5.4-5.4c3,0,5.4,2.2,5.4,5.4C248.4,29.6,246,31.9,243,31.9z
			 M243,29.1c1.5,0,2.4-1.1,2.4-2.7c0-1.7-0.9-2.7-2.4-2.7c-1.5,0-2.4,1-2.4,2.7C240.5,28.1,241.4,29.1,243,29.1z"/>
		<path class="st10" d="M262.3,26.5c0,3.1-2.1,5.3-5.5,5.3h-4.2V21.2h4.2C260.1,21.2,262.3,23.4,262.3,26.5z M256.5,29.2
			c1.7,0,2.8-1,2.8-2.7c0-1.8-1.1-2.7-2.8-2.7h-1v5.4H256.5z"/>
		<path class="st10" d="M268.7,31.9c-3,0-5.4-2.3-5.4-5.4c0-3.2,2.4-5.4,5.4-5.4c3,0,5.4,2.2,5.4,5.4
			C274.1,29.6,271.6,31.9,268.7,31.9z M268.7,29.1c1.5,0,2.4-1.1,2.4-2.7c0-1.7-0.9-2.7-2.4-2.7c-1.5,0-2.4,1-2.4,2.7
			C266.2,28.1,267.1,29.1,268.7,29.1z"/>
		<path class="st10" d="M49.1,39.1c2.7,0,4.5,1.5,5.1,3.9H51c-0.4-0.8-1.1-1.2-2-1.2c-1.4,0-2.2,1-2.2,2.7c0,1.6,0.9,2.7,2.2,2.7
			c0.9,0,1.6-0.4,2-1.2h3.2c-0.5,2.4-2.4,3.9-5.1,3.9c-3.2,0-5.3-2.2-5.3-5.4C43.8,41.3,45.9,39.1,49.1,39.1z"/>
		<path class="st10" d="M60.6,49.9c-3,0-5.4-2.3-5.4-5.4c0-3.2,2.4-5.4,5.4-5.4c3,0,5.4,2.2,5.4,5.4C66,47.6,63.6,49.9,60.6,49.9z
			 M60.6,47.1c1.5,0,2.4-1.1,2.4-2.7c0-1.7-0.9-2.7-2.4-2.7c-1.5,0-2.4,1-2.4,2.7C58.2,46.1,59.1,47.1,60.6,47.1z"/>
		<path class="st10" d="M77.1,39.2v10.6h-2.9l-3.9-5.9v5.9h-2.9V39.2h2.9l3.9,6v-6H77.1z"/>
		<path class="st10" d="M78.2,39.2h8.5v2.3H84v8.2H81v-8.2h-2.8V39.2z"/>
		<path class="st10" d="M92.5,39.2c2.6,0,3.9,1.5,3.9,3.4c0,1.4-0.8,2.6-2.3,3.1l2.4,4.1h-3.3l-2.1-3.9h-0.3v3.9h-2.9V39.2H92.5z
			 M92.3,41.6h-1.5v2.2h1.5c0.8,0,1.2-0.4,1.2-1.1C93.5,42.1,93.1,41.6,92.3,41.6z"/>
		<path class="st10" d="M104.5,48h-3.8l-0.6,1.7h-3.1l3.9-10.6h3.4l3.8,10.6h-3.1L104.5,48z M102.6,42.4l-1.1,3.4h2.3L102.6,42.4z"
			/>
		<path class="st10" d="M118.9,39.2v10.6H116l-3.9-5.9v5.9h-2.9V39.2h2.9l3.9,6v-6H118.9z"/>
		<path class="st10" d="M127.5,49.9c-2.4,0-4.2-1.1-4.3-3.4h3.1c0.1,0.8,0.5,1.1,1.1,1.1c0.5,0,0.9-0.3,0.9-0.8
			c0-1.7-5.1-0.9-5.1-4.6c0-2.1,1.7-3.2,4-3.2c2.4,0,4,1.2,4.1,3.3h-3.2c0-0.7-0.4-1-1-1c-0.4,0-0.8,0.2-0.8,0.8
			c0,1.6,5.1,1.1,5.1,4.5C131.4,48.4,130,49.9,127.5,49.9z"/>
		<path class="st10" d="M137.8,49.9c-3,0-5.4-2.3-5.4-5.4c0-3.2,2.4-5.4,5.4-5.4c3,0,5.4,2.2,5.4,5.4
			C143.3,47.6,140.8,49.9,137.8,49.9z M137.8,47.1c1.5,0,2.4-1.1,2.4-2.7c0-1.7-0.9-2.7-2.4-2.7c-1.5,0-2.4,1-2.4,2.7
			C135.4,46.1,136.3,47.1,137.8,47.1z"/>
		<path class="st10" d="M149.8,49.8h-5.2V39.2h5.1c2.1,0,3.5,1,3.5,2.7c0,1.3-0.8,2.1-1.8,2.4c1.3,0.3,2,1.4,2,2.5
			C153.3,48.7,152.1,49.8,149.8,49.8z M149,41.5h-1.5v1.9h1.5c0.7,0,1.1-0.3,1.1-0.9C150.1,41.8,149.7,41.5,149,41.5z M149.2,45.5
			h-1.7v1.9h1.7c0.7,0,1.1-0.3,1.1-0.9C150.3,45.8,149.9,45.5,149.2,45.5z"/>
		<path class="st10" d="M159.3,39.2c2.6,0,3.9,1.5,3.9,3.4c0,1.4-0.8,2.6-2.3,3.1l2.4,4.1H160l-2.1-3.9h-0.3v3.9h-2.9V39.2H159.3z
			 M159,41.6h-1.5v2.2h1.5c0.8,0,1.2-0.4,1.2-1.1C160.2,42.1,159.8,41.6,159,41.6z"/>
		<path class="st10" d="M171.3,41.5h-3.8v1.7h3.4v2.2h-3.4v1.9h3.8v2.4h-6.8V39.2h6.8V41.5z"/>
		<path class="st10" d="M182.3,48h-3.7l-0.6,1.7h-3.1l3.9-10.6h3.4l3.8,10.6h-3.1L182.3,48z M180.5,42.4l-1.1,3.4h2.3L180.5,42.4z"
			/>
		<path class="st10" d="M196.6,41.5h-3.8v1.7h3.4v2.2h-3.4v1.9h3.8v2.4h-6.8V39.2h6.8V41.5z"/>
		<path class="st10" d="M207.8,44.5c0,3.1-2.1,5.3-5.5,5.3H198V39.2h4.2C205.6,39.2,207.8,41.4,207.8,44.5z M202,47.2
			c1.7,0,2.8-1,2.8-2.7c0-1.8-1.1-2.7-2.8-2.7h-1v5.4H202z"/>
		<path class="st10" d="M209,39.2h2.9v6.1c0,1.1,0.5,1.8,1.6,1.8c1.1,0,1.6-0.7,1.6-1.8v-6.1h2.9v6.1c0,3-2.1,4.5-4.6,4.5
			c-2.5,0-4.5-1.5-4.5-4.5V39.2z"/>
		<path class="st10" d="M224.7,39.1c2.7,0,4.5,1.5,5.1,3.9h-3.2c-0.4-0.8-1.1-1.2-1.9-1.2c-1.4,0-2.2,1-2.2,2.7
			c0,1.6,0.9,2.7,2.2,2.7c0.9,0,1.6-0.4,1.9-1.2h3.2c-0.5,2.4-2.4,3.9-5.1,3.9c-3.2,0-5.3-2.2-5.3-5.4
			C219.4,41.3,221.5,39.1,224.7,39.1z"/>
		<path class="st10" d="M237.8,48h-3.7l-0.6,1.7h-3.1l3.9-10.6h3.4l3.8,10.6h-3.1L237.8,48z M235.9,42.4l-1.1,3.4h2.3L235.9,42.4z"
			/>
		<path class="st10" d="M247.4,39.1c2.7,0,4.5,1.5,5.1,3.9h-3.2c-0.4-0.8-1.1-1.2-1.9-1.2c-1.4,0-2.2,1-2.2,2.7
			c0,1.6,0.9,2.7,2.2,2.7c0.9,0,1.6-0.4,1.9-1.2h3.2c-0.5,2.1-2,3.5-4.1,3.9v0.5c0.8,0,2,0.4,2,1.8s-1.2,1.8-2.2,1.8h-2.4v-1.5h2.1
			c0.3,0,0.5-0.1,0.5-0.3c0-0.2-0.2-0.3-0.5-0.3h-1.2v-1.9c-2.7-0.3-4.5-2.4-4.5-5.3C242.1,41.3,244.2,39.1,247.4,39.1z"/>
		<path class="st10" d="M260.5,48h-3.7l-0.6,1.7h-3.1l3.9-10.6h3.4l3.8,10.6h-3.1L260.5,48z M257.6,36.1c0.9,0,1.5,0.7,2.1,0.7
			c0.4,0,0.6-0.2,0.7-0.7h1.5c-0.3,1.8-1.1,2.4-2.3,2.4c-0.9,0-1.5-0.7-2.1-0.7c-0.4,0-0.6,0.2-0.7,0.7h-1.5
			C255.7,36.8,256.5,36.1,257.6,36.1z M258.6,42.4l-1.1,3.4h2.3L258.6,42.4z"/>
		<path class="st10" d="M270.2,49.9c-3,0-5.4-2.3-5.4-5.4c0-3.2,2.4-5.4,5.4-5.4c3,0,5.4,2.2,5.4,5.4
			C275.6,47.6,273.2,49.9,270.2,49.9z M270.2,47.1c1.5,0,2.4-1.1,2.4-2.7c0-1.7-0.9-2.7-2.4-2.7c-1.5,0-2.4,1-2.4,2.7
			C267.8,46.1,268.7,47.1,270.2,47.1z"/>
		<path class="st10" d="M38.5,64.2h-1.5v3.6h-2.9V57.2h4.4c2.6,0,4,1.5,4,3.5C42.5,62.6,41.2,64.2,38.5,64.2z M38.3,61.9
			c0.9,0,1.2-0.5,1.2-1.1c0-0.7-0.4-1.2-1.2-1.2h-1.2v2.3H38.3z"/>
		<path class="st10" d="M50.4,66h-3.8l-0.6,1.7H43l3.9-10.6h3.4L54,67.8h-3.1L50.4,66z M48.5,60.4l-1.1,3.4h2.3L48.5,60.4z"/>
		<path class="st10" d="M59.6,57.2c2.6,0,3.9,1.5,3.9,3.4c0,1.4-0.8,2.6-2.3,3.1l2.4,4.1h-3.3l-2.1-3.9h-0.3v3.9H55V57.2H59.6z
			 M59.4,59.6h-1.5v2.2h1.5c0.8,0,1.2-0.4,1.2-1.1C60.6,60.1,60.2,59.6,59.4,59.6z"/>
		<path class="st10" d="M71.6,66h-3.8l-0.6,1.7h-3.1l3.9-10.6h3.4l3.8,10.6h-3.1L71.6,66z M69.7,60.4l-1.1,3.4h2.3L69.7,60.4z"/>
		<path class="st10" d="M85.8,66h-3.8l-0.6,1.7h-3.1l3.9-10.6h3.4l3.8,10.6h-3.1L85.8,66z M83.9,60.4l-1.1,3.4h2.3L83.9,60.4z"/>
		<path class="st10" d="M98.2,57.1c2.7,0,4.5,1.5,5.1,3.9h-3.2c-0.4-0.8-1.1-1.2-2-1.2c-1.4,0-2.2,1-2.2,2.7c0,1.6,0.9,2.7,2.2,2.7
			c0.9,0,1.6-0.4,2-1.2h3.2c-0.5,2.4-2.4,3.9-5.1,3.9c-3.2,0-5.3-2.2-5.3-5.4C92.9,59.3,95,57.1,98.2,57.1z"/>
		<path class="st10" d="M104.7,57.2h2.9v10.6h-2.9V57.2z"/>
		<path class="st10" d="M119,62.5c0,3.1-2.1,5.3-5.5,5.3h-4.2V57.2h4.2C116.9,57.2,119,59.4,119,62.5z M113.3,65.2
			c1.7,0,2.8-1,2.8-2.7c0-1.8-1.1-2.7-2.8-2.7h-1v5.4H113.3z"/>
		<path class="st10" d="M127,66h-3.8l-0.6,1.7h-3.1l3.9-10.6h3.4l3.8,10.6h-3.1L127,66z M125.1,60.4l-1.1,3.4h2.3L125.1,60.4z"/>
		<path class="st10" d="M141.3,62.5c0,3.1-2.1,5.3-5.5,5.3h-4.2V57.2h4.2C139.2,57.2,141.3,59.4,141.3,62.5z M135.6,65.2
			c1.7,0,2.8-1,2.8-2.7c0-1.8-1.1-2.7-2.8-2.7h-1v5.4H135.6z"/>
		<path class="st10" d="M149.4,66h-3.7l-0.6,1.7h-3.1l3.9-10.6h3.4l3.8,10.6h-3.1L149.4,66z M147.5,60.4l-1.1,3.4h2.3L147.5,60.4z"
			/>
		<path class="st10" d="M163.8,57.2v10.6h-2.9l-3.9-5.9v5.9H154V57.2h2.9l3.9,6v-6H163.8z"/>
		<path class="st10" d="M165.5,57.2h2.9v10.6h-2.9V57.2z"/>
		<path class="st10" d="M176.8,66H173l-0.6,1.7h-3.1l3.9-10.6h3.4l3.8,10.6h-3.1L176.8,66z M174.9,60.4l-1.1,3.4h2.3L174.9,60.4z"/>
		<path class="st10" d="M194.1,57.2v10.6h-2.9l-3.9-5.9v5.9h-2.9V57.2h2.9l3.9,6v-6H194.1z"/>
		<path class="st10" d="M200.8,67.9c-3,0-5.4-2.3-5.4-5.4c0-3.2,2.4-5.4,5.4-5.4c3,0,5.4,2.2,5.4,5.4
			C206.2,65.6,203.8,67.9,200.8,67.9z M200.8,65.1c1.5,0,2.4-1.1,2.4-2.7c0-1.7-0.9-2.7-2.4-2.7c-1.5,0-2.4,1-2.4,2.7
			C198.4,64.1,199.3,65.1,200.8,65.1z"/>
		<path class="st10" d="M209.8,57.2h8.5v2.3h-2.8v8.2h-2.9v-8.2h-2.8V57.2z"/>
		<path class="st10" d="M224.1,57.2c2.6,0,3.9,1.5,3.9,3.4c0,1.4-0.8,2.6-2.3,3.1l2.4,4.1h-3.3l-2.1-3.9h-0.3v3.9h-2.9V57.2H224.1z
			 M223.9,59.6h-1.5v2.2h1.5c0.8,0,1.2-0.4,1.2-1.1C225.1,60.1,224.7,59.6,223.9,59.6z"/>
		<path class="st10" d="M236.1,66h-3.7l-0.6,1.7h-3.1l3.9-10.6h3.4l3.8,10.6h-3.1L236.1,66z M236.6,56.6l-2.4-1.2l-2.4,1.2v-2
			l2.4-1.2l2.4,1.2V56.6z M234.2,60.4l-1.1,3.4h2.3L234.2,60.4z"/>
		<path class="st10" d="M250.5,57.2v10.6h-2.9l-3.9-5.9v5.9h-2.9V57.2h2.9l3.9,6v-6H250.5z"/>
		<path class="st10" d="M256.2,67.9c-2.4,0-4.2-1.1-4.3-3.4h3.1c0.1,0.8,0.5,1.1,1.1,1.1c0.5,0,0.9-0.3,0.9-0.8
			c0-1.7-5.1-0.9-5.1-4.6c0-2.1,1.7-3.2,4-3.2c2.4,0,4,1.2,4.1,3.3h-3.2c0-0.7-0.4-1-1-1c-0.4,0-0.8,0.2-0.8,0.8
			c0,1.6,5.1,1.1,5.1,4.5C260.1,66.4,258.7,67.9,256.2,67.9z"/>
		<path class="st10" d="M261.5,57.2h2.9v10.6h-2.9V57.2z"/>
		<path class="st10" d="M265.5,57.2h8.5v2.3h-2.8v8.2h-2.9v-8.2h-2.8V57.2z"/>
		<path class="st10" d="M280.2,67.9c-3,0-5.4-2.3-5.4-5.4c0-3.2,2.4-5.4,5.4-5.4c3,0,5.4,2.2,5.4,5.4
			C285.7,65.6,283.2,67.9,280.2,67.9z M280.2,65.1c1.5,0,2.4-1.1,2.4-2.7c0-1.7-0.9-2.7-2.4-2.7c-1.5,0-2.4,1-2.4,2.7
			C277.8,64.1,278.7,65.1,280.2,65.1z"/>
	</g>
	<rect x="6.6" y="9.2" class="st11" width="306.2" height="641.7"/>
	<g>
		<rect x="86.1" y="100.6" class="st9" width="34.3" height="4.6"/>
		<g>
			<line class="st12" x1="53.5" y1="117.8" x2="70.6" y2="117.8"/>
			<circle class="st13" cx="75" cy="117.8" r="4.4"/>
			<path class="st14" d="M53.2,115.2L41,103c-1.4-1.4-3.8-1.4-5.2,0l-12.2,12.2c-1.4,1.4-1.4,3.8,0,5.2l12.2,12.2
				c1.4,1.4,3.8,1.4,5.2,0l12.2-12.2C54.6,119,54.6,116.6,53.2,115.2z"/>
			<g>
				<g>
					<path d="M40.2,120.7h-3.8l-0.6,1.8h-2.6l3.7-10.1h2.9l3.7,10.1h-2.6L40.2,120.7z M38.4,115.1l-1.2,3.7h2.5L38.4,115.1z"/>
				</g>
			</g>
		</g>
		<g>
			<rect x="86.1" y="110.7" class="st1" width="207" height="51.8"/>
			<text transform="matrix(1 0 0 1 86.1025 120.6147)"><tspan x="0" y="0" class="st15 st16">Articular e promover a educação </tspan><tspan x="0" y="15.6" class="st15 st16">para o trânsito no âmbito da </tspan><tspan x="0" y="31.2" class="st15 st16">educação básica;</tspan></text>
		</g>
	</g>
	<g>
		<rect x="86.1" y="174.8" class="st9" width="34.3" height="4.6"/>
		<g>
			<line class="st12" x1="53.5" y1="192.2" x2="70.6" y2="192.2"/>
			<circle class="st13" cx="75" cy="192.2" r="4.4"/>
			<path class="st14" d="M53.2,189.5L41,177.4c-1.4-1.4-3.8-1.4-5.2,0l-12.2,12.2c-1.4,1.4-1.4,3.8,0,5.2l12.2,12.2
				c1.4,1.4,3.8,1.4,5.2,0l12.2-12.2C54.6,193.3,54.6,191,53.2,189.5z"/>
			<g>
				<g>
					<path d="M39.2,196.8h-4.7v-10.1h4.6c2.1,0,3.3,1,3.3,2.6c0,1.2-0.7,2-1.7,2.3c1.2,0.2,1.9,1.3,1.9,2.4
						C42.6,195.8,41.4,196.8,39.2,196.8z M38.6,188.7H37v2.1h1.6c0.8,0,1.3-0.4,1.3-1.1C39.8,189.1,39.4,188.7,38.6,188.7z
						 M38.8,192.6H37v2.2h1.8c0.8,0,1.3-0.4,1.3-1.1C40.1,193,39.6,192.6,38.8,192.6z"/>
				</g>
			</g>
		</g>
		<g>
			<rect x="86.1" y="185.6" class="st1" width="207" height="45.4"/>
			<text transform="matrix(1 0 0 1 86.1025 195.445)"><tspan x="0" y="0" class="st15 st16">Articular e promover a capacitação </tspan><tspan x="0" y="15.6" class="st15 st16">de professores multiplicadores da </tspan><tspan x="0" y="31.2" class="st15 st16">educação para o trânsito;</tspan></text>
		</g>
	</g>
	<g>
		<rect x="86.1" y="250.6" class="st9" width="34.3" height="4.6"/>
		<g>
			<line class="st12" x1="53.5" y1="267.3" x2="70.6" y2="267.3"/>
			<circle class="st13" cx="75" cy="267.3" r="4.4"/>
			<path class="st14" d="M53.2,264.7L41,252.5c-1.4-1.4-3.8-1.4-5.2,0l-12.2,12.2c-1.4,1.4-1.4,3.8,0,5.2l12.2,12.2
				c1.4,1.4,3.8,1.4,5.2,0l12.2-12.2C54.6,268.5,54.6,266.1,53.2,264.7z"/>
			<g>
				<g>
					<path d="M38.4,261.8c2.4,0,4.2,1.4,4.8,3.5h-2.7c-0.4-0.9-1.2-1.3-2.1-1.3c-1.5,0-2.6,1.1-2.6,2.9s1,2.9,2.6,2.9
						c0.9,0,1.7-0.4,2.1-1.3h2.7c-0.6,2.2-2.4,3.5-4.8,3.5c-3,0-5.1-2.1-5.1-5.1S35.5,261.8,38.4,261.8z"/>
				</g>
			</g>
		</g>
		<g>
			<rect x="86.1" y="260.2" class="st1" width="211.4" height="61.6"/>
			<text transform="matrix(1 0 0 1 86.1025 270.11)"><tspan x="0" y="0" class="st15 st16">Buscar parcerias com </tspan><tspan x="0" y="15.6" class="st15 st16">universidades e centros de ensino </tspan><tspan x="0" y="31.2" class="st15 st16">para promover a educação e </tspan><tspan x="0" y="46.8" class="st15 st16">capacitação para  trânsito;</tspan></text>
		</g>
	</g>
	<g>
		<rect x="86.1" y="339.8" class="st9" width="34.3" height="4.6"/>
		<g>
			<line class="st12" x1="53.5" y1="356.8" x2="70.6" y2="356.8"/>
			<circle class="st13" cx="75" cy="356.8" r="4.4"/>
			<path class="st14" d="M53.2,354.2L41,342c-1.4-1.4-3.8-1.4-5.2,0l-12.2,12.2c-1.4,1.4-1.4,3.8,0,5.2l12.2,12.2
				c1.4,1.4,3.8,1.4,5.2,0l12.2-12.2C54.6,357.9,54.6,355.6,53.2,354.2z"/>
			<g>
				<g>
					<path d="M43.1,356.4c0,3-2.1,5.1-5.3,5.1H34v-10.1h3.8C41,351.3,43.1,353.4,43.1,356.4z M37.6,359.3c1.9,0,3-1.1,3-2.9
						c0-1.9-1.1-3-3-3h-1.2v5.9H37.6z"/>
				</g>
			</g>
		</g>
		<g>
			<rect x="86.1" y="349.2" class="st1" width="211.4" height="62.1"/>
			<text transform="matrix(1 0 0 1 86.1025 359.0795)"><tspan x="0" y="0" class="st15 st16">Estimular a produção intelectual, </tspan><tspan x="0" y="15.6" class="st15 st16">tanto de obras científicas como </tspan><tspan x="0" y="31.2" class="st15 st16">obras artísticas e culturais voltadas </tspan><tspan x="0" y="46.8" class="st15 st16">para o trânsito;</tspan></text>
		</g>
	</g>
	<g>
		<rect x="86.1" y="430.6" class="st9" width="34.3" height="4.6"/>
		<g>
			<line class="st12" x1="53.5" y1="443.7" x2="70.6" y2="443.7"/>
			<circle class="st13" cx="75" cy="443.7" r="4.4"/>
			<path class="st14" d="M53.2,441.1L41,428.9c-1.4-1.4-3.8-1.4-5.2,0l-12.2,12.2c-1.4,1.4-1.4,3.8,0,5.2l12.2,12.2
				c1.4,1.4,3.8,1.4,5.2,0l12.2-12.2C54.6,444.9,54.6,442.5,53.2,441.1z"/>
			<g>
				<g>
					<path d="M41.6,440.2h-3.7v2h3.3v1.9h-3.3v2.2h3.7v2h-6.2v-10.1h6.2V440.2z"/>
				</g>
			</g>
		</g>
		<g>
			<rect x="86.1" y="439.3" class="st1" width="209.6" height="38.6"/>
			<text transform="matrix(1 0 0 1 86.1025 449.2063)"><tspan x="0" y="0" class="st15 st16">Aperfeiçoar e monitorar  a </tspan><tspan x="0" y="15.6" class="st15 st16">formação de condutores;</tspan></text>
		</g>
	</g>
	<g>
		<rect x="86.1" y="490.2" class="st9" width="34.3" height="4.6"/>
		<g>
			<line class="st12" x1="53.5" y1="509.3" x2="70.6" y2="509.3"/>
			<circle class="st13" cx="75" cy="509.3" r="4.4"/>
			<path class="st14" d="M53.2,506.7L41,494.5c-1.4-1.4-3.8-1.4-5.2,0l-12.2,12.2c-1.4,1.4-1.4,3.8,0,5.2l12.2,12.2
				c1.4,1.4,3.8,1.4,5.2,0l12.2-12.2C54.6,510.5,54.6,508.1,53.2,506.7z"/>
			<g>
				<g>
					<path d="M35.3,503.9h6.6v2h-4.1v2.1h3.1v1.9h-3.1v4.1h-2.5V503.9z"/>
				</g>
			</g>
		</g>
		<g>
			<rect x="86.1" y="500.4" class="st1" width="217.6" height="109.8"/>
			<text transform="matrix(1 0 0 1 86.1025 510.248)"><tspan x="0" y="0" class="st15 st16">Promover e acompanhar </tspan><tspan x="0" y="15.6" class="st15 st16">campanhas permanentes de </tspan><tspan x="0" y="31.2" class="st15 st16">utilidades públicas com vistas a </tspan><tspan x="0" y="46.8" class="st15 st16">difundir princípios de cidadania, </tspan><tspan x="0" y="62.4" class="st15 st16">valores éticos, conhecimento, </tspan><tspan x="0" y="78" class="st15 st16">habilidades e atitudes favoráveis ao </tspan><tspan x="0" y="93.6" class="st15 st16">trânsito seguro;</tspan></text>
		</g>
	</g>
</g>
</svg>
