<?xml version="1.0" encoding="utf-8"?>
<!-- Generator: Adobe Illustrator 23.0.1, SVG Export Plug-In . SVG Version: 6.00 Build 0)  -->
<svg version="1.1" id="Camada_1" xmlns="http://www.w3.org/2000/svg" xmlns:xlink="http://www.w3.org/1999/xlink" x="0px" y="0px"
	 viewBox="0 0 21.99 30.22" style="enable-background:new 0 0 21.99 30.22;" xml:space="preserve">
<style type="text/css">
	.st0{fill-rule:evenodd;clip-rule:evenodd;fill:#706F6F;}
	.st1{fill:#706F6F;}
</style>
<g>
	<g>
		<path class="st0" d="M10.56,22.53c-0.35,0-0.58,0.03-0.71,0.06v4.57c0.14,0.03,0.35,0.03,0.55,0.03c1.43,0.01,2.36-0.78,2.36-2.44
			C12.77,23.3,11.92,22.53,10.56,22.53z"/>
		<path class="st0" d="M4.46,22.51c-0.32,0-0.54,0.03-0.65,0.06v2.06c0.13,0.03,0.3,0.04,0.53,0.04c0.84,0,1.36-0.42,1.36-1.14
			C5.69,22.9,5.25,22.51,4.46,22.51z"/>
		<path class="st1" d="M21.64,7.47c0-0.13-0.04-0.27-0.14-0.37l-5.66-6.47c0,0,0,0,0,0c-0.03-0.04-0.07-0.07-0.11-0.1
			c-0.01-0.01-0.03-0.02-0.04-0.02c-0.04-0.02-0.07-0.04-0.11-0.05c-0.01,0-0.02-0.01-0.03-0.01c-0.04-0.01-0.09-0.02-0.13-0.02H1.5
			c-0.63,0-1.15,0.52-1.15,1.15v27.05c0,0.63,0.52,1.15,1.15,1.15h18.99c0.63,0,1.15-0.52,1.15-1.15V7.53
			C21.64,7.51,21.64,7.49,21.64,7.47z M6.61,25.15c-0.54,0.51-1.34,0.74-2.27,0.74c-0.21,0-0.39-0.01-0.54-0.03v2.5H2.24v-6.89
			c0.49-0.08,1.17-0.15,2.13-0.15c0.97,0,1.67,0.19,2.13,0.56c0.45,0.35,0.75,0.93,0.75,1.62C7.26,24.18,7.03,24.76,6.61,25.15z
			 M13.28,27.53c-0.73,0.61-1.85,0.9-3.22,0.9c-0.82,0-1.4-0.05-1.79-0.1v-6.86c0.58-0.09,1.34-0.15,2.13-0.15
			c1.33,0,2.19,0.24,2.86,0.75c0.73,0.54,1.18,1.4,1.18,2.63C14.44,26.03,13.95,26.96,13.28,27.53z M19.74,22.67h-2.68v1.6h2.51
			v1.28h-2.51v2.81h-1.58v-6.98h4.27V22.67z M1.5,19.98V1.58h13.33v5.89c0,0.32,0.26,0.58,0.58,0.58h5.08l0,11.93H1.5z"/>
		<path class="st1" d="M16.9,12.8c-0.03,0-0.84-0.08-2.09-0.08c-0.39,0-0.78,0.01-1.17,0.02c-2.46-1.85-4.47-3.69-5.55-4.73
			c0.02-0.11,0.03-0.2,0.04-0.27c0.14-1.5-0.02-2.51-0.47-3.01C7.36,4.41,6.93,4.3,6.47,4.43C6.19,4.5,5.67,4.77,5.5,5.33
			C5.32,5.95,5.61,6.69,6.39,7.56c0.01,0.01,0.28,0.29,0.76,0.76c-0.31,1.49-1.13,4.7-1.52,6.24c-0.93,0.5-1.71,1.1-2.31,1.78
			l-0.04,0.04l-0.03,0.05c-0.06,0.13-0.36,0.8-0.14,1.35c0.1,0.25,0.29,0.43,0.55,0.52l0.07,0.02c0,0,0.06,0.01,0.17,0.01
			c0.48,0,1.67-0.25,2.3-2.6l0.15-0.59c2.22-1.08,4.99-1.43,7-1.52c1.03,0.77,2.06,1.47,3.06,2.1l0.03,0.02
			c0.05,0.02,0.49,0.24,1,0.24c0.73,0,1.27-0.45,1.47-1.23l0.01-0.05c0.06-0.45-0.06-0.85-0.32-1.17
			C18.04,12.86,16.99,12.81,16.9,12.8z M3.93,17.47c0-0.01-0.01-0.01-0.01-0.02c-0.05-0.11,0.01-0.39,0.09-0.6
			c0.36-0.4,0.8-0.78,1.3-1.11C4.82,17.33,4.11,17.46,3.93,17.47z M7.03,6.97c-0.75-0.83-0.74-1.25-0.7-1.39
			C6.39,5.35,6.69,5.26,6.7,5.26c0.15-0.04,0.24-0.03,0.32,0.06C7.2,5.52,7.36,6.13,7.3,7.25C7.12,7.07,7.03,6.97,7.03,6.97z
			 M6.64,14.08l0.01-0.05l0,0c0.38-1.47,0.92-3.62,1.23-5.01l0.01,0.01l0-0.01c1.01,0.95,2.55,2.34,4.4,3.78l-0.02,0l0.03,0.02
			C10.56,12.98,8.48,13.32,6.64,14.08z M18.08,14.56c-0.13,0.49-0.39,0.55-0.62,0.55c-0.27,0-0.53-0.11-0.59-0.14
			c-0.68-0.43-1.37-0.89-2.07-1.39c0.01,0,0.01,0,0.02,0c1.2,0,2,0.07,2.03,0.08c0.2,0.01,0.84,0.1,1.11,0.42
			C18.06,14.21,18.1,14.36,18.08,14.56z"/>
	</g>
</g>
</svg>
