            <svg version="1.1" xmlns="http://www.w3.org/2000/svg" xmlns:xlink="http://www.w3.org/1999/xlink" x="0px" y="0px"
               viewBox="0 0 37.2 50" style="enable-background:new 0 0 37.2 50;" xml:space="preserve">
                <path fill="rgb(1,1,1)" d="M17.9,37c-0.4,0-0.8,0-1.2,0.1v7.4c0.3,0,0.6,0,0.9,0c2.3,0,3.8-1.3,3.8-4c0.2-1.8-1.2-3.4-3-3.5C18.3,37,18.1,37,17.9,37z" />
                <path d="M8,37c-0.3,0-0.7,0-1,0.1v3.3c0.3,0.1,0.6,0.1,0.8,0.1c1.4,0,2.2-0.7,2.2-1.8S9.3,37,8,37z"/>
                <path d="M35.9,12.6c0-0.2-0.1-0.4-0.2-0.6L26.5,1.5l0,0l-0.2-0.2h-0.1L26,1.2v0h-0.2H3.2C2.2,1.2,1.3,2,1.3,3v44
                  c0,1,0.9,1.8,1.9,1.8H34c1,0,1.9-0.8,1.9-1.8V12.7C35.9,12.7,35.9,12.6,35.9,12.6z M11.5,41.3c-1,0.9-2.3,1.3-3.7,1.2
                  c-0.3,0-0.6,0-0.9,0v4H4.4V35.3c1.1-0.2,2.3-0.3,3.5-0.2c1.2-0.1,2.4,0.2,3.5,0.9c0.8,0.6,1.2,1.6,1.2,2.6
                  C12.6,39.6,12.2,40.6,11.5,41.3z M22.3,45.1c-1.5,1.1-3.4,1.6-5.2,1.5c-1,0-1.9-0.1-2.9-0.2V35.3c1.1-0.2,2.3-0.2,3.5-0.2
                  c1.6-0.1,3.3,0.3,4.6,1.2c1.3,1,2,2.6,1.9,4.3C24.3,42.3,23.6,44,22.3,45.1z M32.8,37.3h-4.4v2.6h4.1v2.1h-4.1v4.6h-2.6V35.2h6.9
                  V37.3z M3.2,32.9V3h21.6v9.6c0,0.5,0.4,0.9,0.9,0.9l0,0H34v19.4H3.2z"/>
                <path d="M28.2,21.3c0,0-1.4-0.1-3.4-0.1c-0.6,0-1.3,0-1.9,0c-3.1-2.4-6.2-4.9-9-7.7c0-0.2,0-0.3,0.1-0.4c0.2-2.4,0-4.1-0.8-4.9
                  c-0.5-0.5-1.2-0.7-1.9-0.5c-0.7,0.2-1.3,0.8-1.6,1.5c-0.3,1,0.2,2.2,1.4,3.6c0,0,0.4,0.5,1.2,1.2c-0.5,2.4-1.8,7.6-2.5,10.1
                  c-1.4,0.7-2.7,1.7-3.7,2.9l-0.1,0.1v0.1c-0.3,0.7-0.4,1.5-0.2,2.2C6,29.7,6.4,30,6.8,30.2h0.1c0.1,0,0.2,0,0.3,0
                  c0.8,0,2.7-0.4,3.7-4.2l0.3-1c3.6-1.5,7.5-2.4,11.4-2.5c1.7,1.2,3.4,2.4,5,3.4l0,0c0.5,0.2,1.1,0.4,1.6,0.4c1.2,0,2.2-0.8,2.4-2
                  v-0.1c0.1-0.7-0.1-1.4-0.5-1.9C30.2,21.6,29.2,21.3,28.2,21.3z M7.2,28.8L7.2,28.8c0-0.3,0-0.7,0.2-1c0.6-0.7,1.3-1.3,2-1.8
                  C8.6,28.6,7.4,28.8,7.2,28.8L7.2,28.8z M12.2,11.8c-1.2-1.4-1.2-2-1.1-2.3c0.1-0.4,0.6-0.5,0.6-0.5C11.9,9,12.1,9,12.2,9.2
                  c0.3,0.3,0.6,1.3,0.4,3.1L12.2,11.8z M11.6,23.4L11.6,23.4L11.6,23.4c0.6-2.5,1.5-6,2-8.2l0,0l0,0c1.6,1.5,4.1,3.8,7.2,6.1l0,0l0,0
                  C17.6,21.5,14.5,22.2,11.6,23.4L11.6,23.4z M30.1,24.2c-0.2,0.8-0.6,0.9-1,0.9c-0.3,0-0.7-0.1-1-0.2c-1.1-0.7-2.2-1.4-3.4-2.3l0,0
                  c2,0,3.3,0.1,3.3,0.1c0.7,0,1.3,0.3,1.8,0.7C30,23.6,30.1,23.8,30.1,24.2L30.1,24.2z"/>
            </svg>