<?xml version="1.0" encoding="utf-8"?>
<!-- Generator: Adobe Illustrator 23.0.1, SVG Export Plug-In . SVG Version: 6.00 Build 0)  -->
<svg version="1.1" id="Camada_1" xmlns="http://www.w3.org/2000/svg" xmlns:xlink="http://www.w3.org/1999/xlink" x="0px" y="0px"
	 viewBox="0 0 126.1 187.6" style="enable-background:new 0 0 126.1 187.6;" xml:space="preserve">
<style type="text/css">
	.st0{fill:#706F6F;}
</style>
<path class="st0" d="M117.6,84.9l-92,53.1C14.2,144.6,0,136.4,0,123.3L0,17.1C0,3.9,14.2-4.2,25.5,2.3l92,53.1
	C128.9,62,128.9,78.4,117.6,84.9z"/>
<g>
	<g>
		<path class="st0" d="M17.7,166.9c0,2.3-0.7,4.1-2.2,5.4c-1.5,1.2-3.5,1.9-6.2,1.9h-2v7.7H2.7v-21.7h6.9c2.6,0,4.6,0.6,6,1.7
			C17.1,163,17.7,164.7,17.7,166.9z M7.3,170.4h1.5c1.4,0,2.5-0.3,3.2-0.8c0.7-0.6,1.1-1.4,1.1-2.4c0-1.1-0.3-1.9-0.9-2.4
			c-0.6-0.5-1.5-0.8-2.8-0.8H7.3V170.4z"/>
		<path class="st0" d="M30.8,164.9c0.6,0,1.1,0,1.5,0.1l-0.3,4.2c-0.4-0.1-0.8-0.1-1.3-0.1c-1.4,0-2.6,0.4-3.4,1.1
			c-0.8,0.7-1.2,1.8-1.2,3.1v8.5h-4.5v-16.6h3.4l0.7,2.8h0.2c0.5-0.9,1.2-1.7,2.1-2.3C28.8,165.2,29.7,164.9,30.8,164.9z"/>
		<path class="st0" d="M50.4,173.5c0,2.7-0.7,4.8-2.1,6.3c-1.4,1.5-3.4,2.3-6,2.3c-1.6,0-3-0.3-4.2-1c-1.2-0.7-2.2-1.7-2.8-3
			c-0.7-1.3-1-2.8-1-4.6c0-2.7,0.7-4.8,2.1-6.3c1.4-1.5,3.4-2.3,6-2.3c1.6,0,3,0.3,4.2,1c1.2,0.7,2.2,1.7,2.8,3
			C50.1,170.3,50.4,171.8,50.4,173.5z M38.9,173.5c0,1.6,0.3,2.9,0.8,3.7c0.5,0.8,1.4,1.3,2.6,1.3c1.2,0,2.1-0.4,2.6-1.3
			s0.8-2.1,0.8-3.7c0-1.6-0.3-2.9-0.8-3.7c-0.5-0.8-1.4-1.2-2.6-1.2c-1.2,0-2.1,0.4-2.6,1.2S38.9,171.9,38.9,173.5z M39.9,163.4V163
			c1.7-2,2.9-3.5,3.5-4.5h5.1v0.3c-0.5,0.5-1.4,1.3-2.6,2.3s-2.2,1.8-2.9,2.3H39.9z"/>
		<path class="st0" d="M57.5,173.4l-5.3-8.1h5.1l3.2,5.3l3.3-5.3H69l-5.4,8.1l5.7,8.5h-5.2l-3.5-5.7l-3.5,5.7h-5.1L57.5,173.4z"/>
		<path class="st0" d="M71.5,161c0-1.5,0.8-2.2,2.5-2.2s2.5,0.7,2.5,2.2c0,0.7-0.2,1.3-0.6,1.6s-1,0.6-1.8,0.6
			C72.4,163.2,71.5,162.4,71.5,161z M76.3,181.9h-4.5v-16.6h4.5V181.9z"/>
		<path class="st0" d="M95.9,181.9h-4.5v-9.7c0-1.2-0.2-2.1-0.6-2.7c-0.4-0.6-1-0.9-1.9-0.9c-1.2,0-2,0.4-2.5,1.3
			c-0.5,0.9-0.8,2.3-0.8,4.2v7.8H81v-16.6h3.5l0.6,2.1h0.3c0.4-0.8,1.1-1.4,1.9-1.8s1.8-0.6,2.9-0.6c2.5,0,4.2,0.8,5.1,2.4h0.4
			c0.4-0.8,1.1-1.4,2-1.8c0.9-0.4,1.8-0.6,2.9-0.6c1.9,0,3.3,0.5,4.3,1.4s1.4,2.5,1.4,4.6v10.8h-4.5v-9.7c0-1.2-0.2-2.1-0.6-2.7
			c-0.4-0.6-1-0.9-1.9-0.9c-1.1,0-1.9,0.4-2.5,1.2c-0.5,0.8-0.8,2.1-0.8,3.8V181.9z"/>
		<path class="st0" d="M126,173.5c0,2.7-0.7,4.8-2.1,6.3c-1.4,1.5-3.4,2.3-6,2.3c-1.6,0-3-0.3-4.2-1c-1.2-0.7-2.2-1.7-2.8-3
			c-0.7-1.3-1-2.8-1-4.6c0-2.7,0.7-4.8,2.1-6.3c1.4-1.5,3.4-2.3,6-2.3c1.6,0,3,0.3,4.2,1c1.2,0.7,2.2,1.7,2.8,3
			C125.7,170.3,126,171.8,126,173.5z M114.5,173.5c0,1.6,0.3,2.9,0.8,3.7c0.5,0.8,1.4,1.3,2.6,1.3c1.2,0,2.1-0.4,2.6-1.3
			s0.8-2.1,0.8-3.7c0-1.6-0.3-2.9-0.8-3.7c-0.5-0.8-1.4-1.2-2.6-1.2c-1.2,0-2.1,0.4-2.6,1.2S114.5,171.9,114.5,173.5z"/>
	</g>
</g>
</svg>
