<?xml version="1.0" encoding="utf-8"?>
<!-- Generator: Adobe Illustrator 23.0.1, SVG Export Plug-In . SVG Version: 6.00 Build 0)  -->
<svg version="1.1" id="Camada_1" xmlns="http://www.w3.org/2000/svg" xmlns:xlink="http://www.w3.org/1999/xlink" x="0px" y="0px"
	 viewBox="0 0 300 67" style="enable-background:new 0 0 300 67;" xml:space="preserve">
<style type="text/css">
	.st0{fill:#FFFFFF;}
	.st1{fill:#93C020;}
	.st2{fill:#F0F0F0;}
</style>
<path class="st0" d="M0.2,67h299.7l0.1-35.7L18.8,30.5h-0.2c-0.1,0-0.2,0-0.3,0l-0.4,0.1l-0.8,0.1c-0.5,0.1-1,0.2-1.5,0.3
	c-1,0.2-2,0.6-2.9,0.9C10.8,32.7,9,33.7,7.4,35c-1.7,1.3-3,2.8-4.1,4.5s-2,3.6-2.5,5.5c-0.3,1-0.4,2-0.5,3l-0.1,1.5v1.4v5.5L0.2,67z
	"/>
<polygon class="st1" points="298,67 300,67 300,31.3 274.3,30.9 274.3,33.7 297.9,33.3 "/>
<path class="st1" d="M0,67h3.8c0-0.4,0-0.8,0-1.1V54.7c0-1.9,0-3.8,0-5.5s0.4-3.3,1-4.9C7,38.4,13.4,34,20,34c0.3,0,0.6,0,0.9,0
	c31.4,0,152.9-0.1,184.2-0.2v-3.3L18.8,30.3h-0.2l0,0c0,0,0,0-0.1,0c0,0,0,0-0.1,0s-0.1,0-0.2,0l-0.4,0.1L17,30.5
	c-0.5,0.1-1,0.2-1.5,0.3c-1,0.2-2,0.6-2.9,0.9c-1.9,0.8-3.7,1.8-5.3,3.1s-3,2.8-4.1,4.5s-2,3.6-2.5,5.5c-0.3,1-0.4,2-0.5,3L0,49.3
	v1.4v5.5V67z"/>
<ellipse class="st0" cx="239.8" cy="33.4" rx="35" ry="32.8"/>
<path class="st1" d="M239.8,5.3L239.8,5.3L239.8,5.3c-7.4,0-14.9,2.9-20.2,7.9c-2.7,2.6-4.9,5.6-6.3,9c-1.5,3.4-2.2,7.1-2.1,10.8
	c0.1,3.7,0.9,7.3,2.5,10.6s3.8,6.2,6.4,8.6c5.3,4.8,12.5,7.3,19.6,7.3l0,0c0-1.2,0-0.1,0-1.3l0,0c-6.8,0-13.7-2.7-18.5-7.3
	c-2.5-2.4-4.5-5.1-5.7-8.2s-1.9-6.4-1.8-9.8c0.1-6.7,3.4-13.1,8.3-17.3c4.9-4.3,11.3-6.5,17.7-6.5c0.1,0,0.3,0,0.4,0
	c6.5,0,13,2.5,17.8,6.9c4.9,4.4,7.9,10.8,7.9,17.4c0.1,6.6-2.8,13.2-7.7,17.8c-4.9,4.7-11.7,7-18.4,7v0.2c0,1.2,0-0.1,0,1.1l0,0
	c7.1,0,14.3-2.4,19.6-7.1c2.7-2.4,5-5.3,6.5-8.6c1.6-3.3,2.4-6.9,2.5-10.6c0.1-3.7-0.6-7.3-2.1-10.8c-1.5-3.4-3.7-6.4-6.3-9
	C254.7,8.2,247.2,5.3,239.8,5.3"/>
<path class="st2" d="M239.8,11.8c-12.8,0-23.2,9.7-23.2,21.7s10.3,21.7,23.2,21.7c12.8,0,23.2-9.7,23.2-21.7S252.6,11.8,239.8,11.8"
	/>
<g>
	<path d="M241,38.2c-0.7-1.4-1.4-2.8-2.3-4.4c-0.4-0.8-0.9-1.5-1.3-2.3c-0.1-0.2-0.2-0.4-0.4-0.6c-0.2-0.4-0.5-0.8-0.7-1.2l-0.2-0.3
		c-0.2-0.3-0.4-0.6-0.9-0.6c-0.4,0-0.7,0.3-0.7,0.7c-0.1,0.4-0.2,0.9-0.2,1.3c0,0.2-0.1,0.4-0.1,0.6c0,0.1,0,0.2-0.1,0.3
		c-0.1,0.4-0.1,0.8-0.2,1.2c-0.1,0.8-0.2,1.6-0.3,2.4c-0.2,1.6-0.4,3-0.5,4.4c0,0.2,0.1,0.3,0.2,0.3c0.1,0,0.3-0.1,0.3-0.2
		c0.3-1,0.6-2.1,0.9-3.2l4.1-0.8c0.6,0.9,1.3,1.7,1.9,2.5c0.1,0.1,0.3,0.2,0.4,0.1C241.1,38.5,241.1,38.3,241,38.2z M234.9,35.3
		c0.2-0.7,0.3-1.4,0.5-2.1c0.1-0.4,0.2-0.8,0.3-1.2c0-0.1,0-0.2,0.1-0.3l0,0l0,0l0,0l0,0l0,0c0.1,0.2,0.3,0.4,0.4,0.6
		c0.5,0.8,1,1.5,1.5,2.2c0.1,0.1,0.1,0.2,0.2,0.3L234.9,35.3z"/>
	<g>
		<path d="M248,40.5h-0.1c-1.5,0.4-3,0.8-4.5,1.2c-0.3,0.1-0.7,0.1-1,0.2c-0.3,0.1-0.6,0.1-0.9,0c-0.1,0-0.1-0.1-0.2-0.1
			c-0.2-0.2-0.2-0.5-0.1-0.7c0.2-0.4,0.4-0.9,0.5-1.3c0.1-0.2,0.2-0.5,0.3-0.7c0.4-0.9,0.8-1.9,1.2-2.9s0.9-1.9,1.3-2.8
			c0.2-0.3,0.3-0.7,0.5-1c-0.2,0-0.3,0-0.4,0.1c-0.1,0-0.2,0-0.3,0c-0.5,0.1-0.9,0.1-1.4,0.2c-0.9,0.1-1.8,0.2-2.6,0.3
			c-0.2,0-0.4-0.1-0.4-0.2c0-0.1,0.1-0.2,0.3-0.3c0.8-0.2,1.7-0.5,2.5-0.7c0.4-0.1,0.9-0.2,1.3-0.3c0.1,0,0.2-0.1,0.3-0.1h0.2
			l0.3-0.1c0.2,0,0.4-0.1,0.6-0.1l0.3-0.1c0.2-0.1,0.5,0,0.7,0.1l0.1,0.1c0,0.1,0.1,0.1,0.1,0.2c0.1,0.3,0,0.5-0.1,0.8
			c-0.2,0.4-0.3,0.8-0.5,1.2c-0.1,0.2-0.2,0.5-0.3,0.7c-0.4,0.9-0.8,1.9-1.2,2.9s-0.9,1.9-1.3,2.9c-0.1,0.3-0.3,0.6-0.4,0.9
			c0.2,0,0.4,0,0.6,0c1.4-0.2,2.8-0.4,4.3-0.5C247.8,40.4,247.9,40.4,248,40.5c0.1-0.1,0.1,0,0.1,0c0,0.1,0,0.2-0.1,0.3
			C248.1,40.5,248,40.5,248,40.5z"/>
	</g>
	<g>
		<path d="M251.6,33.3c-0.2-1.1-0.5-2.3-0.7-3.4c-0.1-0.6-0.2-1.1-0.4-1.7c-0.1-0.6-0.2-1.1-0.4-1.7c-0.2-0.8-0.3-1.6-0.5-2.5
			c-0.2-0.8-0.3-1.6-0.5-2.4c-0.1-0.6-0.3-1.2-0.7-1.7c-0.1-0.1-0.2-0.2-0.3-0.3c-0.1,0-0.1-0.1-0.2-0.1c-0.1,0-0.1-0.1-0.2-0.1
			c-0.2-0.1-0.3-0.2-0.5-0.2c-1-0.4-2.1-0.1-3.1,0.2c-1,0.3-2,0.4-3,0.7c-1.9,0.4-3.9,0.9-5.7,1.3c-1.9,0.4-3.8,0.9-5.6,1.3
			c-0.2,0.1-0.5,0.1-0.7,0.2l-0.3,0.1c-0.1,0-0.2,0-0.3,0.1c-0.4,0.1-0.8,0.1-1.2,0.1c-0.2,0-0.4,0-0.5-0.1
			c-0.5-0.2-0.5-0.8-0.3-1.2c0.2-0.5,0.7-0.6,1.2-0.7c0.2-0.1,0.4-0.1,0.6-0.2c0.2-0.1,0.4-0.1,0.7-0.1c0.4-0.1,0.9-0.2,1.3-0.3
			c1.8-0.4,3.5-0.7,5.2-1c3.5-0.6,6.8-1.2,10.1-1.8c1-0.2,1.6-0.4,1.5-0.6c-0.1-0.1-0.7-0.2-1.6-0.1c-3.3,0.4-6.7,0.9-10.2,1.4
			c-1.7,0.3-3.5,0.5-5.3,0.8c-0.4,0.1-0.9,0.1-1.3,0.2c-0.2,0-0.5,0.1-0.7,0.1l-0.3,0.1h-0.2c-0.1,0-0.1,0-0.2,0
			c-0.3,0.1-0.5,0.1-0.8,0.2s-0.5,0.3-0.8,0.5c-0.2,0.2-0.5,0.5-0.6,0.8c-0.2,0.3-0.2,0.6-0.3,1c0,0.3,0,0.6,0.1,0.9
			c0,0.2,0.1,0.3,0.2,0.5c0,0.1,0.1,0.2,0.1,0.2c0.1,0.1,0.1,0.2,0.2,0.2c0.3,0.3,0.6,0.5,0.9,0.6c0.3,0.1,0.6,0.2,0.9,0.2
			c0.6,0,1.1,0,1.6-0.1c0.1,0,0.3,0,0.4-0.1l0.4-0.1c0.2,0,0.5-0.1,0.7-0.1c1.8-0.4,3.7-0.8,5.6-1.2c1.9-0.4,3.8-0.8,5.8-1.2
			c1-0.2,1.9-0.4,2.9-0.6c0.6-0.1,1.2-0.3,1.7-0.3c0.1,0,0.2,0,0.3,0.1c0.2,0.1,0.3,0.2,0.3,0.4c0.1,0.3,0.1,0.7,0.2,1
			c0.1,0.4,0.1,0.7,0.2,1.1c0.2,1.1,0.4,2.2,0.6,3.4c0.1,0.6,0.2,1.1,0.3,1.7s0.2,1.1,0.3,1.7c0.2,1.1,0.5,2.3,0.7,3.4
			c0.2,0.7,0.3,1.4,0.5,2.2c0.2,0.7,0.3,1.4,0.5,2.1c0.3,1.4,0.6,2.8,0.8,4.1c0.1,0.5,0.1,1.1,0.2,1.6c0,0.5,0.1,1,0,1.5
			c0,0.2-0.1,0.4-0.2,0.5c-0.3,0.3-0.7,0.3-1,0.4c-0.6,0.1-1.3,0.2-2,0.3c-1.4,0.2-2.7,0.4-4.1,0.5c-0.7,0.1-1.4,0.2-2,0.3l-0.5,0.1
			l-0.5,0.1c-0.3,0.1-0.7,0.1-1,0.2c-1.3,0.3-2.6,0.5-3.9,0.8c-1.2,0.2-2.3,0.4-3.5,0.5c-0.1,0-0.1,0-0.2,0
			c-0.4-0.1-0.7-0.4-0.8-0.8c-0.1-0.3-0.2-0.7-0.2-1c-0.1-0.3-0.1-0.6-0.2-1c-0.2-1-0.4-2-0.6-2.9c-0.4-1.9-0.7-3.8-1.1-5.7
			c-0.7-3.7-1.4-7.4-2.1-10.9c-0.2-0.9-0.4-1.5-0.6-1.5c-0.2,0-0.2,0.6-0.1,1.6c0.5,3.5,1.1,7.2,1.7,11c0.3,1.9,0.6,3.8,0.9,5.8
			c0.2,1,0.3,2,0.5,2.9c0.1,0.5,0.2,1,0.2,1.5c0.1,0.7,0.3,1.4,0.9,1.9c0.4,0.4,0.9,0.6,1.5,0.7c0.7,0,1.4-0.1,2.1-0.2
			c0.7-0.1,1.3-0.2,2-0.3c1.3-0.2,2.6-0.5,3.9-0.7c0.3-0.1,0.7-0.1,1-0.2l0.5-0.1l0.5-0.1c0.7-0.1,1.3-0.2,2-0.2
			c1.4-0.1,2.7-0.3,4.1-0.5c0.7-0.1,1.4-0.2,2.1-0.3c0.7-0.1,1.5-0.3,2.1-0.9c0.4-0.4,0.7-0.9,0.8-1.4c0.2-0.6,0.2-1.2,0.1-1.8
			c0-0.7-0.1-1.5-0.2-2.2C253,38.9,252.2,36.1,251.6,33.3z"/>
		<path d="M232.5,50.5L232.5,50.5L232.5,50.5L232.5,50.5z"/>
	</g>
</g>
</svg>
