<?xml version="1.0" encoding="utf-8"?>
<!-- Generator: Adobe Illustrator 23.0.1, SVG Export Plug-In . SVG Version: 6.00 Build 0)  -->
<svg version="1.1" id="Camada_1" xmlns="http://www.w3.org/2000/svg" xmlns:xlink="http://www.w3.org/1999/xlink" x="0px" y="0px"
	 viewBox="0 0 296.6 30.7" style="enable-background:new 0 0 296.6 30.7;" xml:space="preserve">
<style type="text/css">
	.st0{fill:#93C020;}
	.st1{fill:#BCBCBB;}
</style>
<title>citacao_superior</title>
<g>
	<path class="st0" d="M18.8,16.7c-0.2-0.7-0.5-1.3-1-1.9c-0.5-0.6-1-1-1.7-1.4c-0.7-0.3-1.4-0.5-2.1-0.6c-0.8-0.1-1.5,0-2.2,0.3
		c-0.2,0.1-0.5,0.2-0.7,0.3c0.2-1.4,0.7-2.7,1.1-4C12.4,8.9,12.7,8,13,7.5c0.5-1.1,1-1.8,1.4-2.9c0-0.2-0.1-0.4-0.4-0.6
		c-0.3,0-0.5-0.1-0.7,0c-1.1,0.9-2.2,2-3.1,3.4c-0.9,1.3-1.8,2.9-2.3,4.7c-0.3,0.9-0.4,1.8-0.5,2.8c0,0.9,0,1.8,0.2,2.7
		C7.7,18,7.8,18.5,8,18.9s0.4,0.8,0.6,1.2c0.1,0.1,0.2,0.2,0.3,0.4c0.3,0.4,0.6,0.8,0.9,1.1c0.8,0.7,1.8,1.1,2.7,1.2
		c0.9,0.2,1.8,0.1,1.8,0.1c0.3,0,0.7-0.1,1-0.1c0.5-0.1,1.1-0.4,1.6-0.7c0.5-0.3,0.9-0.8,1.3-1.3c0.3-0.5,0.6-1.2,0.7-1.8
		C19,18.1,19,17.4,18.8,16.7"/>
	<path class="st0" d="M32.3,16.7c-0.2-0.7-0.5-1.3-1-1.9c-0.5-0.6-1-1-1.7-1.4c-0.7-0.3-1.4-0.5-2.1-0.6c-0.8-0.1-1.5,0-2.2,0.3
		c-0.2,0.1-0.5,0.2-0.7,0.3c0.2-1.4,0.7-2.7,1.1-4c0.2-0.5,0.5-1.4,0.8-1.9c0.5-1.1,1-1.8,1.4-2.9c0-0.2-0.1-0.4-0.4-0.6
		c-0.3,0-0.5-0.1-0.7,0c-1.1,0.9-2.2,2-3.1,3.4c-0.9,1.3-1.8,2.9-2.3,4.7c-0.3,0.9-0.4,1.8-0.5,2.8c0,0.9,0,1.8,0.2,2.7
		c0.1,0.4,0.2,0.9,0.4,1.3c0.2,0.4,0.4,0.8,0.6,1.2c0.1,0.1,0.2,0.2,0.3,0.4c0.3,0.4,0.6,0.8,0.9,1.1c0.8,0.7,1.8,1.1,2.7,1.2
		c0.9,0.2,1.8,0.1,1.8,0.1c0.3,0,0.7-0.1,1-0.1c0.5-0.1,1.1-0.4,1.6-0.7c0.5-0.3,0.9-0.8,1.3-1.3c0.3-0.5,0.6-1.2,0.7-1.8
		C32.5,18.1,32.5,17.4,32.3,16.7"/>
</g>
<path class="st1" d="M164.8,17.2c-46.3,0-88.7,0.2-126.4,0.5v0.5h252.3H38.4v0.5c37.4,0.3,79.6,0.5,125.9,0.5
	c46.5,0,88.9-0.2,126.4-0.5v-0.9C253.1,17.4,210.9,17.2,164.8,17.2"/>
</svg>
