<?xml version="1.0" encoding="utf-8"?>
<!-- Generator: Adobe Illustrator 23.0.1, SVG Export Plug-In . SVG Version: 6.00 Build 0)  -->
<svg version="1.1" id="Camada_1" xmlns="http://www.w3.org/2000/svg" xmlns:xlink="http://www.w3.org/1999/xlink" x="0px" y="0px"
	 viewBox="0 0 35 28.9" style="enable-background:new 0 0 35 28.9;" xml:space="preserve">
<g>
	<path d="M5.4,7.4h20.4c0.9,0,1.5-0.6,1.5-1.5s-0.6-1.5-1.5-1.5H5.4C4.5,4.4,3.9,5,3.9,5.9S4.5,7.4,5.4,7.4z"/>
	<path d="M5.4,16.3h22.4c0.8,0,1.5-0.6,1.5-1.5s-0.6-1.5-1.5-1.5H5.4c-0.9,0-1.5,0.6-1.5,1.5S4.5,16.3,5.4,16.3z"/>
	<path d="M29.6,21.5H5.4c-0.9,0-1.5,0.6-1.5,1.5c0,0.9,0.6,1.5,1.5,1.5h24.3c0.8,0,1.5-0.6,1.5-1.5C31.2,22.2,30.5,21.5,29.6,21.5z"
		/>
</g>
</svg>
