<?xml version="1.0" encoding="utf-8"?>
<!-- Generator: Adobe Illustrator 23.0.1, SVG Export Plug-In . SVG Version: 6.00 Build 0)  -->
<svg version="1.1" id="Camada_1" xmlns="http://www.w3.org/2000/svg" xmlns:xlink="http://www.w3.org/1999/xlink" x="0px" y="0px"
	 viewBox="0 0 117 129" style="enable-background:new 0 0 117 129;" xml:space="preserve">
<style type="text/css">
	.st0{fill:#E00819;}
	.st1{fill:#0072B2;}
	.st2{fill:#35A8E0;}
	.st3{fill:#FFEA1D;}
	.st4{fill:#91BF20;}
	.st5{fill:#FCC62E;}
	.st6{fill:#FFFFFF;}
</style>
<path class="st0" d="M8.7,117.9c-2.2,2.5,0.7,6.2,3.7,4.8l52.7-25.1L39.5,82.1L8.7,117.9z"/>
<path class="st1" d="M104.6,115.5l-6.9-33.4L65.1,97.6l34.9,21.1C102.3,120.1,105.1,118.1,104.6,115.5z"/>
<polygon class="st2" points="39.5,82.1 65.1,97.6 97.7,82.1 "/>
<g>
	<path class="st3" d="M30.1,40.5c-2.5-1.5-5.5,0.9-4.5,3.7l13.9,37.9l22.2-22.2L30.1,40.5z"/>
	<path class="st4" d="M107.1,14.5L61.7,59.9l36,22.2l14.6-64.7C113,14.4,109.3,12.4,107.1,14.5z"/>
	<polygon class="st5" points="39.5,82.1 97.7,82.1 61.7,59.9 	"/>
</g>
<circle class="st2" cx="61.4" cy="25.3" r="12.3"/>
<path class="st6" d="M68.6,77.5c-10.9,0-21.5,0.6-30.3,1.6l1.1,2.9l-3.9,4.5c9-1.3,20.9-2,33-2c10.8,0,21.3,0.6,29.9,1.6l-0.9-4.1
	l0.7-3C89.7,78.1,79.4,77.5,68.6,77.5z"/>
</svg>
