<svg version="1.1" id="Camada_1" xmlns="http://www.w3.org/2000/svg" xmlns:xlink="http://www.w3.org/1999/xlink" x="0px" y="0px"
	 viewBox="0 0 469 129" style="enable-background:new 0 0 469 129;" xml:space="preserve">
<style type="text/css">
	.st0{fill:#E00819;}
	.st1{fill:#0072B2;}
	.st2{fill:#35A8E0;}
	.st3{fill:#FFEA1D;}
	.st4{fill:#91BF20;}
	.st5{fill:#FCC62E;}
	.st6{fill:#FFFFFF;}
	.st7{fill:#20276D;}
</style>
<path class="st0" d="M232.74,117.93c-2.17,2.53,0.66,6.22,3.67,4.79l52.68-25.12l-25.62-15.53L232.74,117.93z"/>
<path class="st1" d="M328.58,115.48l-6.91-33.41L289.08,97.6l34.87,21.14C326.26,120.14,329.12,118.12,328.58,115.48z"/>
<polygon class="st2" points="263.46,82.07 289.08,97.6 321.66,82.07 "/>
<g>
	<path class="st3" d="M254.07,40.46c-2.49-1.53-5.52,0.94-4.51,3.69l13.9,37.92l22.2-22.16L254.07,40.46z"/>
	<path class="st4" d="M331.1,14.55l-45.44,45.35l36,22.16l14.63-64.65C336.97,14.4,333.29,12.37,331.1,14.55z"/>
	<polygon class="st5" points="263.46,82.07 321.66,82.07 285.66,59.91 	"/>
</g>
<circle class="st2" cx="285.35" cy="25.34" r="12.34"/>
<path class="st6" d="M292.63,77.54c-10.88,0-21.5,0.57-30.25,1.58l1.08,2.94l-3.87,4.52c9.03-1.27,20.85-1.99,33.05-1.99
	c10.78,0,21.33,0.57,29.88,1.58l-0.85-4.11l0.68-3.01C313.71,78.08,303.42,77.54,292.63,77.54z"/>
<g>
	<path class="st7" d="M29.8,83.78l8.18,2.61c-1.01,2.42-2.28,4.45-3.81,6.07c-1.53,1.62-3.3,2.85-5.29,3.68
		c-2,0.83-4.42,1.24-7.28,1.24c-3.47,0-6.21-0.5-8.23-1.51c-2.02-1.01-3.61-2.78-4.75-5.32c-1.15-2.54-1.37-5.79-0.68-9.74
		c0.93-5.28,3.05-9.33,6.36-12.17c3.31-2.83,7.53-4.25,12.67-4.25c4.02,0,7.03,0.81,9.05,2.44c2.01,1.62,3.28,4.12,3.8,7.49
		l-9.05,1.94c-0.13-0.97-0.33-1.68-0.58-2.13c-0.42-0.75-0.99-1.33-1.72-1.74c-0.73-0.41-1.58-0.61-2.57-0.61
		c-2.23,0-4.1,0.9-5.61,2.7c-1.13,1.33-1.95,3.43-2.46,6.28c-0.62,3.54-0.51,5.96,0.33,7.27c0.84,1.31,2.24,1.97,4.18,1.97
		c1.89,0,3.41-0.53,4.56-1.59C28.04,87.34,29.01,85.8,29.8,83.78z"/>
	<path class="st7" d="M41.89,80.91c0.92-5.21,3.08-9.26,6.5-12.17c3.41-2.9,7.71-4.35,12.89-4.35c5.31,0,9.15,1.43,11.52,4.28
		c2.37,2.85,3.1,6.84,2.2,11.98c-0.66,3.73-1.82,6.79-3.5,9.17c-1.68,2.39-3.82,4.24-6.42,5.57c-2.61,1.33-5.68,1.99-9.22,1.99
		c-3.6,0-6.48-0.57-8.63-1.72c-2.16-1.15-3.75-2.96-4.78-5.44C41.42,87.74,41.23,84.64,41.89,80.91z M51.74,80.95
		c-0.57,3.22-0.38,5.54,0.57,6.94c0.95,1.41,2.45,2.11,4.51,2.11c2.12,0,3.88-0.69,5.28-2.07c1.4-1.38,2.42-3.85,3.05-7.42
		c0.53-3,0.31-5.2-0.66-6.58c-0.97-1.39-2.49-2.08-4.56-2.08c-1.99,0-3.71,0.7-5.16,2.11C53.33,75.37,52.31,77.7,51.74,80.95z"/>
	<path class="st7" d="M82.68,64.93h9.21l8.9,17.65l3.11-17.65h9.29l-5.63,31.9h-9.29l-8.86-17.52l-3.09,17.52h-9.27L82.68,64.93z"/>
	<path class="st7" d="M119.42,64.93h26.42l-1.2,6.81H128.1l-0.89,5.07h15.34l-1.15,6.51h-15.34l-1.11,6.29h17.02l-1.27,7.22h-26.9
		L119.42,64.93z"/>
	<path class="st7" d="M149.89,64.93h10.86l3.92,9.82l7.23-9.82h10.75l-12.65,15.45l7.96,16.45h-11.08l-4.49-10.25l-8.11,10.25
		h-11.01l13.94-16.63L149.89,64.93z"/>
	<path class="st7" d="M203.25,91.57h-11.19l-2.48,5.27h-10.07l17.62-31.9h10.75l6.36,31.9h-10.32L203.25,91.57z M208.23,57.01h3.44
		c-0.05,0.38-0.1,0.7-0.15,0.98c-0.28,1.61-0.91,2.86-1.88,3.74c-0.97,0.88-2.09,1.33-3.37,1.33c-0.93,0-2.27-0.38-4.02-1.15
		c-1.06-0.46-1.81-0.7-2.25-0.7c-0.42,0-0.77,0.13-1.05,0.39c-0.28,0.26-0.48,0.73-0.62,1.39h-3.4c0.05-0.35,0.09-0.65,0.14-0.91
		c0.27-1.55,0.92-2.79,1.94-3.7c1.02-0.91,2.11-1.37,3.29-1.37c0.51,0,0.98,0.06,1.41,0.17c0.43,0.12,1.21,0.43,2.33,0.94
		c1.12,0.51,1.96,0.76,2.51,0.76c0.39,0,0.73-0.13,1.02-0.4C207.85,58.21,208.07,57.72,208.23,57.01z M202.42,84.67l-1.5-11.47
		l-5.51,11.47H202.42z"/>
	<path class="st7" d="M217.29,80.91c0.92-5.21,3.08-9.26,6.5-12.17c3.41-2.9,7.71-4.35,12.89-4.35c5.31,0,9.15,1.43,11.52,4.28
		c2.37,2.85,3.1,6.84,2.2,11.98c-0.66,3.73-1.82,6.79-3.5,9.17c-1.68,2.39-3.82,4.24-6.42,5.57c-2.61,1.33-5.68,1.99-9.22,1.99
		c-3.6,0-6.48-0.57-8.63-1.72c-2.16-1.15-3.75-2.96-4.78-5.44C216.82,87.74,216.64,84.64,217.29,80.91z M227.14,80.95
		c-0.57,3.22-0.38,5.54,0.57,6.94c0.95,1.41,2.45,2.11,4.51,2.11c2.12,0,3.88-0.69,5.28-2.07c1.4-1.38,2.42-3.85,3.05-7.42
		c0.53-3,0.31-5.2-0.66-6.58c-0.97-1.39-2.49-2.08-4.56-2.08c-1.99,0-3.71,0.7-5.16,2.11C228.73,75.37,227.72,77.7,227.14,80.95z"/>
</g>
<g>
	<path class="st7" d="M346.62,89.14l6.02-0.06c7.08-0.07,11.59-17.9,3.66-17.92l-5.51-0.02L346.62,89.14z M341.24,64.26L359,64.28
		c19.14,0.02,15.51,31.91-5.83,31.89l-19.55,0.03L341.24,64.26z"/>
	<path class="st7" d="M346.62,89.14l6.02-0.06c7.08-0.07,11.59-17.9,3.66-17.92l-5.51-0.02L346.62,89.14z M341.24,64.26L359,64.28
		c19.14,0.02,15.51,31.91-5.83,31.89l-19.55,0.03L341.24,64.26z"/>
	<polygon class="st7" points="413.71,64.26 424.64,64.26 417.16,96.3 406.22,96.3 	"/>
	<polygon class="st7" points="413.71,64.26 424.64,64.26 417.16,96.3 406.22,96.3 	"/>
	<polygon class="st7" points="427.35,64.26 461.8,64.26 459.93,72.13 448.11,72.13 442.16,96.3 430.85,96.3 436.77,72.13 
		425.56,72.13 	"/>
	<polygon class="st7" points="427.35,64.26 461.8,64.26 459.93,72.13 448.11,72.13 442.16,96.3 430.85,96.3 436.77,72.13 
		425.56,72.13 	"/>
	<polygon class="st7" points="376.98,64.26 387.04,64.26 396.11,82.93 400.56,64.26 410.9,64.26 403.7,96.26 392.98,96.3 
		384.18,77.68 379.67,96.27 369.34,96.3 	"/>
	<polygon class="st7" points="376.98,64.26 387.04,64.26 396.11,82.93 400.56,64.26 410.9,64.26 403.7,96.26 392.98,96.3 
		384.18,77.68 379.67,96.27 369.34,96.3 	"/>
</g>
</svg>
