<svg data-name="Camada 1" xmlns="http://www.w3.org/2000/svg" viewBox="0 0 37.23 50">
<defs>
<style>
.icon-pdf{fill:#706f6f;}
</style>
</defs>
<title>pdf_icone</title>
<path class="icon-pdf" d="M17.92,37.05a5.4,5.4,0,0,0-1.16.1v7.42a4.75,4.75,0,0,0,.89,0c2.32,0,3.83-1.26,3.83-4A3.25,3.25,0,0,0,17.92,37.05Z"/>
<path class="icon-pdf" d="M8,37a4.28,4.28,0,0,0-1,.1v3.34a3.79,3.79,0,0,0,.85.07c1.37,0,2.21-.69,2.21-1.85S9.29,37,8,37Z"/>
<path class="icon-pdf" d="M35.89,12.59a.91.91,0,0,0-.22-.6L26.48,1.5h0l-.19-.16-.06,0L26,1.22,26,1.2l-.21,0H3.2A1.87,1.87,0,0,0,1.33,3.05V47A1.87,1.87,0,0,0,3.2,48.82H34A1.87,1.87,0,0,0,35.9,47V12.7A.41.41,0,0,0,35.89,12.59ZM11.51,41.3a5.22,5.22,0,0,1-3.68,1.2,6.93,6.93,0,0,1-.87,0v4H4.42V35.32a20.26,20.26,0,0,1,3.46-.24,5.45,5.45,0,0,1,3.46.91,3.28,3.28,0,0,1,1.21,2.62A3.61,3.61,0,0,1,11.51,41.3Zm10.81,3.85a8.05,8.05,0,0,1-5.22,1.47,22.88,22.88,0,0,1-2.91-.17V35.32a23,23,0,0,1,3.46-.24,7.31,7.31,0,0,1,4.64,1.21,5,5,0,0,1,1.92,4.27A5.72,5.72,0,0,1,22.32,45.15Zm10.5-7.88H28.46v2.59h4.07v2.08H28.46V46.5H25.89V35.17h6.93ZM3.2,32.9V3.05H24.85v9.56a.93.93,0,0,0,.93.93H34V32.9Z"/>
<path class="icon-pdf" d="M28.2,21.26c-.05,0-1.37-.13-3.39-.13-.63,0-1.27,0-1.9,0a101.77,101.77,0,0,1-9-7.67c0-.19,0-.33.06-.45.24-2.43,0-4.08-.76-4.89a1.86,1.86,0,0,0-1.92-.5A2.3,2.3,0,0,0,9.71,9.13c-.3,1,.18,2.21,1.44,3.61,0,0,.45.47,1.23,1.23-.51,2.42-1.83,7.63-2.48,10.13A13.19,13.19,0,0,0,6.16,27l-.06.07,0,.09a3,3,0,0,0-.22,2.18,1.5,1.5,0,0,0,.89.85l.11,0a1.58,1.58,0,0,0,.28,0c.78,0,2.7-.41,3.73-4.21l.25-1a30.72,30.72,0,0,1,11.37-2.47c1.68,1.24,3.35,2.39,5,3.4l0,0a3.91,3.91,0,0,0,1.62.39,2.39,2.39,0,0,0,2.38-2l0-.08a2.43,2.43,0,0,0-.53-1.9A4.2,4.2,0,0,0,28.2,21.26Zm-21,7.58,0,0a1.75,1.75,0,0,1,.16-1A10.63,10.63,0,0,1,9.39,26C8.6,28.6,7.45,28.82,7.15,28.84Zm5-17c-1.22-1.35-1.2-2-1.13-2.25.1-.38.59-.52.59-.52.25-.07.4-.06.53.09.3.32.55,1.31.45,3.13Zm-.63,11.54,0-.08h0c.61-2.39,1.49-5.88,2-8.13l0,0h0c1.64,1.54,4.14,3.79,7.15,6.13h0l0,0A31.82,31.82,0,0,0,11.55,23.33Zm18.57.78c-.21.79-.63.9-1,.9a2.42,2.42,0,0,1-1-.23c-1.1-.69-2.23-1.44-3.37-2.25h0c2,0,3.25.12,3.3.13a2.87,2.87,0,0,1,1.8.68A1,1,0,0,1,30.12,24.11Z"/>
</svg>