<?xml version="1.0" encoding="utf-8"?>
<!-- Generator: Adobe Illustrator 23.0.1, SVG Export Plug-In . SVG Version: 6.00 Build 0)  -->
<svg version="1.1" id="Camada_1" xmlns="http://www.w3.org/2000/svg" xmlns:xlink="http://www.w3.org/1999/xlink" x="0px" y="0px"
	 viewBox="0 0 296.2 27.4" style="enable-background:new 0 0 296.2 27.4;" xml:space="preserve">
<style type="text/css">
	.st0{fill:#35A8E0;}
	.st1{fill:#BCBCBB;}
</style>
<title>citacao_inferior</title>
<g>
	<path class="st0" d="M279.3,9.3c0.2,0.7,0.5,1.3,1,1.9c0.5,0.6,1,1,1.7,1.4c0.7,0.3,1.4,0.5,2.1,0.6c0.8,0.1,1.5,0,2.2-0.3
		c0.2-0.1,0.5-0.2,0.7-0.3c-0.2,1.4-0.7,2.7-1.1,4c-0.2,0.5-0.5,1.4-0.8,1.9c-0.5,1.1-1,1.8-1.4,2.9c0,0.2,0.1,0.4,0.4,0.6
		c0.2,0.2,0.5,0.2,0.6,0.1c1.1-0.9,2.2-2,3.1-3.4c0.9-1.3,1.8-2.9,2.3-4.7c0.3-0.9,0.4-1.8,0.5-2.8c0-0.9,0-1.8-0.2-2.7
		c-0.1-0.4-0.2-0.9-0.4-1.3c-0.2-0.4-0.4-0.8-0.6-1.2c-0.1-0.1-0.2-0.2-0.3-0.4c-0.3-0.4-0.6-0.8-0.9-1.1c-0.8-0.7-1.8-1.1-2.7-1.2
		c-0.9-0.2-1.8-0.1-1.8-0.1c-0.3,0-0.7,0.1-1,0.1c-0.5,0.1-1.1,0.4-1.6,0.7s-0.9,0.8-1.3,1.3c-0.3,0.5-0.6,1.2-0.7,1.8
		C279.1,8,279.1,8.7,279.3,9.3"/>
	<path class="st0" d="M265.8,9.3c0.2,0.7,0.5,1.3,1,1.9c0.5,0.6,1,1,1.7,1.4c0.7,0.3,1.4,0.5,2.1,0.6c0.8,0.1,1.5,0,2.2-0.3
		c0.2-0.1,0.5-0.2,0.7-0.3c-0.2,1.4-0.7,2.7-1.1,4c-0.2,0.5-0.5,1.4-0.8,1.9c-0.5,1.1-1,1.8-1.4,2.9c0,0.2,0.1,0.4,0.4,0.6
		c0.2,0.2,0.5,0.2,0.6,0.1c1.1-0.9,2.2-2,3.1-3.4c0.9-1.3,1.8-2.9,2.3-4.7c0.3-0.9,0.4-1.8,0.5-2.8c0-0.9,0-1.8-0.2-2.7
		c-0.1-0.4-0.2-0.9-0.4-1.3c-0.2-0.4-0.4-0.8-0.6-1.2c-0.1-0.1-0.2-0.2-0.3-0.4c-0.3-0.4-0.6-0.8-0.9-1.1c-0.8-0.7-1.8-1.1-2.7-1.2
		c-0.9-0.2-1.8-0.1-1.8-0.1c-0.3,0-0.7,0.1-1,0.1c-0.5,0.1-1.1,0.4-1.6,0.7s-0.9,0.8-1.3,1.3c-0.3,0.5-0.6,1.2-0.7,1.8
		C265.6,8,265.6,8.7,265.8,9.3"/>
</g>
<path class="st1" d="M133.3,8.9c46.3,0,88.7-0.2,126.4-0.5V7.9H7.4h252.3V7.4c-37.4-0.3-79.6-0.5-125.9-0.5
	C87.3,6.9,44.9,7.1,7.4,7.4v0.9C45,8.6,87.2,8.9,133.3,8.9"/>
</svg>
