<svg fill="#35A8E0" version="1.1" xmlns="http://www.w3.org/2000/svg" xmlns:xlink="http://www.w3.org/1999/xlink" x="0px" y="0px" viewBox="0 0 300 20" style="enable-background:new 0 0 300 20;" xml:space="preserve">
<path d="M158.6,0.4C111.8,0.2,65,0.1,18.2,0.1c-3.1,0-6.3,0.8-9,2.4C7.8,3.2,6.6,4.1,5.5,5.2s-2.2,2.3-3,3.7
	c-1.7,2.7-2.5,5.8-2.5,9V20h3.6v-1.5c0-0.7,0.1-1.3,0.1-2c0.3-2.5,1.2-5,2.8-7c1.5-2.1,3.6-3.6,6-4.7c1.2-0.5,2.4-0.9,3.7-1
	c0.6-0.1,1.3-0.1,1.9-0.2c0.7,0,1.4,0,2.1,0c46.5,0,93-0.1,139.5-0.3l138.5-0.5v17.1c0.3,0,1.5,0,1.7,0L300,1L158.6,0.4z"/>
</svg>