<svg id="Camada_1" data-name="Camada 1" xmlns="http://www.w3.org/2000/svg" viewBox="0 0 379.73 379.73"><defs><style>.cls-1{fill:#2ea8de;}.cls-2{fill:#c0e4f4;}.cls-3{fill:#feecc3;}.cls-4{fill:#fbdc85;}.cls-5{fill:#fbc435;}.cls-6{fill:#d8a800;}.cls-7{fill:#fdfdfe;}</style></defs><title>Prancheta 9</title><path class="cls-1" d="M235.18,207.47a2,2,0,0,0-2-2,2.57,2.57,0,0,0-1.35,4.74,2,2,0,0,0,2.73-.71,2,2,0,0,0,.25-.88A1.75,1.75,0,0,0,235.18,207.47Z"/><path class="cls-1" d="M234.6,217.43c-2.58,0-2.58,4,0,4S237.18,217.43,234.6,217.43Z"/><path class="cls-2" d="M41.09,168.88a29.37,29.37,0,0,0-3.82,13.49c-.1,2.58,3.9,2.57,4,0a24.91,24.91,0,0,1,3.27-11.47C45.81,168.66,42.36,166.64,41.09,168.88Z"/><path class="cls-2" d="M33.89,210.73A1.91,1.91,0,0,0,32,212.89a2,2,0,0,0,1.69,3,1.9,1.9,0,0,0,1.92-2.15A2,2,0,0,0,33.89,210.73Z"/><path class="cls-3" d="M183.62,166.16a680.15,680.15,0,0,1-10-99.06c-.1-3.38-5.37-3.39-5.27,0,0,.55,0,1.09.06,1.63a2.09,2.09,0,0,0,0,.36v.64a2.53,2.53,0,0,0-1.72,2q-.53-6-1-12c-.29-3.32-5.29-3.44-5.27,0,0,.92,0,1.83,0,2.75a2.3,2.3,0,0,0-1.08,2.13c.06,1.84.13,3.68.19,5.52a2.74,2.74,0,0,0-3.15,2.55c0,.4,0,.79,0,1.19a2.36,2.36,0,0,0-.53-.36c-.32-1.77-.65-3.54-1-5.31-.58-3.13-4.92-2-5.18.7-.06.58-.1,1.17-.15,1.75a3,3,0,0,0-1.34.1c-.58-2.87-5-1.92-5.13.85-.07,1.34-.12,2.67-.18,4a2.1,2.1,0,0,0-1.13,1.65c-.18,1.22-.35,2.43-.51,3.64-1.07-2.32-4.66-1.16-5,1.35-.1.8-.18,1.6-.27,2.4a2.29,2.29,0,0,0-2.58-1.61c-1.19-1.78-4.5-.53-4.79,1.76-.19,1.52-.35,3.05-.51,4.58a2.58,2.58,0,0,0-1.2,2.11c0,.49-.06,1-.08,1.45-.15-1-.29-2-.44-3a2,2,0,0,0-.52-1.07c-.93-2.38-4.74-2-5.06,1q-.45,4.19-.81,8.39c-.2-2.77-.42-5.55-.66-8.32s-4.6-3.84-5.18-.7q-1,5.4-1.73,10.83c-1.41-.72-3.26-.44-3.53,1.54l-.09.71h0v0c-.2,1.52-.38,3-.55,4.56-.17-.81-.35-1.63-.53-2.44-.52-2.41-4.71-2.61-5.08,0l0,.26a3.11,3.11,0,0,0-3.07,2.6c-.1.83-.2,1.67-.29,2.51L94.68,97.2c-1.13-3.17-6.22-1.81-5.08,1.4q3.32,9.34,6.65,18.68c-.85-2.29-1.69-4.59-2.55-6.87A2.7,2.7,0,0,0,92.52,109c-1.46-2.58-5.71-1.47-4.89,1.77.08.29.16.57.23.86l-.37.19c-.65-1.47-1.32-2.93-2-4.4a2.09,2.09,0,0,0-1.84-1.31l0-.07c-1.27-2.76-5.59-.78-4.82,2l.33,1.21a2.48,2.48,0,0,0-.79,2.54l.75,2.77a2.73,2.73,0,0,0-.05,1c.72,4.6,1.52,9.18,2.35,13.75l-.09.16a3,3,0,0,0-3.23,2.58q-.5,6.28-.73,12.58a2.57,2.57,0,0,0-1.82,2.39c-.11,1.69-.16,3.38-.19,5.08a2.45,2.45,0,0,0-.75,1.25c-.26,1-.49,1.92-.74,2.88a55,55,0,0,0-5.37,12.27,57.85,57.85,0,0,0-4.31,11.74c-.76,2.31-1.4,4.67-2,7a77.44,77.44,0,0,0-7.85,32.53A2.64,2.64,0,0,0,57,222.5a8.44,8.44,0,0,0,2.16-.53l.13,0c-.05.85-.1,1.7-.13,2.56A2.37,2.37,0,0,0,60.92,227l0,.79c-.15,3.44,4.93,3.31,5.27,0,.49-4.76,1.08-9.51,1.72-14.25l6.54-13.42q-.18,8.61-.37,17.2c-.07,3.4,5.18,3.39,5.27,0,.19-6.41.31-12.82.41-19.23l0-1.39c0,.28.09.56.13.84q.75,5.66,1.7,11.3c.58,3.37,5.55,1.89,5.09-1.4-.51-3.63-1.08-7.27-1.64-10.93q-.86-6.45-1.44-12.92,1.19,7,2.78,14c.68,2.91,5.22,2.26,5.18-.7-.06-4.63-.28-9.24-.63-13.84a2.44,2.44,0,0,0,1.43-2.27c0-1.57,0-3.14-.1-4.71,1.06,3.77,2.15,7.53,3.3,11.28.83,2.7,5.51,2.38,5.18-.7l-.06-.48c.26.72.5,1.43.76,2.15a2.63,2.63,0,0,0,4.53.9c.06.12.11.24.16.36,1.28,2.76,5.57.78,4.82-2-.57-2.16-1.18-4.3-1.79-6.45,1.67.11,3.35-1.1,2.67-3.16-.86-2.63-1.75-5.25-2.65-7.87a2.37,2.37,0,0,0,.59.69q1.13,1.89,2.29,3.77c1.52,2.41,5.86.89,4.82-2q-.87-2.42-1.76-4.83a2.11,2.11,0,0,0,1.91-1.19,2.65,2.65,0,0,0,3.91-2.26c0-.55,0-1.11.06-1.66,1.41,1,3.6.83,4-1.32a46.76,46.76,0,0,0,.52-10.75,2.54,2.54,0,0,0,2.86-2.56h0a2.58,2.58,0,0,0,.48,0c1,2.23,4.76,2.08,5-.62a2.72,2.72,0,0,0,3,.05c.5,2.41,3.78,2.07,4.82.2.71,2.26,4.33,1.8,5-.37a2.72,2.72,0,0,0,.49.13c.12.78.25,1.55.38,2.33.53,3.05,5,2.12,5.18-.7.08-1.62.13-3.24.17-4.85q.31,1.8.66,3.6c.49,2.55,4.17,2.37,5,.31,0,.2.07.4.11.61.59,3,5.11,2.18,5.17-.7.05-1.84.06-3.67.05-5.49a3.09,3.09,0,0,0,1.88-.32c.05,2.3.1,4.6.17,6.91.1,3.38,5.37,3.4,5.27,0,0-1,0-2-.08-3.07.13,1.86.26,3.71.4,5.56a2.8,2.8,0,0,0,4.74,1.73c.74,4.8,1.51,9.59,2.35,14.37C179.12,170.9,184.2,169.48,183.62,166.16Z"/><path class="cls-4" d="M284.62,89.88c1.35-2.44-2.26-4.75-4.3-2.9l-1.68,1.55a2.86,2.86,0,0,0-3.87-1.65,2.68,2.68,0,0,0-1.9-.32,2.64,2.64,0,0,0-3.87-.3c-1.89,1.54-3.7,3.14-5.49,4.77a2.5,2.5,0,0,0-.59-.52,12,12,0,0,0-2.14-1,2.71,2.71,0,0,0-1.91-1l-3.19-1.72c.67-1.58,1.35-3.16,2-4.74.93-2.26-2.05-4-3.87-3-.29.16-.56.34-.84.51.61-1.74,1.22-3.48,1.81-5.24A2.67,2.67,0,0,0,253,71.07c-4.22-1-6.79,1.61-8.74,4.81a2.26,2.26,0,0,0-.63-.17,3,3,0,0,0-1.43-1.13,7.69,7.69,0,0,0-.64-3.45c.16-1.08.33-2.16.48-3.24.29-2.21-2.36-3.09-4-2.2a2.67,2.67,0,0,0-2.38.92c0-.46-.05-.92-.08-1.38-.19-2.36-3.67-3.88-4.91-1.33-.13.27-.25.55-.38.82a2.13,2.13,0,0,0-2.12,1.36c-1.1,2.24-2.11,4.51-3.05,6.79a2.86,2.86,0,0,0-2.57-1c0-.71-.07-1.42-.13-2.12-.18-2-2.91-3.79-4.5-1.87a22.89,22.89,0,0,0-2.08,3A2.66,2.66,0,0,0,213.86,72a2.64,2.64,0,0,0-3.71-1.68l-4.89,0A2.72,2.72,0,0,0,201,69.6l.15-10c.05-2.91-4.58-3.67-5.17-.7q-1.05,5.27-1.82,10.57l0-4c0-2.95-4.4-3.61-5.18-.7-.17.63-.32,1.27-.47,1.91-1.49-1.21-4.36-.56-4.39,2v.44a2.83,2.83,0,0,0-3.75-.25c-.09-1.72-.19-3.43-.27-5.15-.15-3.11-4.57-3.38-5.19-.71,0-.79-.09-1.58-.14-2.37a2.73,2.73,0,0,0-3.94-2.27c-1.55-.58-3.51.12-3.45,2.1-1-2.75-5.54-1.33-5,1.84.21,1.14.39,2.3.59,3.45a2.33,2.33,0,0,0-2.61,2.53l.48,6.32a2.92,2.92,0,0,0-1.14,0c-.11-.82-.21-1.64-.32-2.46-.41-3.33-5.68-3.37-5.27,0l.9,7.09a2.8,2.8,0,0,0-3.17.31c-.06-.24-.11-.49-.17-.73a2.38,2.38,0,0,0-3.79-1.44c-.09-.32-.18-.64-.28-1-.8-2.75-5.42-2.37-5.17.7.12,1.52.27,3,.41,4.57a2.94,2.94,0,0,0-3.57,2.17,2.66,2.66,0,0,0-.43,2.05c.56,3.1,1.18,6.18,1.83,9.25l.69,3.52-2.1-7.43c-.93-3.25-6-1.87-5.08,1.4q7.32,25.83,14.65,51.66a2.39,2.39,0,0,0,1.55,1.7,2.08,2.08,0,0,0,1.3.93c.85,3,1.74,6,2.69,8.93,1,3.22,6.12,1.84,5.08-1.4s-1.92-6.23-2.8-9.37a3.27,3.27,0,0,0,1.19-.39c0,.44,0,.88.05,1.32.1,3.38,5.37,3.4,5.27,0-.07-2.45-.18-4.9-.29-7.35v.11c.27,1.9,2,2.26,3.39,1.61a2.93,2.93,0,0,0,3.79.82c.32,3.59.63,7.18,1,10.78.3,3.35,5.57,3.38,5.27,0-.08-1-.16-1.91-.25-2.86,1.61.77,3.85.07,3.72-2.22l-.06-1.06a2.54,2.54,0,0,0,.66-.21l.09,1c.29,3.32,5.31,3.45,5.27,0l-.09-7.12.26,0c.2,1.23.41,2.46.66,3.68.61,3,5.17,2.22,5.18-.7v-1.13a2.66,2.66,0,0,0,2.9-1.61c0,.37,0,.74,0,1.11a2.53,2.53,0,0,0,3.53,2.38v.1c-.17,3.45,4.9,3.29,5.27,0,.21-1.88.42-3.77.64-5.65a113.77,113.77,0,0,0,0,11.68,2.54,2.54,0,0,0,2,2.47,2.76,2.76,0,0,0,.86.74,2.82,2.82,0,0,0,3.66.27,2.91,2.91,0,0,0,.82.82,2.68,2.68,0,0,0,2.47,3,15.21,15.21,0,0,0-.12,6.32,2.2,2.2,0,0,0,.6,1.15c-.18,2.15,2.6,3.53,4.51,2,.6-.46,1.15-1,1.72-1.46q-1.46,3-2.84,6.14c-1.1,2.47,2.1,5.73,4.14,3.19l3.75-4.64a2.66,2.66,0,0,0,3.2-1l1.35-1.89a2.72,2.72,0,0,0,4.14-.43q21.17-28.77,41.14-58.37l7.27-9a2.74,2.74,0,0,0,.51-2.6c.65-1,1.32-2,2-2.95A2.29,2.29,0,0,0,284.62,89.88Z"/><path class="cls-5" d="M343.58,227.8a150.84,150.84,0,0,0-4.87-32.65v-.71a2.46,2.46,0,0,0-2-2.48c-.11-1.87-.21-3.75-.31-5.63a3.08,3.08,0,0,0-.16-.78l3.41-.8c3.32-.78,1.91-5.79-1.4-5.08l-1.32.28a2.58,2.58,0,0,0,.13-1.77,3,3,0,0,0,.42-1.42l3.18-1.11a2.64,2.64,0,0,0-1.4-5.08l-3.32.67a2.64,2.64,0,0,0-.14-.48l4.12-1.52c2.62-1,2.47-5.35-.7-5.17a88.49,88.49,0,0,0-13.75,1.87l8.68-4.08c2.39-1.13,1.15-4.84-1.14-5l1.41-.65c1.6-.73,1.59-2.55.74-3.77l.67-.32c2.68-1.31.8-5.71-2-4.82-1.46.46-2.9,1-4.35,1.44a2.25,2.25,0,0,0-2.68-.88l-.09,0a2.8,2.8,0,0,0-.72-.81c2.29-1.15,4.59-2.29,6.87-3.45,2.66-1.34.82-5.72-2-4.81q-6,1.94-11.9,4.24l2.65-1.7a2.56,2.56,0,0,0,.55-4,2.63,2.63,0,0,0-2.74-4.49l-1,.54q2.47-1.6,5-3.17a2.48,2.48,0,0,0,1.2-2.65,2.63,2.63,0,0,0-3.66-3.34c-1.3.56-2.58,1.14-3.86,1.73,0-1.81-2-3.65-3.92-2.5A2.64,2.64,0,0,0,309.2,122q-2.52,1.53-5,3.11a2.64,2.64,0,0,0-.12-.88l2.54-2.21c2.25-2-.68-5.75-3.2-4.14q-3,2-6,4l10.34-10c2.44-2.37-1.26-6.07-3.72-3.73l-5,4.7a2.56,2.56,0,0,0-1.76-.53c1.19-1.43,2.38-2.88,3.55-4.33.1-.1.19-.2.29-.29a3.16,3.16,0,0,0,.56-.76l.17-.22a2.64,2.64,0,0,0-3.73-3.72c-1.52,1.3-3,2.64-4.53,4a8.57,8.57,0,0,0,.21-5.34,2.66,2.66,0,0,0-4.41-1.16l-.18.19a2.53,2.53,0,0,0-.71-.63,2.9,2.9,0,0,0-1.6-1.46L288.1,97c2.11-2.62-1.6-6.37-3.73-3.73l-55.52,68.88c-1.5,1.32-3,2.63-4.59,3.89-2.64,2.14,1.11,5.85,3.73,3.73.21-.18.42-.37.63-.54a2,2,0,0,0,.77-.06,3.18,3.18,0,0,0,1.24,2l-.57.71-.3.33a2.63,2.63,0,0,0-.12,3.41c.85,1.27,2.58,1.87,3.84.37l.27-.32c.35-.38.71-.75,1.07-1.12a2.93,2.93,0,0,0,.07,1.07,2.58,2.58,0,0,0,1.91,3v0c-.81.75-1.65,1.48-2.46,2.24-2.2,2.05.63,5.66,3.2,4.14.7-.41,1.39-.84,2.09-1.26a2.65,2.65,0,0,0,2.26,2,3,3,0,0,0,.94,2.69h0c-2.43,1.5-1,4.89,1.31,4.92l-2.24,1.28c-2.94,1.7-.31,6.19,2.66,4.55l6.27-3.4.19.19a2.91,2.91,0,0,0,2.33,3.22A2.22,2.22,0,0,0,256,200l.9-.29a2.87,2.87,0,0,0,.65,1.88l-1.69.65c-3.07,1.23-2,6,1.4,5.08,1.32-.34,2.65-.7,4-1.06a7.82,7.82,0,0,0,.41,1.24,14.42,14.42,0,0,0,0,3.28v0h0l.06.51c0,1.46.05,2.93.08,4.39a2.66,2.66,0,0,0,2.13,2.49,2.31,2.31,0,0,0,1.15,1.26v2.66a2.47,2.47,0,0,0,.47,1.51l.12,5.08a2.51,2.51,0,0,0,3.05,2.48s.06.09.1.13a2.36,2.36,0,0,0,.7.44v3.39c0,3.14,4,3.28,5,.83a3.1,3.1,0,0,0,2,.64l-.2,4.6c-.13,2.91,4.72,3.67,5.18.7l.21-1.46a2.39,2.39,0,0,0,3.36-1.7c0,2.1,0,4.2,0,6.3,0,3.44,5,3.34,5.27,0l.12-1.47a2.92,2.92,0,0,0,1.89-.41c.19,3.22,5,3.06,5.26-.2,0-.14,0-.28,0-.42a2.69,2.69,0,0,0,3.31-2.47q.3-4.17.54-8.32c.17,1.34.33,2.67.51,4a2.79,2.79,0,0,0,1.79,2.37c.13,1.15.25,2.3.38,3.45a2.64,2.64,0,0,0,5.28,0,1.41,1.41,0,0,1,0-.2c.94,2.34,5.08,2,5.07-1v-2.77l.27,4.36a2.71,2.71,0,0,0,4.62,1.76,2.76,2.76,0,0,0,1.16.69c0,1.33,0,2.65,0,4,0,3.39,5.21,3.39,5.27,0l.09-5.58a3.09,3.09,0,0,0,3.75-1.72c1,2.36,5.06,2.05,5.06-1V239a1.55,1.55,0,0,0,.24.19c.81,2,3.7,2.38,4.72.82a2.48,2.48,0,0,0,2.44-2.56l-.57-7.16A2.35,2.35,0,0,0,343.58,227.8Z"/><path class="cls-6" d="M189.93,0C85,0,0,85,0,189.9,0,294.52,84.92,379.65,189.36,379.73,294.55,379.81,379.69,295,379.73,190S294.8,0,189.93,0Zm60.24,219.82a3.21,3.21,0,0,1-2.23.71c-3.56-.44-7.15-.43-10.72-.62-9.16-.47-18.33-.86-27.49-1.28l-24.88-1.15c-6.31-.3-12.62-.59-18.93-.94a2.25,2.25,0,0,0-2.55,1.36,18.81,18.81,0,0,1-7,7.68,9.34,9.34,0,0,1-12.61-2c-3-3.48-4.1-7.67-4.6-12.09-.09-.83-.11-1.68-.17-2.52.15-8.79,2.1-16.95,8.46-23.49a11.56,11.56,0,0,1,7.75-3.81A9.23,9.23,0,0,1,163,185.2a19.24,19.24,0,0,1,4.26,9.83A2,2,0,0,0,169,197c13.93,3.51,27.84,7.11,41.76,10.67q18.73,4.79,37.48,9.53a5.76,5.76,0,0,1,2.07,1.35C250.79,218.84,250.66,219.48,250.17,219.82Zm24,12.8a26.75,26.75,0,0,0-3.89.33c-2.6.38-3.22.05-3.56-2.39a168.35,168.35,0,0,0-3.61-17.4c-1.75-7.09-5-13.56-8.15-20.09-.35-.72-.64-1.47-.94-2.22-.17-.42-.34-.84-.52-1.26s-.34-.74-.53-1.1a11.14,11.14,0,0,0-.74-1.23c-1.73-2.12-3.05-4.52-4.63-6.75A160.83,160.83,0,0,0,232.47,162a120.94,120.94,0,0,0-21.67-18,95.18,95.18,0,0,0-21.86-10.48,83.22,83.22,0,0,0-15-3.28,80.81,80.81,0,0,0-14-.5,75.77,75.77,0,0,0-15.77,2.42,90.14,90.14,0,0,0-24.73,10.66,122.45,122.45,0,0,0-27.6,23.65q-4,4.51-7.58,9.31c-.29.39-.52.87-1,1h0a24.43,24.43,0,0,1-2.82,4.29,191.9,191.9,0,0,0-10.6,17.21,229.54,229.54,0,0,0-12.91,28c-.17.45-.21,1.35-.8,1.23s-.42-1-.4-1.55a167,167,0,0,1,1.92-20.08,157.48,157.48,0,0,1,9.76-35.52,153.41,153.41,0,0,1,25.84-42.57A143.88,143.88,0,0,1,121,102.71,135.76,135.76,0,0,1,141.75,91a146.26,146.26,0,0,1,20.06-7.32c.52-.15,1.11-.62,1.67,0l.55,0h0c.06-.68.61-.72,1.09-.83a129.86,129.86,0,0,1,15.06-2.74,103.39,103.39,0,0,1,11.39-.88h10.09a82.61,82.61,0,0,1,10.42.78c3.62.46,7.22,1,10.8,1.75a141.47,141.47,0,0,1,18.71,5.33,131.74,131.74,0,0,1,19.64,9,138.83,138.83,0,0,1,25.51,18.44,151.17,151.17,0,0,1,33,43.38,157.52,157.52,0,0,1,12,31.52c.43,1.62.81,3.25,1.21,4.88.5.4.09,1,.34,1.45a.43.43,0,0,1,.14.53l.06.74a.4.4,0,0,1,.19.52,101.78,101.78,0,0,1,2,12.39c.55,5.79.57,11.6.58,17.41,0,1.39-.43,2.77-.08,4.18.09.35.18.7.28,1.05Z"/><path class="cls-7" d="M238.16,218.22h-.26a.46.46,0,0,0-.14-.07.43.43,0,0,0-.38-.29.47.47,0,0,0-.48-.47h-3l0-.06c.25-.59-.72-.85-1-.27l-.14.33h-.26a.5.5,0,0,0-.39.8.54.54,0,0,0-.07.58.46.46,0,0,0,.47.58h0a.47.47,0,0,0,.42.26l4.36.19a.44.44,0,0,0,.46-.57l.33,0C238.8,219.18,238.8,218.17,238.16,218.22Z"/><path class="cls-5" d="M271.45,228.53a.87.87,0,0,0-.88.22,1.54,1.54,0,0,0-1.39.1,1.49,1.49,0,0,0-.63.64,1.45,1.45,0,0,0-.47.3,1.9,1.9,0,0,0-.36.59,1.76,1.76,0,0,0-.35,1.58,1.5,1.5,0,0,0,.27.48s0,.05,0,.07l.07.05.2.17.05,0,.14.08a.46.46,0,0,0,.45.34,1.7,1.7,0,0,0,.94-.27l.09,0,.23-.08a.5.5,0,0,0,.34-.35c.05-.07.11-.13.16-.21a1.41,1.41,0,0,0,.18-.64,1.34,1.34,0,0,0,.87-1.68,3.33,3.33,0,0,0,.4-.76A.52.52,0,0,0,271.45,228.53Z"/><path class="cls-4" d="M166.65,83.39l-.86.33a.56.56,0,0,0-.48-.49,4,4,0,0,0-1.94.29H163a.46.46,0,0,0-.41.25l-.31.07a.51.51,0,0,0-.12.92h0a.39.39,0,0,0,.15.21.46.46,0,0,0,.09.15.42.42,0,0,0,.31.37.46.46,0,0,0,.39.21h.15a.48.48,0,0,0,.39.09l1.35-.32a.51.51,0,0,0,.24-.14l.47-.08a.42.42,0,0,0,.33-.31,7.62,7.62,0,0,0,1-.44.46.46,0,0,0,.24-.46C167.36,83.71,167.06,83.23,166.65,83.39Z"/><path class="cls-4" d="M143.14,95.72s0,0-.06,0a1.6,1.6,0,0,0-1.37-1.23,2.31,2.31,0,0,0-.62-.47,1.67,1.67,0,0,0,.23-.12,40.4,40.4,0,0,1,.26-1.41.5.5,0,0,0-.36-.92l-2.17.43a.45.45,0,0,0-.28.18l-.23,0c-.54.14-.44,1.05.13,1h0a1.27,1.27,0,0,0-.15.51,1.91,1.91,0,0,0-.62,1,2.58,2.58,0,0,0,0,.83,3,3,0,0,0,2.88,3.58l.18.13a.4.4,0,0,0,.34.07l.33.75c.26.58,1.12.08.86-.51a2.11,2.11,0,0,0,2.08-.64A1.94,1.94,0,0,0,143.14,95.72Zm-.95.36a1.45,1.45,0,0,1,.05.5,1.48,1.48,0,0,1-.59,1.16l-.21-.48A2.08,2.08,0,0,0,142.19,96.08Zm.31,2.52a1,1,0,0,1-.18-.07,3,3,0,0,0,.42-.5c.15.51,1,.47,1-.12,0-.36,0-.71,0-1.06C144.49,97.31,143.74,98.88,142.5,98.6Z"/><path class="cls-3" d="M71,166.06l-.21.61c0-.1.06-.2.1-.3.19-.58-.58-.81-.89-.39a.54.54,0,0,0-.83.23q-1.51,3.64-2.65,7.41h0a35.11,35.11,0,0,0-4.39,12.85.45.45,0,0,0-.44.35l-1.26,4.95a.49.49,0,0,0,.57.61c0,.72-.06,1.44-.06,2.17,0,0,0,0,0,0,0,.39,0,.79,0,1.19,0,.64,1,.64,1,0,0-.41,0-.81,0-1.21l.27-.86a.47.47,0,0,0,.56-.22l.34-.6a.5.5,0,0,0,.4,0,.5.5,0,0,0,1,.16q2.55-9.21,5.77-18.19a.43.43,0,0,0,.39-.35l.47-2a.5.5,0,0,0-.69-.57c.52-1.85,1-3.71,1.57-5.57C72.13,165.7,71.21,165.46,71,166.06ZM64.3,182.47l-.53,2.17-.12.4a.37.37,0,0,0-.32.25l0,.12h0A33.76,33.76,0,0,1,65,179C64.76,180.18,64.52,181.32,64.3,182.47Z"/><path class="cls-3" d="M58.28,217.75l-.6,1.74-.06,0a.52.52,0,0,0-.93.28l-.06.6a.5.5,0,0,0-.27.14.49.49,0,0,0-.8.37l0,1.49a.76.76,0,0,0,0,.16l0,3a.48.48,0,0,0,.17.36c-.06.4-.13.81-.18,1.22s.7.65.94.26a9.43,9.43,0,0,0,1.3-4.71.35.35,0,0,0,0-.11c.21-.63.43-1.25.64-1.88a.73.73,0,0,0,.19-.54c.24-.71.49-1.42.73-2.14S58.49,217.14,58.28,217.75Z"/></svg>