<svg id="Camada_1" data-name="Camada 1" xmlns="http://www.w3.org/2000/svg" viewBox="0 0 397.32 397.32"><defs><style>.cls-1{fill:#d8a800;}.cls-2{fill:#f9c43f;}.cls-3{fill:#feecc3;}.cls-4{fill:#0072b0;}.cls-5{fill:#fdfdfe;}</style></defs><title>Prancheta 28</title><circle class="cls-1" cx="198.66" cy="198.66" r="198.66"/><circle class="cls-2" cx="196.94" cy="200.38" r="117.18"/><circle class="cls-3" cx="196.94" cy="200.38" r="85.71"/><ellipse class="cls-2" cx="196.94" cy="76.04" rx="23.65" ry="13.06"/><path class="cls-1" d="M235.41,201a61.39,61.39,0,0,1,1.53-15.28c.53-2.31-2-3.55-3.62-2.78h0a74.53,74.53,0,0,0-14.82-1.44c-3.22,0-3,5,.17,5a67.5,67.5,0,0,1,9.23.61q-14.43,9.54-29.24,18.5l-30.45-46.61c2.78.64,5.59,1.17,8.43,1.55,3.16.43,4.36-4.43,1.17-4.86A96.13,96.13,0,0,1,165,153a2.4,2.4,0,0,0-3.64,1.5,41.66,41.66,0,0,1-4.14,11c-1.54,2.83,2.84,5.24,4.38,2.42a47.46,47.46,0,0,0,2.68-5.8L195,209.2a2.66,2.66,0,0,0,2.5,2.45,2.79,2.79,0,0,0,2.7-1.23Q215.78,201,230.93,191a66.83,66.83,0,0,0-.52,10.11C230.48,204.34,235.48,204.18,235.41,201Z"/><path class="cls-1" d="M195.19,117.34v9.17a1.5,1.5,0,0,0,3,0v-9.17A1.5,1.5,0,0,0,195.19,117.34Z"/><path class="cls-1" d="M251.76,138.52a34.12,34.12,0,0,1-6,4.73c-1.63,1-.13,3.61,1.52,2.59a38.37,38.37,0,0,0,6.65-5.19C255.26,139.29,253.14,137.17,251.76,138.52Z"/><path class="cls-4" d="M151.9,141.71a12.84,12.84,0,0,1-6.43-3.51,1.5,1.5,0,0,0-2.12,2.13,15.76,15.76,0,0,0,7.75,4.28C153,145,153.78,142.14,151.9,141.71Z"/><path class="cls-1" d="M276.46,195.42l-9.54-.25c-1.93-.06-1.93,2.94,0,3l9.54.25C278.39,198.47,278.39,195.47,276.46,195.42Z"/><path class="cls-1" d="M125.41,188a82.92,82.92,0,0,0-9.19-.12c-1.93.08-1.94,3.08,0,3a82.92,82.92,0,0,1,9.19.12C127.33,191.12,127.33,188.11,125.41,188Z"/><path class="cls-1" d="M143.34,246.44a23.07,23.07,0,0,0-8,4.33c-1.5,1.23.64,3.34,2.12,2.13a19.13,19.13,0,0,1,6.71-3.56C146,248.78,145.19,245.88,143.34,246.44Z"/><path class="cls-1" d="M254.94,254.45a45.82,45.82,0,0,1-5.63-3.74c-1.5-1.18-3.64.93-2.12,2.12a50.51,50.51,0,0,0,6.24,4.21A1.5,1.5,0,0,0,254.94,254.45Z"/><path class="cls-1" d="M196.25,270.16v8.12a1.5,1.5,0,0,0,3,0v-8.12A1.5,1.5,0,0,0,196.25,270.16Z"/><path class="cls-3" d="M153.09,142.45a1.89,1.89,0,0,0,.08-.7c-.13-1.36-1.42-1.86-2.72-2a1.52,1.52,0,0,0-1.52-2.44,15.62,15.62,0,0,0-2.74,1.08,2.23,2.23,0,0,0-.56-.16,1.45,1.45,0,0,0-2-.48,13.61,13.61,0,0,0-3,2.24,1.47,1.47,0,0,0-.11,1.93,1.6,1.6,0,0,0,.74,1.64,1.5,1.5,0,0,0,2.09.67,1.48,1.48,0,0,0,.74.27,1.58,1.58,0,0,0,1.1,1.39,3.68,3.68,0,0,0,1.3.11,1.27,1.27,0,0,0,2,.62l.06,0c1.43,1.22,3.8,1.49,5.12,0S154.36,143.61,153.09,142.45Z"/><path class="cls-1" d="M148.31,142.19,143,138.06a1.55,1.55,0,0,0-2.12,0,1.51,1.51,0,0,0,0,2.12l5.31,4.13a1.55,1.55,0,0,0,2.12,0A1.5,1.5,0,0,0,148.31,142.19Z"/><path class="cls-5" d="M352.88,258.46c-9.22-1.09-19.76,3.56-22.49,13.06a16.83,16.83,0,0,0,2.39,14.15,17.4,17.4,0,0,0-15.19,6.15c-4.49,5.61-4.56,13.43-1.25,19.47-13.49-3.21-26.07,11.51-18.25,25.16a1.5,1.5,0,0,0,2.59-1.51c-7.39-12.91,7-26.62,19.59-18.75a1.51,1.51,0,0,0,1.82-2.36c-5.59-5.08-7-14.06-2.09-20.15,4.05-5,10.94-6.23,16.69-4.05a15.3,15.3,0,0,0,3.81,2c1.71.59,2.46-1.82,1.16-2.75a17.68,17.68,0,0,0-3.72-2,13.77,13.77,0,0,1-4-16.15c3.23-7.26,11.54-10.16,19-9.28C354.79,261.69,354.78,258.69,352.88,258.46Z"/><path class="cls-5" d="M119.41,315a18.45,18.45,0,0,0-17.31-.89c2.35-7,2.12-14.57-4-20-6.52-5.78-14.51-4-20.67.58,2.06-7,1.57-14.89-2.86-20.87-6.56-8.86-18.45-7-27.82-4.9-1.88.43-1.08,3.32.8,2.89,8.1-1.84,18.88-3.95,24.61,3.88s3.8,18.55-1.3,25.93c-1.07,1.63,1.5,3.09,2.59,1.52,5.3-8,18.31-14.91,25-4,3.59,5.88,2.24,12.33-.7,18a16.21,16.21,0,0,0-4.11,6.55c-.59,1.74,1.79,2.4,2.74,1.15a40.16,40.16,0,0,0,3.78-6c5.59-5.05,15-4.29,20.93,1.12,7.84,7.19,8.4,18.35,6.23,28.1-.42,1.88,2.47,2.68,2.89.8C132.89,336.61,131.16,322.06,119.41,315Z"/><path class="cls-5" d="M350.17,134.22a14,14,0,0,1-9.26-15c.78-6.62,5.95-11.9,11.38-15.74,1.67-1.19-.15-3.4-1.93-2.75-7.34,2.64-19,6.27-24.06-2-3.91-6.4-.59-13.72,2.17-19.83.7-1.54-1.52-2.86-2.82-1.83-6.31,5-15.06,8.42-23.58,7.23-14.36-2-5.85-16.31.24-22.39,1.52-1.53-.77-4.07-2.31-2.53-6.14,6.14-16.17,20-4.77,26.23,8.42,4.63,19.56,1.93,27.79-2.72-2.43,6.64-3.56,14,1.89,19.73,5,5.27,12.27,5.15,19,3.56-4.13,4.38-7,9.74-6.65,15.77A17.27,17.27,0,0,0,349,137.31,1.66,1.66,0,1,0,350.17,134.22Z"/><path class="cls-5" d="M107.41,53.6a1.66,1.66,0,0,0-2.63,1.77c.25.75.49,1.51.74,2.26a1.47,1.47,0,0,0,2,.94c3,4.8,1.38,11.6-3.3,15.22-5.31,4.11-12.48,4.39-18.86,3.33a1.64,1.64,0,0,0-1.87,2.13c5,12.12-4.47,24.83-18,23.54a1.63,1.63,0,0,0-1.66,2.49c6.12,11.31.77,24.47-11.49,29a1.6,1.6,0,0,0,1.12,3c13.5-5,19.39-18.79,14.3-31.28C81.29,105.67,91,93.42,87.4,80.61c8.06.79,17.12-.78,22-7.62C113.74,66.94,113.35,58.37,107.41,53.6Z"/></svg>