<svg id="Camada_1" data-name="Camada 1" xmlns="http://www.w3.org/2000/svg" viewBox="0 0 401.47 393.88"><defs><style>.cls-1{fill:none;}.cls-2{fill:#d8a800;}.cls-3{fill:#feecc3;}.cls-4{fill:#bee4f4;}.cls-5{fill:#fdfdfe;}.cls-6{fill:#fbdc85;}.cls-7{fill:#81cbeb;}.cls-8{fill:#fbc435;}.cls-9{fill:#2da8de;}</style></defs><title>Prancheta 14</title><path class="cls-1" d="M162.22,150.19h0a3.57,3.57,0,0,1,.46-.42A3.57,3.57,0,0,0,162.22,150.19Z"/><path class="cls-1" d="M275.09,170a9.38,9.38,0,0,0,4.17-1.82,9.38,9.38,0,0,1-4.17,1.82Z"/><path class="cls-1" d="M248.42,324.12a64.5,64.5,0,0,1-19.61,9.14,64.5,64.5,0,0,0,19.61-9.14c6-1.54,9.77-4.14,11.6-8.19C258.19,320,254.42,322.58,248.42,324.12Z"/><path class="cls-1" d="M260.69,314.1a13.24,13.24,0,0,1-.67,1.83A13.24,13.24,0,0,0,260.69,314.1Z"/><path class="cls-1" d="M166.9,153.82a24.26,24.26,0,0,0,5.07,3,99.64,99.64,0,0,0,11,8,99.64,99.64,0,0,1-11-8A24.26,24.26,0,0,1,166.9,153.82Z"/><path class="cls-1" d="M258,216.64c.5.32,1,.62,1.54.9a6.51,6.51,0,0,0,.58.46,6.51,6.51,0,0,1-.58-.46C259,217.26,258.5,217,258,216.64Z"/><path class="cls-2" d="M393.93,142.52c-4.69-15.32-10.29-30.15-19.05-43.87S357,72,346.06,60.2c-6-6.47-13.12-11.61-19.81-17.23a133.89,133.89,0,0,0-23.67-16.28c-14.33-7.52-28.92-14.44-44.64-18.8C243.88,4,229.65.88,215.13.41,201-.06,186.7-.6,172.53,1.77c-9.45,1.58-18.87,3.15-28.08,5.79A211.21,211.21,0,0,0,98.32,27c-10.46,5.93-20,13.26-29.43,20.6A134.28,134.28,0,0,0,48.23,68.19c-5.18,6.22-10.58,12.32-15.16,19a185.94,185.94,0,0,0-19.9,38.14C6.11,143.43,1.47,162.23.46,181.59c-.92,17.66-.69,35.4,2.94,53A206,206,0,0,0,18,279.94c5.48,11.79,11.63,23.2,20.08,33.26,5.78,6.89,11.1,14.18,17.38,20.65A187.78,187.78,0,0,0,74.87,351a198,198,0,0,0,49.59,28.64c24.35,9.55,49.59,14.93,77.26,14,10.85.79,23-.4,34.91-2.54a211.56,211.56,0,0,0,67-24.45c14-7.92,26.22-18.42,38.35-28.9,5.42-4.68,9.7-10.5,14.42-15.89,8.36-9.53,14.72-20.46,21.49-31,5.41-8.47,9-18.07,12.4-27.62a181.58,181.58,0,0,0,10.67-50.27,212.64,212.64,0,0,0-.48-36.29C399.17,165.07,397.34,153.64,393.93,142.52Zm-94.2,180.12c-8,5.47-15.77,11.25-24.48,15.52-39.48,19.38-80.31,23.22-122.63,10.69-13.43-4-25.76-10.1-37.82-17.09a142.3,142.3,0,0,1-39.28-34.11c-40.9-50.55-47-106.08-22.94-165.72,2.22-5.49,2.41-5.47,7.31-2.2,16.35,10.9,32.43,22.19,48.71,33.17q10.29,6.94,20.51,14l12.6,8.67q6.27,4,12.45,8.08c5.2,3.46,10.36,7,15.45,10.63q4.54,3.25,9,6.63c13.36,7.77,25.64,17.17,38.42,25.8q13.19,8.91,26.33,17.86c.84.56,1.68,1.1,2.53,1.65a39.94,39.94,0,0,1,7.15,5.55c2.41.45,3.87,2.41,5.76,3.69a6.47,6.47,0,0,0,.85.49l.25.1c.58.23,1.11.49.64,1.3,2.28-.58,3.83,1,5.38,2.1,10.79,7.46,21.29,15.36,32.27,22.52,6.82,4.43,13.53,9,20.45,13.91C312.66,312,306.75,317.84,299.73,322.64ZM344.93,270c-2.29,4.8-2.58,4.85-7,1.75-11.48-8.13-22.61-16.8-34.45-24.35-13.31-8.49-25.91-18-38.92-26.85a23.31,23.31,0,0,0-2.56-1.41c-.44-.22-.88-.45-1.3-.71l-.62-.41a6.51,6.51,0,0,1-.58-.46c-.53-.28-1-.58-1.54-.9s-1-.67-1.43-1a34.68,34.68,0,0,1-2.68-2.31,17,17,0,0,1-2-1c-.64-.37-1.25-.78-1.85-1.21-1.2-.86-2.33-1.81-3.47-2.76-5.86-4-11.57-8.32-17.6-12.08-13.46-8.41-25.95-18.22-39.17-27-2.27-1.5-4.57-2.95-6.84-4.43a99.64,99.64,0,0,1-11-8,24.26,24.26,0,0,1-5.07-3c-1.58-1.18-3.1-2.46-4.68-3.63h0q-14.39-9.7-28.78-19.41c-1.62-1.1-3.2-2.26-4.79-3.39C117.82,120,107,112.62,96.17,105.18c-5.29-3.64-10.41-7.54-15.81-11-1.8-1.16-1.56-1.89-.49-3,9.47-10.23,19.59-19.64,31.62-26.91,10.63-6.43,21.38-12.56,33.15-16.62,25.24-8.71,51.07-11.94,77.65-8.23a165.33,165.33,0,0,1,76,30.8A151.83,151.83,0,0,1,336.62,111C369.76,162.35,370.89,215.5,344.93,270Z"/><path class="cls-3" d="M298.26,70.17a165.33,165.33,0,0,0-76-30.8c-26.58-3.71-52.41-.48-77.65,8.23-11.77,4.06-22.52,10.19-33.15,16.62-12,7.27-22.15,16.68-31.62,26.91-1.07,1.15-1.31,1.88.49,3,5.4,3.47,10.52,7.37,15.81,11,10.8,7.44,21.65,14.81,32.48,22.21.34-14.46,9.79-27,23.22-32.13,20-7.68,40.78-9.39,61.84-8.87,14.14.35,28.13,2.48,40.73,9.38,5.39,3,11.55,4.47,16.13,9,10.34,10.3,18.37,24.54,10.2,39.58-1.93,3.55-.46,7.45.36,11.15.46,2.11,1.46,4.27,1.26,6.32a14.75,14.75,0,0,1-.25,1.55,8.61,8.61,0,0,1-1.88,3.8,7,7,0,0,1-1,1,9.38,9.38,0,0,1-4.17,1.82,73.22,73.22,0,0,1-1.44,13c-.11.54-.23,1.08-.35,1.61-.46,2-1,3.93-1.64,5.87A61.35,61.35,0,0,1,269,197c-3.21,6.81-7,13.35-9.5,20.5a6.51,6.51,0,0,0,.58.46l.62.41c.42.26.86.49,1.3.71a23.31,23.31,0,0,1,2.56,1.41c13,8.89,25.61,18.36,38.92,26.85,11.84,7.55,23,16.22,34.45,24.35,4.38,3.1,4.67,3,7-1.75,26-54.48,24.83-107.63-8.31-159A151.83,151.83,0,0,0,298.26,70.17Z"/><path class="cls-3" d="M265.94,269.44c-1.55-1.07-3.1-2.68-5.38-2.1a.3.3,0,0,1,0,.08c.52,8.06,0,16.38,2,24.08,1.25,4.93-.77,8.67-.87,13,0,.8-.35,1.6-.29,2.39a25.62,25.62,0,0,1-.13,4.94,17.78,17.78,0,0,1-.49,2.31,13.24,13.24,0,0,1-.67,1.83c-1.83,4.05-5.6,6.65-11.6,8.19a64.5,64.5,0,0,1-19.61,9.14c-1,.29-2,.55-3,.79-1.17.27-2.36.52-3.55.75A85.2,85.2,0,0,1,178.78,332c-5-1.65-9.91-3.43-14.73-5.47-11.1-4.72-14.52-17.1-13-29.57,2.09-16.68,7.84-32.84,7.06-49.9-.63-13.79-3-27-9.48-39.59-3.44-6.71-5.52-14.31-7-21.9l-12.6-8.67q-10.23-7-20.51-14c-16.28-11-32.36-22.27-48.71-33.17-4.9-3.27-5.09-3.29-7.31,2.2-24.06,59.64-18,115.17,22.94,165.72a142.3,142.3,0,0,0,39.28,34.11c12.06,7,24.39,13.11,37.82,17.09,42.32,12.53,83.15,8.69,122.63-10.69,8.71-4.27,16.49-10.05,24.48-15.52,7-4.8,12.93-10.67,18.93-16.77-6.92-4.94-13.63-9.48-20.45-13.91C287.23,284.8,276.73,276.9,265.94,269.44Z"/><path class="cls-4" d="M141.71,185.56l-12.6-8.67,12.6,8.67Z"/><path class="cls-4" d="M108.6,162.9q10.29,6.94,20.51,14Q118.88,169.87,108.6,162.9Z"/><path class="cls-5" d="M164.27,148.86c.36-.16.73-.3,1.1-.44a7.62,7.62,0,0,1-1.88-2.66,1.62,1.62,0,0,1,2.2-2.19c1.25.56,2.5,1.05,3.76,1.5a7.93,7.93,0,0,1,1.65-5.5c1.18-1.67,4-.07,2.78,1.61a4.5,4.5,0,0,0-.56,4.72,1.57,1.57,0,0,1,1.93-.3,21.57,21.57,0,0,0,2.09,1,1.41,1.41,0,0,1,.57-.24,34.3,34.3,0,0,1,15.41.66,2.11,2.11,0,0,1,.34.16c.53-.34,1-.67,1.52-1l-.3-.38c-1.21-1.67,1.58-3.26,2.78-1.61a9.68,9.68,0,0,0,1.05,1.24,1.45,1.45,0,0,1,.45.31l.11.1a1.42,1.42,0,0,1,1.48.76c.1.19.23.39.36.6a10.63,10.63,0,0,0,7.79.86,1.62,1.62,0,0,1,1.64,2.59,17.63,17.63,0,0,0,2.71-.07,1.37,1.37,0,0,1,1.51,1.71,1.56,1.56,0,0,1,.62,2.59c-3.44,3.37-7.83,2.31-11.46-.22,3.34,5,9.32,6.37,14.57,7.44,7.13,1.47,15.19,2,20.64-4.75,3.1-3.82,6.48-7.32,9.92-10.79s5.43-3.63,9.63-.95c5.07,3.24,7.35,7.55,6.8,13.86-.57,6.5,3,9.91,9.61,10.57a9.38,9.38,0,0,0,4.17-1.82,7,7,0,0,0,1-1,8.61,8.61,0,0,0,1.88-3.8,14.75,14.75,0,0,0,.25-1.55c.2-2.05-.8-4.21-1.26-6.32-.82-3.7-2.29-7.6-.36-11.15,8.17-15,.14-29.28-10.2-39.58-4.58-4.57-10.74-6.09-16.13-9-12.6-6.9-26.59-9-40.73-9.38-21.06-.52-41.84,1.19-61.84,8.87-13.43,5.16-22.88,17.67-23.22,32.13,1.59,1.13,3.17,2.29,4.79,3.39q14.38,9.72,28.78,19.41a3.57,3.57,0,0,1,.46-.42A6.81,6.81,0,0,1,164.27,148.86Z"/><path class="cls-5" d="M162.22,150.19h0q-14.39-9.7-28.78-19.41Q147.82,140.5,162.22,150.19Z"/><path class="cls-6" d="M173.65,284.15a42.85,42.85,0,0,0,13.19,17.78c3.2,2.51,6,5.57,9.34,7.85,10.54,7.19,22.51,10.19,35,11.92,4.54.62,8.86-.15,13.29-.17,2,0,3.5.4,3.95,2.59,6-1.54,9.77-4.14,11.6-8.19a13.24,13.24,0,0,0,.67-1.83,17.78,17.78,0,0,0,.49-2.31,25.62,25.62,0,0,0,.13-4.94c-.06-.79.28-1.59.29-2.39.1-4.29,2.12-8,.87-13-2-7.7-1.43-16-2-24.08v0a1.33,1.33,0,0,1-.84-1.5,6.47,6.47,0,0,1-.85-.49c-1.89-1.28-3.35-3.24-5.76-3.69,0,7.43,2.84,14.39,3.71,21.67.93,7.84,1.15,15.5-4.34,22.14-2,2.35-4.07,4.11-6.86,2.22s-2-4.65-.15-6.79c5.63-6.58,3.3-14,2.07-21.08-1.47-8.44-3.52-16.77-4.11-25.36h0q-13.17-8.92-26.33-17.86c-12.78-8.63-25.06-18-38.42-25.8-.22,11.86-2.47,23.4-5.17,34.89C170.46,258.58,168.32,271.35,173.65,284.15Z"/><path class="cls-7" d="M259.67,265.94a6.47,6.47,0,0,1-.85-.49,6.47,6.47,0,0,0,.85.49Z"/><path class="cls-7" d="M243.38,254.56h0q-13.17-8.92-26.33-17.86,13.19,8.91,26.33,17.86Z"/><path class="cls-8" d="M141.71,185.56c1.44,7.59,3.52,15.19,7,21.9,6.44,12.57,8.85,25.8,9.48,39.59.78,17.06-5,33.22-7.06,49.9-1.56,12.47,1.86,24.85,13,29.57,4.82,2,9.74,3.82,14.73,5.47a85.2,85.2,0,0,0,43.44,2.81c1.19-.23,2.38-.48,3.55-.75,1-.24,2-.5,3-.79a64.5,64.5,0,0,0,19.61-9.14c-.45-2.19-1.95-2.6-3.95-2.59-4.43,0-8.75.79-13.29.17-12.49-1.73-24.46-4.73-35-11.92-3.34-2.28-6.14-5.34-9.34-7.85a42.85,42.85,0,0,1-13.19-17.78c-5.33-12.8-3.19-25.57-.19-38.36,2.7-11.49,4.95-23,5.17-34.89q-4.47-3.37-9-6.63c-5.09-3.65-10.25-7.17-15.45-10.63q-6.18-4.11-12.45-8.08Z"/><path class="cls-9" d="M154.16,193.64c5.2,3.46,10.36,7,15.45,10.63C164.52,200.62,159.36,197.1,154.16,193.64Z"/><path class="cls-9" d="M141.71,185.56q6.27,4,12.45,8.08-6.18-4.11-12.45-8.08Z"/><path class="cls-6" d="M269,197a61.35,61.35,0,0,0,2.62-6.53c.65-1.94,1.18-3.89,1.64-5.87.12-.53.24-1.07.35-1.61a74.16,74.16,0,0,0,1.44-13h0c-6.62-.66-10.18-4.07-9.61-10.57.55-6.31-1.73-10.62-6.8-13.86-4.2-2.68-6.18-2.56-9.63.95s-6.82,7-9.92,10.79c-5.45,6.73-13.51,6.22-20.64,4.75-5.25-1.07-11.23-2.45-14.57-7.44a21.2,21.2,0,0,1-4.92-4.85c-.56-.42-1.09-.87-1.61-1.34l0,0c-2.34,5.1-8,6.89-13.57,6.44a20.54,20.54,0,0,1-6.69.06,28.07,28.07,0,0,1-5.12-1.32c0,1.09,0,2.19,0,3.28a99.64,99.64,0,0,0,11,8c2.27,1.48,4.57,2.93,6.84,4.43,13.22,8.75,25.71,18.56,39.17,27,6,3.76,11.74,8,17.6,12.08a44.6,44.6,0,0,1,1.6-5.39c1.05-2.45,3.18-3.51,5.62-2.49,2.26,1,2.83,3,2.1,5.45s-1.34,4.93-2,7.4a34.68,34.68,0,0,0,2.68,2.31c.46.36.94.71,1.43,1s1,.62,1.54.9C262,210.39,265.83,203.85,269,197ZM256.6,186.62c-3.31.26-4.52-2.37-4.49-5.52a19.8,19.8,0,0,0-.49-2.8c-.5-3.49-1-7-1.44-10.48-.35-2.84.31-5.43,3.4-6,3.32-.64,4.57,1.89,5,4.62.74,4.55,1.25,9.14,1.65,12.13C260.75,183.25,260.18,186.33,256.6,186.62Z"/><path class="cls-7" d="M253.89,213.3a34.68,34.68,0,0,0,2.68,2.31,34.68,34.68,0,0,1-2.68-2.31Z"/><path class="cls-7" d="M273.3,184.64c-.46,2-1,3.93-1.64,5.87C272.31,188.57,272.84,186.62,273.3,184.64Z"/><path class="cls-7" d="M273.65,183a73.22,73.22,0,0,0,1.44-13h0A74.16,74.16,0,0,1,273.65,183Z"/><path class="cls-5" d="M247.49,279.92c1.23,7.07,3.56,14.5-2.07,21.08-1.84,2.14-2.58,4.95.15,6.79s4.91.13,6.86-2.22c5.49-6.64,5.27-14.3,4.34-22.14-.87-7.28-3.67-14.24-3.71-21.67a39.94,39.94,0,0,0-7.15-5.55c-.85-.55-1.69-1.09-2.53-1.65C244,263.15,246,271.48,247.49,279.92Z"/><path class="cls-5" d="M245.91,256.21c-.85-.55-1.69-1.09-2.53-1.65h0C244.22,255.12,245.06,255.66,245.91,256.21Z"/><path class="cls-5" d="M255.89,205.9c.73-2.42.16-4.5-2.1-5.45-2.44-1-4.57,0-5.62,2.49a44.6,44.6,0,0,0-1.6,5.39c1.14.95,2.27,1.9,3.47,2.76.6.43,1.21.84,1.85,1.21a17,17,0,0,0,2,1C254.55,210.83,255.15,208.34,255.89,205.9Z"/><path class="cls-5" d="M251.89,212.3a17,17,0,0,0,2,1h0A17,17,0,0,1,251.89,212.3Z"/><path class="cls-8" d="M172,153.58c-2.35-.87-4.59-2.13-5.44-3.87a5.17,5.17,0,0,1-.18-.51,8.07,8.07,0,0,1-1-.78c-.37.14-.74.28-1.1.44a6.81,6.81,0,0,0-1.59.91,3.57,3.57,0,0,0-.46.42h0c1.58,1.17,3.1,2.45,4.68,3.63a24.26,24.26,0,0,0,5.07,3C172,155.77,172,154.67,172,153.58Z"/><path class="cls-8" d="M162.22,150.19h0c1.58,1.17,3.1,2.45,4.68,3.63-1.58-1.18-3.1-2.46-4.68-3.63Z"/><path class="cls-4" d="M260.51,267.44v-.09h0c.47-.81-.06-1.07-.64-1.3l-.25-.1A1.33,1.33,0,0,0,260.51,267.44Z"/><path class="cls-4" d="M259.92,266l-.25-.1h0Z"/><path class="cls-4" d="M260.52,267.42a.3.3,0,0,0,0-.08h0Z"/><path class="cls-4" d="M260.51,267.44v0Z"/><path class="cls-5" d="M260.24,178.53c-.4-3-.91-7.58-1.65-12.13-.44-2.73-1.69-5.26-5-4.62-3.09.61-3.75,3.2-3.4,6,.44,3.5.94,7,1.44,10.48a19.8,19.8,0,0,1,.49,2.8c0,3.15,1.18,5.78,4.49,5.52C260.18,186.33,260.75,183.25,260.24,178.53Z"/><path class="cls-5" d="M215.38,154.83a1.56,1.56,0,0,0-.62-2.59,1.37,1.37,0,0,0-1.51-1.71,17.63,17.63,0,0,1-2.71.07A1.62,1.62,0,0,0,208.9,148a10.63,10.63,0,0,1-7.79-.86c-.13-.21-.26-.41-.36-.6a1.42,1.42,0,0,0-1.48-.76l-.11-.1a1.45,1.45,0,0,0-.45-.31,9.68,9.68,0,0,1-1.05-1.24c-1.2-1.65-4-.06-2.78,1.61l.3.38c-.48.34-1,.67-1.52,1a2.11,2.11,0,0,0-.34-.16,34.3,34.3,0,0,0-15.41-.66,1.41,1.41,0,0,0-.57.24,21.57,21.57,0,0,1-2.09-1,1.57,1.57,0,0,0-1.93.3,4.5,4.5,0,0,1,.56-4.72c1.19-1.68-1.6-3.28-2.78-1.61a7.93,7.93,0,0,0-1.65,5.5c-1.26-.45-2.51-.94-3.76-1.5a1.62,1.62,0,0,0-2.2,2.19,7.62,7.62,0,0,0,1.88,2.66h0c.44-.16.88-.31,1.31-.48a7,7,0,0,0,2.61-1.58,1.76,1.76,0,0,1,2.67.74c6.58-1.17,12.81,2.17,19.36,1.51.94-.1,2.13.34,2.82-.09,5.12-3.23,6.83,0,8.64,4.07a12.65,12.65,0,0,0,1.12,2C207.55,157.14,211.94,158.2,215.38,154.83Z"/><path class="cls-5" d="M194.16,148.52c-.69.43-1.88,0-2.82.09-6.55.66-12.78-2.68-19.36-1.51v6.48a28.07,28.07,0,0,0,5.12,1.32,20.54,20.54,0,0,0,6.69-.06c5.61.45,11.23-1.34,13.57-6.44l0,0c.52.47,1.05.92,1.61,1.34a21.2,21.2,0,0,0,4.92,4.85,12.65,12.65,0,0,1-1.12-2C201,148.51,199.28,145.29,194.16,148.52Z"/><path class="cls-5" d="M169.31,146.36a7,7,0,0,1-2.61,1.58c-.43.17-.87.32-1.31.48h0a8.07,8.07,0,0,0,1,.78,5.17,5.17,0,0,0,.18.51c.85,1.74,3.09,3,5.44,3.87V147.1A1.76,1.76,0,0,0,169.31,146.36Z"/></svg>