<svg id="Camada_1" data-name="Camada 1" xmlns="http://www.w3.org/2000/svg" viewBox="0 0 398.21 392.22"><defs><style>.cls-1{fill:#0072b0;}.cls-2{fill:#d8a800;}.cls-3{fill:#fdfdfe;}.cls-4{fill:#80cbec;}.cls-5{fill:#fbdc85;}.cls-6{fill:#fddb84;}.cls-7{fill:#f9c434;}.cls-8{fill:#2da9de;}</style></defs><title>Prancheta 24</title><path class="cls-1" d="M145.27,75.14c4.13.3,8.28.43,12.43.62.88,0,1.76.06,2.65.06-.89,0-1.77,0-2.65-.06C153.55,75.57,149.4,75.44,145.27,75.14Z"/><path class="cls-2" d="M398.21,196.11C398.21,87.8,309.07,0,199.11,0S0,87.8,0,196.11c0,82.6,51.85,153.26,125.24,182.16l0-.7c0-1,0-2,.09-3.05l.18-6.06a2.75,2.75,0,0,1-.24-1.24c.16-3.84.37-7.69.63-11.51,0-1,.06-2,.09-3a3.47,3.47,0,0,1,.2-1q1.07-13.65,3-27.19a319.7,319.7,0,0,1,5.48-50.1,40.79,40.79,0,0,0,1.55-6.71,19,19,0,0,0,.54-2,2,2,0,0,1,.59-.44c1.81-6.16,3.51-12.48,5.36-18.76q-3.73-5.14-7-10.66a4.85,4.85,0,0,1-.47-1.13q-4.2-5.53-7.92-11.42a160.81,160.81,0,0,1-12-23.24c-1.06-2.5-2.15-5.08-3.13-7.7-1.23-2.84-2.42-5.7-3.53-8.58a40,40,0,0,1-1.83-5.34c3.79-2.6,7.72-5,11.71-7.3a93.49,93.49,0,0,1,7.64,9.49c2.65,4.07,5,8.21,7.38,12.46,4.67,8.5,9.41,17,14.64,25.17,1,1.52,2,3,3,4.53,1.05-2.33,2.16-4.61,3.36-6.83a52.92,52.92,0,0,1,13.4-16.44c5.08-4,11.73-6.6,16-11.64,2.81-1.33,4.28-3.89,5-6.86a14,14,0,0,0,1.77-5.94,13.05,13.05,0,0,0,.49-4.72c.59-3.24-.18-6.1-3.54-6.62a40.88,40.88,0,0,1-14.91-19c-4.24-10.42-5.21-21.65-5.09-32.92a82.19,82.19,0,0,1-.31-9.66c-.07-.32-.14-.61-.21-.93a2.79,2.79,0,0,1-.3-.87,1,1,0,0,0,.64-.62c-.08-1.41-.1-2.81,0-4.21q-.11-.83-.15-1.65a2.18,2.18,0,0,1-2,.43c-10.27-2.5-26.09,0-31.53-11.84a10.87,10.87,0,0,1-.46-7.81,9.71,9.71,0,0,1,4-.31,9.71,9.71,0,0,0-4,.31A10.61,10.61,0,0,1,139.11,68l-.75-.82c-5-5.6-9.33-12.8-6.64-19.71a14.14,14.14,0,0,1,2.47-4.05c3.82-4.51,8.52-3.48,13.75-3.12a11.86,11.86,0,0,0,1.33,0,33.72,33.72,0,0,0,9.92-4.88,2.08,2.08,0,0,1,.43-.58,36.16,36.16,0,0,1,4.91-3.76c.55-.4,1.14-.79,1.77-1.16,8.45-8.09,18.11-13.47,30.33-11.67a31.87,31.87,0,0,1,22.84,16,2.5,2.5,0,0,1,1.17.41c0-3.66,0-7.32,0-11,0-2.53,4.15-3.22,4.51-.61q.72,5.07,1.43,10.14a29,29,0,0,1,11-9c1.89-.88,4.56,1.07,3.14,3.15a61.4,61.4,0,0,1-10,11.42c10.43-1,20.88,3.88,25.32,14.2a21.3,21.3,0,0,1,1.43,12.33A20.55,20.55,0,0,1,254,78.06a3,3,0,0,1,1.4.49l0,0a3.17,3.17,0,0,1,1.28,2,5,5,0,0,1-1,2.93,9.81,9.81,0,0,1-1.64.77,14.71,14.71,0,0,1-3.74.45l-1.75-.19a56.19,56.19,0,0,1,.94,16c0,15.67-2.16,31.93-8.52,45.69-4.75,10.3-11.62,16.13-19.91,19.63-.69,0-1.33.21-2.07.3-.92.09-1.76.08-2.15,1.19a.17.17,0,0,1,0,.07h0v.07a3.88,3.88,0,0,0-.12.76.87.87,0,0,0-.05.22v.7a1.12,1.12,0,0,0-.06.38,9.14,9.14,0,0,0,0,1.05v.1h0c0,.11,0,.23,0,.34l0,0a.34.34,0,0,0,0,.1,14,14,0,0,0,0,1.94,18.91,18.91,0,0,0,1.94,9.05l.09.43h0c2.68,5.28,7.92,7,12.54,9.32a50.33,50.33,0,0,1,18.17,15.68c6.5,8.88,10.57,19.16,13.53,29.93a2.26,2.26,0,0,1,.87,1.39,459.35,459.35,0,0,1,9.61,57.82,205,205,0,0,1,4.23,28.58,2.85,2.85,0,0,1,.54,1.83l.06.7c11.43,5,23.12,9.43,34.94,13.43a8.66,8.66,0,0,1,2.76,1.51A121.92,121.92,0,0,0,311.36,356a9.23,9.23,0,0,1-2.26-.11,209,209,0,0,1-28.23-6.9,136.13,136.13,0,0,1,.62,16c.28,3.1.56,6.18.84,9.27C350.73,343.27,398.21,275.15,398.21,196.11Z"/><path class="cls-1" d="M160.48,75.83c1.87,0,3.77,0,5.67,0C164.25,75.79,162.35,75.84,160.48,75.83Z"/><path class="cls-1" d="M168.71,75.79h0c-.85,0-1.7,0-2.55,0C167,75.77,167.86,75.78,168.71,75.79Z"/><path class="cls-3" d="M280.87,349a224.76,224.76,0,0,1-32.15-13.1,275.44,275.44,0,0,1-86.64-67.54c-3.52-3.63-6.9-7.39-10.17-11.24a4,4,0,0,1-1.47-1.08q-4.09-4.62-7.71-9.59c-1.85,6.28-3.55,12.6-5.36,18.76a2,2,0,0,0-.59.44,19,19,0,0,1-.54,2,40.79,40.79,0,0,1-1.55,6.71,319.7,319.7,0,0,0-5.48,50.1q-1.94,13.51-3,27.19a3.47,3.47,0,0,0-.2,1c0,1-.05,2-.09,3-.26,3.82-.47,7.67-.63,11.51a2.75,2.75,0,0,0,.24,1.24l-.18,6.06c0,1-.08,2-.09,3.05l0,.7a202.42,202.42,0,0,0,157.09-4c-.28-3.09-.56-6.17-.84-9.27A136.13,136.13,0,0,0,280.87,349Z"/><path class="cls-3" d="M219.24,294.47a305.59,305.59,0,0,0,59,33.37l-.06-.7a2.85,2.85,0,0,0-.54-1.83,205,205,0,0,0-4.23-28.58,459.35,459.35,0,0,0-9.61-57.82,2.26,2.26,0,0,0-.87-1.39c-3-10.77-7-21.05-13.53-29.93a50.33,50.33,0,0,0-18.17-15.68c-4.62-2.3-9.86-4-12.54-9.32h0l-.09-.43a18.91,18.91,0,0,1-1.94-9.05,14,14,0,0,1,0-1.94.34.34,0,0,1,0-.1l0,0c0-.11,0-.23,0-.34h0v-.1a9.14,9.14,0,0,1,0-1.05,1.12,1.12,0,0,1,.06-.38v-.7a.87.87,0,0,1,.05-.22,3.88,3.88,0,0,1,.12-.76v-.07h0a.17.17,0,0,0,0-.07c.39-1.11,1.23-1.1,2.15-1.19.74-.09,1.38-.25,2.07-.3,8.29-3.5,15.16-9.33,19.91-19.63,6.36-13.76,8.48-30,8.52-45.69a56.19,56.19,0,0,0-.94-16l-2.06-.22-.7-.06a12.83,12.83,0,0,0-1.64-.16.38.38,0,0,0-.19,0l-.23,0a20.75,20.75,0,0,1-5.93-2.86c-.54-.37-1.06-.78-1.56-1.2a28.27,28.27,0,0,1-8.37-13.06c-.16-.51-.32-1-.46-1.55a24,24,0,0,1-2.88-11.06c0-.17,0-.33,0-.49a14.34,14.34,0,0,1-1.11-2.58c-.07-.2-.15-.38-.21-.58,0,.14-.1.27-.15.41a41.51,41.51,0,0,1-15.8,20.69l-.79.53a38.53,38.53,0,0,1-6.37,3.33c-4.15,1.7-10.65,3.55-13.52-1.24a1.75,1.75,0,0,1-.16-.25,6.66,6.66,0,0,1-.86-3.9c-5.35,2.42-11.67,4.62-16.61,4.69a2.7,2.7,0,0,1,0,.86h0v.06c-.66,4.68-1.67,9.49-1.76,14.24l.12.09c0-.51.08-1,.14-1.53a48.66,48.66,0,0,1,.54-5.73,2.18,2.18,0,0,1,3.05-1.48,2.19,2.19,0,0,1,3.32,1.66,2.82,2.82,0,0,1,.07.6c0,1.72-.08,3.44-.11,5.15a2.24,2.24,0,0,1-.52,1.42c0,.43-.07.85-.1,1.27a2.34,2.34,0,0,1-.8,1.62,2,2,0,0,1-.46.8,21.5,21.5,0,0,0,1.11,4.75,2,2,0,0,1-1.33,2.64c0,.3.05.61.08.91.33,2.94-4.27,2.91-4.6,0-.09-.85-.16-1.71-.2-2.56a1,1,0,0,1-.64.62,2.79,2.79,0,0,0,.3.87c.07.32.14.61.21.93a82.19,82.19,0,0,0,.31,9.66c-.12,11.27.85,22.5,5.09,32.92a40.88,40.88,0,0,0,14.91,19c3.36.52,4.13,3.38,3.54,6.62a13.05,13.05,0,0,1-.49,4.72A14,14,0,0,1,189,181c-.76,3-2.23,5.53-5,6.86-4.3,5-11,7.65-16,11.64a52.92,52.92,0,0,0-13.4,16.44c-1.2,2.22-2.31,4.5-3.36,6.83A285.45,285.45,0,0,0,219.24,294.47Z"/><path class="cls-3" d="M167.43,92.07v0l0-.33s0,0,0,0c0,.52,0,1,0,1.57a.44.44,0,0,0,0,.1c0,.16,0,.32,0,.47l0,0q0,.82.15,1.65c-.05,1.4,0,2.8,0,4.21a1.34,1.34,0,0,0,.1-.52A52.64,52.64,0,0,0,167.43,92.07Z"/><path class="cls-3" d="M172.34,102.26c0-.3-.05-.61-.08-.91a2,2,0,0,0,1.33-2.64A21.5,21.5,0,0,1,172.48,94a2,2,0,0,0,.46-.8,2.34,2.34,0,0,0,.8-1.62c0-.42.07-.84.1-1.27a2.24,2.24,0,0,0,.52-1.42c0-1.71.07-3.43.11-5.15a2.82,2.82,0,0,0-.07-.6,2.19,2.19,0,0,0-3.32-1.66A2.18,2.18,0,0,0,168,82.92a48.66,48.66,0,0,0-.54,5.73c-.06.51-.11,1-.14,1.53l.1.07c0,.47,0,1-.06,1.42,0,0,0,0,0,0l0,.33v0a52.64,52.64,0,0,1,.21,7.11,1.34,1.34,0,0,1-.1.52c0,.85.11,1.71.2,2.56C168.07,105.17,172.67,105.2,172.34,102.26Z"/><path class="cls-4" d="M236.26,80c.5.42,1,.83,1.56,1.2,0-.09.08-.18.13-.27C237.38,80.63,236.81,80.32,236.26,80Z"/><path class="cls-4" d="M206.48,72.3l.79-.53c-.5.25-1,.52-1.51.74C206,72.45,206.24,72.37,206.48,72.3Z"/><path class="cls-5" d="M145.27,75.14c4.13.3,8.28.43,12.43.62.88,0,1.76.06,2.65.06h.13c1.87,0,3.77,0,5.67,0h0c.85,0,1.7,0,2.55,0,0-.13.06-.26.09-.39,2-7.83,4.56-16.14,9.42-22.41,5-6.42,11.93-10.51,18.88-13.8,6.61-3.14,13.08-5.56,20.31-4.15a2.06,2.06,0,0,1,1,.51c5.14.78,10.08,4.55,14.25,9.33a45.91,45.91,0,0,1,3.94,4.35,25.61,25.61,0,0,1,4.21,7.87c.69,1.36,1.28,2.67,1.78,3.89a66.87,66.87,0,0,1,3.54,12c.48,2,.86,4,1.18,6a24.19,24.19,0,0,0,8.14-.44l0,0a3,3,0,0,0-1.4-.49,20.55,20.55,0,0,0,3.41-12.75A21.3,21.3,0,0,0,256,53c-4.44-10.32-14.89-15.17-25.32-14.2a61.4,61.4,0,0,0,10-11.42c1.42-2.08-1.25-4-3.14-3.15a29,29,0,0,0-11,9q-.71-5.07-1.43-10.14c-.36-2.61-4.53-1.92-4.51.61,0,3.65,0,7.31,0,11a2.5,2.5,0,0,0-1.17-.41,31.87,31.87,0,0,0-22.84-16c-12.22-1.8-21.88,3.58-30.33,11.67-.63.37-1.22.76-1.77,1.16a36.16,36.16,0,0,0-4.91,3.76,2.08,2.08,0,0,0-.43.58,33.72,33.72,0,0,1-9.92,4.88,11.86,11.86,0,0,1-1.33,0c-5.23-.36-9.93-1.39-13.75,3.12a14.14,14.14,0,0,0-2.47,4.05c3,4.76,6.19,9,12.58,9.42,2.54.17,7.66.57,5.51,4.62-1.72,3.27-6.94,5.72-10.48,5.74-.33,0-.65,0-1-.07l.75.82a10.61,10.61,0,0,0-5.73,6.63,9.71,9.71,0,0,1,4-.31l.2,0C140.14,74.7,142.7,75,145.27,75.14Z"/><path class="cls-6" d="M230.51,67.9A22.5,22.5,0,0,0,247.32,79c-.32-2-.7-4-1.18-6a66.87,66.87,0,0,0-3.54-12c-.5-1.22-1.09-2.53-1.78-3.89a25.61,25.61,0,0,0-4.21-7.87,45.91,45.91,0,0,0-3.94-4.35c-4.17-4.78-9.11-8.55-14.25-9.33a2.06,2.06,0,0,0-1-.51c-7.23-1.41-13.7,1-20.31,4.15-6.95,3.29-13.87,7.38-18.88,13.8-4.86,6.27-7.43,14.58-9.42,22.41,0,.13-.05.26-.09.39H169a2.7,2.7,0,0,0,0-.86c4.94-.07,11.26-2.27,16.61-4.69a6.66,6.66,0,0,0,.86,3.9,1.75,1.75,0,0,0,.16.25,4.93,4.93,0,0,1,.64-1.41c1.16-1.79,3-1.83,4.89-2a39.51,39.51,0,0,0,10.76-2.18,33.06,33.06,0,0,0,17.66-16.67,1.91,1.91,0,0,1,2.53-1c.05-.14.11-.27.15-.41.06.2.14.38.21.58a2.39,2.39,0,0,1,1.12,3.07,24,24,0,0,0,2.88,11.06c.14.52.3,1,.46,1.55A2.15,2.15,0,0,1,230.51,67.9Zm-7.44-18.85c.05-.14.11-.27.15-.41.06.2.14.38.21.58Z"/><path class="cls-4" d="M223.07,49.05l.36.17c-.07-.2-.15-.38-.21-.58C223.18,48.78,223.12,48.91,223.07,49.05Z"/><path class="cls-7" d="M167.3,91.37a1,1,0,0,0-.23-.37c.13-2.39.32-4.8.64-7.16a38.89,38.89,0,0,1,1-8c-.85,0-1.7,0-2.55,0h0c-1.9,0-3.8.06-5.67,0h-.13c-.89,0-1.77,0-2.65-.06-4.15-.19-8.3-.32-12.43-.62-2.57-.19-5.13-.44-7.7-.81l-.2,0a9.71,9.71,0,0,0-4,.31,10.87,10.87,0,0,0,.46,7.81c5.44,11.83,21.26,9.34,31.53,11.84a2.18,2.18,0,0,0,2-.43C167.29,93,167.28,92.19,167.3,91.37Z"/><path class="cls-7" d="M167.07,91a1,1,0,0,1,.23.37c0-.4,0-.79,0-1.19l-.12-.09c.09-4.75,1.1-9.56,1.76-14.24v-.06h-.28a38.89,38.89,0,0,0-1,8C167.39,86.2,167.2,88.61,167.07,91Z"/><path class="cls-8" d="M167.39,93.34a.44.44,0,0,1,0-.1c0-.53,0-1,0-1.57a1.18,1.18,0,0,0-.09-.3c0,.82,0,1.65,0,2.47l0,0C167.38,93.66,167.38,93.5,167.39,93.34Z"/><path class="cls-8" d="M167.39,91.67c0-.47,0-1,.06-1.42l-.1-.07c0,.4,0,.79,0,1.19A1.18,1.18,0,0,1,167.39,91.67Z"/><path class="cls-8" d="M166.15,75.78h0Z"/><path class="cls-8" d="M145.27,75.14c-2.57-.19-5.13-.44-7.7-.81l-.2,0,.2,0C140.14,74.7,142.7,75,145.27,75.14Z"/><path class="cls-8" d="M160.48,75.83h0Z"/><path class="cls-7" d="M149.81,61.5c2.15-4-3-4.45-5.51-4.62-6.39-.43-9.54-4.66-12.58-9.42-2.69,6.91,1.6,14.11,6.64,19.71.32,0,.64.07,1,.07C142.87,67.22,148.09,64.77,149.81,61.5Z"/><path class="cls-6" d="M223.86,51.25a16.92,16.92,0,0,0,.84,2.58c0,.16,0,.32,0,.49A2.77,2.77,0,0,0,223.86,51.25Z"/><path class="cls-7" d="M220.54,52.11a33.06,33.06,0,0,1-17.66,16.67A39.51,39.51,0,0,1,192.12,71c-1.88.19-3.73.23-4.89,2a4.93,4.93,0,0,0-.64,1.41c2.87,4.79,9.37,2.94,13.52,1.24a38.53,38.53,0,0,0,6.37-3.33c-.24.07-.47.15-.72.21.52-.22,1-.49,1.51-.74a41.51,41.51,0,0,0,15.8-20.69A1.91,1.91,0,0,0,220.54,52.11Z"/><path class="cls-7" d="M247.32,79c0,.25.09.5.13.75.44,1.56.81,3.14,1.12,4.72l1.75.19a14.71,14.71,0,0,0,3.74-.45,9.81,9.81,0,0,0,1.64-.77,5,5,0,0,0,1-2.93,3.17,3.17,0,0,0-1.28-2A24.19,24.19,0,0,1,247.32,79Z"/><path class="cls-7" d="M247.32,79A22.5,22.5,0,0,1,230.51,67.9a2.15,2.15,0,0,0-2.62-1A28.27,28.27,0,0,0,236.26,80c.55.33,1.12.64,1.69.93,0,.09-.09.18-.13.27a20.75,20.75,0,0,0,5.93,2.86l.23,0a.38.38,0,0,1,.19,0,12.83,12.83,0,0,1,1.64.16l.7.06,2.06.22c-.31-1.58-.68-3.16-1.12-4.72C247.41,79.52,247.36,79.27,247.32,79Z"/><path class="cls-7" d="M280.87,349a209,209,0,0,0,28.23,6.9,9.23,9.23,0,0,0,2.26.11A121.92,121.92,0,0,1,316,342.78a8.66,8.66,0,0,0-2.76-1.51c-11.82-4-23.51-8.44-34.94-13.43.21,2.58.42,5.12.62,7.7A136,136,0,0,1,280.87,349Z"/><path class="cls-7" d="M148.2,218.2c-5.23-8.18-10-16.67-14.64-25.17-2.34-4.25-4.73-8.39-7.38-12.46a93.49,93.49,0,0,0-7.64-9.49c-4,2.31-7.92,4.7-11.71,7.3a40,40,0,0,0,1.83,5.34c1.11,2.88,2.3,5.74,3.53,8.58,1,2.62,2.07,5.2,3.13,7.7a160.81,160.81,0,0,0,12,23.24q3.71,5.88,7.92,11.42a4.85,4.85,0,0,0,.47,1.13q3.24,5.52,7,10.66a185.56,185.56,0,0,1,8.44-23.72C150.17,221.22,149.17,219.72,148.2,218.2Z"/><path class="cls-7" d="M151.91,257.12c3.27,3.85,6.65,7.61,10.17,11.24a275.44,275.44,0,0,0,86.64,67.54A224.76,224.76,0,0,0,280.87,349a136,136,0,0,0-2-13.46c-.2-2.58-.41-5.12-.62-7.7a305.59,305.59,0,0,1-59-33.37,285.45,285.45,0,0,1-68.07-71.74,185.56,185.56,0,0,0-8.44,23.72q3.61,5,7.71,9.59A4,4,0,0,0,151.91,257.12Z"/><path class="cls-2" d="M233.52,130a32.9,32.9,0,0,1-49,1c-1.34-1.41-3.45.72-2.13,2.12a35.92,35.92,0,0,0,53.28-1C236.91,130.66,234.79,128.53,233.52,130Z"/><path class="cls-2" d="M188.94,102.7l-.08-.13a7.07,7.07,0,0,0-.33-1.1,3.71,3.71,0,0,0-4.76-2.28,3.82,3.82,0,0,0-3.25,3,6.07,6.07,0,0,0,.29,6,4.63,4.63,0,0,0,.73.9c1.09,1.52,2.83,2.47,4.8,1.57C189.16,109.36,190.25,105.39,188.94,102.7Z"/><path class="cls-2" d="M229.7,102.7s0-.09-.07-.13a7.07,7.07,0,0,0-.34-1.1,3.7,3.7,0,0,0-4.76-2.28,3.84,3.84,0,0,0-3.25,3,6.09,6.09,0,0,0,.29,6,5,5,0,0,0,.73.9c1.1,1.52,2.84,2.47,4.81,1.57C229.92,109.36,231,105.39,229.7,102.7Z"/><path class="cls-2" d="M208.56,119.75a5.34,5.34,0,0,1-7.26.66c-1.5-1.17-3.64.94-2.12,2.12a8.39,8.39,0,0,0,11.5-.66C212,120.48,209.9,118.36,208.56,119.75Z"/><path class="cls-3" d="M312.65,243q-7.74,24.71-15.46,49.43c-.58,1.85,2.32,2.64,2.9.8l15.45-49.44C316.12,241.93,313.22,241.14,312.65,243Z"/><path class="cls-3" d="M343.11,258.58A267.36,267.36,0,0,0,316,296a1.5,1.5,0,0,0,2.59,1.51,263.24,263.24,0,0,1,26.66-36.83C346.49,259.25,344.38,257.12,343.11,258.58Z"/><path class="cls-3" d="M362.69,280.44l-33.12,22.67c-1.58,1.08-.08,3.68,1.52,2.59L364.21,283C365.79,282,364.29,279.35,362.69,280.44Z"/><path class="cls-3" d="M44.31,254.19,91,231.74c1.75-.84.35-3.49-1.39-2.66L42.91,251.53C41.17,252.37,42.57,255,44.31,254.19Z"/><path class="cls-3" d="M34.92,221.27a267.22,267.22,0,0,0,45.87-5.72,1.5,1.5,0,0,0-.66-2.93A263.38,263.38,0,0,1,35,218.28C33.1,218.35,33,221.35,34.92,221.27Z"/><path class="cls-3" d="M37.53,192l39.17,8.74c1.87.41,2.75-2.46.86-2.88l-39.17-8.74C36.51,188.75,35.63,191.62,37.53,192Z"/></svg>