<svg id="Camada_1" data-name="Camada 1" xmlns="http://www.w3.org/2000/svg" viewBox="0 0 398.21 392.22"><defs><style>.cls-1{fill:#d8a800;}.cls-2{fill:#fdfdfe;}.cls-3{fill:#feecc3;}.cls-4{fill:#fbdc85;}.cls-5{fill:#f9c434;}</style></defs><title>Prancheta 30</title><ellipse class="cls-1" cx="199.11" cy="196.11" rx="199.11" ry="196.11"/><path class="cls-2" d="M188.8,170.08a10,10,0,0,0-5.42,1c-.13,0-.26.05-.38.09-7.16,2-10.31,11.4-4.78,16.85a10.84,10.84,0,0,0,5.5,2.84c5,2.29,10.64-.63,12.8-5.36C200.1,179.12,196.4,170.78,188.8,170.08Z"/><path class="cls-2" d="M245.38,111.64l-16-.58a1.74,1.74,0,0,0-1.42.55,2.22,2.22,0,0,0-.41.2,257.53,257.53,0,0,0-36.28,27.42c-1.92,1.74.92,4.56,2.82,2.83a252.45,252.45,0,0,1,35.47-26.79,1.29,1.29,0,0,0,.25-.2l15.57.57C248,115.74,248,111.74,245.38,111.64Z"/><path class="cls-2" d="M276.53,136.68a288.36,288.36,0,0,1-35.81,62.52c-1.55,2.05,1.92,4.05,3.45,2a291.74,291.74,0,0,0,36.22-63.48C281.38,135.37,277.51,134.33,276.53,136.68Z"/><path class="cls-3" d="M309.39,173.8a4.68,4.68,0,0,0-.33-2.35,172.74,172.74,0,0,0-8.74-18.64c-1.75-3.18-3.85-8.23-7-11.17-3.29-5.56-6.82-10.17-8.73-16.49a11,11,0,0,0-4.13-5.36,4.76,4.76,0,0,0-3-1.94,52.73,52.73,0,0,0-7.9-3.37,4.13,4.13,0,0,0-4.28.87,55.86,55.86,0,0,1-10.43-4.57c2.47-2.82,2.32-7.77-2.37-8.68a58.62,58.62,0,0,0-7-.91,88.33,88.33,0,0,0-45.74-9.9,4.69,4.69,0,0,0-4-1.64c-26.22.73-47.24,15.08-65.08,32.79-.85.76-1.7,1.55-2.53,2.34-1.12.72-2.25,1.44-3.37,2.18a6.71,6.71,0,0,0-2.54,3c-4.63,3.77-8.88,7.82-10.37,13.93,0,0,0,.07,0,.1-.38.57-.77,1.13-1.14,1.71l-.45.4h0c-5.38.94-6.11,9.16-1.51,11.58,9,4.7,20.42,3.37,30.12,2.07a105.51,105.51,0,0,0,18.9-4.39,6,6,0,0,0,4.94,1.4q19.91-3,39.83-5.94a3.41,3.41,0,0,0,2.57,1.86,23.39,23.39,0,0,1,6.48,2.07,46.47,46.47,0,0,0,.61,6c1.57,10.7,7.75,24.46,3.4,35.29-1.21,2-2.46,4-3.68,5.9a4.94,4.94,0,0,0-.34,4.76q-5.92,5.88-12.15,11.44a5.66,5.66,0,0,0-4.68.15c-8,3.57-14.9,11-21.29,16.9s-12.35,12-18.13,18.31a371.45,371.45,0,0,0-32.56,41.88c-3.4,5,3.45,12.07,8.48,8.49,28.47-20.25,62-29.63,93.93-42.77,8-3.29,16.22-6.55,23.55-11.21,1.06-.67,2.08-1.39,3.07-2.13a21.16,21.16,0,0,0,6.6-1.37q6.51-2.09,13-4.07c8.24-2.5,16.49-4.66,24.84-6.71,6.55-1.61,7.58-9.91,2.08-13.54,0-.12,0-.25,0-.38.09-6.12.11-12.24.32-18.36,0,0,0,0,0-.07.34-.88.66-1.76,1-2.63,2.21-1.76,4.43-3.49,6.71-5.17a6.44,6.44,0,0,0,2-7.11,5.37,5.37,0,0,0,.37-1.34c.1-.74.18-1.47.24-2.2,1-1.5,2-3,2.88-4.61A4.32,4.32,0,0,0,309.39,173.8ZM229.5,115.34q-5.9,3.64-11.49,7.73L201.7,133.19a5.79,5.79,0,0,0-2.88,4.37,18.54,18.54,0,0,0-3.31,3l-2.23.34c.87-.53,1.58-1,1.86-1.19a16.37,16.37,0,0,0,4.83-6.06,3.14,3.14,0,0,0,.62-.38c4.94-3.81,9.9-7.54,14.74-11.48,2.16-1.77,4.7-3.49,6.8-5.53a53,53,0,0,1,8.66-3l2.23.11a4.89,4.89,0,0,0,2.71-.68l1.74.24a24.32,24.32,0,0,0-5.75,1.87A3.34,3.34,0,0,0,229.5,115.34Zm40.77,44.36a5.22,5.22,0,0,0-1.94,1.92l-3.51,5.87a4.38,4.38,0,0,0-.71,3.18c-2.86,4.37-5.88,8.64-9.08,12.75a5.11,5.11,0,0,0-1.09,3.75q-3.27,4-6.9,7.68a5.13,5.13,0,0,0-1.53,3.09q-1.17,1.16-2.31,2.34a6.19,6.19,0,0,0-1-.71q1.67-2.72,3.31-5.43a65.66,65.66,0,0,0,7-11.42,5.59,5.59,0,0,0,.26-.63,5.64,5.64,0,0,0,1.54-1.88l1.08-2.06c2.81-4.29,5.4-8.76,8.13-13l10.8-16.69C273,152.28,271.73,156,270.27,159.7Zm6.51-15,.82-1.26a5,5,0,0,0,.44-.86c.19.46.35.92.51,1.38A5.38,5.38,0,0,0,276.78,144.66Z"/><path class="cls-3" d="M182.27,226.32a19.14,19.14,0,0,0-12.89,2.1C158.5,230.89,147.71,234,137.85,239a68.44,68.44,0,0,0-8.33,4.21,4,4,0,0,0-3.45-1.31l-1.46.16c-2.84.32-4.92,2.08-5.07,5.08a46.05,46.05,0,0,1-18.4,34.05c-2.23,1.65-3.56,4.59-1.9,7.22a28.86,28.86,0,0,0,16.19,12.46c2.55.81,6-1,6.5-3.69,0-.21.09-.42.13-.63a5.5,5.5,0,0,0,4.58-2.69q9.51-15.7,19.32-31.23a207.44,207.44,0,0,1,25.26-16.48,5.1,5.1,0,0,0,2.49-6.58c2.85-.63,5.71-1.22,8.56-1.81C187.93,236.63,188,227.48,182.27,226.32Z"/><path class="cls-4" d="M308.91,160.06a8.42,8.42,0,0,0-3-2.55,99.94,99.94,0,0,0-3.76-10,6.11,6.11,0,0,0-4.13-3.58c-1.24-4.51-2.61-9-4.16-13.43a8.35,8.35,0,0,0-7.46-5.34c-.61-2.36-1.21-4.71-1.82-7.06-1.31-5-6.89-6.46-10.91-4.78a7,7,0,0,0-6.43-2.3,8.66,8.66,0,0,0-5.1,2.89l-.73-2.13a7.44,7.44,0,0,0-6-5.24,10.33,10.33,0,0,0-3.3-4.85c-4.21-3.47-10.63-4.06-15.84-4.91A140.89,140.89,0,0,0,218.08,95c-.65-.12-1.31-.25-2-.35-5.32-.86-11.12-2-16.48-1a14.88,14.88,0,0,0-6,2.63c-.87.13-1.74.28-2.61.42-1.66-.12-3.32-.21-5-.27a113.79,113.79,0,0,0-21,1.1c-6,.88-12.9,1.9-18.14,5.13a12.85,12.85,0,0,0-6.11,11.37,346.53,346.53,0,0,0-29,26.88c-1.26,1.16-2.52,2.33-3.79,3.48-2.69,2.45-2.18,6.31-.1,8.72-2.42,4.13-.66,10.54,5.36,10.13a387.74,387.74,0,0,0,62.67-9.38l.2-.06A172.63,172.63,0,0,0,199,150l4.89,1.6q3.53,2.53,6.83,5.36a115.52,115.52,0,0,0,8.62,24c-.08,1.76-.2,3.51-.36,5.26-2.56,17.6-14.82,30.49-31.11,38.68a257.19,257.19,0,0,1-26,11.12,6.35,6.35,0,0,0-4.38-.66,165.25,165.25,0,0,0-20.62,5.14,16.13,16.13,0,0,0-13.08,2.69c-5.56,3.91-8.24,10.21-11.09,16.14-3.33,6.93-6.76,13.83-10,20.81-2.74,5.93-4.36,12.52.56,17.87,5.07,5.52,11.26,5.65,17.31,3.56a7,7,0,0,0,4.07-.57c21.31-9.89,42.59-19.84,63.57-30.41a5.81,5.81,0,0,0,3.89-.2l82.09-30.49a6.19,6.19,0,0,0,4.82,1.62,26.85,26.85,0,0,0,14.45-6.25,5.4,5.4,0,0,0,3.25,1.29,4.66,4.66,0,0,0,3.79-1.91,4.56,4.56,0,0,0,.95-3.56,3.55,3.55,0,0,0-.58-1.8,4.51,4.51,0,0,0-.9-1.09,4.21,4.21,0,0,1-.36-.37l-.06-.11a30,30,0,0,0,1.39-2.78c4-9.11,3.13-18.94,1.51-28.49.9-1.2,1.84-2.37,2.8-3.52,5.64-1.08,9.29-6.52,9.75-12.45C315.56,173.29,313,165.82,308.91,160.06Z"/><path class="cls-5" d="M208.94,200.43a42.7,42.7,0,0,0,6.34-22c0-11.59-6.74-20.18-18.64-20.8-6-.31-12.14.7-18.07,1.16l-19.82,1.54-40.62,3.15a9.12,9.12,0,0,0-3.91,1.28c-2.68-2.82-8-2.41-9.49,1.38a5.11,5.11,0,0,0-4.33,6.29c2.88,17.14,3.81,34.87,1.65,52.2-.63,3.31-1.27,6.63-1.9,9.95a6.4,6.4,0,0,0-.08,1.85l0,.26c-1,5.37,4.82,8.5,8.47,6.75a6,6,0,0,0,2-.4q18.17-6.74,36.35-13.43a7.34,7.34,0,0,0,1,.66l.33.16.22.1.4.16.28.09.19,0a7.69,7.69,0,0,0,3.27.17,95.42,95.42,0,0,0,28.85-5.57,7.94,7.94,0,0,0,3.87-2.71A47.77,47.77,0,0,0,199.65,211l4.73-2.75a6.6,6.6,0,0,0,3.28-5.67C208.12,201.89,208.54,201.16,208.94,200.43Z"/><path class="cls-2" d="M321,183.62a125,125,0,0,0-11.72-33,122.1,122.1,0,0,0-9.1-14.65c-2.89-4-6.31-8.18-6.9-13.2,4.41,0,7.32-6.62,2.57-9.32-27.93-15.89-59.29-27-91.74-26.8-30.15.2-60.3,10.24-82.2,31.43a96.66,96.66,0,0,0-24.13,37.66,4.76,4.76,0,0,0-2.7,4.25q-1.71,40.71-3.41,81.43a6.41,6.41,0,0,0-1.33.61c-.29,3.23-.72,6.46-1.07,9.69l.33,16.61c.12,6.12-.3,12.61,1.12,18.62,2.41,10.24,11.3,16.57,19.66,21.92a5.28,5.28,0,0,0,1.49.67,3.86,3.86,0,0,0,4.67.9c30.86-12.89,61.61-26.06,92.64-38.53,29.91-12,60.39-22.8,92.1-28.94a4.39,4.39,0,0,0,2.67-1.5c1.37-.56,2.84-.84,4-2,1.63-1.68,1.26-3.83.42-5.77a7.62,7.62,0,0,0-.08-.93,82.52,82.52,0,0,1-.84-22.47c.56-5.53,1.25-16.17,7.59-18.43a5,5,0,0,0,2.84-2.43A5,5,0,0,0,321,183.62ZM101.65,241.48l3.18-75.94c17.48,3.82,35.29,2.4,52.92-.26,10.06-1.51,20.06-3.43,30.12-4.88,8.28-1.2,17.92-2.68,22.88,5.66,8.1,13.62-1.42,30.85-11.53,40.36C186,218.87,167.73,223.8,150.5,228a4.59,4.59,0,0,0-2.74.15q-12.69,4.4-25.46,8.51-6.39,2-12.81,4c-1.17.36-5.2,2-8.29,2.75A5.58,5.58,0,0,0,101.65,241.48Zm196.64-38a93.89,93.89,0,0,0,0,29.88,382.77,382.77,0,0,0-37.7,9.49,129,129,0,0,1,37.83-40C298.37,203.05,298.33,203.27,298.29,203.49Zm1.36-6.2a12.56,12.56,0,0,0-3,1.89,133.39,133.39,0,0,0-41.76,45.43c-16.37,5.19-32.48,11.24-48.42,17.64-27.19,10.92-54.17,22.39-81.19,33.73a225.48,225.48,0,0,1,44.94-53.38c1.95-1.69-.89-4.51-2.83-2.83a228.6,228.6,0,0,0-48.28,58.79l-3.82,1.6c-6.31-4.05-12.18-8.15-14.49-14.9a4.62,4.62,0,0,0,2-.74c12.14-7.94,15.23-21.65,17.07-35.16a5.49,5.49,0,0,0,0-1.46q15.17-4.8,30.19-10a5,5,0,0,0,2.23-.07c28.14-6.82,61.89-18.66,69.95-50.21,3-11.88,1-26.74-9.77-34.19-6.57-4.53-14.58-4.37-22.17-3.39-8.63,1.11-17.19,2.65-25.77,4.08-18.6,3.1-37.64,5.71-56.25,1.91,12-31,41.56-51.36,73.76-57.38,24.83-4.65,49.84-1.12,73.35,7.12-.54,2.3-1.09,4.6-1.63,6.9a2,2,0,0,0,1.39,2.46A153.12,153.12,0,0,1,282.2,123a15.73,15.73,0,0,0-.38,4.53,5.18,5.18,0,0,0,4.24,4.93c3.22,6.54,8.44,12.37,12.05,18.59a114.73,114.73,0,0,1,12.48,31.83C304.51,185.77,301.41,191.15,299.65,197.29Z"/><path class="cls-4" d="M293.8,140.13a104,104,0,0,0-11.28-16.89,2.92,2.92,0,0,0-4.28-.58,3.38,3.38,0,0,0-3.56,3.3,14.52,14.52,0,0,0,.26,2.61,3.17,3.17,0,0,0,0,2.19l0,.1h0a7.18,7.18,0,0,0,.9,1.87c.06.13.13.26.2.38a3,3,0,0,0,1.39,1.4,3.35,3.35,0,0,0,1.46.57,16.91,16.91,0,0,1,1.81,2.75c1.82,3.65,2.08,7.85,3.93,11.45a1.57,1.57,0,0,0,2.43.31,8.1,8.1,0,0,0,1.45-1.87c1.75,4.57,3.17,9.61,6.25,13.1,2.07,2.35,5.35.26,5.61-2.33C301,152.54,296.51,145.24,293.8,140.13Z"/><path class="cls-1" d="M201.7,181.73c-.74-6.11-6.25-10.1-12.19-10.18-5.61-.08-11.64,3.29-13.26,8.91a10.87,10.87,0,0,0,.15,6.52,9.27,9.27,0,0,0,1,3c3.2,5.8,10.34,7.1,16.05,4.51C198.38,192.22,202.39,187.41,201.7,181.73Z"/><path class="cls-3" d="M261.63,182.62A224.93,224.93,0,0,1,224,236.7c-1.76,1.87,1.06,4.7,2.83,2.82a228.22,228.22,0,0,0,38.24-54.89C266.23,182.34,262.78,180.31,261.63,182.62Z"/><path class="cls-3" d="M262,199.62a115.27,115.27,0,0,1-16.18,24c-1.69,1.92,1.13,4.76,2.83,2.82a119.41,119.41,0,0,0,16.81-24.84C266.59,199.35,263.15,197.32,262,199.62Z"/><path class="cls-3" d="M155.41,114.88A113.28,113.28,0,0,0,124,142.05c-1.59,2,1.22,4.84,2.83,2.83a110.22,110.22,0,0,1,30.64-26.54C159.65,117,157.64,113.58,155.41,114.88Z"/><path class="cls-3" d="M149.76,127.58a27.15,27.15,0,0,0-7,5.25c-1.79,1.86,1,4.69,2.82,2.83a24.08,24.08,0,0,1,6.21-4.63C154.06,129.85,152,126.39,149.76,127.58Z"/><path class="cls-2" d="M247.76,110.07l-9.15,1.58a1.65,1.65,0,0,0-1.4,2.08q-8,14.52-17.34,28.26c-1.45,2.13,2,4.14,3.45,2q9.47-13.95,17.6-28.72l7.9-1.36C251.35,113.49,250.28,109.64,247.76,110.07Z"/><path class="cls-2" d="M285.36,140.43a93,93,0,0,1-5,16.08l-19.95,14.34c-2.08,1.49-.08,5,2,3.45l19.62-14.1a1.54,1.54,0,0,0,1.51-1l0-.06.27-.2a2,2,0,0,0,.76-2.37,94.5,94.5,0,0,0,4.59-15C289.75,139,285.9,137.91,285.36,140.43Z"/></svg>