<svg id="Camada_1" data-name="Camada 1" xmlns="http://www.w3.org/2000/svg" viewBox="0 0 360.24 360.24"><defs><style>.cls-1{fill:#d8a800;}.cls-2{fill:#fff;}.cls-3{fill:#fcedc0;}.cls-4{fill:#fbc435;}.cls-5{fill:#2da8de;}</style></defs><title>Prancheta 8</title><path class="cls-1" d="M360.24,180.1c0,99.62-80.67,180.16-180.43,180.14C80.55,360.22,0,279.41,0,180S80.8-.07,180.37,0C279.66.07,360.24,80.75,360.24,180.1ZM198.11,113.3c-.13-.44.12-.56.27-.73a67.75,67.75,0,0,0,9.49-13.07,48.3,48.3,0,0,0,6.4-23c.19-9-3.53-16.4-10.29-22.19a31,31,0,0,0-24.6-7.64c-10.82,1.32-19.46,7-26.31,15.31-4.29,5.21-6,11.47-6.5,18.11S148.9,91.86,155,94.53a28.74,28.74,0,0,0,16,2.09c6-.89,11.3-3.54,14.45-9,2.85-5,2.08-8.47-1.64-11.42-3.2-2.55-7.94-3.48-11.89-.09a4.38,4.38,0,0,0-1.68,2.41A2.15,2.15,0,0,0,172,81.05a1.93,1.93,0,0,0,2.51-1.56,1.57,1.57,0,0,1,.86-1.19,4.56,4.56,0,0,1,4.6,0c3.54,1.74,4,3.67,2.48,6.89a10.75,10.75,0,0,1-3.72,4.33c-7.45,5-15.27,4.5-23.06,1.07a8.61,8.61,0,0,1-5.35-8.31,31.54,31.54,0,0,1,2.75-13c2.55-5.6,6.88-9.58,11.85-12.91,7.9-5.3,16.34-7.6,25.83-4.9,12.59,3.59,21.19,15.39,19.6,28-1.69,13.38-8,24.1-17.53,33.2a2.66,2.66,0,0,1-2,.69c-3.47,0-7,.08-10.43.07-7.29,0-14.53,1-21.81.89A91.13,91.13,0,0,0,146,115a41.12,41.12,0,0,0-17.44,5.9c-2.74,1.74-5.56,3.32-8.39,4.9a34,34,0,0,0-5.75,3.89c-4.8,4.17-9.65,8.28-14.39,12.51-6.47,5.77-12.06,12.25-16,20.07-2.37,4.76-4.55,9.61-6.46,14.57-.3.78-.48.94-1.17.32a16.56,16.56,0,0,0-5.65-3.33,30.85,30.85,0,0,0-15.28-1c-4,.64-8.05,1.47-11.35,4.17a42.5,42.5,0,0,1-4,2.67c-6.1,4-10.83,9.06-12.92,16.24a35.59,35.59,0,0,0-1,10.48,33.29,33.29,0,0,0,6,19c4.29,6.17,9.15,11.88,15.66,15.83a81.82,81.82,0,0,0,17.58,7.89c6.72,2.14,13.58,2.62,20.34-.07.83-.33,1,.18,1.2.69A55.1,55.1,0,0,0,93,260c1.93,2.63,4.4,4.86,5.74,7.92a3.54,3.54,0,0,0,.66.85,78.12,78.12,0,0,0,16.87,14.12c7.25,4.34,15,7.65,22.6,11.36A40.34,40.34,0,0,0,150,298.29a138.24,138.24,0,0,0,19.9,2c12.75.27,25.51.83,38.13-1.75A164.68,164.68,0,0,0,235.35,291c5.5-2.16,10.92-4.53,16.59-6.27a28.13,28.13,0,0,0,7.34-3.75c6.35-4.25,11.14-10.07,15.86-15.92,4.16-5.15,6.52-11.24,8.14-17.6.27-1.06.64-1.22,1.62-1a35.31,35.31,0,0,0,8.83.6c3.34-.11,6.55-1,9.82-1.53,11.14-1.82,19.13-8.14,24.36-17.8a52.49,52.49,0,0,0,5.83-30.3,36,36,0,0,0-3.05-11.9,31.22,31.22,0,0,0-10.17-12.92c-5.85-4.22-12.18-5.25-19-3.94-5.82,1.1-11.86,1.69-16.71,5.69-.54.44-.69-.07-.8-.44-.65-2.06-1.63-4-2.43-6-2.1-5.27-3.91-10.65-6.36-15.79-4.73-9.91-11.42-17.84-21.56-22.61A130.43,130.43,0,0,1,241.79,123c-4.52-2.73-9.14-5.28-14.33-6.6a91.82,91.82,0,0,0-27.06-3.08C199.62,113.34,198.84,113.3,198.11,113.3Z"/><path class="cls-2" d="M198.11,113.3c.73,0,1.51,0,2.29,0a91.82,91.82,0,0,1,27.06,3.08c5.19,1.32,9.81,3.87,14.33,6.6a130.43,130.43,0,0,0,11.85,6.56,40.9,40.9,0,0,1,10.71,7.26,50.5,50.5,0,0,1,10.85,15.35c2.45,5.14,4.26,10.52,6.36,15.79.8,2,1.78,3.93,2.43,6,.11.37.26.88.8.44,4.85-4,10.89-4.59,16.71-5.69,6.84-1.31,13.17-.28,19,3.94a31.22,31.22,0,0,1,10.17,12.92,36,36,0,0,1,3.05,11.9,52.49,52.49,0,0,1-5.83,30.3c-5.23,9.66-13.22,16-24.36,17.8-3.27.54-6.48,1.42-9.82,1.53a35.31,35.31,0,0,1-8.83-.6c-1-.22-1.35-.06-1.62,1-1.62,6.36-4,12.45-8.14,17.6-4.72,5.85-9.51,11.67-15.86,15.92a28.13,28.13,0,0,1-7.34,3.75c-5.67,1.74-11.09,4.11-16.59,6.27A164.68,164.68,0,0,1,208,298.58c-12.62,2.58-25.38,2-38.13,1.75a138.24,138.24,0,0,1-19.9-2,40.34,40.34,0,0,1-11.11-4.09c-7.57-3.71-15.35-7-22.6-11.36a78.12,78.12,0,0,1-16.87-14.12,3.54,3.54,0,0,1-.66-.85c-1.34-3.06-3.81-5.29-5.74-7.92a55.1,55.1,0,0,1-5.93-10.25c-.23-.51-.37-1-1.2-.69-6.76,2.69-13.62,2.21-20.34.07a81.82,81.82,0,0,1-17.58-7.89c-6.51-3.95-11.37-9.66-15.66-15.83a33.29,33.29,0,0,1-6-19,35.59,35.59,0,0,1,1-10.48c2.09-7.18,6.82-12.26,12.92-16.24a42.5,42.5,0,0,0,4-2.67c3.3-2.7,7.33-3.53,11.35-4.17a30.85,30.85,0,0,1,15.28,1,16.56,16.56,0,0,1,5.65,3.33c.69.62.87.46,1.17-.32,1.91-5,4.09-9.81,6.46-14.57,3.9-7.82,9.49-14.3,16-20.07,4.74-4.23,9.59-8.34,14.39-12.51a34,34,0,0,1,5.75-3.89c2.83-1.58,5.65-3.16,8.39-4.9A41.12,41.12,0,0,1,146,115a91.13,91.13,0,0,1,12.57-.66c7.28.09,14.52-.91,21.81-.89,3.48,0,7-.06,10.43-.07a2.66,2.66,0,0,0,2-.69c9.58-9.1,15.84-19.82,17.53-33.2,1.59-12.64-7-24.44-19.6-28-9.49-2.7-17.93-.4-25.83,4.9-5,3.33-9.3,7.31-11.85,12.91a31.54,31.54,0,0,0-2.75,13,8.61,8.61,0,0,0,5.35,8.31c7.79,3.43,15.61,4,23.06-1.07a10.75,10.75,0,0,0,3.72-4.33C183.94,82,183.49,80,180,78.28a4.56,4.56,0,0,0-4.6,0,1.57,1.57,0,0,0-.86,1.19A1.93,1.93,0,0,1,172,81.05a2.15,2.15,0,0,1-1.78-2.56,4.38,4.38,0,0,1,1.68-2.41c4-3.39,8.69-2.46,11.89.09,3.72,3,4.49,6.45,1.64,11.42-3.15,5.49-8.41,8.14-14.45,9a28.74,28.74,0,0,1-16-2.09c-6.09-2.67-9-7.79-8.42-14.43s2.21-12.9,6.5-18.11c6.85-8.32,15.49-14,26.31-15.31A31,31,0,0,1,204,54.32c6.76,5.79,10.48,13.18,10.29,22.19a48.3,48.3,0,0,1-6.4,23,67.75,67.75,0,0,1-9.49,13.07C198.23,112.74,198,112.86,198.11,113.3Zm28.47,134.12c0-1.71-.06-3.42-.25-5.14a21.29,21.29,0,0,0-2.51-8.66c-1.18-2-2.42-4-3.78-6a11.29,11.29,0,0,0-9.92-5,49.34,49.34,0,0,0-10.94.86c-3,.69-6,1.34-8.57,3.15-3,2.11-6.22,3.59-10.13,3.08a10.71,10.71,0,0,1-6-2.35c-3.74-3.29-7.72-5.56-13.09-5.28-6.38.34-11.62,2.4-15.88,7.28-4.06,4.67-7.08,9.75-7.79,16-.59,5.23-.3,10.39,2.4,15.1.94,1.64,1.56,3.48,3.31,4.62a55.68,55.68,0,0,0,13.17,6.21c5.4,1.77,10.37.52,15.22-1.88,1.18-.59,1.77-1.8,2.79-2.59,4-3.09,10.26-5.32,15.94-1.74a40.55,40.55,0,0,0,7.07,3.45,16.66,16.66,0,0,0,11.8,0c2.18-.76,4.25-1.84,6.36-2.8a15.92,15.92,0,0,0,5.54-3.91A19.6,19.6,0,0,0,226.58,247.42Zm11.25-54c0-1.2.08-2.4,0-3.59a12.68,12.68,0,0,0-6.38-10.37c-3-1.79-5.92-1.29-8.87-.16a10.81,10.81,0,0,0-7.32,8.46,45.49,45.49,0,0,0-.4,10.87,10.63,10.63,0,0,0,5.6,9.06,16.59,16.59,0,0,0,8.17,1.89c3.54.1,5.69-1.65,7.13-4.63A22.9,22.9,0,0,0,237.83,193.45Zm-94.21.71a36.16,36.16,0,0,0-.22-4.11,19.9,19.9,0,0,0-1.19-3.77c-1.84-4.43-4.26-5.85-9-5.57s-8.14,2.42-9.94,6.7c-2.42,5.74-2.06,11.56.34,17.24a5.3,5.3,0,0,0,4.58,3.39,10.52,10.52,0,0,1,2,.42c4,1.29,7.34-.14,10-3.06C143.1,202.17,143.61,198.07,143.62,194.16Zm-90-.71a16.28,16.28,0,0,0-4.27.3,1.85,1.85,0,0,0-1.5,2c.11,1.08.9,1.54,1.91,1.64.43,0,.87-.07,1.31-.07,2,0,4.11-.48,6,.55a31,31,0,0,1,13.58,13.6c.18.37.25.62-.14.91-3.33,2.43-4.11,6-4.05,9.76a6.61,6.61,0,0,0,3.13,5.76,2,2,0,0,0,2.88-.33c.63-.87.42-1.81-.63-2.71a4.1,4.1,0,0,1-1.25-1.43c-.82-1.86,0-6,1.5-7.45.6-.58,1-.67,1.53.22a25,25,0,0,1,2.44,8.36c.21,1.38,1,2.08,2.1,2a1.91,1.91,0,0,0,1.65-2.36,23.08,23.08,0,0,0-2.23-8.54,132.33,132.33,0,0,0-7.72-12.41c-2.14-3.16-5.47-5-8.45-7.19C59,194.23,56.24,193.1,53.64,193.45Zm248,27.58c-.22-5-1.9-9-6.81-10.95-.59-.23-.58-.54-.45-1,.33-1.27.61-2.56,1-3.83a48.38,48.38,0,0,1,5.55-13.08,6.37,6.37,0,0,1,3.26-2.87,1.69,1.69,0,0,0,1.17-2.09,1.87,1.87,0,0,0-2-1.5,4.64,4.64,0,0,0-2.8,1.23,16.12,16.12,0,0,0-4.14,5.38c-4.87,9.31-6.73,19.5-8.52,29.7a2,2,0,0,0,1.59,2.55c1.14.16,2-.58,2.19-2a54.84,54.84,0,0,1,1.15-6.37c.2-.82,0-2.14.8-2.33.95-.23,1.72.81,2.42,1.53l.09.08a8.72,8.72,0,0,1,1.69,5.14c.1,1.1-.63,1.65-1.19,2.36a1.84,1.84,0,0,0,2.47,2.69A5.37,5.37,0,0,0,301.67,221Zm-119-1.16A14.44,14.44,0,0,0,193,215.33a2.17,2.17,0,0,0,.16-3,2.3,2.3,0,0,0-3.06-.15,8.54,8.54,0,0,0-.72.63c-3.51,3.27-8,3.48-12,1.59a4.62,4.62,0,0,1-1.67-1.32,2.07,2.07,0,0,0-2.93-.65,2.36,2.36,0,0,0-.61,3.11,6,6,0,0,0,2,2A14.53,14.53,0,0,0,182.64,219.87Z"/><path class="cls-3" d="M226.58,247.42a19.6,19.6,0,0,1-5.27,14.45,15.92,15.92,0,0,1-5.54,3.91c-2.11,1-4.18,2-6.36,2.8a16.66,16.66,0,0,1-11.8,0,40.55,40.55,0,0,1-7.07-3.45c-5.68-3.58-11.93-1.35-15.94,1.74-1,.79-1.61,2-2.79,2.59-4.85,2.4-9.82,3.65-15.22,1.88a55.68,55.68,0,0,1-13.17-6.21c-1.75-1.14-2.37-3-3.31-4.62-2.7-4.71-3-9.87-2.4-15.1.71-6.22,3.73-11.3,7.79-16,4.26-4.88,9.5-6.94,15.88-7.28,5.37-.28,9.35,2,13.09,5.28a10.71,10.71,0,0,0,6,2.35c3.91.51,7.1-1,10.13-3.08,2.58-1.81,5.62-2.46,8.57-3.15a49.34,49.34,0,0,1,10.94-.86,11.29,11.29,0,0,1,9.92,5c1.36,1.93,2.6,3.93,3.78,6a21.29,21.29,0,0,1,2.51,8.66C226.52,244,226.56,245.71,226.58,247.42Zm-41.24,10a7.84,7.84,0,0,0,2.78-.57,10.74,10.74,0,0,0,4.42-3.4,13.12,13.12,0,0,0,2-7.21,14.6,14.6,0,0,0-.8-5.84,6.81,6.81,0,0,0-3.66-4.24c-.4-.86-1.22-.25-1.81-.51a15.92,15.92,0,0,0-8.74-1.17,13.62,13.62,0,0,0-7.43,3.27c-2.5,2.18-3.09,5-2.94,8.24.2,4.22,1.73,7.65,5.44,9.91a11.15,11.15,0,0,0,8.44,1.7l1.75,0C185.09,257.87,185.22,257.63,185.34,257.38Z"/><path class="cls-1" d="M237.83,193.45A22.9,22.9,0,0,1,235.74,205c-1.44,3-3.59,4.73-7.13,4.63a16.59,16.59,0,0,1-8.17-1.89,10.63,10.63,0,0,1-5.6-9.06,45.49,45.49,0,0,1,.4-10.87,10.81,10.81,0,0,1,7.32-8.46c2.95-1.13,5.91-1.63,8.87.16a12.68,12.68,0,0,1,6.38,10.37C237.91,191.05,237.83,192.25,237.83,193.45Z"/><path class="cls-1" d="M143.62,194.16c0,3.91-.52,8-3.47,11.24-2.66,2.92-6,4.35-10,3.06a10.52,10.52,0,0,0-2-.42,5.3,5.3,0,0,1-4.58-3.39c-2.4-5.68-2.76-11.5-.34-17.24,1.8-4.28,5.27-6.42,9.94-6.7s7.19,1.14,9,5.57a19.9,19.9,0,0,1,1.19,3.77A36.16,36.16,0,0,1,143.62,194.16Z"/><path class="cls-1" d="M53.64,193.45c2.6-.35,5.31.78,7.8,2.62,3,2.2,6.31,4,8.45,7.19a132.33,132.33,0,0,1,7.72,12.41,23.08,23.08,0,0,1,2.23,8.54,1.91,1.91,0,0,1-1.65,2.36c-1.12.11-1.89-.59-2.1-2a25,25,0,0,0-2.44-8.36c-.5-.89-.93-.8-1.53-.22-1.49,1.43-2.32,5.59-1.5,7.45a4.1,4.1,0,0,0,1.25,1.43c1,.9,1.26,1.84.63,2.71a2,2,0,0,1-2.88.33,6.61,6.61,0,0,1-3.13-5.76c-.06-3.81.72-7.33,4.05-9.76.39-.29.32-.54.14-.91a31,31,0,0,0-13.58-13.6c-1.9-1-4-.58-6-.55-.44,0-.88.11-1.31.07-1-.1-1.8-.56-1.91-1.64a1.85,1.85,0,0,1,1.5-2A16.28,16.28,0,0,1,53.64,193.45Z"/><path class="cls-1" d="M301.67,221a5.37,5.37,0,0,1-2.59,4.62,1.84,1.84,0,0,1-2.47-2.69c.56-.71,1.29-1.26,1.19-2.36a8.72,8.72,0,0,0-1.69-5.14l-.09-.08c-.7-.72-1.47-1.76-2.42-1.53-.78.19-.6,1.51-.8,2.33a54.84,54.84,0,0,0-1.15,6.37c-.17,1.43-1,2.17-2.19,2a2,2,0,0,1-1.59-2.55c1.79-10.2,3.65-20.39,8.52-29.7a16.12,16.12,0,0,1,4.14-5.38,4.64,4.64,0,0,1,2.8-1.23,1.87,1.87,0,0,1,2,1.5,1.69,1.69,0,0,1-1.17,2.09,6.37,6.37,0,0,0-3.26,2.87,48.38,48.38,0,0,0-5.55,13.08c-.37,1.27-.65,2.56-1,3.83-.13.47-.14.78.45,1C299.77,212,301.45,216,301.67,221Z"/><path class="cls-1" d="M182.64,219.87a14.53,14.53,0,0,1-8.52-2.34,6,6,0,0,1-2-2,2.36,2.36,0,0,1,.61-3.11,2.07,2.07,0,0,1,2.93.65,4.62,4.62,0,0,0,1.67,1.32c4,1.89,8.5,1.68,12-1.59a8.54,8.54,0,0,1,.72-.63,2.3,2.3,0,0,1,3.06.15,2.17,2.17,0,0,1-.16,3A14.44,14.44,0,0,1,182.64,219.87Z"/><path class="cls-4" d="M183.06,257.56a11.15,11.15,0,0,1-8.44-1.7c-3.71-2.26-5.24-5.69-5.44-9.91-.15-3.19.44-6.06,2.94-8.24a13.62,13.62,0,0,1,7.43-3.27,15.92,15.92,0,0,1,8.74,1.17c.59.26,1.41-.35,1.81.51-.76,0-1.09.18-.79,1.06a26.94,26.94,0,0,1,.9,3.34,13.5,13.5,0,0,1,0,6.74c-.75,2.48-2.37,4.48-3.92,6.51C185.3,255.1,183.84,256,183.06,257.56Z"/><path class="cls-1" d="M183.06,257.56c.78-1.52,2.24-2.46,3.26-3.79,1.55-2,3.17-4,3.92-6.51a13.5,13.5,0,0,0,0-6.74,26.94,26.94,0,0,0-.9-3.34c-.3-.88,0-1.08.79-1.06a6.81,6.81,0,0,1,3.66,4.24,14.6,14.6,0,0,1,.8,5.84,13.12,13.12,0,0,1-2,7.21,10.74,10.74,0,0,1-4.42,3.4,7.84,7.84,0,0,1-2.78.57c-.22-.09-.41-.08-.53.15Z"/><path class="cls-5" d="M184.81,257.53c.12-.23.31-.24.53-.15C185.22,257.63,185.09,257.87,184.81,257.53Z"/></svg>