<svg id="Camada_1" data-name="Camada 1" xmlns="http://www.w3.org/2000/svg" viewBox="0 0 398.21 395.31"><defs><style>.cls-1{fill:#d8a800;}.cls-2{fill:#fbc435;}.cls-3{fill:#2ea8de;}.cls-4{fill:#feecc3;}.cls-5{fill:#fdfdfe;}.cls-6{fill:#fbdc85;}</style></defs><title>Prancheta 1</title><path class="cls-1" d="M199.11,3.09C89.14,3.09,0,90.89,0,199.2a193.56,193.56,0,0,0,1.17,21.24H397.05a196.08,196.08,0,0,0,1.16-21.24C398.21,90.89,309.07,3.09,199.11,3.09Z"/><path class="cls-2" d="M199.11,395.31c102.68,0,187.19-76.55,197.94-174.87H1.17C11.92,318.76,96.43,395.31,199.11,395.31ZM17.78,267.89a1.26,1.26,0,0,1,.48,1c-.52-.15-.48-.59-.52-1a1.15,1.15,0,0,1-.46-1C17.65,267.13,17.69,267.53,17.78,267.89Z"/><path class="cls-3" d="M17.74,267.87v0l0,0c-.09-.36-.13-.76-.5-1A1.15,1.15,0,0,0,17.74,267.87Z"/><path class="cls-3" d="M17.74,267.87c0,.4,0,.84.52,1a1.26,1.26,0,0,0-.48-1h0Z"/><path class="cls-3" d="M17.74,267.87l.05,0h0l0,0Z"/><path class="cls-4" d="M134.87,266.84c-10,.56-19.17-2.26-28.22-5.87a5.73,5.73,0,0,1-3.6-7.34,162.34,162.34,0,0,0,4.06-16.94c1-4.51,1.64-9.07,2.69-13.57,2.28-9.78,5.64-19.22,8.83-28.72,2.29-6.82,4-13.8,6.06-20.69,1.28-4.35,2.55-8.71,3.67-13.11,1.32-5.21,2.14-10.54,3.61-15.73.84-3,2-5.81,2.8-8.79,1.21-4.4,1.55-8.91,2.43-13.35q1-5,2.39-10c.85-3,2.11-6,2.64-9.12.93-5.45,2.9-10.56,4.53-15.78,1.79-5.73,3-11.59,4.61-17.35.94-3.38,2.25-6.65,3.43-10,.33-.92.93-.88,1.58-.25,1.42,1.38,2.6,3,4,4.35,5.93,5.53,10,12.46,14.76,18.86,8.22,11,15.91,22.42,24.25,33.35,1.93,2.53,3.75,5.14,5.7,7.65a8.42,8.42,0,0,1,1.42,4.6,30.57,30.57,0,0,1,0,5.66,117.85,117.85,0,0,1-3.81,19.6c-.63,2.31-1.24,4.63-2,6.92a72.69,72.69,0,0,1-5,12.12c-2.73,5.17-5.2,10.48-8,15.64C183,198,178,206.83,173.28,215.8c-3.56,6.76-7.42,13.36-10.26,20.5a102.13,102.13,0,0,0-4.55,12.27,19.83,19.83,0,0,0-.86,6.84c.23,2.45-.87,4-2.89,5.29-3.79,2.45-7.63,4.72-12.08,5.82C140.05,267.16,137.45,266.64,134.87,266.84Z"/><path class="cls-5" d="M132.37,268.41c-9.73,0-18.69-3-26.28-6.05a7.22,7.22,0,0,1-4.46-9.19,126,126,0,0,0,3.33-13.5q.33-1.65.69-3.3c.42-2,.79-4,1.15-5.91.46-2.52.94-5.12,1.54-7.68,2-8.54,4.83-16.94,7.58-25.05l1.29-3.81c1.5-4.46,2.79-9.09,4-13.56.65-2.36,1.31-4.72,2-7.08,1.3-4.42,2.56-8.74,3.65-13.05.57-2.24,1.06-4.56,1.53-6.8.61-3,1.25-6,2.1-9,.41-1.45.9-2.88,1.37-4.26s1-3,1.43-4.52a70.94,70.94,0,0,0,1.53-8c.26-1.72.52-3.49.87-5.24.68-3.4,1.49-6.79,2.41-10.08.32-1.12.68-2.23,1-3.3a39.5,39.5,0,0,0,1.57-5.67,85.12,85.12,0,0,1,3.33-12.12c.42-1.28.85-2.56,1.25-3.85,1-3.33,1.89-6.77,2.73-10.11.58-2.36,1.19-4.8,1.86-7.2.72-2.56,1.65-5.09,2.55-7.53.31-.84.62-1.68.92-2.52a2.38,2.38,0,0,1,1.66-1.66,2.5,2.5,0,0,1,2.37.83c.72.7,1.38,1.45,2,2.18a27.86,27.86,0,0,0,2,2.15c4.41,4.11,7.83,9,11.13,13.72,1.23,1.77,2.51,3.6,3.81,5.34,3.71,5,7.37,10.1,10.91,15.06,4.31,6,8.76,12.29,13.33,18.28.87,1.15,1.72,2.3,2.57,3.46,1,1.38,2.06,2.81,3.12,4.18A9.67,9.67,0,0,1,208,129a32.74,32.74,0,0,1,0,5.94,119.91,119.91,0,0,1-3.86,19.84l-.22.8c-.55,2-1.11,4.12-1.75,6.18a73.06,73.06,0,0,1-5.13,12.37c-1.29,2.45-2.55,5-3.78,7.44-1.34,2.7-2.73,5.49-4.17,8.21-2.17,4-4.41,8.14-6.58,12.1-2.63,4.78-5.34,9.73-7.92,14.63-.81,1.54-1.64,3.07-2.47,4.6a152.16,152.16,0,0,0-7.73,15.75c-.38,1-.77,1.89-1.16,2.84a70.44,70.44,0,0,0-3.33,9.26,18.51,18.51,0,0,0-.82,6.32c.35,3.7-1.87,5.59-3.57,6.69-3.53,2.28-7.7,4.82-12.53,6a18.67,18.67,0,0,1-5.22.35c-1,0-1.9-.05-2.8,0h0C134.09,268.38,133.23,268.41,132.37,268.41ZM155.89,62c-.2.56-.41,1.11-.61,1.66-.87,2.38-1.78,4.85-2.47,7.3S151.55,75.7,151,78c-.84,3.37-1.72,6.86-2.78,10.27-.4,1.31-.83,2.6-1.26,3.9a81.79,81.79,0,0,0-3.22,11.69A42.18,42.18,0,0,1,142,110c-.35,1-.7,2.12-1,3.17-.9,3.22-1.69,6.53-2.36,9.86-.33,1.68-.59,3.41-.85,5.09a72.28,72.28,0,0,1-1.6,8.36c-.44,1.59-1,3.16-1.48,4.68-.46,1.35-.93,2.75-1.33,4.12-.81,2.88-1.44,5.87-2,8.76-.48,2.28-1,4.63-1.56,6.93-1.1,4.35-2.37,8.71-3.68,13.16-.68,2.34-1.34,4.69-2,7-1.26,4.51-2.56,9.18-4.09,13.71l-1.29,3.82c-2.72,8.05-5.54,16.37-7.5,24.78-.58,2.48-1.06,5.05-1.51,7.53-.37,2-.74,4-1.17,6l-.69,3.28a127.15,127.15,0,0,1-3.41,13.82,4.23,4.23,0,0,0,2.72,5.47c7.94,3.17,17.43,6.33,27.57,5.77a29,29,0,0,1,3.09,0,16.11,16.11,0,0,0,4.42-.26c4.38-1.08,8.14-3.37,11.62-5.62,1.78-1.15,2.38-2.2,2.22-3.89a21.49,21.49,0,0,1,.89-7.35,74.21,74.21,0,0,1,3.47-9.66c.38-.93.77-1.86,1.14-2.8a155.26,155.26,0,0,1,7.88-16.06c.83-1.53,1.65-3.05,2.46-4.58,2.59-4.92,5.31-9.88,7.93-14.67,2.17-4,4.41-8,6.57-12.08,1.43-2.67,2.81-5.44,4.14-8.12,1.23-2.47,2.5-5,3.81-7.51a70.44,70.44,0,0,0,4.92-11.87c.62-2,1.17-4.06,1.71-6.06l.22-.8A116.11,116.11,0,0,0,205,134.64a29.3,29.3,0,0,0,0-5.38,7.2,7.2,0,0,0-1.1-3.82c-1.09-1.4-2.15-2.84-3.18-4.24-.84-1.15-1.67-2.29-2.53-3.42-4.6-6-9.07-12.29-13.39-18.35-3.53-5-7.18-10.07-10.87-15-1.33-1.79-2.62-3.63-3.87-5.42-3.21-4.6-6.54-9.35-10.72-13.24-.8-.75-1.52-1.58-2.22-2.38C156.73,62.88,156.32,62.41,155.89,62Z"/><path class="cls-6" d="M278.15,309.38a9.87,9.87,0,0,1,1.6-4.94c3.29-5.56,6.08-11.43,9.83-16.73a14.46,14.46,0,0,0,1.69-3.7c1.27-3.62,2-7.39,3-11.1a17.27,17.27,0,0,0,0-6.21c-.63-5.61-1.25-11.25-3.6-16.42.24-.21.36-.39.46-.38,4.21.37,8-1.18,11.84-2.56a15.28,15.28,0,0,0,3.22-1.58c5.78-3.79,11-8.14,15-13.91,3.14-4.53,6.19-9.11,9-13.84a33,33,0,0,0,4.58-13.25c.06-.47.26-.92.32-1.39.13-1.08.81-1.29,1.71-1.11a7.26,7.26,0,0,1,1.36.46c4.95,2,10,3.78,14.77,6.28,1.26.66,2.58,1.2,3.88,1.79-.24.24-.43.53-.25.85,1.59,2.8,1.3,5.87,1.19,8.89a34.33,34.33,0,0,1-3.64,15.21c-1.43,2.69-3,5.27-4.4,8-2.3,4.46-5.34,8.52-7.25,13.21a21.56,21.56,0,0,1-5,6.94c-5.23,5.2-9.37,11.29-13.67,17.23-3.38,4.66-6.8,9.31-11,13.22a48.35,48.35,0,0,1-22.59,11.94C286.14,307.17,282.16,308.33,278.15,309.38Z"/><path class="cls-5" d="M276.63,311.33l0-2a11.44,11.44,0,0,1,1.81-5.68c1.13-1.91,2.22-3.9,3.28-5.83a113.87,113.87,0,0,1,6.62-11,13.38,13.38,0,0,0,1.49-3.32,77.88,77.88,0,0,0,2.08-7.57c.28-1.14.55-2.28.84-3.41a15.43,15.43,0,0,0,0-5.55l0-.28c-.63-5.61-1.23-10.9-3.46-15.82l-.47-1,.88-.73.13-.12a1.77,1.77,0,0,1,1.42-.59c3.54.31,6.81-.88,10.27-2.14l.93-.34a14.33,14.33,0,0,0,2.91-1.43c6.53-4.27,11.16-8.56,14.59-13.5,3.68-5.32,6.53-9.69,9-13.76a31.58,31.58,0,0,0,4.38-12.65,5.6,5.6,0,0,1,.21-1,3.43,3.43,0,0,0,.11-.46,2.75,2.75,0,0,1,1.08-2,3,3,0,0,1,2.42-.4,9.15,9.15,0,0,1,1.63.54c1.36.56,2.73,1.1,4.1,1.64a107.27,107.27,0,0,1,10.8,4.7c.81.43,1.66.8,2.55,1.2l1.25.56,2,.91-1.22,1.19c1.31,2.74,1.19,5.54,1.08,8.26l0,.79c-.23,6.36-1.45,11.4-3.82,15.87-.65,1.23-1.34,2.45-2,3.67-.79,1.4-1.61,2.84-2.35,4.28-.94,1.8-2,3.55-3,5.24a58.32,58.32,0,0,0-4.2,7.84,23,23,0,0,1-5.35,7.44c-4.42,4.39-8.13,9.57-11.73,14.57L325,282c-3,4.13-6.72,9.27-11.2,13.44a49.88,49.88,0,0,1-23.28,12.3c-2.75.63-5.53,1.38-8.22,2.11l-3.76,1Zm16.14-59.88c1.82,4.83,2.4,9.95,3,14.92l0,.29a18.07,18.07,0,0,1-.08,6.63c-.29,1.12-.56,2.24-.83,3.36-.62,2.58-1.26,5.26-2.16,7.86a16.34,16.34,0,0,1-1.89,4.07,111.34,111.34,0,0,0-6.43,10.72c-1.07,1.94-2.18,3.95-3.33,5.91a11,11,0,0,0-1,2.12l1.48-.4c2.72-.74,5.54-1.51,8.34-2.14a47,47,0,0,0,21.91-11.58c3.94-3.67,7.1-7.88,10.81-13,.59-.83,1.19-1.65,1.78-2.47,3.66-5.1,7.45-10.38,12.05-14.95a20.4,20.4,0,0,0,4.69-6.44,60.11,60.11,0,0,1,4.4-8.26c1-1.65,2-3.35,2.91-5.07.77-1.49,1.6-3,2.41-4.38.67-1.19,1.35-2.39,2-3.6,2.15-4,3.26-8.68,3.47-14.56l0-.81c.11-2.63.21-5.11-1-7.3a1.83,1.83,0,0,1-.25-.74l0,0c-.9-.39-1.83-.81-2.74-1.28a105.63,105.63,0,0,0-10.49-4.57c-1.39-.54-2.77-1.09-4.15-1.65a6.22,6.22,0,0,0-1-.37c-.05.27-.11.51-.17.72a2.7,2.7,0,0,0-.12.47,34.58,34.58,0,0,1-4.79,13.85c-2.46,4.13-5.34,8.55-9.07,13.92S313.86,242.52,307,247a16.58,16.58,0,0,1-3.53,1.74l-.92.33C299.45,250.21,296.26,251.37,292.77,251.45Zm43.49-47.75Zm.35-.27Z"/><path class="cls-6" d="M41.58,295.1c-.18-1.67,1.19-2.38,2.17-3.2A43.9,43.9,0,0,1,50.84,287a59,59,0,0,1,10.72-4.73,61.88,61.88,0,0,0,15.89-7.15c3.33-2.21,7.1-3.65,10.63-5.5a24,24,0,0,0,10.67-10.94c.39-.78.88-1.51,1.33-2.27s1-.82,1.55-.21c2.13,2.26,5,3.05,7.81,4,4.22,1.46,8.46,3,12.91,3.54a71.91,71.91,0,0,0,17.21.55c5.51-.63,10.24-3.48,14.69-6.68.78-.56,1.53-1.15,2.3-1.72,0,0,.15,0,.37-.06,2.51,3.72,4.17,7.93,6.05,12-1,1.36-.76,3-1.16,4.57-2.24,8.59-8.05,13.91-15.79,17.51-3.32,1.54-7,1.77-10.49,2.22-8.4,1.07-16.66,2.88-25,4.36-6,1.07-11.88,2.47-18,2.11a8.49,8.49,0,0,0-1.67.07c-4.13.48-8.28.68-12.42.75-6.71.13-13.43-.09-20.14.13-4.64.15-9-.88-13.44-2A4.41,4.41,0,0,1,41.58,295.1Z"/><path class="cls-5" d="M57.38,301.08a52.24,52.24,0,0,1-12.88-2,5.8,5.8,0,0,1-4.3-3.35l-.08-.2,0-.22c-.25-2.24,1.31-3.44,2.24-4.16l.45-.36a45.52,45.52,0,0,1,7.33-5.07,61.1,61.1,0,0,1,11-4.85,59.22,59.22,0,0,0,15.52-7,54.89,54.89,0,0,1,7.08-3.77c1.22-.58,2.49-1.18,3.69-1.8A22.62,22.62,0,0,0,97.4,258c.3-.59.64-1.14,1-1.67l.42-.69a2.47,2.47,0,0,1,1.87-1.34,2.45,2.45,0,0,1,2.06.86c1.64,1.74,3.9,2.5,6.29,3.3l1.78.61a58.18,58.18,0,0,0,11.75,3.17,70.66,70.66,0,0,0,16.85.55c5.32-.61,9.86-3.44,14-6.41l1.35-1,.92-.7a1.68,1.68,0,0,1,.94-.32l1-.16.53.79a63,63,0,0,1,5,9.68c.38.86.76,1.71,1.16,2.56l.37.81-.53.71a4.61,4.61,0,0,0-.62,2.27,13.37,13.37,0,0,1-.3,1.79c-2.15,8.25-7.58,14.3-16.61,18.49a30,30,0,0,1-9.41,2.17l-1.52.18c-5.8.74-11.65,1.85-17.3,2.93-2.53.48-5.07,1-7.6,1.42l-2.86.53c-5,.94-10.18,1.91-15.52,1.59a8.14,8.14,0,0,0-1.41.07c-3.66.43-7.66.67-12.56.76-3,.06-6,0-8.92,0-3.68,0-7.48,0-11.2.09Zm-14.31-6.35a3,3,0,0,0,2.15,1.4c4.57,1.14,8.7,2.07,13,1.94C62,298,65.86,298,69.56,298c2.91,0,5.91,0,8.85,0,4.81-.09,8.71-.32,12.27-.74a11.14,11.14,0,0,1,1.94-.08c5,.29,9.73-.6,14.78-1.55l2.89-.53c2.53-.45,5-.94,7.57-1.42,5.7-1.08,11.59-2.21,17.48-3l1.55-.18a27.75,27.75,0,0,0,8.5-1.91c8.27-3.85,13-9.1,15-16.52a10.78,10.78,0,0,0,.22-1.38,8.56,8.56,0,0,1,.7-2.92l-.84-1.87a70,70,0,0,0-4-8l-1.31,1c-4.24,3.05-9.38,6.26-15.39,6.95a74.37,74.37,0,0,1-17.57-.55,61.33,61.33,0,0,1-12.36-3.31l-1.75-.6c-2.44-.82-5-1.67-7-3.59l-.12.19a15.41,15.41,0,0,0-.83,1.43,25.51,25.51,0,0,1-11.31,11.6c-1.26.66-2.55,1.27-3.8,1.86a52.53,52.53,0,0,0-6.7,3.56A64.09,64.09,0,0,1,62,283.69a57.71,57.71,0,0,0-10.45,4.62,42.39,42.39,0,0,0-6.85,4.74l-.55.43C43.35,294.11,43.1,294.38,43.07,294.73Z"/><path class="cls-1" d="M277.18,307.11c4-1.05,8-2.21,12-3.13a48.09,48.09,0,0,0,22.5-11.91,88.71,88.71,0,0,0,11-13.2c4.28-5.92,8.4-12,13.61-17.19a21.33,21.33,0,0,0,5-6.93c1.91-4.68,4.93-8.73,7.23-13.18,1.38-2.69,2.95-5.28,4.37-7.95a34.36,34.36,0,0,0,3.63-15.18c.11-3,.4-6.08-1.19-8.88-.18-.32,0-.61.25-.84,1.36.35,2.32,1.38,3.42,2.12,2.24,1.52,4.84,2.41,7,4.13,3.35,2.71,4.12,5.17,2.61,9.25a36,36,0,0,1-7.46,11.86c-1,1.11-2.07,2.22-3.18,3.24-5,4.5-8.61,10-12,15.68-1.94,3.22-4.37,6.08-6.47,9.18s-4.18,6.39-6.16,9.66a87.26,87.26,0,0,1-10.54,14.46c-1.74,1.87-3.45,3.75-5.16,5.65a40.74,40.74,0,0,1-10.18,8.21c-4.29,2.43-8.43,5.18-13.23,6.56-5.27,1.51-10.53,3.17-16.13,2.76-.62-.05-1.27.14-1.9-.32A9.38,9.38,0,0,1,277.18,307.11Z"/><path class="cls-1" d="M279.73,312.54c-.61,0-1.22,0-1.83-.07-.13,0-.27,0-.4,0a3,3,0,0,1-2-.5l-.42-.31v-.52a10.38,10.38,0,0,1,1.22-4.49l.2-.4.44-.11,3.72-1c2.7-.74,5.5-1.5,8.28-2.13a47.26,47.26,0,0,0,22-11.67c4-3.7,7.12-7.92,10.83-13.06l1.77-2.47A116.5,116.5,0,0,1,335.51,261a20.63,20.63,0,0,0,4.78-6.6,61.7,61.7,0,0,1,4.35-8.17c1-1.65,2-3.36,2.92-5.09.76-1.48,1.58-2.94,2.38-4.35.68-1.2,1.35-2.4,2-3.61,2.18-4.12,3.29-8.8,3.51-14.75l0-.8c.11-2.7.22-5.24-1.09-7.55a1.62,1.62,0,0,1,.42-2.05l.4-.39.55.14a7.81,7.81,0,0,1,2.86,1.62c.29.22.57.44.87.64a28.66,28.66,0,0,0,2.93,1.68,23.22,23.22,0,0,1,4.11,2.51c3.74,3,4.56,5.93,2.91,10.37a36.57,36.57,0,0,1-7.66,12.19c-1,1.09-2.09,2.25-3.24,3.3-4.92,4.46-8.6,10.07-11.85,15.46-1.19,2-2.58,3.85-3.92,5.65-.86,1.16-1.75,2.36-2.58,3.57-1.93,2.84-3.87,5.89-6.12,9.62A86.3,86.3,0,0,1,323.4,289c-1.73,1.87-3.44,3.75-5.15,5.64A41.93,41.93,0,0,1,307.82,303c-.8.45-1.59.92-2.39,1.38a49.3,49.3,0,0,1-11.05,5.27l-1,.28C289,311.23,284.48,312.54,279.73,312.54Zm-2-2.07h.3c5.08.37,9.79-1,14.79-2.44l1-.29a47.5,47.5,0,0,0,10.59-5.06l2.41-1.4a39.84,39.84,0,0,0,9.94-8q2.57-2.85,5.17-5.66a83.89,83.89,0,0,0,10.41-14.29c2.27-3.76,4.24-6.85,6.19-9.71.84-1.25,1.75-2.46,2.63-3.64,1.31-1.77,2.66-3.59,3.81-5.49,3.33-5.53,7.11-11.28,12.21-15.91,1.1-1,2.1-2.07,3.12-3.18a34.62,34.62,0,0,0,7.26-11.53c1.34-3.6.76-5.65-2.3-8.12a22.79,22.79,0,0,0-3.77-2.29,29.89,29.89,0,0,1-3.13-1.79c-.33-.22-.66-.47-1-.72l-.59-.46a18,18,0,0,1,.68,7.19l0,.79c-.23,6.26-1.42,11.22-3.74,15.62-.66,1.23-1.34,2.44-2,3.65-.78,1.4-1.6,2.84-2.34,4.29-.92,1.78-2,3.52-3,5.2a56.85,56.85,0,0,0-4.21,7.9,22.85,22.85,0,0,1-5.22,7.26C332.5,266.8,328.79,272,325.2,277l-1.78,2.48c-3,4.1-6.67,9.22-11.08,13.34a49.23,49.23,0,0,1-23,12.16c-2.75.62-5.52,1.38-8.2,2.11l-3.3.89a8.81,8.81,0,0,0-.76,2.52h.62Zm78.4-101.41h0Z"/><path class="cls-1" d="M40.53,293.76a4.46,4.46,0,0,0,3.31,2.58c4.45,1.14,8.88,2.21,13.57,2.06,6.77-.23,13.56,0,20.33-.13a122.17,122.17,0,0,0,12.54-.79,9.56,9.56,0,0,1,1.69-.07c6.2.37,12.17-1.08,18.2-2.19,8.4-1.54,16.74-3.42,25.22-4.53,3.56-.47,7.24-.71,10.6-2.32,7.81-3.73,13.68-9.27,15.94-18.19.4-1.58.15-3.34,1.17-4.76a53.93,53.93,0,0,1,3.82,15.12,14.53,14.53,0,0,1-.38,4.2,3.34,3.34,0,0,1-1.92,2.69c-4.1,2-8.21,4-12.84,4.09a43.91,43.91,0,0,0-11.88,2,265.47,265.47,0,0,1-30.75,6.73c-6.24,1.06-12.55.94-18.83,1.29a43.35,43.35,0,0,0-4.57.42,103.29,103.29,0,0,1-12.27,1.27c-2.33.12-4.64.54-7,.81a50.37,50.37,0,0,1-13,0,91.16,91.16,0,0,1-11-1.79,11.66,11.66,0,0,1-3.57-1.49c-1.35-.93-1.71-1.94-1-3.4S39,294.45,40.53,293.76Z"/><path class="cls-1" d="M59.37,305.53a41.27,41.27,0,0,1-6-.42c-1-.15-2-.27-3-.4a57.5,57.5,0,0,1-8.1-1.41,12.85,12.85,0,0,1-3.87-1.63c-1.79-1.23-2.25-2.8-1.35-4.67.12-.24.22-.5.33-.75a5.76,5.76,0,0,1,2.79-3.41l.93-.41.4.94a3.44,3.44,0,0,0,2.63,2c4.65,1.2,8.85,2.17,13.29,2,3.8-.13,7.66-.11,11.4-.1,2.93,0,6,0,9,0a123.21,123.21,0,0,0,12.43-.78,10.48,10.48,0,0,1,1.88-.08c5.06.3,10.14-.67,15-1.62l2.91-.55c2.56-.47,5.11-1,7.66-1.47,5.74-1.13,11.68-2.3,17.61-3.07l1.56-.2a27.73,27.73,0,0,0,8.73-2c8.4-4,13.43-9.75,15.41-17.54a10.9,10.9,0,0,0,.23-1.51,7.13,7.13,0,0,1,1.1-3.58l1-1.41L164,265a56,56,0,0,1,3.91,15.39,11.44,11.44,0,0,1-.24,3.58c-.06.3-.11.61-.15.91a4.36,4.36,0,0,1-2.48,3.45l-.59.28c-4,1.89-8,3.84-12.66,3.9a42.21,42.21,0,0,0-11.62,2,270.12,270.12,0,0,1-30.86,6.76,101.41,101.41,0,0,1-13.49,1.07c-1.82.07-3.64.13-5.45.23l-.26,0a39.2,39.2,0,0,0-4.21.39,106,106,0,0,1-12.38,1.28c-1.51.08-3.07.29-4.57.5-.78.1-1.55.21-2.33.3A62.16,62.16,0,0,1,59.37,305.53ZM40.2,295.2a6.54,6.54,0,0,0-1,1.84c-.12.28-.24.56-.37.83-.41.86-.41,1.4.68,2.15a10.62,10.62,0,0,0,3.27,1.35,57.74,57.74,0,0,0,7.81,1.36c1,.12,2,.25,3.06.4a48.27,48.27,0,0,0,12.77-.05c.76-.08,1.53-.19,2.29-.29,1.54-.21,3.14-.43,4.74-.52A102.44,102.44,0,0,0,85.58,301,39.25,39.25,0,0,1,90,300.6h.25c1.83-.11,3.67-.17,5.5-.23A101.5,101.5,0,0,0,109,299.31a265.94,265.94,0,0,0,30.63-6.71,44.89,44.89,0,0,1,12.16-2.08c4.19,0,7.9-1.83,11.83-3.71l.59-.28a2.36,2.36,0,0,0,1.36-1.94c0-.32.1-.64.16-.95a9.82,9.82,0,0,0,.22-3,59.82,59.82,0,0,0-2.72-12.3l0,.27a13,13,0,0,1-.28,1.79c-2.13,8.4-7.52,14.56-16.48,18.85a29.43,29.43,0,0,1-9.36,2.21l-1.54.19c-5.87.77-11.77,1.93-17.49,3.05-2.55.5-5.11,1-7.68,1.47l-2.89.55c-5,1-10.22,2-15.55,1.66a7.48,7.48,0,0,0-1.51.07c-3.68.44-7.7.69-12.64.79-3,.05-6,0-9,0-3.72,0-7.56,0-11.33.09-4.69.16-9-.85-13.85-2.08A5.79,5.79,0,0,1,40.2,295.2Z"/><path class="cls-4" d="M199.12,2.23c.74-1,1.84-.73,2.75-.61,5.2.69,10.43,1.19,15.49,2.77a11.31,11.31,0,0,0,4.47.27A37.62,37.62,0,0,1,236.69,6a40,40,0,0,0,5.91.93c3.44.53,3.64,1,1.83,4.31-1.63,3-3.28,6.06-5,9-2.3,4-4.68,8-7,11.93-.41.68-.89,1.31-1.35,1.94-1.08,1.44-2.16,1.41-3.54.26A141.67,141.67,0,0,1,202.66,7.85c-1.15-1.61-2.34-3.19-3.49-4.8C199.05,2.88,199.14,2.55,199.12,2.23Z"/><path class="cls-5" d="M229.3,36.77a4.39,4.39,0,0,1-2.76-1.19,142.37,142.37,0,0,1-25.1-26.86L199.8,6.47,198,3.92a2.17,2.17,0,0,1-.33-1.46V2.3l0-.54.33-.44A3.85,3.85,0,0,1,201.87.11l.2,0,2.37.3A77.07,77.07,0,0,1,217.81,3a10,10,0,0,0,3.89.2,39.15,39.15,0,0,1,15.44,1.42,18.72,18.72,0,0,0,3.67.63c.68.07,1.35.14,2,.25,1.87.29,3.35.61,4,1.87s0,2.73-1.05,4.63c-1.57,2.9-3.25,6-5,9.08-2,3.48-4.09,7-6.11,10.37L233.68,33c-.42.69-.88,1.31-1.33,1.91l-.11.15a3.8,3.8,0,0,1-2.58,1.69ZM201,3c.4.56.81,1.12,1.22,1.67.56.76,1.12,1.52,1.66,2.29a139.57,139.57,0,0,0,24.58,26.29,1.86,1.86,0,0,0,.85.5,1.55,1.55,0,0,0,.52-.51l.11-.15a17.93,17.93,0,0,0,1.16-1.66l.94-1.58c2-3.37,4.1-6.87,6.1-10.33,1.75-3,3.42-6.13,5-9a14.52,14.52,0,0,0,.87-1.8,13.06,13.06,0,0,0-1.61-.32c-.62-.09-1.25-.16-1.88-.23a21.54,21.54,0,0,1-4.26-.75A35.51,35.51,0,0,0,222,6.15a12.54,12.54,0,0,1-5-.33,74.67,74.67,0,0,0-12.86-2.4l-2.39-.31-.21,0Z"/><path class="cls-4" d="M194.54,1.7c2.91-.78,4.64.91,6.25,3.2,4.57,6.5,9.37,12.84,15.21,18.24,3.54,3.27,7.23,6.35,10.82,9.56a117.39,117.39,0,0,1,13.86,13.9,8.77,8.77,0,0,0,.89.94c4.68,4.27,8.32,9.42,12,14.53A215,215,0,0,1,267.16,83.2c2.3,4.15,5.27,7.9,7.54,12.09,3.18,5.86,6.3,11.75,9,17.86a240.29,240.29,0,0,1,8.95,24.93c2,6.36,3.68,12.82,5.69,19.18a134.74,134.74,0,0,0,6.85,17.39c1.94,4.06,4.12,8,7.54,11.07,1.46,1.32,2.61,3,3.94,4.44A42.38,42.38,0,0,0,333,201a2.57,2.57,0,0,1,1.92,2.85c0,5.42-2,10.14-4.65,14.68a182.75,182.75,0,0,1-11.35,17,30,30,0,0,1-5.58,5.73c-1.68,1.32-3.39,2.64-5.17,3.83-4.76,3.17-9.91,5-15.71,4.56a2.94,2.94,0,0,1-2.78-1.92c-.46-1.12-.91-2.25-1.4-3.35a242.08,242.08,0,0,0-11.5-22.09c-1.26-2.2-3.15-3.88-4.74-5.8-4.7-5.72-9.61-11.26-14.23-17.06-4.35-5.45-8.92-10.73-13.25-16.2q-7.36-9.33-14.29-19c-4.65-6.53-9.22-13.13-14.08-19.49-2.56-3.35-5.42-6.48-8.19-9.66-3.16-3.62-6.42-7.16-8.88-11.4-3.48-6-8-11.21-12-16.89-3.77-5.48-7.65-10.87-11.47-16.3-8-11.43-15.92-23-24.36-34.12a221.54,221.54,0,0,0-14.65-17.73c-1.82-1.94-3.59-4-5.42-5.9a120.54,120.54,0,0,0-13.68-12.17c-1.8-1.42-1.78-1.88.25-3.07q3.45-2,6.91-4a7.49,7.49,0,0,1,3.13-1c2.41-.22,4.59-1.36,6.79-2.29a96.72,96.72,0,0,1,17.22-4.94A158.77,158.77,0,0,1,168.62,3a162.05,162.05,0,0,1,19.44-.88C190.21,2.15,192.27,1.24,194.54,1.7Z"/><path class="cls-5" d="M294.25,251.25c-.63,0-1.25,0-1.88-.08a4.41,4.41,0,0,1-4.06-2.84l-.18-.46c-.38-1-.77-1.91-1.19-2.85a244.41,244.41,0,0,0-11.43-22,21.72,21.72,0,0,0-2.93-3.7c-.56-.62-1.13-1.24-1.66-1.89-1.94-2.35-3.94-4.71-5.88-7-2.78-3.27-5.65-6.65-8.38-10.07-2.06-2.59-4.2-5.18-6.28-7.68-2.3-2.78-4.68-5.65-7-8.53-4.92-6.22-9.74-12.64-14.34-19.08l-3.3-4.64c-3.47-4.91-7.06-10-10.76-14.81-2-2.63-4.26-5.19-6.43-7.66-.57-.64-1.13-1.28-1.69-1.93l-1-1.14a68,68,0,0,1-8.05-10.48A107.17,107.17,0,0,0,190.59,114c-1.54-2-3.14-4.17-4.63-6.33-2.48-3.61-5.05-7.24-7.54-10.75l-3.91-5.54-5.26-7.5c-6.14-8.8-12.5-17.89-19.08-26.57a219.33,219.33,0,0,0-14.55-17.61c-.87-.93-1.72-1.88-2.58-2.82s-1.88-2.07-2.83-3.08a117.57,117.57,0,0,0-13.51-12c-.79-.62-2-1.54-1.89-2.89s1.14-2,2.3-2.65q3.45-2,6.92-4A8.88,8.88,0,0,1,127.78,11a17.08,17.08,0,0,0,5.12-1.65l1.21-.53c5.52-2.32,11.18-3.65,17.49-5a124.49,124.49,0,0,1,13.76-2l3.09-.33A165,165,0,0,1,188.07.63a14,14,0,0,0,2.31-.26,12.81,12.81,0,0,1,4.11-.2C198.14-.64,200.34,1.66,202,4c4.31,6.12,9.11,12.54,15,18,2.11,1.95,4.32,3.87,6.46,5.73q2.18,1.89,4.34,3.81c5.49,4.9,10,9.05,14,14.08a7.45,7.45,0,0,0,.73.77c4.61,4.21,8.25,9.26,11.78,14.16l.43.6a214,214,0,0,1,13.68,21.28c1.08,2,2.35,3.87,3.59,5.72,1.35,2,2.75,4.16,4,6.39,2.91,5.36,6.24,11.61,9.05,18a241.32,241.32,0,0,1,9,25.08c1,3.14,1.9,6.34,2.79,9.44s1.88,6.51,2.9,9.73a133,133,0,0,0,6.78,17.2c1.79,3.77,3.91,7.66,7.18,10.61a26.57,26.57,0,0,1,2.7,2.95c.45.54.89,1.08,1.35,1.59a40.74,40.74,0,0,0,15.81,10.49,4,4,0,0,1,2.87,4.24c0,6.22-2.59,11.51-4.85,15.43a185.9,185.9,0,0,1-11.44,17.14,31.42,31.42,0,0,1-5.86,6c-1.56,1.23-3.37,2.64-5.27,3.91A26.24,26.24,0,0,1,294.25,251.25ZM118.17,19.09c.1.08.22.19.38.3a122.41,122.41,0,0,1,13.84,12.33c1,1,1.92,2.07,2.87,3.12s1.69,1.87,2.55,2.79a224.11,224.11,0,0,1,14.76,17.85c6.61,8.72,13,17.84,19.14,26.66l5.25,7.5,3.91,5.52c2.49,3.52,5.07,7.17,7.57,10.79,1.45,2.11,3,4.2,4.55,6.23a110.31,110.31,0,0,1,7.45,10.76,66.27,66.27,0,0,0,7.71,10l1,1.15,1.68,1.91c2.21,2.51,4.5,5.11,6.57,7.83,3.73,4.88,7.33,10,10.82,14.89,1.1,1.55,2.19,3.1,3.3,4.64,4.56,6.4,9.35,12.77,14.24,19,2.26,2.85,4.63,5.71,6.92,8.47,2.08,2.52,4.24,5.12,6.32,7.73,2.7,3.38,5.55,6.75,8.31,10,1.95,2.29,4,4.67,5.91,7,.5.61,1,1.19,1.57,1.78a24.2,24.2,0,0,1,3.31,4.23,246,246,0,0,1,11.57,22.22c.44,1,.83,2,1.23,3l.19.45c.23.58.54.91,1.51,1,5,.4,9.82-1,14.76-4.31,1.8-1.2,3.56-2.57,5.07-3.76a28.09,28.09,0,0,0,5.3-5.44A183.21,183.21,0,0,0,329,217.81c2.2-3.82,4.45-8.45,4.45-13.93,0-.95-.1-1.11-1-1.45a43.66,43.66,0,0,1-16.94-11.26c-.49-.55-1-1.12-1.44-1.7a24.62,24.62,0,0,0-2.4-2.63c-3.66-3.3-5.95-7.5-7.88-11.55a137.41,137.41,0,0,1-6.93-17.58c-1-3.26-2-6.59-2.92-9.81s-1.8-6.27-2.77-9.37a239.63,239.63,0,0,0-8.89-24.77c-2.76-6.26-5.92-12.2-8.93-17.75-1.15-2.11-2.51-4.17-3.83-6.16S267,86,265.84,83.93a212.59,212.59,0,0,0-13.48-21l-.44-.61c-3.43-4.77-7-9.7-11.36-13.69a10,10,0,0,1-1.05-1.12c-3.88-4.84-8.31-8.9-13.69-13.71-1.43-1.28-2.87-2.53-4.31-3.79-2.16-1.87-4.38-3.81-6.53-5.79C208.87,18.59,204,12,199.56,5.76c-1.71-2.42-2.88-3.08-4.63-2.61l-.34.09-.34-.07a9.42,9.42,0,0,0-3.37.16,16,16,0,0,1-2.84.3,161.1,161.1,0,0,0-19.26.87l-3.1.33a125.62,125.62,0,0,0-13.44,1.91c-6.16,1.35-11.68,2.64-17,4.86l-1.17.51a19.6,19.6,0,0,1-6.06,1.9,6,6,0,0,0-2.53.8q-3.45,2-6.89,4Z"/><path class="cls-1" d="M372.79,225.2a10.15,10.15,0,0,0-2.44-6.78,19.31,19.31,0,0,0-2-6.58c-1.44-2.88-5.75-.35-4.32,2.52.22.44.4.86.57,1.29a2.62,2.62,0,0,0,.21,4.84c.26.09.51.19.74.29-.07,9.69-10.09,18.64-15.38,25.85-5,6.83-9.37,14.1-13.8,21.33-1.64,2.29-3.31,4.58-5,6.84-6.33,8.45-13.29,16.62-21.5,23.3-8.58,7-20.78,14.95-32.3,11.85-1.72-.46-3.76,1.23-3.08,3.07,3.92,10.55,20.78,3.37,27.48-.11,11.72-6.11,21-16.08,28.56-26.74,3.59-5.05,6.86-10.31,10.09-15.6,7.94-11.05,15.58-22.29,24.92-32.26C369,234.67,372.8,230.53,372.79,225.2Z"/><path class="cls-1" d="M167.18,280.25c-.59-1.9-3.6-2.64-4.57-.6-4.77,10-16.1,11.88-26,13.37l-18,2.65c-5.25.19-10.51.38-15.76.69a189.25,189.25,0,0,0-31.46,4c-3.35.77-7,2-10.78,2.89-2.38.1-4.76.14-7.14.07-2.53-.07-5.07-.22-7.58-.54a13,13,0,0,1-5-1.28l-.47-.38a7.66,7.66,0,0,1-1.16-1.37l2.15-1.48a2.53,2.53,0,0,0-1.26-4.66c-3.64-.41-6.34,3-6.1,6.49a6.26,6.26,0,0,0,2.12,4.33A3.88,3.88,0,0,0,39.39,307a2.43,2.43,0,0,0,1,0c6,3.21,12.83,2.78,19.56,1.37,9.21-.33,18.45-1.81,27.46-3.13l31.06-4.58c10.88-.33,21.85-.56,32.57-2.21C160,297.12,170.46,290.88,167.18,280.25Z"/></svg>