<svg id="Camada_1" data-name="Camada 1" xmlns="http://www.w3.org/2000/svg" viewBox="0 0 398.21 392.22"><defs><style>.cls-1{fill:#d8a800;}.cls-2{fill:#fbc435;}.cls-3{fill:#fbdc85;}.cls-4{fill:#fdfdfe;}</style></defs><title>Prancheta 12</title><path class="cls-1" d="M138.06,377.32a22.79,22.79,0,0,1,.16-5.15,13.45,13.45,0,0,0-.13-5.32c-.46-1.86.21-3.74.24-5.6.09-5,.25-10.05,0-15.06-.12-2.38.25-4.73.14-7.1,0-4.46,0-8.91,0-13.37,0-3.39-.22-6.78.09-10.15.29-3.09-.34-6.16,0-9.24.43-8.53-.31-17.08.49-25.62a32.19,32.19,0,0,1-.12-8.77c.36-2.36-.42-4.79-.2-7.13s.13-4.87.33-7.3c-.57-3.55.24-7.1,0-10.65-.07-1.19-.58-2.41.07-3.6,0-3-.35-6,.2-9,.11-.61-.32-1.28-.2-1.94l.07-12.43c-.54-2.74.55-5.45.2-8.18a11.09,11.09,0,0,1,.1-5.83,6.43,6.43,0,0,0,.37-2.7c-.62-1.33-.28-2.76-.64-4.14s.05-2.61-.38-3.89c.57-2.42.57-2.44,3.45-2.18,2,.18,3.93-.34,5.91-.3,4.55.08,9.13-.24,13.63-.12s8.85-.37,13.3-.07a27.2,27.2,0,0,0,7.73-.3,4,4,0,0,1,1.3-.05c6.16.48,12.32-.09,18.49,0,6.66.08,13.33,0,20-.33,2.38-.13,3.89.25,5,1.86L234,199l10.06,8.54,8.52,6.85c3,1.87,5.12,4.41,7.76,6.56,1.55,1.26,3.05,2.55,4.57,3.83,3.76,4.1,9.12,6.88,13.09,10.82a43.28,43.28,0,0,0,5.08,4.42c3.1,2.63,6.25,5.23,9.38,7.84l23,19a3.8,3.8,0,0,1,.41.49c2.21,1.42,3.86,3.29,5.8,4.92,5.29,4.46,10.67,8.84,16,13.26.51.43,1.2.75,1.32,1.43.3.06.77,0,.87.18,1.52,2.23,4.92,3,6.26,5.33.27.48.94.8,1.42,1.2q7.92,6.63,15.86,13.24a193.1,193.1,0,0,0,34.78-110.75C398.21,87.8,309.07,0,199.11,0S0,87.8,0,196.11c0,87.36,58,161.37,138.14,186.73.05-.42.11-.85.19-1.27A8.79,8.79,0,0,0,138.06,377.32Z"/><path class="cls-2" d="M308.35,360.08c-.5.05-1,.11-1.49.14-6.65.39-13.22,1.33-19.84,1.85-3.58.29-7.1.87-10.66,1.14-6.51.49-13,1.28-19.47,1.84-3.51.3-7,.85-10.47,1.1-6.73.47-13.39,1.31-20.09,1.92s-13.23,1.28-19.85,1.93-13.16,1.38-19.75,2c-3.38.3-6.72.79-10.1,1.09-6.67.59-13.31,1.42-19.95,2.19-3.35.39-6.69,1-10.05,1.14-2.9.15-5.71.69-8.57.93a8.79,8.79,0,0,1,.27,4.25c-.08.42-.14.85-.19,1.27a202.1,202.1,0,0,0,170.21-22.76Z"/><path class="cls-3" d="M325.33,319.35c-6.47.68-12.95,1.37-19.42,2-6.79.68-13.56,1.45-20.33,2.21q-9.7,1.08-19.44,2.06c-3.48.34-6.92,1.06-10.41,1.13-3.31.07-6.44.84-9.68,1.07-6.76.48-13.44,1.42-20.17,2.13-6.43.67-12.86,1.42-19.29,2.06-6.69.68-13.36,1.45-20,2.12-3.19.33-6.36.76-9.56,1-6.8.61-13.59,1.36-20.36,2.16-5.49.65-11,1.16-16.5,1.72a15.49,15.49,0,0,1-1.67,0c.11,2.37-.26,4.72-.14,7.1.26,5,.1,10,0,15.06,0,1.86-.7,3.74-.24,5.6a13.45,13.45,0,0,1,.13,5.32,22.79,22.79,0,0,0-.16,5.15c2.86-.24,5.67-.78,8.57-.93,3.36-.17,6.7-.75,10.05-1.14,6.64-.77,13.28-1.6,19.95-2.19,3.38-.3,6.72-.79,10.1-1.09,6.59-.59,13.17-1.32,19.75-2s13.22-1.32,19.85-1.93,13.36-1.45,20.09-1.92c3.5-.25,7-.8,10.47-1.1,6.5-.56,13-1.35,19.47-1.84,3.56-.27,7.08-.85,10.66-1.14,6.62-.52,13.19-1.46,19.84-1.85.5,0,1-.09,1.49-.14a199.09,199.09,0,0,0,48.36-44.14c-3.67.41-7.36.75-11,1.19C338.91,317.94,332.11,318.63,325.33,319.35Z"/><path class="cls-2" d="M346.15,292.42c-1.34-2.38-4.74-3.1-6.26-5.33-.1-.14-.57-.12-.87-.18a41.09,41.09,0,0,1-7.47.86,58.11,58.11,0,0,0-6.25.73c-5.59.53-11.21.9-16.78,1.55-5.21.6-10.44,1-15.66,1.59-6.52.71-13.06,1.29-19.6,1.9-6.95.65-13.88,1.39-20.84,2-3.25.26-6.44.88-9.69,1-7.59.33-15.06,1.52-22.63,2-5.73.36-11.4,1.4-17.13,1.75-4.48.27-8.87,1-13.34,1.23-5.61.34-11.16,1.25-16.76,1.72-7,.58-13.86,1.33-20.79,2-3.24.3-6.45.74-9.69,1-1.26.1-2.56,0-3.84.13-.34,3.08.29,6.15,0,9.24-.31,3.37-.09,6.76-.09,10.15,0,4.46,0,8.91,0,13.37a15.49,15.49,0,0,0,1.67,0c5.5-.56,11-1.07,16.5-1.72,6.77-.8,13.56-1.55,20.36-2.16,3.2-.28,6.37-.71,9.56-1,6.68-.67,13.35-1.44,20-2.12,6.43-.64,12.86-1.39,19.29-2.06,6.73-.71,13.41-1.65,20.17-2.13,3.24-.23,6.37-1,9.68-1.07,3.49-.07,6.93-.79,10.41-1.13q9.74-1,19.44-2.06c6.77-.76,13.54-1.53,20.33-2.21,6.47-.66,12.95-1.35,19.42-2,6.78-.72,13.58-1.41,20.35-2.22,3.67-.44,7.36-.78,11-1.19q3.5-4.44,6.72-9.08-7.94-6.62-15.86-13.24C347.09,293.22,346.42,292.9,346.15,292.42Z"/><path class="cls-3" d="M152.08,305.2c6.93-.65,13.84-1.4,20.79-2,5.6-.47,11.15-1.38,16.76-1.72,4.47-.28,8.86-1,13.34-1.23,5.73-.35,11.4-1.39,17.13-1.75,7.57-.48,15-1.67,22.63-2,3.25-.14,6.44-.76,9.69-1,7-.57,13.89-1.31,20.84-2,6.54-.61,13.08-1.19,19.6-1.9,5.22-.57,10.45-1,15.66-1.59,5.57-.65,11.19-1,16.78-1.55a58.11,58.11,0,0,1,6.25-.73,41.09,41.09,0,0,0,7.47-.86c-.12-.68-.81-1-1.32-1.43-5.33-4.42-10.71-8.8-16-13.26-1.94-1.63-3.59-3.5-5.8-4.92-5.45.64-10.95,1-16.42,1.28-4,.24-7.91.92-11.93.88-2.65,0-5.29.6-7.94.63-4.36.05-8.62.94-13,.89-2.39,0-4.79.56-7.19.62-4.49.11-8.89,1-13.42.91a43,43,0,0,0-5.14.52c-4.42.44-8.87.84-13.28,1-4.17.16-8.25,1-12.47.85-2.31-.1-4.66.64-7,.63-4.5,0-8.87,1-13.38.89a43.17,43.17,0,0,0-5.51.54c-4.3.4-8.62.82-12.91,1s-8.38,1-12.65.86c-2.32-.08-4.66.58-7,.61-4.43.06-8.77,1-13.23.87a32.9,32.9,0,0,0-4.4.42c-.8,8.54-.06,17.09-.49,25.62,1.28-.16,2.58,0,3.84-.13C145.63,305.94,148.84,305.5,152.08,305.2Z"/><path class="cls-2" d="M156.67,279.42c2.34,0,4.68-.69,7-.61,4.27.14,8.42-.69,12.65-.86s8.61-.59,12.91-1a43.17,43.17,0,0,1,5.51-.54c4.51.13,8.88-.9,13.38-.89,2.33,0,4.68-.73,7-.63,4.22.17,8.3-.69,12.47-.85,4.41-.18,8.86-.58,13.28-1a43,43,0,0,1,5.14-.52c4.53.13,8.93-.8,13.42-.91,2.4-.06,4.8-.64,7.19-.62,4.38,0,8.64-.84,13-.89,2.65,0,5.29-.65,7.94-.63,4,0,7.95-.64,11.93-.88,5.47-.32,11-.64,16.42-1.28a3.8,3.8,0,0,0-.41-.49l-23-19c-5.46.48-10.95.75-16.42,1.06-4.71.26-9.42.6-14.13.87-5.18.3-10.37.58-15.54,1-4,.33-8,.73-12,.8-3.49.06-6.89.78-10.3.7-4.65-.11-9.17.65-13.78.76-5.87.14-11.71.93-17.58,1.17-3.52.15-7,.64-10.49.77-6.64.25-13.25.81-19.87,1.22-7.22.45-14.45.75-21.65,1.43a8.92,8.92,0,0,1-1.62-.13c-.2,2.43-.09,4.86-.33,7.3s.56,4.77.2,7.13a32.19,32.19,0,0,0,.12,8.77,32.9,32.9,0,0,1,4.4-.42C147.9,280.44,152.24,279.48,156.67,279.42Z"/><path class="cls-3" d="M140.67,257.64c7.2-.68,14.43-1,21.65-1.43,6.62-.41,13.23-1,19.87-1.22,3.5-.13,7-.62,10.49-.77,5.87-.24,11.71-1,17.58-1.17,4.61-.11,9.13-.87,13.78-.76,3.41.08,6.81-.64,10.3-.7,4-.07,8-.47,12-.8,5.17-.43,10.36-.71,15.54-1,4.71-.27,9.42-.61,14.13-.87,5.47-.31,11-.58,16.42-1.06-3.13-2.61-6.28-5.21-9.38-7.84a43.28,43.28,0,0,1-5.08-4.42,31,31,0,0,1-6.23.63c-6.62.22-13.22.8-19.83,1-5.23.18-10.44.54-15.66.82-5.41.29-10.84.64-16.24.88-4.22.18-8.41.81-12.69.6-2.75-.14-5.56.61-8.33.56-4.27-.09-8.44.75-12.72.6-2.33-.08-4.69.51-7,.49-5.19,0-10.34.51-15.49.78-5.62.29-11.26.44-16.86,1-2.57.26-5.19.2-7.78.28-.65,1.19-.14,2.41-.07,3.6.23,3.55-.58,7.1,0,10.65A8.92,8.92,0,0,0,140.67,257.64Z"/><path class="cls-2" d="M163.77,242c5.15-.27,10.3-.82,15.49-.78,2.34,0,4.7-.57,7-.49,4.28.15,8.45-.69,12.72-.6,2.77,0,5.58-.7,8.33-.56,4.28.21,8.47-.42,12.69-.6,5.4-.24,10.83-.59,16.24-.88,5.22-.28,10.43-.64,15.66-.82,6.61-.24,13.21-.82,19.83-1a31,31,0,0,0,6.23-.63c-4-3.94-9.33-6.72-13.09-10.82-5,.35-10,.59-15,.88-5.73.33-11.46.64-17.18,1q-7.65.51-15.31.93c-4.89.27-9.79.58-14.68.88-5.28.34-10.58.63-15.86,1-4.43.28-8.88.66-13.34.78-5.44.13-10.85.85-16.29,1-4.94.14-9.82.9-14.78.78a25.08,25.08,0,0,0-3.32.34c-.12.66.31,1.33.2,1.94-.55,3-.19,6-.2,9,2.59-.08,5.21,0,7.78-.28C152.51,242.43,158.15,242.28,163.77,242Z"/><path class="cls-3" d="M157.23,231.23c5.44-.15,10.85-.87,16.29-1,4.46-.12,8.91-.5,13.34-.78,5.28-.34,10.58-.63,15.86-1,4.89-.3,9.79-.61,14.68-.88q7.65-.42,15.31-.93c5.72-.38,11.45-.69,17.18-1,5-.29,10-.53,15-.88-1.52-1.28-3-2.57-4.57-3.83-2.64-2.15-4.79-4.69-7.76-6.56-4.79.48-9.63.51-14.43.72s-9.34.75-14.06.58c-2.64-.09-5.31.6-8,.55-4.45-.09-8.82.79-13.27.56a43.55,43.55,0,0,0-4.82.28c-8.28.48-16.56,1.08-24.84,1.35-3.53.12-7,.53-10.51.59-7,.14-13.93.58-20.88,1a25.22,25.22,0,0,1-2.6-.1l-.07,12.43a25.08,25.08,0,0,1,3.32-.34C147.41,232.13,152.29,231.37,157.23,231.23Z"/><path class="cls-3" d="M140.37,211.41c7.16.07,14.3-.69,21.43-.7,4.18,0,8.28-.78,12.52-.36,2.8.27,5.77-.53,8.68-.45,3.53.09,7-.58,10.5-.48,4.83.14,9.62-.33,14.42-.48,5.46-.17,11-.45,16.41-.65,4.77-.17,9.55-.71,14.36-.45a48.3,48.3,0,0,0,5.36-.31L234,199c-3.72.67-7.52.18-11.27.58-5,.53-10.15.56-15.21.71-4.12.11-8.22.65-12.38.5-2.58-.1-5.2.47-7.78.4-4.51-.13-8.95.65-13.45.49-2.1-.08-4.21.21-6.32.32-4.55.26-9.12.56-13.66.64-4.7.09-9.35.68-14,.58a6.43,6.43,0,0,1-.37,2.7,11.09,11.09,0,0,0-.1,5.83C139.61,211.41,140,211.4,140.37,211.41Z"/><path class="cls-2" d="M141.8,220c6.95-.43,13.9-.87,20.88-1,3.5-.06,7-.47,10.51-.59,8.28-.27,16.56-.87,24.84-1.35a43.55,43.55,0,0,1,4.82-.28c4.45.23,8.82-.65,13.27-.56,2.65.05,5.32-.64,8-.55,4.72.17,9.38-.39,14.06-.58s9.64-.24,14.43-.72l-8.52-6.85a48.3,48.3,0,0,1-5.36.31c-4.81-.26-9.59.28-14.36.45-5.46.2-11,.48-16.41.65-4.8.15-9.59.62-14.42.48-3.48-.1-7,.57-10.5.48-2.91-.08-5.88.72-8.68.45-4.24-.42-8.34.36-12.52.36-7.13,0-14.27.77-21.43.7-.37,0-.76,0-1,.33.35,2.73-.74,5.44-.2,8.18A25.22,25.22,0,0,0,141.8,220Z"/><path class="cls-2" d="M153.92,202.63c4.54-.08,9.11-.38,13.66-.64,2.11-.11,4.22-.4,6.32-.32,4.5.16,8.94-.62,13.45-.49,2.58.07,5.2-.5,7.78-.4,4.16.15,8.26-.39,12.38-.5,5.06-.15,10.17-.18,15.21-.71,3.75-.4,7.55.09,11.27-.58l-6.33-5.32c-5.27.19-10.55.11-15.82.28-3.69.12-7.43.43-11.08.24-4.65-.25-9.25.16-13.85.2-5.82.06-11.66,0-17.48.39-2.93.22-5.91,0-8.87.05-7.23.21-14.48.25-21.71.35.43,1.28.06,2.64.38,3.89s0,2.81.64,4.14C144.57,203.31,149.22,202.72,153.92,202.63Z"/><path class="cls-3" d="M169.43,194.78c5.82-.43,11.66-.33,17.48-.39,4.6,0,9.2-.45,13.85-.2,3.65.19,7.39-.12,11.08-.24,5.27-.17,10.55-.09,15.82-.28-1.14-1.61-2.65-2-5-1.86-6.64.35-13.31.41-20,.33-6.17-.07-12.33.5-18.49,0a4,4,0,0,0-1.3.05,27.2,27.2,0,0,1-7.73.3c-4.45-.3-8.86.18-13.3.07s-9.08.2-13.63.12c-2,0-3.91.48-5.91.3-2.88-.26-2.88-.24-3.45,2.18,7.23-.1,14.48-.14,21.71-.35C163.52,194.75,166.5,195,169.43,194.78Z"/><path class="cls-4" d="M243.52,298.28a97.12,97.12,0,0,0-15.14-70,111.23,111.23,0,0,0,2.67-51.75,50.57,50.57,0,0,1,7.18,7.23q2.28,4.32,4.94,8.44a81.32,81.32,0,0,1,6.34,28.6,19.91,19.91,0,0,0-2.11,3.84.66.66,0,0,0-.12.22c-.33.93-.65,1.86-1,2.79a.66.66,0,0,0,0,.3c-.06.13-.13.26-.19.4-.36.82.83,1.55,1.2.71.46-1,.95-2,1.45-3.06a17.48,17.48,0,0,0-.68,3.82c-.09,1.61-.08,5,1.42,6.32a1.46,1.46,0,0,0,1.05.66h.21a.57.57,0,0,0,.93,0,15.32,15.32,0,0,0,2.2-15.88c2-12.75,1.73-26.8-2.53-38.82a30.13,30.13,0,0,0-1.71-4.73,27.61,27.61,0,0,0-7.31-13.69.65.65,0,0,0-.23-.15,13.73,13.73,0,0,0-3.89-3.89,25,25,0,0,0-14.59-7.92l-.75-.36a15.69,15.69,0,0,1-2-3.22,7.61,7.61,0,0,1-.63-1.75,11.38,11.38,0,0,1-.4-4.34c.24-.91.45-1.82.67-2.73a7.76,7.76,0,0,0,2.6-1.5c2.94-1.46,5.12-4.26,7.07-7.22a27.31,27.31,0,0,0,3-6,.37.37,0,0,0,.15,0c4.64.61,5.42-6.94,6.25-10.09.34-1.3.74-3.06-.72-3.78a2.22,2.22,0,0,0-2.53.42,27.69,27.69,0,0,0-.95-7,25.38,25.38,0,0,0-3.69-11.5,1.33,1.33,0,0,0-.91-.65,3.89,3.89,0,0,0-.32-.39,20.08,20.08,0,0,0-8.38-8.85c-.45-.26-.91-.49-1.36-.71a3.23,3.23,0,0,0-3-1.12c-11.51-3.26-21.54,6.53-25.9,17.44A40.71,40.71,0,0,0,189,113.42c-.33-1.12-1-2.18-2.31-1.77-2.29.74-1.54,5-1.29,6.65a27.43,27.43,0,0,0,1,4.94,3.33,3.33,0,0,0-.1.55,2.31,2.31,0,0,0,2.3,2.35,2.42,2.42,0,0,0,2.73-.4A22,22,0,0,0,202,137.2a15.61,15.61,0,0,0,5.62,2.68,22.36,22.36,0,0,1-.15,5.85c0,2.36-.62,4.55-3,5.5a8.76,8.76,0,0,1-2.54,1.43c-2.59,1-5.26,1.35-7.8,2.52a26,26,0,0,0-6.91,4.69,1.37,1.37,0,0,0-.45,0,1.74,1.74,0,0,1-.11.18c-.11.13-.22.24-.33.36a.64.64,0,0,1-.08.14c-.11.12-.23.22-.34.32s-.19.19-.29.29c-.31.37-.61.74-.91,1.12l-.82,1.25c-.55.72-1.09,1.46-1.59,2.23a1.35,1.35,0,0,0-.22.76,98.16,98.16,0,0,0-13.21,56.88c-.08.83-.15,1.66-.2,2.5-1.49,4.18-1.39,9.21,3.22,11.24l.11,0a2.54,2.54,0,0,0,2.77-.48c2.77-2,1.63-5.56-.26-8.49a3.59,3.59,0,0,1,1.85,1.17c.54.71,1.75,0,1.2-.72a13,13,0,0,0-5.3-4.2,4,4,0,0,1-.11-.5c.67-2.66,1.38-5.31,2.11-7.95a.7.7,0,0,0,.19-.3c.31-1,.66-2.06,1-3.09q1.59-3.48,3-7,1.62-3.39,3-6.87a.57.57,0,0,0,.33-.32l9.51-21.74a8,8,0,0,1,1.15-.54,1.21,1.21,0,0,1,.24.83,96.67,96.67,0,0,0,.49,11.54,1.19,1.19,0,0,1-.3.93,202.82,202.82,0,0,1,1.08,29.18s0,0,0,.08a.7.7,0,0,0-.14.58c.08.39.13.79.2,1.18l-.06,1.23c-.07.66-.11,1.31-.16,2L190,239.45c-.58,2-1.08,4-1.51,6l-4.14,13.42a.59.59,0,0,0-.36.45c-.3,1.29-.62,2.58-.94,3.86l-3,8.38c-.33.52-.65,1-1,1.53a1.16,1.16,0,0,1,0,.18,131,131,0,0,0-7.77,14.37,23.32,23.32,0,0,1-2.38,3.16c-.94,4.06-1.69,9.69,0,13.14a4.9,4.9,0,0,0,5.51,3.43,3.32,3.32,0,0,0,4-1.81,6.6,6.6,0,0,0,.29-4.75c0-.48,0-1,0-1.44q.48-3,.75-5.94a.63.63,0,0,0-.09-.38,9.73,9.73,0,0,1,1.09-1.9l.36-.3a1.33,1.33,0,0,1,.1-.28,8.61,8.61,0,0,1,.78-.82.57.57,0,0,0,.2-.37c3.32-3.46,6.24-7.3,9.49-10.82,1.61-2.38,3.15-4.8,4.6-7.28a1.47,1.47,0,0,1,.08-.44,111.56,111.56,0,0,1,7.18-17,61.3,61.3,0,0,1,3.46-6.13.54.54,0,0,0,.46-.1c2-1.33,4.19-3,6.59-3.32a7.61,7.61,0,0,1,5.24,1.17c2.19,3.61,4.28,7.28,6.2,11,0,.26.11.52.16.78a6.81,6.81,0,0,1,.28.7.67.67,0,0,0-.12.61l10.95,42.48c.11,1.46.14,2.93.13,4.39a7.22,7.22,0,0,0,1.88,1.78,1.24,1.24,0,0,1,.55.78,8.16,8.16,0,0,0,3.54.12,16.83,16.83,0,0,0,3.09-.57c1.31-.95,2.61-1.94,3.86-3,1.8-1.51,4.86-3.51,4.8-6.25C254.2,292.88,247.22,296.31,243.52,298.28Z"/><path class="cls-1" d="M204.11,109.82a1.61,1.61,0,0,0-1.79-.08,1.71,1.71,0,0,0-1.19,1.07,2.15,2.15,0,0,0,.69,3.4.67.67,0,0,0,.28.14,1.57,1.57,0,0,0,.3.05,1,1,0,0,0,.18.1,2,2,0,0,0,2.47-1.59A3.13,3.13,0,0,0,204.11,109.82Z"/><path class="cls-1" d="M226.14,111.07a2,2,0,0,0-2.18-1.54,2.5,2.5,0,0,0-1.57,3.9,2.3,2.3,0,0,0,.57.51,1.69,1.69,0,0,0,1,.46,1.89,1.89,0,0,0,.35.17.55.55,0,0,0,.77-.37,2,2,0,0,0,.54-.38A2,2,0,0,0,226.14,111.07Z"/><path class="cls-1" d="M221,122.45a14,14,0,0,1-16.06,1,.7.7,0,0,0-.7,1.22,15.3,15.3,0,0,0,17.47-1C222.44,123.14,221.75,121.9,221,122.45Z"/><path class="cls-1" d="M214.92,116.37a2.49,2.49,0,0,1-3.32.14c-.72-.54-1.42.69-.71,1.23a3.86,3.86,0,0,0,5-.36A.7.7,0,0,0,214.92,116.37Z"/><path class="cls-2" d="M241.94,97.2c1.37-.35,2.28-1.1,2.22-2.51-.09-2-2.6-3-4-3.77a42.21,42.21,0,0,0-7.6-3,12.78,12.78,0,0,0,2.4-1.29c1-.77,1.59-1.77,1.32-2.6a1.14,1.14,0,0,0-.06-.25,3.17,3.17,0,0,0,.12-.41.85.85,0,0,0,0-.16.76.76,0,0,0-.69-.87l-12.88-.27a19.15,19.15,0,0,0-8.94-1.58c2.34-1.73,5.88-4.77,4-5.88a1.17,1.17,0,0,0-.48-.15.69.69,0,0,0-1,0l-.85.71c-.59.4-1.14.88-1.51,1.16-.58.46-1.12,1-1.64,1.45l-3.43,2.84a6.53,6.53,0,0,1-2.28.37,46.51,46.51,0,0,0-4.71-2.3,2.18,2.18,0,0,0-2,.15.68.68,0,0,0-.53.86c-.39,1.72,2,2.64,4.16,3.1-.22.07-.45.13-.66.22l-.22.06a.7.7,0,0,0-.54-.37c-8.07-.94-14.7,5.11-14.91,13.22l0,0A12.38,12.38,0,0,0,182,99.23a2.66,2.66,0,0,0-.08,1.87l.31.06a1.12,1.12,0,0,0,.18.28,7.23,7.23,0,0,0,2.28,12.08.71.71,0,0,0,.86-.5l0-.13a.82.82,0,0,0,.72-.64l.24-.22a7.16,7.16,0,0,0,1.24.81v.22a.63.63,0,0,0,.76.67l.12.64a.66.66,0,0,0,.84.47c.16.38.32.76.44,1.15a.7.7,0,0,0,1.34-.38,13.18,13.18,0,0,0-1.44-3.17l-.28-2.65a.65.65,0,0,0-.12-.32c.06-.45.1-.9.13-1.35a23.89,23.89,0,0,0,12.88-2.49c2.52-1.28,5.71-3.36,7.24-6.1.82-.71,1.6-1.51,2.26-2.2-.19,2.5-.19,6.22,1.89,6.67,2.28.5,4-3.22,4.83-5.61l.19-.21a40,40,0,0,0,7,5.1c1.7,1,4.17,2.55,6.34,2.74l.1,0a3.59,3.59,0,0,0,.66,0H233a3.23,3.23,0,0,0,.9-.2,12.4,12.4,0,0,1,1.45,3.12,15,15,0,0,1-.51,5,.7.7,0,0,0,1.34.38c.07-.25.13-.49.19-.73a.74.74,0,0,0,.91-.68c0-.18,0-.35,0-.53a3.37,3.37,0,0,1,.42-.9,2,2,0,0,0,1.36-.19l.12.15a1.85,1.85,0,0,0,.88,1.16c-.16.45-.31.91-.44,1.39a.71.71,0,0,0,1,.8l.17-.11a.59.59,0,0,0,.93,0,16.9,16.9,0,0,0,1-1.45c.07-.07.13-.15.2-.23a.63.63,0,0,0,.42-.53,7.72,7.72,0,0,0,1.37-4.55A14.15,14.15,0,0,0,241.94,97.2Z"/><path class="cls-2" d="M204.85,138.16a26.67,26.67,0,0,1-7.81-4.61.72.72,0,0,0-.16-.28l-5.76-6.47A.64.64,0,0,0,190,127a.72.72,0,0,0-.49.33.69.69,0,0,0-1.34.23c0,2.26-.6,13.91,4.72,11.77,1.05-.43,1.15-1.4,2.37-1.47,1.4-.09,1.9,1.25,3,2.12a11.09,11.09,0,0,0,6.29,2.38c1.36.47,2.68.62,3.44-.19C210.08,140,206.1,138.64,204.85,138.16Z"/><path class="cls-2" d="M237.67,124.84c.07-.81-1-.89-1.31-.27a.67.67,0,0,0-.63-.17,4.13,4.13,0,0,0-.41.1.92.92,0,0,0-.31.07l-2.26,1.07s-.05,0-.08,0l-.17.06a3.24,3.24,0,0,0-1.25,1.46.65.65,0,0,0-.2.28l-.28.84-.18.44a19.89,19.89,0,0,1-9.6,10.5.69.69,0,0,0-.35.61.68.68,0,0,1,0,.14h0c-.68.38-.21,1.59.53,1.3h0c.94,1,2.82.3,4.14-.38a26.41,26.41,0,0,0,8-6.57,1.82,1.82,0,0,0,2.21.6C239,133.81,237.46,127.32,237.67,124.84Z"/><path class="cls-4" d="M210.31,144.47l-.39-6a.71.71,0,0,0-1.26-.41.68.68,0,0,0-1.29.32c0,.12,0,.23,0,.35a.36.36,0,0,0,0,.11,66.28,66.28,0,0,0,.31,7,.74.74,0,0,0,.84.67v0a.7.7,0,0,0,1.39,0v-.53a.66.66,0,0,0,.48-.65c0-.21,0-.42,0-.63A.75.75,0,0,0,210.31,144.47Z"/><path class="cls-4" d="M191.92,125a3.28,3.28,0,0,1-.79.36.77.77,0,0,0-1-.86,1.87,1.87,0,0,1-1.78,0,3.58,3.58,0,0,1-.52-.77s0-.05,0-.07a3,3,0,0,1,.3-1.82c.42-.8-.78-1.52-1.2-.71,0,.07-.07.16-.11.24-.15-.78-.24-1.53-.31-2-.11-.82-.23-1.64-.34-2.47-.07-.49-.13-1-.18-1.5a.7.7,0,0,0,.61-.57.83.83,0,0,1,.65.63.67.67,0,0,0,1.14.06c0,.1.08.2.11.3a17.5,17.5,0,0,1,.86,3.44c.14.9,1.48.51,1.34-.38-.33-2.12-1-6.24-3.56-6.8a1.93,1.93,0,0,0-2.34,1.75c-.63,1.17,0,3.15.14,4.27a18.67,18.67,0,0,0,1.61,6.21,3.74,3.74,0,0,0,1.22,2,3.8,3.8,0,0,0,5.08-.23C193.34,125.56,192.59,124.56,191.92,125Z"/><path class="cls-4" d="M238.61,112a.68.68,0,0,0-1.05-.12,9.58,9.58,0,0,0-2.84,6.18c-.07.91,1.32.9,1.39,0a8,8,0,0,1,.7-2.68.68.68,0,0,0,1.24.14,5.62,5.62,0,0,0,.59-1.58c.78.22,1,.73.59,1.55,0,.13-.11.25-.16.38a.71.71,0,0,0-.34.41c-.11.34-.25.76-.41,1.22-.13.24-.26.49-.4.73a3.18,3.18,0,0,1,.09-.33c.28-.87-1.07-1.24-1.35-.38a16.3,16.3,0,0,0-.53,3.16,8.83,8.83,0,0,1-2.07,1.59c-.79.43-.09,1.66.7,1.23.23-.13.44-.28.65-.42a3.3,3.3,0,0,1-1.9,1,1,1,0,0,1-.21-.09c.12-.47.23-1,.32-1.43.17-.89-1.17-1.28-1.34-.38,0,.07,0,.13,0,.19a.68.68,0,0,0-.77.68,2.27,2.27,0,0,0,.08.65.56.56,0,0,0-.68.5,12.56,12.56,0,0,1-3.71,7.42c-.31.28-.62.57-.95.84-.7.57.29,1.56,1,1a12.2,12.2,0,0,0,1-.89,17.92,17.92,0,0,0,4.65-7.1,4.7,4.7,0,0,0,.53,0,2.71,2.71,0,0,0,2-.33,3.59,3.59,0,0,0,1.44-1.64,17.63,17.63,0,0,0,2.64-5.14,7.44,7.44,0,0,0,1.29-4.13A2.48,2.48,0,0,0,238.61,112Z"/><path class="cls-4" d="M234.92,160.53a38.88,38.88,0,0,0-8.7-8.24c-1.87-1.27-4.18-2.27-5.3-4.39-1.58-3-.51-6.54.33-9.54a.7.7,0,0,0-1.34-.38c-1.18,4.18-2.19,9.06,1.19,12.48,1.53,1.54,3.65,2.48,5.39,3.74a37.81,37.81,0,0,1,7.45,7.34C234.5,162.25,235.47,161.24,234.92,160.53Z"/></svg>