<svg id="Camada_1" data-name="Camada 1" xmlns="http://www.w3.org/2000/svg" viewBox="0 0 398.21 392.22"><defs><style>.cls-1{fill:#d8a800;}.cls-2{fill:#fdfdfe;}.cls-3{fill:#f7de7f;}.cls-4{fill:#f9c434;}</style></defs><title>Prancheta 22</title><ellipse class="cls-1" cx="199.11" cy="196.11" rx="199.11" ry="196.11"/><path class="cls-2" d="M361.77,254.79c-.31-2.56-2.44-4.84-5.41-3.62l-.26.1a4.27,4.27,0,0,0-1.25.46c-7.58,2.54-16.45,1.36-24.16.22a4.49,4.49,0,0,0-3.83,1.29c-3.21-.71-6.41-1.69-9.7-1.44a4.15,4.15,0,0,0-1.17.26c-1.47-.17-2.93-.35-4.38-.58a134.15,134.15,0,0,1-17-3.46c-1.79-.68-3.57-1.44-5.41-2.27a14.3,14.3,0,0,0-8-1.32c-9.6-3.25-20.25-.46-29.31,3.27a44.58,44.58,0,0,0-4.86,2.36c-.5.42-1,.82-1.51,1.23a86.29,86.29,0,0,1-7.68,6.88,1.4,1.4,0,0,1-.4.31l-.94.73a20.43,20.43,0,0,1-3.34,2.83,72.92,72.92,0,0,1-7.51,6.84c-4.5,3.47-9.7,6.11-14.47,9.25a20,20,0,0,0-2.65,1.46,13.19,13.19,0,0,0-2.17.52,7.5,7.5,0,0,0-3.26,2.17c-5.92-.29-11.84-.37-17.77-.17a3.66,3.66,0,0,0-1.65.47,82.7,82.7,0,0,1-8.12-3.62A31.55,31.55,0,0,0,157,271.09c-3.77-.24-8.89.9-10.86,4.32l-.12,0c-5.68-.72-10.86-1.37-16.13,1.36a3.71,3.71,0,0,0-.86.62,4.82,4.82,0,0,0-2.62,5.15,1.94,1.94,0,0,1,.33.2l.35.26a36.57,36.57,0,0,1,3.45,2.33,1.3,1.3,0,0,1,.4.5c.93.17,1.85.33,2.78.52a4.56,4.56,0,0,0,1.68,1.74L153,298.83c5,3.48,9.85,7.16,14.71,10.8a4.18,4.18,0,0,0,1.74,1.38l.31.14,1.81,1.35a1.08,1.08,0,0,1,.46.06c1.82.64,3.77.59,5.59,1.24l.11-.05a49.7,49.7,0,0,0,8.05,1.05,4.11,4.11,0,0,0,3.7,1.91l4.61,0a4,4,0,0,0,2.53,1.7,33.79,33.79,0,0,0,10.69.34,4,4,0,0,0,1.75.92,1.63,1.63,0,0,1,1.18-.31c-.25,0,.23,0,.28,0a5.79,5.79,0,0,1,.72,0,1,1,0,0,1,.38.14c2-.54,4-1.11,5.93-1.68a4.28,4.28,0,0,0,2.47.69,71.91,71.91,0,0,0,9.51-.81l.51.08a30.78,30.78,0,0,0,19.39-4.53,14.3,14.3,0,0,0,6.61-3.67,4.35,4.35,0,0,0,2.24-1.22,22.22,22.22,0,0,1,5.43-3.78,4.47,4.47,0,0,0,1.48-.33q8-3.24,16-6.52a4,4,0,0,0,4.22-.2,32.21,32.21,0,0,1,3.4-1.86,3.47,3.47,0,0,0,1.07.09,11.51,11.51,0,0,0,4.88-1.48l0,0,2.94-.36a4.18,4.18,0,0,0,4.3,1.16c6.58-1.81,13.49.65,20.18.22a31.93,31.93,0,0,0,3.9-.57,2.78,2.78,0,0,0,.43.31c6.19,4,16.61,2.58,22.37-1.7a14.46,14.46,0,0,0,4.6-6.19,28.18,28.18,0,0,0,7.43-11.48A18.75,18.75,0,0,0,361.77,254.79Z"/><path class="cls-2" d="M39.19,112.79c-.29,2.5,1.24,5.14,4.4,4.64l.27,0a4.44,4.44,0,0,0,1.31-.16c7.92-.71,16.23,2.4,23.42,5.2a4.51,4.51,0,0,0,4-.37c2.94,1.4,5.81,3,9,3.55a4.32,4.32,0,0,0,1.19,0c1.38.49,2.76,1,4.1,1.53a133.49,133.49,0,0,1,15.6,7.07c1.57,1.05,3.12,2.17,4.71,3.37a14.44,14.44,0,0,0,7.47,3.05c8.52,5.23,19.47,5,29.1,3.46a41.6,41.6,0,0,0,5.24-1.15l1.75-.83a88.5,88.5,0,0,1,9-4.8,1.4,1.4,0,0,1,.46-.2l1.08-.48a21,21,0,0,1,3.88-1.94,74.65,74.65,0,0,1,8.86-4.8c5.14-2.28,10.79-3.61,16.13-5.52a20.84,20.84,0,0,0,2.91-.79,13.58,13.58,0,0,0,2.21,0,7.47,7.47,0,0,0,3.65-1.32q8.49,2.4,17.15,4.14a3.8,3.8,0,0,0,1.71-.08,84.6,84.6,0,0,1,7,5.24A31.24,31.24,0,0,0,241,143.19c3.6,1.06,8.81,1.13,11.51-1.66l.11,0c5.32,2,10.18,3.73,15.91,2.32a3.73,3.73,0,0,0,1-.4,4.71,4.71,0,0,0,3.72-4.29,2.17,2.17,0,0,1-.27-.26l-.28-.32a36,36,0,0,1-2.8-3,1.18,1.18,0,0,1-.26-.56c-.86-.37-1.72-.73-2.57-1.11a4.44,4.44,0,0,0-1.23-2l-14.5-14.13c-4-4.42-7.87-9-11.73-13.53a4,4,0,0,0-1.35-1.7l-.27-.2-1.44-1.68a1.08,1.08,0,0,1-.43-.16c-1.61-1-3.51-1.41-5.12-2.44l-.12,0a49.36,49.36,0,0,0-7.53-2.8,4.1,4.1,0,0,0-3.15-2.64l-4.45-1a3.87,3.87,0,0,0-2.06-2.17,34,34,0,0,0-10.25-2.73,4.07,4.07,0,0,0-1.49-1.26,1.63,1.63,0,0,1-1.21,0c.24.09-.23,0-.27,0a4.18,4.18,0,0,1-.69-.2.87.87,0,0,1-.34-.22q-3.06.1-6.12.27A4.24,4.24,0,0,0,191,84.15a72.75,72.75,0,0,0-9.39-1.36,3.85,3.85,0,0,0-.47-.19,31.13,31.13,0,0,0-19.8,0,14.55,14.55,0,0,0-7.25,2,4.43,4.43,0,0,0-2.45.65,22.34,22.34,0,0,1-6.12,2.37,4.45,4.45,0,0,0-1.51,0l-17,2.6A4,4,0,0,0,123,89.4a32.94,32.94,0,0,1-3.72,1,3.84,3.84,0,0,0-1-.32,11.58,11.58,0,0,0-5.07.31h0l-2.93-.32a4.11,4.11,0,0,0-3.88-2c-6.79.24-12.9-3.64-19.47-4.73a31.63,31.63,0,0,0-3.9-.34l-.34-.39c-5.07-5.17-15.47-6.16-22-3.4A14.48,14.48,0,0,0,54.68,84a28.06,28.06,0,0,0-9.85,9.22A18.07,18.07,0,0,0,39.19,112.79Z"/><path class="cls-3" d="M361.73,250.69a1,1,0,0,0-1-.69c-21.42,1.69-43.46,3.27-64.2-3.37a1.37,1.37,0,0,1-.28,0,8.89,8.89,0,0,1-.89-.07l-.14,0a5.4,5.4,0,0,1-.88-.15,3.43,3.43,0,0,1-.86-.34s0,0,0,0c-13.43-3.88-28.16-6.36-41.25-.09a34.17,34.17,0,0,0-4.85,2.87,1.33,1.33,0,0,1-.39.54q-1,.81-2,1.59a83.83,83.83,0,0,1-7.64,6.84,1.38,1.38,0,0,1-.42.33l-.52.4c-4.57,4.49-9.2,8.88-15.06,11.44a1.4,1.4,0,0,1-.52.32c-.82.29-1.58.72-2.37,1.08-.1.06-.19.13-.29.18h0l-.33.16a1.52,1.52,0,0,0,0,.21,148.81,148.81,0,0,0-16.09,9.08,1.11,1.11,0,0,0-.17-.3,1.05,1.05,0,0,1-.31,0h-.2l-.05,0a1.26,1.26,0,0,1-.69,0,6.08,6.08,0,0,1-1.9.07c-.09,0-.17,0-.25,0h0a12,12,0,0,1-3.77.47A26.77,26.77,0,0,1,180,279.36c-4.12-1.8-7.9-4.28-11.95-6.24a25.18,25.18,0,0,0-18.35-1.89c-.18.1-.36.19-.54.31a1.36,1.36,0,0,1-.78.2,1.18,1.18,0,0,1-.31.27l-.61.39c-.36.38-.74.74-1.14,1.09a1.24,1.24,0,0,1-.84.89,2.87,2.87,0,0,1-.38.08,1.11,1.11,0,0,1-.65.2,2.57,2.57,0,0,1-.7-.11,4.15,4.15,0,0,1-2.1.12h0a50.1,50.1,0,0,0-15.17,1.51c-2.08,1.08-3.12,4-1.2,5.67l.45.27a1.43,1.43,0,0,1,.53.28l.36.25c.63.39,1.25.78,1.86,1.2l.26.15,0,0c.44.31.88.61,1.31.94a1.43,1.43,0,0,1,.29.33c7.52,4.35,15,8.8,21.68,14.41a116.48,116.48,0,0,0,14.15,10.72,5,5,0,0,0,1.18.71,11,11,0,0,1,2.3.65l.91.18.62.19a1.28,1.28,0,0,1,.33.06c1.9.68,4,.59,5.84,1.33a1.13,1.13,0,0,1,.67.63,152.74,152.74,0,0,0,23.09,4.53c2.56.26,5.12.4,7.67.46a1.81,1.81,0,0,1,1-.17c-.26,0,.22,0,.27,0a4.36,4.36,0,0,1,.72.05.93.93,0,0,1,.46.18c6,0,12-.38,18-.85,7.25,1.49,14.45-.89,20.9-4.33,9-4.78,17.17-10.24,26.83-13.65a100.35,100.35,0,0,1,28.94-5.62c9.37-.4,18.64.79,27.88,2.2q1.47.43,3,.75l.15,0,0,0c.21,0,.43.08.65.1a2.24,2.24,0,0,1,.86.28l.23.05c-.21-.12-.08-.05.12,0h.42a4.44,4.44,0,0,1,.65.08,8.81,8.81,0,0,0,2.5-.5.87.87,0,0,0,.57-.22,23.74,23.74,0,0,0,5.9-4,54.77,54.77,0,0,0,9.9-10.56c4.64-6.7,7-15,5.29-22.9a.84.84,0,0,0,.07-.51A39.56,39.56,0,0,0,361.73,250.69ZM149.26,273.33a20.6,20.6,0,0,1,11.1-.91c4.59,1,8.69,3.42,12.75,5.66,8,4.4,15.95,6.92,24.94,4.68a5.46,5.46,0,0,0,.57,0,4,4,0,0,0,.49,0c-3.8,2.52-7.6,5.24-10.12,9.07a.83.83,0,0,0-.15.37c-6.58.83-12.59-2.54-17.91-6.1-5.07-3.4-10-6.75-15.78-8.79a48,48,0,0,0-8.46-2.11A23.32,23.32,0,0,0,149.26,273.33Zm212-17.7,0,0a3.88,3.88,0,0,1,.15.36l.26.8a3.27,3.27,0,0,1,.13,1.38c0,.17.07.35.11.53l0,.11h0c.06.29.12.58.17.88a2.1,2.1,0,0,1,0,.79c1.56,7-.38,14.37-4.33,20.49a47.69,47.69,0,0,1-7.7,8.9c-2.13,2-4.91,4.79-7.95,5.91a20.77,20.77,0,0,1-4.86-.06l-.95-.2a3.47,3.47,0,0,1-.38-.29l-1.69-.26c-.37-.11-.73-.22-1.1-.35a5.42,5.42,0,0,1-1.39-.19l-.11,0h0l-.16,0a1.07,1.07,0,0,0-.25.16,140.76,140.76,0,0,0-22.91-1.86A101.71,101.71,0,0,0,281,297a110.55,110.55,0,0,0-25.33,11.54c-7,4.2-14.64,8.66-22.83,8.29a.9.9,0,0,0-.2-.34l-1.37-.1a1.52,1.52,0,0,1-.53-.12l-1.36.11-.09,0a4.12,4.12,0,0,1-2.36.29l-.22-.07h0c-8.76.65-17.56,1.07-26.31.08-9-1-17.89-3.3-26.67-5.66l-.21-.11a9.28,9.28,0,0,1-2.93-.89,11.28,11.28,0,0,1-1.87-.4c-6.22-3.61-11.44-8.28-17.15-12.85-6.34-5.09-13.38-9.22-20.4-13.28a1,1,0,0,0-.47-.62l-2.51-1.5v-.06c0-.06,0-.14,0-.21a7,7,0,0,1-.7-.46,1.11,1.11,0,0,1-.32-.4,1.31,1.31,0,0,1,0-1.71,1.61,1.61,0,0,1,1.14-.71,13.07,13.07,0,0,0,1.63-.33,1.36,1.36,0,0,1,.56,0,46.8,46.8,0,0,1,28.89,3.85c9.79,4.78,18.24,14.43,29.93,12.92a3.9,3.9,0,0,0,.41,1.17c1.31,2.44,4.33,2.35,6.69,2,8.63-1.2,17-4.13,25-7.44,8.47-3.49,16.66-7.58,25-11.36,8.07-3.66,17.85-9.1,27-7.84,1.28.18,1.72-1.78.44-2-6.35-.88-12.26,1.29-18.07,3.6-6.93,2.77-13.67,6-20.42,9.14-6.53,3.05-13.09,6.08-19.86,8.6a113.49,113.49,0,0,1-10.82,3.47q-2.44.65-4.92,1.16c-1.32.27-2.64.54-4,.69a6.78,6.78,0,0,1-1,.1,2.17,2.17,0,0,1-2.08-.73l-.22-.1-.12-.08a1.2,1.2,0,0,1-.55-.52,2.12,2.12,0,0,1-.42-1.64,2.22,2.22,0,0,1,.57-1.12.32.32,0,0,0,0-.09c3.28-4,8.26-6.84,12.49-9.52a145.64,145.64,0,0,1,14.41-8,3.64,3.64,0,0,1,.46-.3.87.87,0,0,0,.11-.09,6.27,6.27,0,0,1,1.09-.57.66.66,0,0,0,.11-.26c11.94-4.41,18.68-16.2,29.2-22.86,14-8.85,31.22-5.26,46-.76a.83.83,0,0,0,.81-.13c20.51,6.43,42.32,5,63.49,3.31C360.54,253.24,360.93,254.43,361.25,255.63Z"/><path class="cls-3" d="M38,116.71a1,1,0,0,0,.81.88c21.1,3.19,42.78,6.63,61.3,17.57a1.17,1.17,0,0,1,.27,0,7.49,7.49,0,0,1,.84.27l.13,0a6.71,6.71,0,0,1,.82.34,3.51,3.51,0,0,1,.76.52l0,0c12.09,6.68,25.76,12.33,39.87,9.32a34.49,34.49,0,0,0,5.35-1.63,1.45,1.45,0,0,1,.51-.43l2.25-1.07a84.74,84.74,0,0,1,9-4.77,1.33,1.33,0,0,1,.49-.22l.58-.26c5.47-3.24,11-6.36,17.22-7.47a1.58,1.58,0,0,1,.58-.19,24.73,24.73,0,0,0,2.54-.49l.33-.11h0l.35-.09a1.42,1.42,0,0,0,.08-.18,149.37,149.37,0,0,0,17.66-5,.91.91,0,0,0,.1.33,1.12,1.12,0,0,1,.31,0l.18.06h.05a1.38,1.38,0,0,1,.69.13,6.14,6.14,0,0,1,1.85.36h.26a11.87,11.87,0,0,1,3.75.4,26.77,26.77,0,0,1,13.4,5.15c3.57,2.64,6.66,5.83,10.11,8.6a25.35,25.35,0,0,0,17.31,5.89c.2-.05.4-.1.6-.17a1.36,1.36,0,0,1,.8,0,1.52,1.52,0,0,1,.36-.19c.21-.07.45-.14.68-.23.44-.28.89-.53,1.35-.78a1.24,1.24,0,0,1,1-.65,2.47,2.47,0,0,1,.39,0,1.18,1.18,0,0,1,.67-.05,2.76,2.76,0,0,1,.65.27,4.34,4.34,0,0,1,2.07.35h0a50.3,50.3,0,0,0,15,2c2.26-.56,3.95-3.06,2.48-5.1l-.37-.35a1.5,1.5,0,0,1-.46-.39,4,4,0,0,0-.28-.32c-.52-.5-1-1-1.52-1.55l-.22-.2v-.05c-.36-.39-.72-.77-1.06-1.18a1.4,1.4,0,0,1-.2-.38c-6.26-5.81-12.48-11.7-17.62-18.51a114,114,0,0,0-11.2-13.32,5.48,5.48,0,0,0-1-1,10.48,10.48,0,0,1-2.08-1.13l-.83-.36-.56-.33a1.58,1.58,0,0,1-.31-.13c-1.68-1.07-3.68-1.44-5.33-2.57a1,1,0,0,1-.5-.74,152.83,152.83,0,0,0-21.29-9.47c-2.41-.82-4.85-1.52-7.31-2.15a1.81,1.81,0,0,1-.95,0c.24.08-.22,0-.27,0a4.18,4.18,0,0,1-.69-.2.86.86,0,0,1-.4-.28c-5.81-1.36-11.71-2.33-17.62-3.23-6.66-3-14.19-2.38-21.22-.57-9.77,2.52-19,5.86-29.11,6.93a101.92,101.92,0,0,1-29.28-1.16c-9.16-1.71-17.84-4.92-26.45-8.32-.88-.5-1.79-1-2.7-1.37l-.15-.06s0,0,0,0a6.44,6.44,0,0,0-.61-.24,2.58,2.58,0,0,1-.77-.46l-.21-.1c.18.16.08.06-.1-.06l-.41-.09a4.84,4.84,0,0,1-.61-.22,8.65,8.65,0,0,0-2.54-.09.88.88,0,0,0-.59.08,23.9,23.9,0,0,0-6.63,2.46,54.92,54.92,0,0,0-12,7.79C42.37,92,38.13,99.35,38,107.24a.91.91,0,0,0-.18.48A37.57,37.57,0,0,0,38,116.71Zm210.73,26.12a20.94,20.94,0,0,1-11-1.62c-4.21-2-7.6-5.19-11-8.22-6.71-6-13.82-10.13-23-10l-.53-.17-.48-.1c4.26-1.54,8.56-3.26,11.89-6.32a1.1,1.1,0,0,0,.23-.33c6.55.69,11.58,5.23,15.9,9.8,4.12,4.35,8.09,8.62,13.23,11.86a48.23,48.23,0,0,0,7.69,3.89A23.18,23.18,0,0,0,248.73,142.83ZM39.62,112.14l.05,0a2.32,2.32,0,0,1-.07-.38l-.07-.81a3.12,3.12,0,0,1,.2-1.34c0-.17,0-.35,0-.52V109h0c0-.29,0-.58,0-.87a2.32,2.32,0,0,1,.2-.74c.13-7,3.7-13.54,8.94-18.45a47.33,47.33,0,0,1,9.51-6.71c2.51-1.39,5.86-3.44,9.06-3.82a21.06,21.06,0,0,1,4.68,1.14l.87.41a3.27,3.27,0,0,1,.3.35l1.58.62,1,.59a5,5,0,0,1,1.3.49l.1,0h0l.14.08a1.36,1.36,0,0,0,.28-.11,140.62,140.62,0,0,0,21.72,6.9,103.37,103.37,0,0,0,27.36,2.05A112.35,112.35,0,0,0,154,85.67c7.73-2.42,16.17-4.94,24-2.75a.83.83,0,0,0,.11.37l1.3.4a1.69,1.69,0,0,1,.49.23l1.34.2.08,0a4.06,4.06,0,0,1,2.35.26,1.18,1.18,0,0,1,.19.11h0c8.62,1.35,17.23,2.92,25.46,5.81,8.51,3,16.53,7.14,24.48,11.34l.17.15a9.32,9.32,0,0,1,2.63,1.51,10.78,10.78,0,0,1,1.72.79c5.18,4.81,9.14,10.41,13.6,16,5,6.24,10.8,11.73,16.65,17.15a1,1,0,0,0,.31.7l2.08,2s0,0,0,.06a1.5,1.5,0,0,1,0,.2,8,8,0,0,1,.57.59.93.93,0,0,1,.21.45,1.24,1.24,0,0,1-.38,1.62,1.6,1.6,0,0,1-1.27.43,11.33,11.33,0,0,0-1.65-.06,1.35,1.35,0,0,1-.55-.09,47,47,0,0,1-27.05-10.11c-8.36-6.73-14.29-17.77-25.94-19a3.91,3.91,0,0,0-.13-1.2c-.7-2.6-3.65-3.2-6-3.41-8.62-.8-17.43.09-26,1.44-9,1.41-17.87,3.46-26.81,5.17-8.65,1.66-19.38,4.63-27.92,1.38-1.19-.45-2.08,1.31-.88,1.76,5.94,2.26,12.15,1.53,18.31.63,7.34-1.06,14.6-2.6,21.86-4.08,7-1.43,14.08-2.83,21.2-3.71,3.74-.46,7.5-.77,11.27-.87,1.67,0,3.35,0,5,0,1.33,0,2.68.08,4,.24a6.67,6.67,0,0,1,1,.13,2.14,2.14,0,0,1,1.84,1.16l.19.14.09.11a1.13,1.13,0,0,1,.42.61,2,2,0,0,1,0,1.65,2.1,2.1,0,0,1-.81.93s0,.06,0,.1c-4.09,3-9.57,4.62-14.28,6.22a148.77,148.77,0,0,1-15.79,4.36,2.47,2.47,0,0,1-.52.18l-.12.06a5.41,5.41,0,0,1-1.2.3.69.69,0,0,0-.16.22C167,129.15,157.73,138.81,146,142.77c-15.56,5.26-31.41-2-44.67-9.58a.82.82,0,0,0-.81-.06c-18.35-10.69-39.77-14.19-60.63-17.35C39.75,114.56,39.65,113.35,39.62,112.14Z"/><path class="cls-2" d="M225.43,275c-1.59-2.44-4.4-2.6-6.79-1.42-1.11.55-2.18,1.16-3.22,1.81a4.79,4.79,0,0,0-1.36.64,31.13,31.13,0,0,1-3.26,1.9,3.2,3.2,0,0,0-.91.67,8.92,8.92,0,0,0-2.47,1.71,4.13,4.13,0,0,0-1.13,4.12c.52,3.11,3.77,5.74,7,3.67a5.72,5.72,0,0,0,1.31-.53,11.57,11.57,0,0,0,1.63-.79,4.48,4.48,0,0,0,1.45-1.29,4.88,4.88,0,0,0,1.14-.61,37,37,0,0,1,5.17-3.1C226.39,280.59,226.75,277,225.43,275Z"/><path class="cls-2" d="M191.86,115.41a5,5,0,0,0-5.45-3.59,11.9,11.9,0,0,0-4.69,1.42l-.39.23-.78.15a5.69,5.69,0,0,0-1.32.44,5.47,5.47,0,0,0-2.14,1.23c-4.24,2.07-3.23,8.78,1.56,9.38l.5.07a5.16,5.16,0,0,0,2.57-.39,8.71,8.71,0,0,0,1.19-.25,28.08,28.08,0,0,0,4.26-1.62h0a5.94,5.94,0,0,0,3.61-2.47A5,5,0,0,0,191.86,115.41Z"/><path class="cls-3" d="M240.24,224.62c.12-.17.26-.33.37-.5s0,0,0,0c1.75-2.58,3.49-5.17,5.17-7.8,8.46-13.22,19.56-28.95,12.47-45.22-6.16-14.14-22-16.71-35.49-12.63-6.53,2-12.82,5.37-17.09,10.81a31.55,31.55,0,0,0-4.78,8.9,31.94,31.94,0,0,0-17.45-17.08c-13.34-5.22-33.32-1.28-41.29,11.54-8.86,14.26,2.69,35,11.94,46,2.12,2.53,4.36,5,6.66,7.37a35,35,0,0,0,6.7,6.61c2.69,2.52,5.43,4.95,8.21,7.32.78.66,1.6,1.38,2.44,2.12.46.28.94.55,1.42.82a45.73,45.73,0,0,0,6.63,4.63,64.85,64.85,0,0,0,14.38,9,2.53,2.53,0,0,0,1.17.25,2.32,2.32,0,0,0,1.79-.23,80.43,80.43,0,0,0,10.95-7.24c3.3-4.09,8.29-7,12-10.57,3.46-3.29,6.89-6.59,10.37-9.85A42.42,42.42,0,0,1,240.24,224.62Z"/><path class="cls-4" d="M252.72,166.7c-1.86-1.78-4.69,1-2.82,2.83,5.16,4.94,3.39,17.21,1.56,23.28-2.5,8.31-8,15.29-13.2,22-4.72,6.06-8.88,12.63-14.37,18-6.27,6.17-13,11.94-19.79,17.48-2,1.62.84,4.43,2.83,2.83,7.83-6.36,15.84-12.94,22.64-20.41,6.37-7,12-15.28,17.51-23,4.87-6.89,8.83-14.54,9.61-23.05C257.3,180.12,257.91,171.67,252.72,166.7Z"/></svg>