<svg id="Camada_1" data-name="Camada 1" xmlns="http://www.w3.org/2000/svg" viewBox="0 0 398.21 392.22"><defs><style>.cls-1{fill:#fdfdfe;}.cls-2{fill:#d8a800;}.cls-3{fill:#fbdc85;}.cls-4{fill:#feecc3;}</style></defs><title>Prancheta 13</title><ellipse class="cls-1" cx="369.67" cy="322.53" rx="1.76" ry="0.71"/><ellipse class="cls-2" cx="199.11" cy="196.11" rx="199.11" ry="196.11"/><ellipse class="cls-1" cx="321.63" cy="133.03" rx="25.41" ry="22.13" transform="translate(52.28 353.47) rotate(-61.77)"/><ellipse class="cls-1" cx="324.27" cy="168.17" rx="22.13" ry="25.41" transform="translate(-37.49 117.58) rotate(-19.45)"/><rect class="cls-1" x="219.26" y="142.87" width="90.18" height="28.28" transform="translate(-14.97 28.52) rotate(-6)"/><ellipse class="cls-1" cx="100.62" cy="252.66" rx="22.13" ry="25.41" transform="matrix(1, -0.05, 0.05, 1, -12.07, 5.15)"/><ellipse class="cls-1" cx="80.27" cy="223.89" rx="22.13" ry="25.41" transform="translate(-143.48 143.22) rotate(-50.45)"/><rect class="cls-1" x="92.28" y="188.46" width="90.18" height="28.28" transform="translate(369.01 281.72) rotate(143)"/><path class="cls-2" d="M182.86,186.27c1-.29.68-1.72-.26-1.88a1,1,0,0,0-.22-.84,7.26,7.26,0,0,0-1.26-1.23,2.71,2.71,0,0,0,.17-1.6c-.43-2.3-2.39-3.43-4.5-3.63a3,3,0,0,0-1.86-3,3,3,0,0,0-.71-2.62,3.7,3.7,0,0,0-3.34-1.33,4.13,4.13,0,0,0-.29-1.58v0a.76.76,0,0,0,.12-.68,1,1,0,0,0-1.14-1.4,2,2,0,0,1-.67,0,3,3,0,0,0-.7-.33,2.1,2.1,0,0,1-.37-.66l0,0a.86.86,0,0,0-.47-1.36,1.56,1.56,0,0,0-1.34-1.22,1.77,1.77,0,0,0-.68.09,16.33,16.33,0,0,0-.25-1.87c-.24-1.26-2.17-.73-1.93.53a10.43,10.43,0,0,1,.34,2.57l-2.07,2.7a.76.76,0,0,0-.16.56c-.72,1-1.48,1.91-2.26,2.84-.4.41-.81.82-1.2,1.26a1,1,0,0,0-.25.79,1,1,0,0,0,1.49.9,63,63,0,0,1,7.17-3.21l.27.54-3.9,5.1c-.62.82.57,1.86,1.37,1.37a41.66,41.66,0,0,1,5.86-3c-.52.67-1,1.35-1.55,2l-.15.07c-.06,0-.1.08-.15.12l-.25.16c-1.08.68-.08,2.42,1,1.72l.58-.36,1.53-.73,1.32-.16a21.28,21.28,0,0,1-4.33,4.68c-.95.77.26,2,1.21,1.57l5.45-2.44-.2.57a1.1,1.1,0,0,0-.11.35l-4.15,5.35a1,1,0,0,0,1.21,1.57l4.84-2.2c-.32.28-.64.55-.94.86a1,1,0,0,0,1.22,1.57,18.2,18.2,0,0,1,3-1.49,9.29,9.29,0,0,1-.87,1.76,1,1,0,0,0,1.57,1.21L183,187.7A.88.88,0,0,0,182.86,186.27Zm-5.67-7a2,2,0,0,1,1.58,1.07,1,1,0,0,0-.53-.17l-1,0a1.22,1.22,0,0,0-.18-.36C177.12,179.64,177.15,179.46,177.19,179.24Z"/><path class="cls-2" d="M231,176.65a14,14,0,0,0-3.25-2,1.06,1.06,0,0,0-.86-1.53,10.16,10.16,0,0,0-3.07.41l-.75-.07a.69.69,0,0,0,.11-.48q.15-.22.27-.45l5-2.08a1,1,0,0,0-.27-2,42.66,42.66,0,0,0-4.38,0l3-1.44a1,1,0,0,0-.51-1.86l-4.81.54.35-.29a.9.9,0,0,0-.08-1.42l4.57-1.87c1-.4,1-2-.27-2l-4.21.06,1.17-.53c1-.43.4-1.82-.51-1.86l-1.3-.06,2.73-.92a1,1,0,0,0-.26-2h-.38c.61-.24,1.22-.47,1.86-.67a1,1,0,0,0,.6-1.4c.44-.22.89-.44,1.32-.69a1,1,0,0,0-.24-1.83,48.18,48.18,0,0,0-6.92-1.39.86.86,0,0,0-.44.05,9,9,0,0,1-3.64-2.56c-.87-1-2.28.47-1.42,1.42.29.31.57.58.85.85a1.39,1.39,0,0,0-.19.06l-1-.45a1,1,0,0,0-1,1.73l2.37,1.09a2.81,2.81,0,0,0,.17,1.1,1.56,1.56,0,0,0,.22.4,1.08,1.08,0,0,0,.11,1.26,1.27,1.27,0,0,0,.05.43c-.3.79-1.08,1.73-1.26,2.46a6.47,6.47,0,0,0,.07,3.24,6.08,6.08,0,0,0,1.55,2.63,1,1,0,0,0,.12.68,1.9,1.9,0,0,0,.78.69,1,1,0,0,0,.85,1.45l.55.05-1,.88a1,1,0,0,0,.7,1.71l1.44-.16a1,1,0,0,0-.32.3l-1.16.35c-1-.83-2.39.57-1.41,1.41a2.86,2.86,0,0,0,.3.22,1.14,1.14,0,0,0,1.25.85l.12,0a6.73,6.73,0,0,0,.19,1.07.89.89,0,0,0,.25.43,1.06,1.06,0,0,0-.05,1,9.46,9.46,0,0,1-.9.61,1,1,0,0,0,.09,1.75,1,1,0,0,0,.36.82,1.06,1.06,0,0,0,1.52.79l.51-.22c-.68.88.62,2.1,1.52,1.28a21.47,21.47,0,0,1,3.58-2.64,11.53,11.53,0,0,1,4,2.15C230.53,178.88,232,177.47,231,176.65ZM217.33,160h0a.89.89,0,0,0-.38-.06,4.13,4.13,0,0,1-.24-.7,1,1,0,0,0,.68.33l.86,0Z"/><path class="cls-3" d="M342.71,169.82a17.21,17.21,0,0,1-30.42,10.37c-.84-1-2.25.45-1.41,1.42,11.58,13.34,32.94,5.73,33.83-11.79C344.77,168.54,342.77,168.54,342.71,169.82Z"/><path class="cls-3" d="M337.23,138.53a21.88,21.88,0,0,1-13.58,11.31,1,1,0,0,0,.53,1.93A23.83,23.83,0,0,0,339,139.54C339.54,138.39,337.81,137.38,337.23,138.53Z"/><path class="cls-3" d="M121.13,252.65c-.09-1.28-2.09-1.29-2,0,.49,6.61-3.25,12.3-9.09,15.29-5.38,2.75-16.41,5.64-19.44-1.88-.48-1.17-2.41-.66-1.93.54,3.13,7.76,12.64,6.87,19.22,4.46C115.77,268.17,121.78,261.37,121.13,252.65Z"/><path class="cls-3" d="M90.8,237.36c-9.59,5.45-20.79,2.22-26-7.47-.61-1.14-2.34-.13-1.73,1a20.5,20.5,0,0,0,28.73,8.19A1,1,0,0,0,90.8,237.36Z"/><path class="cls-3" d="M166.93,193l-44.26,34.39c-1,.78.4,2.19,1.41,1.41l44.27-34.38C169.36,193.63,167.94,192.22,166.93,193Z"/><path class="cls-3" d="M295.86,163.6a530.5,530.5,0,0,1-61.12,6.17c-1.28,0-1.29,2,0,2a533.29,533.29,0,0,0,61.65-6.24C297.66,165.32,297.12,163.4,295.86,163.6Z"/><path class="cls-1" d="M169,161.4c-.35.59-.71,1.18-1.07,1.76-.67,1.1,1.06,2.11,1.73,1l1.07-1.76C171.39,161.31,169.66,160.3,169,161.4Z"/><path class="cls-1" d="M172.38,165.53h-.71a1,1,0,0,0,0,2h.71A1,1,0,0,0,172.38,165.53Z"/><path class="cls-1" d="M211,148.75l-1.41-.71c-1.14-.57-2.16,1.15-1,1.73l1.41.71C211.12,151.06,212.14,149.33,211,148.75Z"/><path class="cls-1" d="M210.49,152.47h-.7a1,1,0,0,0,0,2h.7A1,1,0,0,0,210.49,152.47Z"/><path class="cls-1" d="M216.85,175.06h-1.06a1,1,0,0,0,0,2h1.06A1,1,0,0,0,216.85,175.06Z"/><path class="cls-1" d="M220.38,176.11a1,1,0,0,0,0,2A1,1,0,0,0,220.38,176.11Z"/><path class="cls-1" d="M192.49,178.53l-.35.35a1,1,0,0,0,1.41,1.41l.36-.35A1,1,0,0,0,192.49,178.53Z"/><path class="cls-4" d="M248.93,80.74A39,39,0,0,1,225.24,47c-.17-2.85-4.61-3.15-5.48-.57-4.6,13.63-9.81,29.16-23.48,36.23-6.32,3.26-14,4.08-20.15.1a16.11,16.11,0,0,1-7-9.21,66.76,66.76,0,0,0-.21-7.5c-.31-3.44-5-2.78-5.66.15a18.69,18.69,0,0,0,.17,8.73c-.61,12.29-5.4,24.47-17.16,30.19-8.71,4.23-19.87,1.64-25.09-5.57-.84-4.14-1.83-8.23-2.83-12.24-.75-3-5.25-3.21-5.66.14a21.39,21.39,0,0,0,3.11,14.14c1.66,8.43,2.51,17,.89,25.48-2.16,11.25-9.51,22.26-21.05,25.25-3.53.92-2.66,6.56.91,5.64,12.14-3.15,20.74-13,24.44-24.74,2.53-8,2.65-16.36,1.66-24.63A25.59,25.59,0,0,0,144,112c14-4.09,21.39-15.78,24-28.86a24.87,24.87,0,0,0,23.15,7.37c16.26-3.63,24.66-17.77,30.38-32.26a44.8,44.8,0,0,0,25.32,27.78C250.27,87.5,252.32,82.17,248.93,80.74Z"/><path class="cls-4" d="M315.59,251.86c-13.17-7.63-30.84-6-41.53,5.27a32.92,32.92,0,0,0-8.68,24.56c-5.85-6.21-13.38-10-22.22-5.29-11,5.88-12.11,18.31-15.54,29.2-2.32-9.71-9.46-18.22-19.32-21.15-13.5-4-28.26,3.36-34.16,15.87-1.38,2.92,3.25,4.83,4.61,1.93,4.84-10.26,17.2-16.35,28.23-13s17.85,15.27,16.21,26.51c-.34,2.35,3.09,4,4.47,1.86,6.2-9.84,5.56-22.52,12.44-31.9,4.26-5.81,10.82-7.95,17.36-4.35,5,2.77,8.18,7.61,10.84,12.59a35.35,35.35,0,0,0,1.89,3.67,1.09,1.09,0,0,1,.08.15h0l.32.57c1.5,2.38,5.55,0,4.27-2.52-.61-1.2-1.28-2.47-2-3.75-4.57-10-3.1-22.52,4.25-30.91,8.65-9.85,24.28-11.82,35.45-5.35C315.3,257.42,318.37,253.47,315.59,251.86Z"/></svg>