<svg id="Camada_1" data-name="Camada 1" xmlns="http://www.w3.org/2000/svg" viewBox="0 0 398.21 392.22"><defs><style>.cls-1{fill:#d8a800;}.cls-2{fill:#fbdc85;}.cls-3{fill:#f9c434;}.cls-4{fill:#fdfdfe;}</style></defs><title>Prancheta 26</title><ellipse class="cls-1" cx="199.11" cy="196.11" rx="199.11" ry="196.11"/><path class="cls-2" d="M269.11,218.77h0a28.31,28.31,0,0,0-1.76-9.73,4,4,0,0,0-.07-1.85,47.4,47.4,0,0,0-2.25-6.38,5.13,5.13,0,0,0-2-4.67l-.07-.07c-1-2.29-2.05-4.59-2.88-6.95a70.27,70.27,0,0,0-4.49-9.39,5,5,0,0,0-.23-1,48,48,0,0,0-3.85-8.59,4.53,4.53,0,0,0-1.3-1.43,72.72,72.72,0,0,0-4.21-8.94c-3.26-5.49-6.8-10.85-9.84-16.47a4.9,4.9,0,0,0-.87-1.14,34.14,34.14,0,0,0-2-3.7,3.79,3.79,0,0,0-.34-.45,21.87,21.87,0,0,0-1.7-3.56c-1.54-2.55-3.52-4.56-4.75-7.29a11.72,11.72,0,0,0-1.79-3h0a6.28,6.28,0,0,0-.47-1.64q-2-4.71-4.07-9.42a3.55,3.55,0,0,0-3.32-2.2c2.19-3.83,3.24-9.1,4-13.19.81-2.57,1.56-5.16,2.39-7.62,1.36-4.07-4.73-8-7.52-4.38a9.88,9.88,0,0,1-1.62,1.72c-3.39-.8-6.39-.23-6.54-4.76-.13-4.3-6.18-6.35-8.38-2.27s-4.11,6.7-8.77,6.77c-.52,0-1,0-1.46.09l-.26-.51c-2.42-4.42-9.79-1.43-8.22,3.47a13.48,13.48,0,0,0,2,4l.19.4a5.63,5.63,0,0,0,.37,1.17l2.62,5.91a3.57,3.57,0,0,0,1.72,1.82q1.26,2.69,2.5,5.37a3.69,3.69,0,0,0,1.7,1.78,4.37,4.37,0,0,0-1.78,1.63c-.17.28-.33.57-.5.86a3.78,3.78,0,0,0-.61.84c-.54,1-1,2-1.54,3l0,0a3.62,3.62,0,0,0-1.68,1.82c-.35.76-.72,1.52-1.08,2.27a4.05,4.05,0,0,0-2.61,2.13c-1.7,3.14-3.27,6.34-4.76,9.58a3.6,3.6,0,0,0-2.07,2L173,139.18c-1,1.66-2.18,3.19-3.32,4.8-.34.48-.65,1-1,1.44a4.79,4.79,0,0,0-2.18,1.81l0,.07a7.46,7.46,0,0,0-1.71,2.91,4.43,4.43,0,0,0-.29,1.35c-.44.56-.87,1.12-1.28,1.72-.71,1.06-1.39,2.15-2.05,3.25a24.93,24.93,0,0,0-2.45,3.37,39,39,0,0,0-2.45,5.19,3.87,3.87,0,0,0-1.86,2c-1.36,3.09-2.71,6.19-4,9.3a5,5,0,0,0-1.71,2.19c-.47,1.15-.91,2.3-1.3,3.45-3.28,6.45-5.93,13.13-6.7,20.31-2.63,4.07-2.71,9.85-1.45,15.07v.33a19.26,19.26,0,0,0,.93,9,30.47,30.47,0,0,0,2.43,8.07c2.66,6,6.61,11.73,13.29,13.51l.55.12a22.29,22.29,0,0,0,10.13,4.3,49.62,49.62,0,0,0,9.66,2.69c.87.14,1.76.28,2.66.4a4.89,4.89,0,0,0,1,.82c4,2.42,8.55,2,13.07,1.68,3.86,1.9,9.8,1.59,13.22,1.26a54.85,54.85,0,0,0,7.69-1.29A43.13,43.13,0,0,0,225.26,257l.76-.1c2.36-.25,5.21-.16,7.63-.74,4.55-.1,9.57-1.94,13.53-3.34,1.18-.42,2.31-.87,3.44-1.35a3.86,3.86,0,0,0,2.09-.29l1.07-.47h0l.14-.08c.69-.31,1.36-.62,2-.95a3.61,3.61,0,0,0,2.31-.09,19.24,19.24,0,0,0,10.83-9.35,4.52,4.52,0,0,0,.48-2.91C272,231.72,270.67,224.88,269.11,218.77Z"/><path class="cls-3" d="M266.77,201.09a123.09,123.09,0,0,0-8.45-18.56s0-.08,0-.12h0a5.32,5.32,0,0,1-.26-.66,1.2,1.2,0,0,1,0-.2,50.86,50.86,0,0,1-2-4.89v-.08a11.73,11.73,0,0,1-.82-1.89.13.13,0,0,1,0-.06c-8.77-18.61-20.26-36.23-30.59-54a1,1,0,0,0-.18-.55,74.7,74.7,0,0,1-4.36-6.94,1,1,0,0,0-1.73,1c1.11,2,2.34,3.94,3.63,5.84a.64.64,0,0,0,.06.18c9.69,16.8,20.5,33.43,29.18,50.86a3.2,3.2,0,0,1,.48.84,19,19,0,0,1,1.89,4.17,13.84,13.84,0,0,1,1.13,2.9,2.44,2.44,0,0,0,.1.24c.64,1.23,1.29,2.46,2,3.67a1.7,1.7,0,0,1,.19.67,3.42,3.42,0,0,0,.13.34l0,0a1.54,1.54,0,0,1,.17.48l.09.23.11.26c5.95,11.38,10.67,23.65,11.9,36.5.54,5.69.85,12.07-1,17.54-2.64,7.78-11,10.35-18,12.69a137.65,137.65,0,0,1-79.39,2.1C158.19,250.17,145,244.17,141,230.4c-3.54-12.3-.84-26.35,3-38.25,9.42-28.89,30.07-52.06,45.6-77.67a1,1,0,0,0-1.73-1c-15.34,25.29-35.51,48.16-45.25,76.5-4,11.76-6.74,25.3-4.36,37.71,2.3,12,10.59,19.77,21.52,24.37,25.32,10.67,56.06,10.83,82.35,4,10.54-2.74,25.36-5.95,28.49-18.09C273.73,226.2,270.68,212.29,266.77,201.09Z"/><path class="cls-3" d="M200.47,106.62q-2.61-4.22-4.94-8.57c-.31-.57-1.17-.07-.87.5q2.34,4.36,4.94,8.58C199.94,107.67,200.81,107.17,200.47,106.62Z"/><path class="cls-3" d="M211.09,98.91q-2,3.65-4.19,7.18c-.34.55.52,1,.86.5,1.46-2.36,2.85-4.75,4.19-7.17C212.26,98.85,211.4,98.35,211.09,98.91Z"/><path class="cls-1" d="M233.63,185.31c-5.2-3.84-11.17-5.46-17.38-6.37q.12-8.31.38-16.6c1.7.21,3.39.48,5.07.77l.29.1c.33.11.66.24,1,.36a5.36,5.36,0,0,1,.59.38,4.45,4.45,0,1,0,4.85-7.46,14.79,14.79,0,0,0-3.66-1.73l-.62-.22a3.59,3.59,0,0,1-.7-.16l-.43-.09a1.29,1.29,0,0,1-.34,0l-.52-.11h0l-1.32-.27a2.58,2.58,0,0,0-.29,0l-.13,0c-.12,0-.25,0-.37.06-1-.16-2.05-.3-3.08-.42.13-3,.26-6,.42-8.93.29-5.71-8.62-6.12-8.91-.41-.15,2.95-.29,5.89-.41,8.84a56.19,56.19,0,0,0-9.46.82q-.06-5-.17-10c-.12-5.69-9-6.13-8.91-.41q.13,6.51.17,13a37.89,37.89,0,0,0-8.75,5c-4.9,3.8-9,9.89-4.65,15.72,2.84,3.84,8,5.84,12.86,7.06,0,.28,0,.57,0,.85-.3,6.06-.66,12.11-1,18.17-3.37-.53-7.7-1.35-9.4-3.21-3.87-4.23-10.46,1.76-6.58,6,3.42,3.73,9.83,5.27,15.51,6.15-.07,1.63-.14,3.25-.18,4.88,0,2.24-.22,4.09,1.4,5.83a4.52,4.52,0,0,0,6.3.29l.21-.22.14-.16a2,2,0,0,0,.62-.71,4.06,4.06,0,0,0,.89-2.6s0,0,0,0a1.93,1.93,0,0,0,.2-.75c.12-1.64.2-3.28.25-4.92a1.83,1.83,0,0,0,0-.33c3.15.38,6.46.7,9.75.77h.07a3,3,0,0,1,.53-.28c-.07,2.08-.13,4.16-.2,6.24-.18,5.71,8.73,6.13,8.91.41.08-2.4.15-4.8.23-7.19h.32l1-.25C228.57,210.24,247.79,195.78,233.63,185.31Zm-47.72-11.68a2.58,2.58,0,0,1-.53-.19,1.61,1.61,0,0,1-.3-.21,1.06,1.06,0,0,1-.76-1,2.42,2.42,0,0,1-.09-.85,3.62,3.62,0,0,1,0-.47,1.93,1.93,0,0,1,.75-1.43,3.45,3.45,0,0,1,.45-.48.94.94,0,0,1,.12-.09,3.82,3.82,0,0,1,.86-.58,14.41,14.41,0,0,1,3.27-2.28c0,3-.08,6.07-.17,9.1A11.31,11.31,0,0,1,185.91,173.63Zm12.72-10.87a42.86,42.86,0,0,1,9.1-1q-.27,8.1-.38,16.21c-3-.27-6-.53-9-1C198.55,172.26,198.62,167.51,198.63,162.76Zm4.77,42.05c-2.14-.1-4.28-.23-6.42-.42.08-1.47.15-2.94.23-4.41q.4-7.08.77-14.16c3.08.4,6.18.67,9.27,1-.05,6.06-.12,12.16.05,18.24C206,205,204.67,204.87,203.4,204.81Zm24.5-7.6c-.05.07-.1.15-.16.22a28.26,28.26,0,0,1-4.36,4.25,22.53,22.53,0,0,1-4.07,2.06,1.71,1.71,0,0,0-.55,0,5.26,5.26,0,0,1-.53.15l-.54.05h0l-.53,0a1.64,1.64,0,0,0-.68.28,3.59,3.59,0,0,1-.35.12v-.34c0-.11,0-.21,0-.31a2.89,2.89,0,0,0,0-.29,1.22,1.22,0,0,1,0-.33,1.76,1.76,0,0,0-.1-.68c0-.19,0-.37,0-.56v-.07c-.07-4.65,0-9.3,0-13.92.85.15,1.69.33,2.53.53,2.57,0,8.6,1.12,10,4a2,2,0,0,1,.43.54C229.86,194.75,229.07,196.11,227.9,197.21Z"/><path class="cls-3" d="M219.77,82.78A6.24,6.24,0,0,0,215.48,84c-1,.58-1.9,1.6-2.94,1.91a2.18,2.18,0,0,1-.59.25,2.29,2.29,0,0,1-2.15-.56,2.59,2.59,0,0,1-.73-1.75,4.15,4.15,0,0,1,0-.79,10.62,10.62,0,0,0-.35-2.11,5.73,5.73,0,0,0-7.49-3.6,8.21,8.21,0,0,0-3.66,2.54c-2.82,3.17-3.77,8.46-9.36,5.24-2.17-1.25-4.32-3.34-6.78-1.14-2.88,2.58-1.21,8.08-.32,11.1a39.8,39.8,0,0,0,8.15,14.58c.83,1,2.24-.44,1.41-1.42a37.25,37.25,0,0,1-7.63-13.7c-.6-2-2-5.76-1-7.74,1.86-3.6,4.31-.46,5.8.58,4.11,2.88,6.78,1.37,9.12-2.78,2.12-3.76,6.79-9.07,10.06-2.45.69,1.41.29,3.24,1.1,4.64s1.52,2,3.25,1.79a7.55,7.55,0,0,0,2.88-1.28l1.35-1,.21-.24a3.09,3.09,0,0,1,.55-.42,3.41,3.41,0,0,1,4.15-.31c2,1.24,2.29,3.3,1.82,5.33a6.62,6.62,0,0,1-.42,2.67,51.68,51.68,0,0,1-4.63,14.38c-.56,1.15,1.17,2.17,1.72,1C221.35,104,229.83,84.51,219.77,82.78Z"/><path class="cls-1" d="M220.27,109.45a2.88,2.88,0,0,0-2.57-1,4.59,4.59,0,0,0-.91,0,1.08,1.08,0,0,0-.45.14,24.57,24.57,0,0,0-2.5.51,57.54,57.54,0,0,1-9.14,1.42c-4.47.14-8.94-1.76-13.29-1.44a4.13,4.13,0,0,0-2.09.68,3.29,3.29,0,0,0-2,3.82c.47,2,2.43,2.77,4.29,2.79a18.25,18.25,0,0,0,7,.82,29.62,29.62,0,0,0,3.77,0,23.06,23.06,0,0,0,8-.54,16.83,16.83,0,0,0,7-1.54,3.56,3.56,0,0,0,2.82-2.22,2.47,2.47,0,0,0,.43-.61A2.68,2.68,0,0,0,220.27,109.45Z"/><path class="cls-4" d="M58.05,241.49c.1-3.21,2.24-6.31,5.66-5.19a2.46,2.46,0,0,0,.29.09,4.2,4.2,0,0,1,1.43.41c8.66,2.15,18.4-.48,26.84-2.9a4.56,4.56,0,0,1,4.38,1.1c3.49-1.3,6.95-2.94,10.63-3.06a4.13,4.13,0,0,1,1.32.17c1.62-.4,3.23-.81,4.8-1.29a139,139,0,0,0,18.49-6.5c1.92-1.08,3.83-2.26,5.78-3.53a15,15,0,0,1,8.8-2.68c10.33-5.29,22.44-3.22,32.86.21A43.45,43.45,0,0,1,185,220.6l1.8,1.33a93.52,93.52,0,0,0,9.21,7.51,1.27,1.27,0,0,0,.47.33l1.11.79a22.4,22.4,0,0,0,4,3.06,81.7,81.7,0,0,0,9,7.49c5.33,3.7,11.38,6.29,17,9.55a21.35,21.35,0,0,1,3.1,1.46,12.73,12.73,0,0,1,2.45.37,7.78,7.78,0,0,1,3.83,2.25c6.54-1.13,13.11-2,19.71-2.54a3.79,3.79,0,0,1,1.88.36,92.27,92.27,0,0,0,8.65-5.53c5.35-6.2,12.12-10.74,19.81-12.18,4.17-.79,10,0,12.49,3.92l.12,0c6.24-1.64,11.93-3.12,18-.43a4,4,0,0,1,1,.66c2.28.82,3.62,3.55,3.41,6a2.19,2.19,0,0,0-.34.29c-.12.13-.25.24-.37.36a45.2,45.2,0,0,0-3.6,3.34,1.76,1.76,0,0,0-.39.68c-1,.32-2,.65-3,1a5.79,5.79,0,0,1-1.7,2.37l-18.46,15.63c-5.19,5-10.23,10.15-15.27,15.3a5,5,0,0,1-1.79,1.95l-.32.2c-.63.64-1.26,1.27-1.88,1.91a1,1,0,0,0-.5.14c-2,1-4.14,1.23-6.09,2.27l-.13-.05a51.1,51.1,0,0,1-8.82,2.36,4.78,4.78,0,0,1-3.93,2.85l-5.11.57a4.65,4.65,0,0,1-2.65,2.43,33.93,33.93,0,0,1-11.83,1.83A4.5,4.5,0,0,1,234,301.8a1.65,1.65,0,0,0-1.34-.23c.28-.07-.25,0-.3,0a5.35,5.35,0,0,0-.8.14,1,1,0,0,0-.42.23c-2.25-.42-4.49-.86-6.74-1.31a4.52,4.52,0,0,1-2.68,1.18,71.28,71.28,0,0,1-10.63.24l-.56.17c-7.42,1.92-15.17.48-22-3.07a14.9,14.9,0,0,1-7.7-3.68,4.53,4.53,0,0,1-2.61-1.22,23.74,23.74,0,0,0-6.39-4,4.43,4.43,0,0,1-1.68-.22q-9.19-3-18.39-6a4.08,4.08,0,0,1-4.71.3,33.58,33.58,0,0,0-3.95-1.85,4,4,0,0,1-1.18.26,11.59,11.59,0,0,1-5.56-1.2.05.05,0,0,1,0,0l-3.3-.06a4.47,4.47,0,0,1-4.66,2c-7.48-1.38-14.9,2.58-22.38,2.92a31.46,31.46,0,0,1-4.38-.19,6.25,6.25,0,0,1-.45.44c-6.48,5.76-18.18,5.37-25,.83a17,17,0,0,1-5.72-7.07A33.85,33.85,0,0,1,61,267.2,25.37,25.37,0,0,1,58.05,241.49Z"/><path class="cls-2" d="M55.66,247.71a1.23,1.23,0,0,0,.12.63c-1.15,10,2.33,20,8.13,27.65a62.37,62.37,0,0,0,12,11.78,25.54,25.54,0,0,0,6.94,4.17,1,1,0,0,0,.65.19,8.72,8.72,0,0,0,2.83.29,3.88,3.88,0,0,1,.71-.18l.47-.05c.22-.13.35-.24.13-.06a1.84,1.84,0,0,1,.25-.09,2.39,2.39,0,0,1,.93-.46c.24-.06.48-.14.71-.21l0,0,.17,0c1.08-.39,2.16-.83,3.22-1.31,10.12-3,20.28-5.65,30.73-6.37a99.72,99.72,0,0,1,32.67,3.16c11.06,3,20.71,8.64,31.13,13.38,7.5,3.41,15.73,5.43,23.63,2.64,6.7-.21,13.42-.5,20.09-1.32a1.07,1.07,0,0,1,.49-.29,6.88,6.88,0,0,1,.79-.15c.06,0,.59-.06.31,0a1.67,1.67,0,0,1,1.06.08c2.84-.41,5.66-.92,8.47-1.57a159.77,159.77,0,0,0,25.19-8.64,1.44,1.44,0,0,1,.69-.87c2-1.17,4.3-1.32,6.34-2.41a1.52,1.52,0,0,1,.36-.12l.68-.32,1-.33a10.65,10.65,0,0,1,2.49-1.11,5.62,5.62,0,0,0,1.24-1A140.14,140.14,0,0,0,295,269.59c6.85-7.83,14.73-14.31,22.65-20.69a1.67,1.67,0,0,1,.29-.44c.44-.46.9-.9,1.36-1.34,0,0,0,0,0-.05l.27-.23c.64-.59,1.29-1.16,1.95-1.72.12-.12.25-.23.37-.36a1.68,1.68,0,0,1,.57-.42l.47-.39c2-2.36.52-5.79-1.9-6.85a49.65,49.65,0,0,0-17,.11h0a4.29,4.29,0,0,1-2.35.12,2.9,2.9,0,0,1-.77.24,1.23,1.23,0,0,1-.74-.17,3.34,3.34,0,0,1-.43,0,1.43,1.43,0,0,1-1-1c-.47-.38-.93-.77-1.37-1.2l-.71-.4a1.63,1.63,0,0,1-.38-.3,1.31,1.31,0,0,1-.88-.15c-.21-.12-.42-.21-.63-.31-6.81-1.25-13.47.12-20.19,4.74-4.29,3-8.25,6.52-12.65,9.3a27.54,27.54,0,0,1-15.73,4.41,11.73,11.73,0,0,1-4.22-.08h0a1.23,1.23,0,0,1-.27,0,6.31,6.31,0,0,1-2.12.17,1.35,1.35,0,0,1-.78.05l0,0-.22,0a.83.83,0,0,1-.35,0,1.29,1.29,0,0,0-.16.4,151.61,151.61,0,0,0-18.75-9.14,1.84,1.84,0,0,0,0-.25l-.38-.17h0l-.34-.19a27.2,27.2,0,0,0-2.73-1,1.55,1.55,0,0,1-.62-.34c-6.75-2.39-12.32-7.22-17.84-12.18l-.61-.43a1.43,1.43,0,0,1-.5-.35,94,94,0,0,1-9.16-7.47c-.78-.57-1.55-1.13-2.32-1.72a1.68,1.68,0,0,1-.49-.61,34.83,34.83,0,0,0-5.66-2.92c-15.15-6.05-31.25-1.05-45.78,5.51l-.05,0a4,4,0,0,1-.92.54,6.41,6.41,0,0,1-1,.3l-.15,0c-.32.09-.65.14-1,.21-.09,0-.2,0-.31,0-22.37,10.94-47,11.87-70.93,12.58a1.24,1.24,0,0,0-1,1A54.35,54.35,0,0,0,55.66,247.71Zm242.86-9.16a50.7,50.7,0,0,0-9.19,3.72c-6.23,3.29-11.35,8.07-16.65,12.94-5.55,5.11-11.89,10.07-19.27,9.91a1.31,1.31,0,0,0-.21-.45c-3.17-4.4-7.66-7.27-12.12-9.9a4.93,4.93,0,0,0,.54-.05,6.18,6.18,0,0,0,.62-.12c10.21,1.59,18.79-2.57,27.23-9.06,4.29-3.31,8.59-6.88,13.59-8.68a20.68,20.68,0,0,1,12.42-.33A24.66,24.66,0,0,0,298.52,238.55Zm-239.18-.74c23.67-.7,48-1.76,70.15-12.41a.86.86,0,0,0,.91.06c16-7.51,34.77-14.23,51.15-5.1,12.34,6.87,21,20.59,34.67,24.49a.79.79,0,0,0,.14.31,6,6,0,0,1,1.27.56l.13.1a3.35,3.35,0,0,1,.55.31,154.28,154.28,0,0,1,16.78,8c5,2.77,10.77,5.66,14.8,10.16a.53.53,0,0,0,0,.12,2.61,2.61,0,0,1,.74,1.31,2.83,2.83,0,0,1-.3,2.08,1.48,1.48,0,0,1-.56.71l-.13.12a1.88,1.88,0,0,1-.23.16,2.39,2.39,0,0,1-2.23,1.18,7.23,7.23,0,0,1-1.14,0,45,45,0,0,1-4.49-.34q-2.79-.3-5.57-.78A114.53,114.53,0,0,1,223.6,266c-7.76-2.24-15.34-5.13-22.89-8.06-7.81-3-15.6-6.12-23.57-8.63-6.68-2.11-13.45-4-20.41-2.09-1.41.39-.72,2.76.67,2.37,10-2.77,21.42,2.69,30.74,6.16,9.63,3.59,19.13,7.59,28.87,10.8,9.23,3,18.85,5.58,28.54,5.93,2.65.1,6-.19,7.23-3.37a5.74,5.74,0,0,0,.34-1.51c13.12.34,21.55-12.72,31.95-19.93a48.45,48.45,0,0,1,31.69-8.54,1.45,1.45,0,0,1,.63,0,11.37,11.37,0,0,0,1.84.19,1.71,1.71,0,0,1,1.34.74,1.77,1.77,0,0,1,.15,2.12,1.33,1.33,0,0,1-.32.53c-.24.24-.48.47-.72.67,0,.09,0,.18,0,.25s0,0,0,.08L317,245.86a1.27,1.27,0,0,0-.46.83c-7.4,5.95-14.8,12-21.34,19.11-5.89,6.41-11.22,12.88-17.77,18.16a11.2,11.2,0,0,1-2,.74,10.28,10.28,0,0,1-3.18,1.5l-.22.15c-9.51,4.08-19.1,8.06-29,10.51-9.62,2.37-19.43,3-29.22,3.34h0a.87.87,0,0,1-.24.1,4,4,0,0,1-2.64,0l-.1,0-1.52,0a1.92,1.92,0,0,1-.58.21l-1.51.3a1.25,1.25,0,0,0-.19.46c-9.06,1.53-18-3-26.16-7.28a112.59,112.59,0,0,0-29.26-11,101.6,101.6,0,0,0-30.68-1.73c-8.56.83-16.93,2.94-25.25,5.31a1.11,1.11,0,0,0-.3-.17l-.17.07h0l-.12,0a5.46,5.46,0,0,1-1.52.42c-.4.2-.79.4-1.19.58l-1.85.55c-.12.14-.26.27-.39.4l-1,.38a21.64,21.64,0,0,1-5.38.7c-3.49-1-6.86-4.11-9.42-6.27a54.68,54.68,0,0,1-9.41-10c-5-7.05-7.87-15.88-6.83-24.8a3.11,3.11,0,0,1-.11-1c0-.38.07-.75.11-1.12h0l0-.14c0-.22,0-.45.07-.67a4.58,4.58,0,0,1,0-1.73l.21-1a4.19,4.19,0,0,1,.14-.47s0,0,0,0C58.65,240.85,59,239.34,59.34,237.81Z"/><path class="cls-3" d="M265.2,209.57c-.62-2.5-4.48-1.44-3.85,1.06,2.6,10.51,3.75,29.14-8.58,34.24-2.35,1-1.32,4.84,1.06,3.85C268.59,242.62,268.45,222.65,265.2,209.57Z"/></svg>